<?xml version="1.0" encoding="utf-8"?>
<!-- Generator: Adobe Illustrator 25.2.0, SVG Export Plug-In . SVG Version: 6.00 Build 0)  -->
<svg version="1.1" id="Layer_1" xmlns="http://www.w3.org/2000/svg" xmlns:xlink="http://www.w3.org/1999/xlink" x="0px" y="0px"
	 viewBox="0 0 250 250" style="enable-background:new 0 0 250 250;" xml:space="preserve">
<style type="text/css">
	.st0{display:none;}
	.st1{display:inline;}
	.st2{clip-path:url(#SVGID_2_);fill:#722282;}
	.st3{clip-path:url(#SVGID_2_);fill:#FFB600;}
</style>
<g class="st0">
	<g class="st1">
		<path d="M39.18,150.23h0.95c1.91,0,2.93-0.73,2.93-3.01c0-1.69-1.1-2.79-2.79-2.79c-0.59,0-0.81,0.07-1.1,0.07V150.23z
			 M36.76,145.76c0-1.39-0.73-1.47-1.39-1.47h-0.29v-0.59c0.59,0,1.83,0.07,2.93,0.07c1.17,0,2.05-0.07,3.08-0.07
			c2.42,0,4.55,0.66,4.55,3.37c0,1.76-1.17,2.79-2.64,3.37l3.3,4.91c0.51,0.81,0.95,1.03,1.83,1.17v0.59
			c-0.66,0-1.25-0.07-1.91-0.07c-0.59,0-1.17,0.07-1.83,0.07c-1.47-1.91-2.71-4.03-3.96-6.23h-1.25V155c0,1.47,0.66,1.54,1.54,1.54
			h0.37v0.59c-1.1,0-2.2-0.07-3.3-0.07c-0.95,0-1.83,0.07-2.79,0.07v-0.59h0.37c0.73,0,1.39-0.29,1.39-1.03V145.76z"/>
		<path d="M52.23,156.54h0.29c0.66,0,1.39-0.07,1.39-1.1v-10.04c0-1.03-0.73-1.1-1.39-1.1h-0.29v-0.59c1.17,0,3.15,0.07,4.77,0.07
			c1.61,0,3.59-0.07,4.91-0.07c-0.07,0.81,0,2.05,0.07,2.93l-0.59,0.22c-0.07-1.25-0.29-2.27-2.35-2.27h-2.64v4.99h2.27
			c1.17,0,1.39-0.66,1.54-1.69h0.51c-0.07,0.73-0.07,1.47-0.07,2.27c0,0.73,0,1.47,0.07,2.2l-0.59,0.15
			c-0.15-1.17-0.15-1.91-1.47-1.91h-2.27v4.47c0,1.25,1.1,1.25,2.35,1.25c2.27,0,3.3-0.15,3.89-2.35l0.51,0.15
			c-0.22,1.03-0.51,2.05-0.66,3.08c-1.25,0-3.45-0.07-5.13-0.07s-4.03,0.07-5.06,0.07v-0.66H52.23z"/>
		<path d="M74.67,146.56c-0.15-1.25-0.95-2.42-2.27-2.42c-1.54,0-2.35,0.88-2.35,2.42c0,3.15,5.72,2.2,5.72,6.82
			c0,2.64-2.2,4.03-4.62,4.03c-1.1,0-2.13-0.37-3.08-0.88c-0.07-0.95-0.22-1.91-0.29-2.93l0.51-0.15c0.22,1.61,1.17,3.08,3.01,3.08
			c1.32,0,2.35-0.81,2.35-2.2c0-3.37-5.65-2.35-5.65-6.97c0-2.49,1.76-3.96,4.25-3.96c0.51,0,2.2,0.22,2.79,0.29
			c0,0.88,0.07,1.83,0.22,2.71L74.67,146.56z"/>
		<path d="M80.82,156.54h0.29c0.66,0,1.39-0.07,1.39-1.1v-10.04c0-1.03-0.73-1.1-1.39-1.1h-0.29v-0.59c1.17,0,3.15,0.07,4.77,0.07
			c1.61,0,3.59-0.07,4.91-0.07c-0.07,0.81,0,2.05,0.07,2.93l-0.59,0.15c-0.07-1.25-0.29-2.27-2.35-2.27h-2.71v4.99h2.27
			c1.17,0,1.39-0.66,1.54-1.69h0.59c-0.07,0.73-0.07,1.47-0.07,2.27c0,0.73,0,1.47,0.07,2.2l-0.59,0.15
			c-0.15-1.17-0.15-1.91-1.47-1.91h-2.35V155c0,1.25,1.1,1.25,2.35,1.25c2.27,0,3.3-0.15,3.89-2.35l0.51,0.15
			c-0.22,1.03-0.51,2.05-0.66,3.08c-1.25,0-3.45-0.07-5.13-0.07s-4.03,0.07-5.06,0.07L80.82,156.54z"/>
		<path d="M100.55,150.23h0.95c1.91,0,2.93-0.73,2.93-3.01c0-1.69-1.1-2.79-2.79-2.79c-0.59,0-0.81,0.07-1.1,0.07V150.23z
			 M98.13,145.76c0-1.39-0.73-1.47-1.39-1.47h-0.37v-0.59c0.59,0,1.83,0.07,2.93,0.07c1.17,0,2.05-0.07,3.08-0.07
			c2.42,0,4.55,0.66,4.55,3.37c0,1.76-1.17,2.79-2.64,3.37l3.3,4.91c0.51,0.81,0.95,1.03,1.83,1.17v0.59
			c-0.66,0-1.25-0.07-1.91-0.07c-0.59,0-1.17,0.07-1.83,0.07c-1.47-1.91-2.71-4.03-3.96-6.23h-1.25V155c0,1.47,0.66,1.54,1.54,1.54
			h0.37v0.59c-1.1,0-2.2-0.07-3.3-0.07c-0.95,0-1.83,0.07-2.79,0.07v-0.59h0.37c0.73,0,1.39-0.29,1.39-1.03v-9.75H98.13z"/>
		<path d="M117.34,144.37h-0.44c-0.73,0-1.03,0.29-1.03,0.51c0,0.07,0.07,0.37,0.15,0.59l3.3,8.51l0,0l3.08-7.99
			c0.22-0.59,0.22-0.95,0.22-1.1c0-0.59-0.59-0.66-1.25-0.66h-0.29v-0.59c0.66,0,1.39,0.07,2.2,0.07c0.59,0,1.17-0.07,1.76-0.07
			v0.59h-0.22c-0.37,0-0.73,0.07-1.03,0.66c-0.15,0.29-2.93,7.33-4.18,10.48c-0.22,0.66-0.59,1.25-0.81,1.91h-0.73l-4.69-11.88
			c-0.37-0.88-0.73-1.1-1.61-1.1h-0.22v-0.59c0.95,0,1.98,0.07,2.93,0.07c0.95,0,2.27-0.07,2.86-0.07L117.34,144.37z"/>
		<path d="M128.7,156.54H129c0.66,0,1.39-0.07,1.39-1.1v-10.04c0-1.03-0.73-1.1-1.39-1.1h-0.29v-0.59c1.17,0,3.15,0.07,4.77,0.07
			s3.59-0.07,4.91-0.07c-0.07,0.81,0,2.05,0.07,2.93l-0.59,0.15c-0.07-1.25-0.29-2.27-2.35-2.27h-2.64v4.99h2.27
			c1.17,0,1.39-0.66,1.54-1.69h0.59c-0.07,0.73-0.07,1.47-0.07,2.27c0,0.73,0,1.47,0.07,2.2l-0.59,0.15
			c-0.15-1.17-0.15-1.91-1.47-1.91h-2.27V155c0,1.25,1.1,1.25,2.35,1.25c2.27,0,3.3-0.15,3.89-2.35l0.51,0.15
			c-0.22,1.03-0.51,2.05-0.66,3.08c-1.25,0-3.45-0.07-5.13-0.07c-1.76,0-4.03,0.07-5.06,0.07v-0.59H128.7z"/>
		<path d="M156.42,154.78c0,1.32,0.22,1.61,1.76,1.61c1.61,0,2.86-1.32,2.86-3.01c0-2.13-1.39-3.08-3.3-3.08h-1.25v4.47H156.42z
			 M156.42,149.64h0.95c1.61,0,2.86-0.66,2.86-2.49c0-2.2-1.32-2.71-2.64-2.71h-1.17V149.64L156.42,149.64z M152.24,156.54h0.29
			c0.66,0,1.39-0.07,1.39-1.1v-10.04c0-1.03-0.73-1.1-1.39-1.1h-0.29v-0.59c0.88,0,1.91,0.07,3.01,0.07c1.1,0,2.2-0.07,3.08-0.07
			c3.23,0,4.4,1.32,4.4,3.01c0,1.98-1.83,2.79-3.52,3.08v0.07c2.05-0.07,4.25,1.1,4.25,3.45c0,2.05-2.05,3.81-4.55,3.81
			c-0.95,0-2.2-0.07-3.37-0.07c-1.17,0-2.57,0.07-3.37,0.07v-0.59H152.24z"/>
		<path d="M172.55,145.9L172.55,145.9l-1.83,5.43h3.59L172.55,145.9z M169.76,154.41c-0.22,0.66-0.44,1.17-0.44,1.47
			c0,0.59,0.81,0.66,1.47,0.66h0.22v0.59c-0.73-0.07-1.54-0.07-2.35-0.07c-0.66,0-1.39,0.07-2.05,0.07v-0.59h0.15
			c0.73,0,1.39-0.44,1.69-1.25l3.08-8.8c0.22-0.73,0.59-1.69,0.73-2.35c0.59-0.22,1.39-0.59,1.76-0.81c0.07,0,0.07-0.07,0.15-0.07
			s0.07,0,0.15,0.07c0.07,0.15,0.15,0.29,0.15,0.51l3.52,10.04c0.22,0.66,0.44,1.39,0.73,1.98c0.22,0.51,0.66,0.73,1.25,0.73h0.15
			v0.59c-0.88-0.07-1.76-0.07-2.64-0.07c-0.95,0-1.91,0.07-2.86,0.07v-0.59h0.22c0.44,0,1.17-0.07,1.17-0.59
			c0-0.22-0.15-0.73-0.37-1.39l-0.73-2.2h-4.33L169.76,154.41z"/>
		<path d="M195.57,153.38L195.57,153.38l0.07-7.19c0-1.54-1.1-1.83-1.69-1.83h-0.44v-0.59c0.88,0,1.76,0.07,2.71,0.07
			c0.81,0,1.54-0.07,2.35-0.07v0.59h-0.29c-0.81,0-1.69,0.15-1.69,2.42v8.73c0,0.66,0,1.32,0.15,1.91h-0.73l-9.9-11v7.92
			c0,1.69,0.29,2.27,1.83,2.27h0.29v0.59c-0.81,0-1.61-0.07-2.49-0.07s-1.76,0.07-2.64,0.07v-0.59h0.29c1.32,0,1.76-0.88,1.76-2.42
			v-8.07c0-1.1-0.88-1.76-1.76-1.76h-0.22v-0.59c0.73,0,1.47,0.07,2.2,0.07c0.59,0,1.1-0.07,1.69-0.07L195.57,153.38z"/>
		<path d="M209.65,143.78c0.81,0,1.61,0.07,2.42,0.07c0.88,0,1.69-0.07,2.57-0.07v0.59h-0.22c-1.25,0-2.27,0.88-3.08,1.69l-3.01,3.3
			l4.91,6.16c0.44,0.59,1.03,1.03,1.76,1.03v0.59c-0.66,0-1.32,0-1.98,0c-0.59,0-1.17,0-1.83,0c-0.15-0.37-0.73-1.1-1.03-1.47
			l-4.11-5.21l4.03-4.47c0.22-0.22,0.88-0.88,0.88-1.32c0-0.37-0.81-0.37-1.1-0.37h-0.22V143.78L209.65,143.78z M201.88,156.54h0.29
			c0.66,0,1.39-0.07,1.39-1.1v-10.04c0-1.03-0.73-1.1-1.39-1.1h-0.29v-0.59c0.73,0,1.91,0.07,2.86,0.07c1.03,0,2.27-0.07,3.08-0.07
			v0.59h-0.22c-0.59,0-1.54,0-1.54,1.1v10.04c0,1.1,1.03,1.1,1.54,1.1h0.22v0.59c-0.81,0-1.98-0.07-3.08-0.07
			c-0.95,0-2.13,0.07-2.86,0.07V156.54z"/>
	</g>
	<g class="st1">
		<path d="M64.62,176.8c2.89,0,3.4-2.55,3.4-4.71s-1.19-4.76-3.63-4.76c-2.61,0-3.35,2.32-3.35,4.31
			C61.05,174.25,62.24,176.8,64.62,176.8 M64.45,166.65c3.18,0,5.67,1.98,5.67,5.1c0,3.4-2.44,5.67-5.61,5.67
			c-3.12,0-5.56-2.15-5.56-5.33C58.95,169.03,61.33,166.65,64.45,166.65"/>
		<path d="M76.36,171.41h2.1c0.74,0,0.96-0.45,0.96-1.19h0.45c-0.06,0.51-0.06,1.08-0.06,1.59c0,0.62,0,1.19,0.06,1.81h-0.45
			c0-0.85-0.23-1.47-1.19-1.47h-1.81v3.8c0,0.85,0.68,0.85,1.42,0.85H78v0.45c-0.68,0-1.7-0.06-2.55-0.06
			c-0.79,0-1.7,0.06-2.27,0.06v-0.45h0.23c0.51,0,1.08-0.06,1.08-0.85v-7.83c0-0.79-0.57-0.85-1.08-0.85h-0.23v-0.45
			c0.91,0,2.44,0.06,3.69,0.06s2.78-0.06,3.8-0.06c-0.06,0.62,0,1.59,0.06,2.27l-0.45,0.11c-0.11-1.02-0.34-1.76-1.47-1.76h-2.38
			v3.97H76.36z"/>
		<path d="M94.56,168.52L94.56,168.52l-1.42,4.2h2.78L94.56,168.52z M92.41,175.1c-0.17,0.51-0.34,0.91-0.34,1.13
			c0,0.45,0.62,0.51,1.13,0.51h0.17v0.45c-0.57-0.06-1.19-0.06-1.81-0.06c-0.51,0-1.08,0.06-1.59,0.06v-0.45h0.11
			c0.57,0,1.08-0.34,1.3-0.96l2.38-6.8c0.17-0.57,0.45-1.3,0.57-1.81c0.45-0.17,1.08-0.45,1.36-0.62c0.06,0,0.06-0.06,0.11-0.06
			s0.06,0,0.11,0.06c0.06,0.11,0.11,0.23,0.11,0.4l2.72,7.77c0.17,0.51,0.34,1.08,0.57,1.53c0.17,0.4,0.51,0.57,0.96,0.57h0.11v0.45
			c-0.68-0.06-1.36-0.06-2.04-0.06c-0.74,0-1.47,0.06-2.21,0.06v-0.45h0.17c0.34,0,0.91-0.06,0.91-0.45c0-0.17-0.11-0.57-0.28-1.08
			l-0.57-1.7h-3.35L92.41,175.1z"/>
		<path d="M103.29,168.41c0-1.08-0.57-1.08-1.13-1.08h-0.17v-0.45c0.62,0,1.42,0.06,2.38,0.06c0.91,0,1.64-0.06,2.21-0.06v0.45
			h-0.23c-0.57,0-1.19,0-1.19,1.08v5.1c0,1.87,0.68,3.18,2.84,3.18c1.98,0,2.84-1.25,2.84-3.23v-5.05c0-1.08-0.57-1.08-1.08-1.08
			h-0.28v-0.45c0.57,0,1.19,0.06,1.81,0.06c0.57,0,1.13-0.06,1.7-0.06v0.45h-0.28c-0.4,0-0.96,0-0.96,1.08v4.71
			c0,3.35-1.76,4.31-3.97,4.31c-2.84,0-4.42-1.02-4.42-3.69v-5.33H103.29z"/>
		<path d="M120.93,169.03c-0.11-0.96-0.74-1.87-1.76-1.87c-1.19,0-1.81,0.68-1.81,1.87c0,2.44,4.42,1.7,4.42,5.27
			c0,2.04-1.7,3.12-3.57,3.12c-0.85,0-1.64-0.28-2.38-0.68c-0.06-0.74-0.17-1.47-0.23-2.27l0.4-0.11c0.17,1.25,0.91,2.38,2.32,2.38
			c1.02,0,1.81-0.62,1.81-1.7c0-2.61-4.37-1.81-4.37-5.39c0-1.93,1.36-3.06,3.29-3.06c0.4,0,1.7,0.17,2.15,0.23
			c0,0.68,0.06,1.42,0.17,2.1L120.93,169.03z"/>
		<path d="M126.66,167.61c-1.13,0-1.13,0.28-1.36,1.36h-0.45c0.06-0.4,0.11-0.85,0.17-1.25c0.06-0.4,0.11-0.85,0.11-1.25h0.34
			c0.11,0.45,0.51,0.45,0.91,0.45h7.66c0.4,0,0.79,0,0.79-0.45l0.34,0.06c-0.06,0.4-0.11,0.79-0.17,1.19
			c-0.06,0.4-0.06,0.79-0.06,1.19l-0.45,0.17c0-0.57-0.11-1.42-1.08-1.42h-2.44v7.83c0,1.13,0.51,1.25,1.25,1.25h0.28v0.45
			c-0.57,0-1.59-0.06-2.44-0.06c-0.91,0-1.93,0.06-2.5,0.06v-0.45h0.28c0.79,0,1.25-0.06,1.25-1.25v-7.94h-2.44V167.61z"/>
		<path d="M141.12,171.87h0.74c1.47,0,2.27-0.57,2.27-2.32c0-1.3-0.85-2.15-2.15-2.15c-0.45,0-0.62,0.06-0.85,0.06V171.87z
			 M139.19,168.41c0-1.08-0.57-1.13-1.08-1.13h-0.28v-0.45c0.45,0,1.42,0.06,2.32,0.06s1.59-0.06,2.38-0.06
			c1.87,0,3.52,0.51,3.52,2.61c0,1.36-0.91,2.15-2.04,2.61l2.55,3.8c0.4,0.62,0.74,0.79,1.42,0.91v0.45c-0.51,0-0.96-0.06-1.47-0.06
			c-0.45,0-0.91,0.06-1.42,0.06c-1.13-1.47-2.1-3.12-3.06-4.82h-0.96v3.18c0,1.13,0.51,1.19,1.19,1.19h0.28v0.45
			c-0.85,0-1.7-0.06-2.55-0.06c-0.74,0-1.42,0.06-2.15,0.06v-0.45h0.28c0.57,0,1.08-0.23,1.08-0.79L139.19,168.41L139.19,168.41z"/>
		<path d="M154.78,168.52L154.78,168.52l-1.42,4.2h2.78L154.78,168.52z M152.63,175.1c-0.17,0.51-0.34,0.91-0.34,1.13
			c0,0.45,0.62,0.51,1.13,0.51h0.17v0.45c-0.57-0.06-1.19-0.06-1.81-0.06c-0.51,0-1.08,0.06-1.59,0.06v-0.45h0.11
			c0.57,0,1.08-0.34,1.3-0.96l2.38-6.8c0.17-0.57,0.45-1.3,0.57-1.81c0.45-0.17,1.08-0.45,1.36-0.62c0.06,0,0.06-0.06,0.11-0.06
			c0.06,0,0.06,0,0.11,0.06c0.06,0.11,0.11,0.23,0.11,0.4l2.72,7.77c0.17,0.51,0.34,1.08,0.57,1.53c0.17,0.4,0.51,0.57,0.96,0.57
			h0.11v0.45c-0.68-0.06-1.36-0.06-2.04-0.06c-0.74,0-1.47,0.06-2.21,0.06v-0.45h0.17c0.34,0,0.91-0.06,0.91-0.45
			c0-0.17-0.11-0.57-0.28-1.08l-0.57-1.7h-3.35L152.63,175.1z"/>
		<path d="M166.07,175.72c0,0.57,0.4,0.79,0.91,0.85c0.62,0.06,1.25,0.06,1.93-0.06c0.62-0.06,1.13-0.45,1.42-0.79
			c0.23-0.34,0.4-0.74,0.45-1.08h0.45c-0.17,0.85-0.4,1.7-0.57,2.5c-1.3,0-2.61-0.06-3.91-0.06c-1.3,0-2.61,0.06-3.91,0.06v-0.45
			h0.23c0.51,0,1.13-0.06,1.13-0.96v-7.6c0-0.79-0.57-0.85-1.13-0.85h-0.23v-0.45c0.79,0,1.53,0.06,2.32,0.06
			c0.74,0,1.47-0.06,2.27-0.06v0.45h-0.4c-0.57,0-1.02,0-1.02,0.79v7.66H166.07z"/>
		<path d="M174.4,176.74h0.23c0.51,0,1.08-0.06,1.08-0.85v-7.77c0-0.79-0.57-0.85-1.08-0.85h-0.23v-0.45c0.57,0,1.47,0.06,2.21,0.06
			c0.74,0,1.64-0.06,2.32-0.06v0.45h-0.23c-0.51,0-1.08,0.06-1.08,0.85v7.77c0,0.79,0.57,0.85,1.08,0.85h0.23v0.45
			c-0.74,0-1.59-0.06-2.32-0.06s-1.59,0.06-2.15,0.06v-0.45H174.4z"/>
		<path d="M186.6,168.52L186.6,168.52l-1.42,4.2h2.78L186.6,168.52z M184.44,175.1c-0.17,0.51-0.34,0.91-0.34,1.13
			c0,0.45,0.62,0.51,1.13,0.51h0.17v0.45c-0.57-0.06-1.19-0.06-1.81-0.06c-0.51,0-1.08,0.06-1.59,0.06v-0.45h0.11
			c0.57,0,1.08-0.34,1.3-0.96l2.38-6.8c0.17-0.57,0.45-1.3,0.57-1.81c0.45-0.17,1.08-0.45,1.36-0.62c0.06,0,0.06-0.06,0.11-0.06
			s0.06,0,0.11,0.06c0.06,0.11,0.11,0.23,0.11,0.4l2.72,7.77c0.17,0.51,0.34,1.08,0.57,1.53c0.17,0.4,0.51,0.57,0.96,0.57h0.11v0.45
			c-0.68-0.06-1.36-0.06-2.04-0.06c-0.74,0-1.47,0.06-2.21,0.06v-0.45h0.17c0.34,0,0.91-0.06,0.91-0.45c0-0.17-0.11-0.57-0.28-1.08
			l-0.57-1.7h-3.35L184.44,175.1z"/>
	</g>
	<path class="st1" d="M144.41,72.58c-35.14,16.03-10.74,47.57,10.05,12.12l-10.43,40.2c-2.3-30.38-34.99-29.61-37.36-0.38
		L95.77,87.84c25.78,30.15,41.81,2.15,10.51-15.27H144.41z"/>
</g>
<g>
	<defs>
		<rect id="SVGID_1_" x="35" y="98.27" width="180" height="53.47"/>
	</defs>
	<clipPath id="SVGID_2_">
		<use xlink:href="#SVGID_1_"  style="overflow:visible;"/>
	</clipPath>
	<path class="st2" d="M190.13,137.45c-0.14,0.15-0.4,0.48-0.7,0.94l5.67,5.67c0.96,0.53,1.76,1.32,2.28,2.28l0.73,0.73l0.82-0.82
		L190.13,137.45z"/>
	
		<rect x="196.82" y="132.75" transform="matrix(0.708 -0.7062 0.7062 0.708 -40.5043 179.9917)" class="st2" width="1.16" height="12.46"/>
	<path class="st2" d="M188.84,139.43c-0.17,0.35-0.33,0.74-0.48,1.16l2.87,2.87c0.36-0.07,0.74-0.11,1.13-0.11
		c0.14,0,0.28,0.01,0.42,0.02L188.84,139.43z"/>
	<path class="st2" d="M198.32,129.24l-0.82,0.82l8.81,8.81l0.11-0.11c0.02-0.02,0.05-0.06,0.08-0.11h0c0,0,0.05-0.1,0.08-0.15
		c0.03-0.07,0.15-0.31,0.29-0.69L198.32,129.24z"/>
	
		<rect x="200.1" y="129.47" transform="matrix(0.7068 -0.7074 0.7074 0.7068 -37.1551 181.7434)" class="st2" width="1.16" height="12.46"/>
	<path class="st2" d="M207.36,133.36c-0.21-1.16-0.73-2.36-1.81-3.44c-0.02-0.02-3.95-3.97-3.95-3.97l-0.82,0.82L207.36,133.36z"/>
	<path class="st2" d="M188.02,141.9c-0.21,1.13-0.2,2.28,0.01,3.43c0.54-0.62,1.2-1.12,1.96-1.46L188.02,141.9z"/>
	<path class="st2" d="M199.96,127.6l-0.82,0.82l8.11,8.11c0.1-0.43,0.18-0.92,0.21-1.43L199.96,127.6z"/>
	
		<rect x="198.46" y="131.11" transform="matrix(0.7065 -0.7077 0.7077 0.7065 -38.7785 181.1555)" class="st2" width="1.16" height="12.46"/>
	<path class="st2" d="M195.02,100.93c0,1.47-1.19,2.66-2.66,2.66c-1.47,0-2.66-1.19-2.66-2.66c0-1.47,1.19-2.66,2.66-2.66
		C193.83,98.27,195.02,99.46,195.02,100.93"/>
	<path class="st3" d="M214.78,125.23c0.22-5.45-3.46-9.13-3.5-9.17l-10.07-10.07c-3.52,3.6-5.01,7.4-4.32,11
		c0.54,2.77,2.18,4.48,2.2,4.5l7.29,7.29c3.08,3.08,2.51,7.11,1.9,8.17C212.62,133.08,214.61,129.33,214.78,125.23"/>
	<path class="st2" d="M170.08,124.82c-0.22,5.45,3.46,9.13,3.5,9.17l10.07,10.07c3.52-3.6,5.01-7.4,4.32-11
		c-0.54-2.77-2.18-4.48-2.2-4.5l-7.29-7.29c-3.08-3.08-2.51-7.11-1.9-8.17C172.24,116.97,170.25,120.71,170.08,124.82"/>
	<path class="st3" d="M196.78,104.63c-1.05,1.21-2.6,1.98-4.32,1.98c-2.56,0-4.73-1.68-5.46-4.01l-8.61,8.61
		c-0.02,0.02-0.05,0.06-0.08,0.11c0,0-0.05,0.1-0.08,0.15c-0.16,0.32-2.45,5.08,1.03,8.56c0.02,0.02,3.95,3.97,3.95,3.97
		l11.37-11.37c0.02-0.02,1.66-1.73,2.2-4.5C197.01,106.98,197,105.81,196.78,104.63"/>
	<path class="st3" d="M195.03,149.07c0,1.47-1.19,2.66-2.66,2.66c-1.47,0-2.66-1.19-2.66-2.66c0-1.47,1.19-2.66,2.66-2.66
		C193.84,146.41,195.03,147.6,195.03,149.07"/>
	<rect x="132.44" y="115.24" class="st2" width="1.35" height="8.99"/>
	<path class="st2" d="M125.19,115.91c0,0.37-0.3,0.68-0.67,0.68c-0.38,0-0.68-0.3-0.68-0.68c0-0.37,0.3-0.67,0.68-0.67
		C124.89,115.24,125.19,115.54,125.19,115.91"/>
	<path class="st2" d="M107.51,126.26c0,0.37-0.3,0.68-0.67,0.68c-0.37,0-0.68-0.3-0.68-0.68c0-0.37,0.3-0.68,0.68-0.68
		C107.21,125.58,107.51,125.89,107.51,126.26"/>
	<path class="st2" d="M105.43,126.26c0,0.37-0.3,0.68-0.67,0.68c-0.37,0-0.67-0.3-0.67-0.68c0-0.37,0.3-0.68,0.67-0.68
		C105.13,125.58,105.43,125.89,105.43,126.26"/>
	<path class="st2" d="M97.62,115.91c0,0.37-0.3,0.68-0.67,0.68c-0.37,0-0.68-0.3-0.68-0.68c0-0.37,0.31-0.67,0.68-0.67
		C97.32,115.24,97.62,115.54,97.62,115.91"/>
	<path class="st2" d="M95.55,115.91c0,0.37-0.3,0.68-0.67,0.68c-0.38,0-0.68-0.3-0.68-0.68c0-0.37,0.3-0.67,0.68-0.67
		C95.25,115.24,95.55,115.54,95.55,115.91"/>
	<path class="st2" d="M127.27,115.91c0,0.37-0.3,0.68-0.67,0.68c-0.37,0-0.67-0.3-0.67-0.68c0-0.37,0.3-0.67,0.67-0.67
		C126.97,115.24,127.27,115.54,127.27,115.91"/>
	<path class="st2" d="M120.62,115.24c-0.37,0-0.67,0.3-0.67,0.67c0,0.37,0.3,0.68,0.67,0.68c0.38,0,0.68-0.3,0.68-0.68
		C121.29,115.54,120.99,115.24,120.62,115.24"/>
	<path class="st2" d="M129.83,115.24v5.85c0,0.99-0.81,1.79-1.79,1.79c-0.99,0-1.8-0.8-1.8-1.79v-3.15h-1.35v3.15
		c0,0.99-0.8,1.79-1.8,1.79c-0.99,0-1.79-0.8-1.79-1.79v-3.15h-1.35v3.15c0,0.99-0.81,1.79-1.8,1.79c-0.99,0-1.79-0.8-1.79-1.79
		c0-1.74-1.41-3.15-3.15-3.15c-1.74,0-3.15,1.41-3.15,3.15v0c0,0.99-0.81,1.79-1.79,1.79c-0.99,0-1.79-0.8-1.79-1.79v-3.15h-1.35
		v3.15c0,0.99-0.81,1.79-1.8,1.79c-0.99,0-1.79-0.8-1.79-1.79v-4.5h-1.36v1.35h-6.73c-1.74,0-3.15,1.41-3.15,3.15
		c0,1.74,1.41,3.14,3.15,3.14l4.94,0c1,0,1.89-0.47,2.47-1.2c0.57,0.73,1.47,1.2,2.47,1.2s1.9-0.47,2.47-1.2
		c0.58,0.73,1.47,1.2,2.47,1.2c1,0,1.89-0.47,2.47-1.2c0.58,0.73,1.47,1.2,2.47,1.2c1,0,1.89-0.47,2.47-1.2
		c0.58,0.73,1.47,1.2,2.47,1.2c1.01,0,1.9-0.47,2.47-1.2c0.58,0.73,1.47,1.2,2.47,1.2c1,0,1.89-0.47,2.47-1.2
		c0.58,0.73,1.47,1.2,2.47,1.2c1.73,0,3.14-1.41,3.14-3.14v-5.85H129.83z M113.2,122.88c-0.99,0-1.79-0.8-1.79-1.79v0
		c0-0.99,0.81-1.8,1.79-1.8c0.99,0,1.79,0.8,1.79,1.8C115,122.08,114.2,122.88,113.2,122.88 M100.17,121.09
		c0,0.99-0.8,1.79-1.79,1.79h-4.94c-0.99,0-1.8-0.8-1.8-1.79c0-0.99,0.8-1.8,1.8-1.8h6.73V121.09z"/>
	<path class="st2" d="M145.67,116.59c-0.89,0-1.62,0.73-1.62,1.63c0,0.18,0.04,0.35,0.09,0.51h-1.02v1.11h3.73v-1.11h-1.18
		c-0.29,0-0.51-0.23-0.51-0.51c0-0.29,0.23-0.52,0.51-0.52h1.18v-1.11H145.67z"/>
	<path class="st2" d="M160.26,126.26c0,0.37-0.3,0.68-0.68,0.68c-0.37,0-0.67-0.3-0.67-0.68c0-0.37,0.31-0.68,0.67-0.68
		C159.96,125.58,160.26,125.89,160.26,126.26"/>
	<path class="st2" d="M157.79,115.91c0,0.37-0.3,0.68-0.67,0.68c-0.38,0-0.68-0.3-0.68-0.68c0-0.37,0.3-0.67,0.68-0.67
		C157.49,115.24,157.79,115.54,157.79,115.91"/>
	<path class="st2" d="M161.38,117.94v3.15c0,0.99-0.81,1.79-1.8,1.79c-0.99,0-1.8-0.8-1.8-1.79v-3.15h-1.35v3.15
		c0,0.99-0.8,1.79-1.79,1.79c-0.99,0-1.8-0.8-1.8-1.79v-5.85h-1.35v5.85c0,0.99-0.81,1.79-1.79,1.79h-9.88c-0.99,0-1.8-0.8-1.8-1.79
		h-1.35c0,1.74,1.41,3.14,3.14,3.14h9.88c1,0,1.89-0.47,2.47-1.2c0.57,0.73,1.47,1.2,2.47,1.2c1,0,1.89-0.47,2.47-1.2
		c0.58,0.73,1.47,1.2,2.47,1.2c1.73,0,3.14-1.41,3.14-3.14v-3.15H161.38z"/>
	<path class="st2" d="M52.21,126.26c0,0.37-0.3,0.68-0.68,0.68c-0.37,0-0.67-0.3-0.67-0.68c0-0.37,0.3-0.68,0.67-0.68
		C51.91,125.58,52.21,125.89,52.21,126.26"/>
	<path class="st2" d="M50.13,126.26c0,0.37-0.3,0.68-0.67,0.68c-0.37,0-0.67-0.3-0.67-0.68c0-0.37,0.3-0.68,0.67-0.68
		C49.83,125.58,50.13,125.89,50.13,126.26"/>
	<path class="st2" d="M42.33,115.91c0,0.37-0.3,0.68-0.68,0.68c-0.37,0-0.68-0.3-0.68-0.68c0-0.37,0.3-0.67,0.68-0.67
		C42.03,115.24,42.33,115.54,42.33,115.91"/>
	<path class="st2" d="M40.25,115.91c0,0.37-0.3,0.68-0.67,0.68c-0.37,0-0.68-0.3-0.68-0.68c0-0.37,0.3-0.67,0.68-0.67
		C39.95,115.24,40.25,115.54,40.25,115.91"/>
	<rect x="86.06" y="115.24" class="st2" width="1.35" height="8.99"/>
	<path class="st2" d="M78.5,121.09c0-0.99-0.81-1.79-1.8-1.79c-0.99,0-1.8,0.8-1.8,1.79c0,0.99,0.8,1.79,1.8,1.79
		C77.69,122.88,78.5,122.08,78.5,121.09 M44.88,119.29h-6.74c-0.99,0-1.8,0.8-1.8,1.79c0,0.99,0.81,1.79,1.8,1.79h4.94
		c0.99,0,1.79-0.8,1.79-1.79V119.29z M84.79,115.24v5.85c0,1.74-1.41,3.14-3.15,3.14c-1,0-1.89-0.47-2.47-1.2
		c-0.57,0.73-1.47,1.2-2.47,1.2c-1.01,0-1.9-0.47-2.47-1.2c-0.58,0.73-1.47,1.2-2.47,1.2c-1,0-1.89-0.47-2.47-1.2
		c-0.58,0.73-1.47,1.2-2.47,1.2h-8.91c-1,0-1.89-0.47-2.47-1.2c-0.58,0.73-1.47,1.2-2.47,1.2c-1,0-1.9-0.47-2.47-1.2
		c-0.58,0.73-1.47,1.2-2.47,1.2c-1,0-1.89-0.47-2.47-1.2c-0.58,0.73-1.47,1.2-2.47,1.2h-4.94c-1.74,0-3.15-1.41-3.15-3.14
		c0-1.74,1.41-3.15,3.15-3.15h6.74v-1.35h1.35v4.5c0,0.99,0.81,1.79,1.79,1.79c0.99,0,1.8-0.8,1.8-1.79v-3.15h1.35v3.15
		c0,0.99,0.8,1.79,1.79,1.79c0.99,0,1.8-0.8,1.8-1.79v-5.85h1.35v5.85c0,0.99,0.81,1.79,1.79,1.79h8.91c0.99,0,1.79-0.8,1.79-1.79
		c0-0.99-0.8-1.79-1.79-1.79h-8v-1.35h8c1.73,0,3.15,1.41,3.15,3.15h0c0,0.99,0.8,1.79,1.79,1.79c0.99,0,1.79-0.8,1.79-1.79
		c0-1.74,1.41-3.15,3.15-3.15c1.73,0,3.14,1.41,3.14,3.15c0,0.99,0.8,1.79,1.8,1.79c0.99,0,1.79-0.8,1.79-1.79v-5.85H84.79z"/>
	<path class="st2" d="M36.1,133.68h0.98c0.34,0,0.73-0.15,0.73-0.6c0-0.48-0.53-0.56-0.88-0.56H36.1V133.68z M36.1,131.58h0.79
		c0.34,0,0.69-0.14,0.69-0.56c0-0.42-0.39-0.53-0.74-0.53H36.1V131.58z M35,129.54h1.85c0.87,0,1.82,0.19,1.82,1.29
		c0,0.57-0.34,0.96-0.86,1.12v0.01c0.65,0.09,1.09,0.58,1.09,1.25c0,1.06-0.98,1.42-1.87,1.42H35V129.54z"/>
	<path class="st2" d="M41.43,131.02l-0.61,1.58h1.22L41.43,131.02z M41.01,129.54h0.91l2.16,5.09h-1.23l-0.43-1.08h-1.93l-0.41,1.08
		h-1.21L41.01,129.54z"/>
	<polygon class="st2" points="44.4,129.54 45.89,129.54 48,133.08 48.02,133.08 48.02,129.54 49.11,129.54 49.11,134.63 
		47.68,134.63 45.51,131.01 45.5,131.01 45.5,134.63 44.4,134.63 	"/>
	<path class="st2" d="M52.33,133.6c0.84,0,1.52-0.7,1.52-1.58c0-0.88-0.68-1.58-1.52-1.58c-0.84,0-1.52,0.7-1.52,1.58
		C50.82,132.9,51.5,133.6,52.33,133.6 M55.39,134.63h-3.01c-1.55,0-2.7-0.97-2.7-2.61c0-1.54,1.18-2.61,2.65-2.61
		c1.47,0,2.65,1.08,2.65,2.61c0,0.72-0.31,1.42-0.99,1.73v0.01h1.39V134.63z"/>
	<path class="st2" d="M59.94,132.67c0,1.2-0.72,2.09-2.09,2.09c-1.38,0-2.1-0.89-2.1-2.09v-3.13h1.1v3.08c0,0.63,0.42,1.1,1,1.1
		c0.57,0,1-0.48,1-1.1v-3.08h1.1V132.67z"/>
	<polygon class="st2" points="60.82,129.54 64.2,129.54 64.2,130.58 61.92,130.58 61.92,131.53 64.07,131.53 64.07,132.56 
		61.92,132.56 61.92,133.6 64.32,133.6 64.32,134.63 60.82,134.63 	"/>
	<path class="st2" d="M68.02,133.6h0.57c1.02,0,1.78-0.4,1.78-1.55c0-1-0.78-1.47-1.71-1.47h-0.65V133.6z M66.93,129.54h1.64
		c1.6,0,2.94,0.7,2.94,2.56c0,1.65-1.31,2.53-2.79,2.53h-1.79V129.54z"/>
	<polygon class="st2" points="72.12,129.54 75.5,129.54 75.5,130.58 73.22,130.58 73.22,131.53 75.37,131.53 75.37,132.56 
		73.22,132.56 73.22,133.6 75.63,133.6 75.63,134.63 72.12,134.63 	"/>
	<path class="st2" d="M79.33,133.6h0.57c1.02,0,1.78-0.4,1.78-1.55c0-1-0.78-1.47-1.71-1.47h-0.65V133.6z M78.23,129.54h1.64
		c1.6,0,2.94,0.7,2.94,2.56c0,1.65-1.31,2.53-2.79,2.53h-1.79V129.54z"/>
	<polygon class="st2" points="83.43,129.54 86.8,129.54 86.8,130.58 84.52,130.58 84.52,131.53 86.68,131.53 86.68,132.56 
		84.52,132.56 84.52,133.6 86.93,133.6 86.93,134.63 83.43,134.63 	"/>
	<polygon class="st2" points="87.14,129.54 88.39,129.54 89.62,132.88 89.63,132.88 90.88,129.54 92.05,129.54 90,134.63 
		89.13,134.63 	"/>
	<polygon class="st2" points="92.44,129.54 95.81,129.54 95.81,130.58 93.53,130.58 93.53,131.53 95.69,131.53 95.69,132.56 
		93.53,132.56 93.53,133.6 95.94,133.6 95.94,134.63 92.44,134.63 	"/>
	<polygon class="st2" points="96.69,129.54 97.78,129.54 97.78,133.6 99.81,133.6 99.81,134.63 96.69,134.63 	"/>
	<path class="st2" d="M102.65,133.73c0.93,0,1.54-0.69,1.54-1.64c0-0.95-0.61-1.64-1.54-1.64c-0.93,0-1.54,0.69-1.54,1.64
		C101.11,133.04,101.72,133.73,102.65,133.73 M102.65,129.41c1.55,0,2.68,1.04,2.68,2.68c0,1.63-1.13,2.68-2.68,2.68
		c-1.55,0-2.68-1.04-2.68-2.68C99.97,130.45,101.1,129.41,102.65,129.41"/>
	<path class="st2" d="M107,131.7h0.73c0.39,0,0.77-0.14,0.77-0.61c0-0.52-0.52-0.6-0.94-0.6H107V131.7z M105.9,129.54h1.85
		c1.03,0,1.89,0.34,1.89,1.55c0,1.19-0.79,1.56-1.84,1.56H107v1.98h-1.1V129.54z"/>
	<path class="st2" d="M111.24,131.7h0.73c0.39,0,0.77-0.14,0.77-0.61c0-0.52-0.52-0.6-0.94-0.6h-0.56V131.7z M110.15,129.54H112
		c1.03,0,1.89,0.34,1.89,1.55c0,1.19-0.79,1.56-1.84,1.56h-0.8v1.98h-1.09V129.54z"/>
	<polygon class="st2" points="114.44,129.54 117.82,129.54 117.82,130.58 115.53,130.58 115.53,131.53 117.69,131.53 117.69,132.56 
		115.53,132.56 115.53,133.6 117.94,133.6 117.94,134.63 114.44,134.63 	"/>
	<polygon class="st2" points="118.64,129.54 120.3,129.54 121.45,132.86 121.46,132.86 122.61,129.54 124.26,129.54 124.26,134.63 
		123.16,134.63 123.16,130.73 123.15,130.73 121.85,134.63 121.01,134.63 119.75,130.73 119.74,130.73 119.74,134.63 118.64,134.63 
			"/>
	<polygon class="st2" points="125.14,129.54 128.51,129.54 128.51,130.58 126.23,130.58 126.23,131.53 128.39,131.53 128.39,132.56 
		126.23,132.56 126.23,133.6 128.64,133.6 128.64,134.63 125.14,134.63 	"/>
	<polygon class="st2" points="129.34,129.54 130.83,129.54 132.94,133.08 132.96,133.08 132.96,129.54 134.05,129.54 134.05,134.63 
		132.62,134.63 130.45,131.01 130.44,131.01 130.44,134.63 129.34,134.63 	"/>
	<polygon class="st2" points="135.85,130.53 134.43,130.53 134.43,129.54 138.36,129.54 138.36,130.53 136.95,130.53 136.95,134.63 
		135.85,134.63 	"/>
	<polygon class="st2" points="140.69,129.54 141.78,129.54 141.78,133.6 143.81,133.6 143.81,134.63 140.69,134.63 	"/>
	<path class="st2" d="M146.65,133.73c0.93,0,1.54-0.69,1.54-1.64c0-0.95-0.61-1.64-1.54-1.64c-0.93,0-1.54,0.69-1.54,1.64
		C145.11,133.04,145.72,133.73,146.65,133.73 M146.65,129.41c1.55,0,2.68,1.04,2.68,2.68c0,1.63-1.13,2.68-2.68,2.68
		c-1.55,0-2.68-1.04-2.68-2.68C143.97,130.45,145.1,129.41,146.65,129.41"/>
	<path class="st2" d="M153.15,130.86c-0.22-0.27-0.53-0.42-0.94-0.42c-0.83,0-1.44,0.69-1.44,1.64c0,0.95,0.61,1.64,1.4,1.64
		c0.44,0,0.8-0.2,1.03-0.55l0.91,0.7c-0.41,0.6-1.12,0.89-1.8,0.89c-1.55,0-2.68-1.04-2.68-2.68c0-1.63,1.13-2.68,2.68-2.68
		c0.56,0,1.26,0.19,1.68,0.75L153.15,130.86z"/>
	<path class="st2" d="M156.59,131.02l-0.6,1.58h1.21L156.59,131.02z M156.17,129.54h0.91l2.16,5.09h-1.24l-0.43-1.08h-1.93
		l-0.42,1.08h-1.21L156.17,129.54z"/>
	<polygon class="st2" points="159.61,129.54 160.7,129.54 160.7,133.6 162.73,133.6 162.73,134.63 159.61,134.63 	"/>
</g>
</svg>
