<?xml version="1.0" encoding="UTF-8" standalone="no"?>
<!-- Generator: Adobe Illustrator 25.2.0, SVG Export Plug-In . SVG Version: 6.00 Build 0)  -->

<svg
   version="1.1"
   id="Layer_1"
   x="0px"
   y="0px"
   viewBox="0 0 179.78949 53.459999"
   xml:space="preserve"
   width="179.78949"
   height="53.459999"
   xmlns:xlink="http://www.w3.org/1999/xlink"
   xmlns="http://www.w3.org/2000/svg"
   xmlns:svg="http://www.w3.org/2000/svg"><defs
   id="defs443" />
<style
   type="text/css"
   id="style260">
	.st0{display:none;}
	.st1{display:inline;}
	.st2{clip-path:url(#SVGID_2_);fill:#722282;}
	.st3{clip-path:url(#SVGID_2_);fill:#FFB600;}
</style>
<g
   class="st0"
   id="g312"
   transform="translate(-35,-98.27)">
	<g
   class="st1"
   id="g284">
		<path
   d="m 39.18,150.23 h 0.95 c 1.91,0 2.93,-0.73 2.93,-3.01 0,-1.69 -1.1,-2.79 -2.79,-2.79 -0.59,0 -0.81,0.07 -1.1,0.07 v 5.73 z m -2.42,-4.47 c 0,-1.39 -0.73,-1.47 -1.39,-1.47 h -0.29 v -0.59 c 0.59,0 1.83,0.07 2.93,0.07 1.17,0 2.05,-0.07 3.08,-0.07 2.42,0 4.55,0.66 4.55,3.37 0,1.76 -1.17,2.79 -2.64,3.37 l 3.3,4.91 c 0.51,0.81 0.95,1.03 1.83,1.17 v 0.59 c -0.66,0 -1.25,-0.07 -1.91,-0.07 -0.59,0 -1.17,0.07 -1.83,0.07 -1.47,-1.91 -2.71,-4.03 -3.96,-6.23 H 39.18 V 155 c 0,1.47 0.66,1.54 1.54,1.54 h 0.37 v 0.59 c -1.1,0 -2.2,-0.07 -3.3,-0.07 -0.95,0 -1.83,0.07 -2.79,0.07 v -0.59 h 0.37 c 0.73,0 1.39,-0.29 1.39,-1.03 z"
   id="path262" />
		<path
   d="m 52.23,156.54 h 0.29 c 0.66,0 1.39,-0.07 1.39,-1.1 V 145.4 c 0,-1.03 -0.73,-1.1 -1.39,-1.1 h -0.29 v -0.59 c 1.17,0 3.15,0.07 4.77,0.07 1.61,0 3.59,-0.07 4.91,-0.07 -0.07,0.81 0,2.05 0.07,2.93 l -0.59,0.22 c -0.07,-1.25 -0.29,-2.27 -2.35,-2.27 H 56.4 v 4.99 h 2.27 c 1.17,0 1.39,-0.66 1.54,-1.69 h 0.51 c -0.07,0.73 -0.07,1.47 -0.07,2.27 0,0.73 0,1.47 0.07,2.2 l -0.59,0.15 c -0.15,-1.17 -0.15,-1.91 -1.47,-1.91 h -2.27 v 4.47 c 0,1.25 1.1,1.25 2.35,1.25 2.27,0 3.3,-0.15 3.89,-2.35 l 0.51,0.15 c -0.22,1.03 -0.51,2.05 -0.66,3.08 -1.25,0 -3.45,-0.07 -5.13,-0.07 -1.68,0 -4.03,0.07 -5.06,0.07 v -0.66 z"
   id="path264" />
		<path
   d="m 74.67,146.56 c -0.15,-1.25 -0.95,-2.42 -2.27,-2.42 -1.54,0 -2.35,0.88 -2.35,2.42 0,3.15 5.72,2.2 5.72,6.82 0,2.64 -2.2,4.03 -4.62,4.03 -1.1,0 -2.13,-0.37 -3.08,-0.88 -0.07,-0.95 -0.22,-1.91 -0.29,-2.93 l 0.51,-0.15 c 0.22,1.61 1.17,3.08 3.01,3.08 1.32,0 2.35,-0.81 2.35,-2.2 0,-3.37 -5.65,-2.35 -5.65,-6.97 0,-2.49 1.76,-3.96 4.25,-3.96 0.51,0 2.2,0.22 2.79,0.29 0,0.88 0.07,1.83 0.22,2.71 z"
   id="path266" />
		<path
   d="m 80.82,156.54 h 0.29 c 0.66,0 1.39,-0.07 1.39,-1.1 V 145.4 c 0,-1.03 -0.73,-1.1 -1.39,-1.1 h -0.29 v -0.59 c 1.17,0 3.15,0.07 4.77,0.07 1.61,0 3.59,-0.07 4.91,-0.07 -0.07,0.81 0,2.05 0.07,2.93 l -0.59,0.15 c -0.07,-1.25 -0.29,-2.27 -2.35,-2.27 h -2.71 v 4.99 h 2.27 c 1.17,0 1.39,-0.66 1.54,-1.69 h 0.59 c -0.07,0.73 -0.07,1.47 -0.07,2.27 0,0.73 0,1.47 0.07,2.2 l -0.59,0.15 c -0.15,-1.17 -0.15,-1.91 -1.47,-1.91 H 84.91 V 155 c 0,1.25 1.1,1.25 2.35,1.25 2.27,0 3.3,-0.15 3.89,-2.35 l 0.51,0.15 c -0.22,1.03 -0.51,2.05 -0.66,3.08 -1.25,0 -3.45,-0.07 -5.13,-0.07 -1.68,0 -4.03,0.07 -5.06,0.07 z"
   id="path268" />
		<path
   d="m 100.55,150.23 h 0.95 c 1.91,0 2.93,-0.73 2.93,-3.01 0,-1.69 -1.1,-2.79 -2.79,-2.79 -0.59,0 -0.81,0.07 -1.1,0.07 v 5.73 z m -2.42,-4.47 c 0,-1.39 -0.73,-1.47 -1.39,-1.47 h -0.37 v -0.59 c 0.59,0 1.83,0.07 2.93,0.07 1.17,0 2.05,-0.07 3.08,-0.07 2.42,0 4.55,0.66 4.55,3.37 0,1.76 -1.17,2.79 -2.64,3.37 l 3.3,4.91 c 0.51,0.81 0.95,1.03 1.83,1.17 v 0.59 c -0.66,0 -1.25,-0.07 -1.91,-0.07 -0.59,0 -1.17,0.07 -1.83,0.07 -1.47,-1.91 -2.71,-4.03 -3.96,-6.23 h -1.25 V 155 c 0,1.47 0.66,1.54 1.54,1.54 h 0.37 v 0.59 c -1.1,0 -2.2,-0.07 -3.3,-0.07 -0.95,0 -1.83,0.07 -2.79,0.07 v -0.59 h 0.37 c 0.73,0 1.39,-0.29 1.39,-1.03 v -9.75 z"
   id="path270" />
		<path
   d="m 117.34,144.37 h -0.44 c -0.73,0 -1.03,0.29 -1.03,0.51 0,0.07 0.07,0.37 0.15,0.59 l 3.3,8.51 v 0 l 3.08,-7.99 c 0.22,-0.59 0.22,-0.95 0.22,-1.1 0,-0.59 -0.59,-0.66 -1.25,-0.66 h -0.29 v -0.59 c 0.66,0 1.39,0.07 2.2,0.07 0.59,0 1.17,-0.07 1.76,-0.07 v 0.59 h -0.22 c -0.37,0 -0.73,0.07 -1.03,0.66 -0.15,0.29 -2.93,7.33 -4.18,10.48 -0.22,0.66 -0.59,1.25 -0.81,1.91 h -0.73 l -4.69,-11.88 c -0.37,-0.88 -0.73,-1.1 -1.61,-1.1 h -0.22 v -0.59 c 0.95,0 1.98,0.07 2.93,0.07 0.95,0 2.27,-0.07 2.86,-0.07 z"
   id="path272" />
		<path
   d="m 128.7,156.54 h 0.3 c 0.66,0 1.39,-0.07 1.39,-1.1 V 145.4 c 0,-1.03 -0.73,-1.1 -1.39,-1.1 h -0.29 v -0.59 c 1.17,0 3.15,0.07 4.77,0.07 1.62,0 3.59,-0.07 4.91,-0.07 -0.07,0.81 0,2.05 0.07,2.93 l -0.59,0.15 c -0.07,-1.25 -0.29,-2.27 -2.35,-2.27 h -2.64 v 4.99 h 2.27 c 1.17,0 1.39,-0.66 1.54,-1.69 h 0.59 c -0.07,0.73 -0.07,1.47 -0.07,2.27 0,0.73 0,1.47 0.07,2.2 l -0.59,0.15 c -0.15,-1.17 -0.15,-1.91 -1.47,-1.91 h -2.27 V 155 c 0,1.25 1.1,1.25 2.35,1.25 2.27,0 3.3,-0.15 3.89,-2.35 l 0.51,0.15 c -0.22,1.03 -0.51,2.05 -0.66,3.08 -1.25,0 -3.45,-0.07 -5.13,-0.07 -1.76,0 -4.03,0.07 -5.06,0.07 v -0.59 z"
   id="path274" />
		<path
   d="m 156.42,154.78 c 0,1.32 0.22,1.61 1.76,1.61 1.61,0 2.86,-1.32 2.86,-3.01 0,-2.13 -1.39,-3.08 -3.3,-3.08 h -1.25 v 4.47 h -0.07 z m 0,-5.14 h 0.95 c 1.61,0 2.86,-0.66 2.86,-2.49 0,-2.2 -1.32,-2.71 -2.64,-2.71 h -1.17 z m -4.18,6.9 h 0.29 c 0.66,0 1.39,-0.07 1.39,-1.1 V 145.4 c 0,-1.03 -0.73,-1.1 -1.39,-1.1 h -0.29 v -0.59 c 0.88,0 1.91,0.07 3.01,0.07 1.1,0 2.2,-0.07 3.08,-0.07 3.23,0 4.4,1.32 4.4,3.01 0,1.98 -1.83,2.79 -3.52,3.08 v 0.07 c 2.05,-0.07 4.25,1.1 4.25,3.45 0,2.05 -2.05,3.81 -4.55,3.81 -0.95,0 -2.2,-0.07 -3.37,-0.07 -1.17,0 -2.57,0.07 -3.37,0.07 v -0.59 z"
   id="path276" />
		<path
   d="m 172.55,145.9 v 0 l -1.83,5.43 h 3.59 z m -2.79,8.51 c -0.22,0.66 -0.44,1.17 -0.44,1.47 0,0.59 0.81,0.66 1.47,0.66 h 0.22 v 0.59 c -0.73,-0.07 -1.54,-0.07 -2.35,-0.07 -0.66,0 -1.39,0.07 -2.05,0.07 v -0.59 h 0.15 c 0.73,0 1.39,-0.44 1.69,-1.25 l 3.08,-8.8 c 0.22,-0.73 0.59,-1.69 0.73,-2.35 0.59,-0.22 1.39,-0.59 1.76,-0.81 0.07,0 0.07,-0.07 0.15,-0.07 0.08,0 0.07,0 0.15,0.07 0.07,0.15 0.15,0.29 0.15,0.51 l 3.52,10.04 c 0.22,0.66 0.44,1.39 0.73,1.98 0.22,0.51 0.66,0.73 1.25,0.73 h 0.15 v 0.59 c -0.88,-0.07 -1.76,-0.07 -2.64,-0.07 -0.95,0 -1.91,0.07 -2.86,0.07 v -0.59 h 0.22 c 0.44,0 1.17,-0.07 1.17,-0.59 0,-0.22 -0.15,-0.73 -0.37,-1.39 l -0.73,-2.2 h -4.33 z"
   id="path278" />
		<path
   d="m 195.57,153.38 v 0 l 0.07,-7.19 c 0,-1.54 -1.1,-1.83 -1.69,-1.83 h -0.44 v -0.59 c 0.88,0 1.76,0.07 2.71,0.07 0.81,0 1.54,-0.07 2.35,-0.07 v 0.59 h -0.29 c -0.81,0 -1.69,0.15 -1.69,2.42 v 8.73 c 0,0.66 0,1.32 0.15,1.91 h -0.73 l -9.9,-11 v 7.92 c 0,1.69 0.29,2.27 1.83,2.27 h 0.29 v 0.59 c -0.81,0 -1.61,-0.07 -2.49,-0.07 -0.88,0 -1.76,0.07 -2.64,0.07 v -0.59 h 0.29 c 1.32,0 1.76,-0.88 1.76,-2.42 v -8.07 c 0,-1.1 -0.88,-1.76 -1.76,-1.76 h -0.22 v -0.59 c 0.73,0 1.47,0.07 2.2,0.07 0.59,0 1.1,-0.07 1.69,-0.07 z"
   id="path280" />
		<path
   d="m 209.65,143.78 c 0.81,0 1.61,0.07 2.42,0.07 0.88,0 1.69,-0.07 2.57,-0.07 v 0.59 h -0.22 c -1.25,0 -2.27,0.88 -3.08,1.69 l -3.01,3.3 4.91,6.16 c 0.44,0.59 1.03,1.03 1.76,1.03 v 0.59 c -0.66,0 -1.32,0 -1.98,0 -0.59,0 -1.17,0 -1.83,0 -0.15,-0.37 -0.73,-1.1 -1.03,-1.47 l -4.11,-5.21 4.03,-4.47 c 0.22,-0.22 0.88,-0.88 0.88,-1.32 0,-0.37 -0.81,-0.37 -1.1,-0.37 h -0.22 v -0.52 z m -7.77,12.76 h 0.29 c 0.66,0 1.39,-0.07 1.39,-1.1 V 145.4 c 0,-1.03 -0.73,-1.1 -1.39,-1.1 h -0.29 v -0.59 c 0.73,0 1.91,0.07 2.86,0.07 1.03,0 2.27,-0.07 3.08,-0.07 v 0.59 h -0.22 c -0.59,0 -1.54,0 -1.54,1.1 v 10.04 c 0,1.1 1.03,1.1 1.54,1.1 h 0.22 v 0.59 c -0.81,0 -1.98,-0.07 -3.08,-0.07 -0.95,0 -2.13,0.07 -2.86,0.07 z"
   id="path282" />
	</g>
	<g
   class="st1"
   id="g308">
		<path
   d="m 64.62,176.8 c 2.89,0 3.4,-2.55 3.4,-4.71 0,-2.16 -1.19,-4.76 -3.63,-4.76 -2.61,0 -3.35,2.32 -3.35,4.31 0.01,2.61 1.2,5.16 3.58,5.16 m -0.17,-10.15 c 3.18,0 5.67,1.98 5.67,5.1 0,3.4 -2.44,5.67 -5.61,5.67 -3.12,0 -5.56,-2.15 -5.56,-5.33 0,-3.06 2.38,-5.44 5.5,-5.44"
   id="path286" />
		<path
   d="m 76.36,171.41 h 2.1 c 0.74,0 0.96,-0.45 0.96,-1.19 h 0.45 c -0.06,0.51 -0.06,1.08 -0.06,1.59 0,0.62 0,1.19 0.06,1.81 h -0.45 c 0,-0.85 -0.23,-1.47 -1.19,-1.47 h -1.81 v 3.8 c 0,0.85 0.68,0.85 1.42,0.85 H 78 v 0.45 c -0.68,0 -1.7,-0.06 -2.55,-0.06 -0.79,0 -1.7,0.06 -2.27,0.06 v -0.45 h 0.23 c 0.51,0 1.08,-0.06 1.08,-0.85 v -7.83 c 0,-0.79 -0.57,-0.85 -1.08,-0.85 h -0.23 v -0.45 c 0.91,0 2.44,0.06 3.69,0.06 1.25,0 2.78,-0.06 3.8,-0.06 -0.06,0.62 0,1.59 0.06,2.27 l -0.45,0.11 c -0.11,-1.02 -0.34,-1.76 -1.47,-1.76 h -2.38 v 3.97 z"
   id="path288" />
		<path
   d="m 94.56,168.52 v 0 l -1.42,4.2 h 2.78 z m -2.15,6.58 c -0.17,0.51 -0.34,0.91 -0.34,1.13 0,0.45 0.62,0.51 1.13,0.51 h 0.17 v 0.45 c -0.57,-0.06 -1.19,-0.06 -1.81,-0.06 -0.51,0 -1.08,0.06 -1.59,0.06 v -0.45 h 0.11 c 0.57,0 1.08,-0.34 1.3,-0.96 l 2.38,-6.8 c 0.17,-0.57 0.45,-1.3 0.57,-1.81 0.45,-0.17 1.08,-0.45 1.36,-0.62 0.06,0 0.06,-0.06 0.11,-0.06 0.05,0 0.06,0 0.11,0.06 0.06,0.11 0.11,0.23 0.11,0.4 l 2.72,7.77 c 0.17,0.51 0.34,1.08 0.57,1.53 0.17,0.4 0.51,0.57 0.96,0.57 h 0.11 v 0.45 c -0.68,-0.06 -1.36,-0.06 -2.04,-0.06 -0.74,0 -1.47,0.06 -2.21,0.06 v -0.45 h 0.17 c 0.34,0 0.91,-0.06 0.91,-0.45 0,-0.17 -0.11,-0.57 -0.28,-1.08 l -0.57,-1.7 h -3.35 z"
   id="path290" />
		<path
   d="m 103.29,168.41 c 0,-1.08 -0.57,-1.08 -1.13,-1.08 h -0.17 v -0.45 c 0.62,0 1.42,0.06 2.38,0.06 0.91,0 1.64,-0.06 2.21,-0.06 v 0.45 h -0.23 c -0.57,0 -1.19,0 -1.19,1.08 v 5.1 c 0,1.87 0.68,3.18 2.84,3.18 1.98,0 2.84,-1.25 2.84,-3.23 v -5.05 c 0,-1.08 -0.57,-1.08 -1.08,-1.08 h -0.28 v -0.45 c 0.57,0 1.19,0.06 1.81,0.06 0.57,0 1.13,-0.06 1.7,-0.06 v 0.45 h -0.28 c -0.4,0 -0.96,0 -0.96,1.08 v 4.71 c 0,3.35 -1.76,4.31 -3.97,4.31 -2.84,0 -4.42,-1.02 -4.42,-3.69 v -5.33 z"
   id="path292" />
		<path
   d="m 120.93,169.03 c -0.11,-0.96 -0.74,-1.87 -1.76,-1.87 -1.19,0 -1.81,0.68 -1.81,1.87 0,2.44 4.42,1.7 4.42,5.27 0,2.04 -1.7,3.12 -3.57,3.12 -0.85,0 -1.64,-0.28 -2.38,-0.68 -0.06,-0.74 -0.17,-1.47 -0.23,-2.27 l 0.4,-0.11 c 0.17,1.25 0.91,2.38 2.32,2.38 1.02,0 1.81,-0.62 1.81,-1.7 0,-2.61 -4.37,-1.81 -4.37,-5.39 0,-1.93 1.36,-3.06 3.29,-3.06 0.4,0 1.7,0.17 2.15,0.23 0,0.68 0.06,1.42 0.17,2.1 z"
   id="path294" />
		<path
   d="m 126.66,167.61 c -1.13,0 -1.13,0.28 -1.36,1.36 h -0.45 c 0.06,-0.4 0.11,-0.85 0.17,-1.25 0.06,-0.4 0.11,-0.85 0.11,-1.25 h 0.34 c 0.11,0.45 0.51,0.45 0.91,0.45 h 7.66 c 0.4,0 0.79,0 0.79,-0.45 l 0.34,0.06 c -0.06,0.4 -0.11,0.79 -0.17,1.19 -0.06,0.4 -0.06,0.79 -0.06,1.19 l -0.45,0.17 c 0,-0.57 -0.11,-1.42 -1.08,-1.42 h -2.44 v 7.83 c 0,1.13 0.51,1.25 1.25,1.25 h 0.28 v 0.45 c -0.57,0 -1.59,-0.06 -2.44,-0.06 -0.91,0 -1.93,0.06 -2.5,0.06 v -0.45 h 0.28 c 0.79,0 1.25,-0.06 1.25,-1.25 v -7.94 h -2.44 v 0.06 z"
   id="path296" />
		<path
   d="m 141.12,171.87 h 0.74 c 1.47,0 2.27,-0.57 2.27,-2.32 0,-1.3 -0.85,-2.15 -2.15,-2.15 -0.45,0 -0.62,0.06 -0.85,0.06 v 4.41 z m -1.93,-3.46 c 0,-1.08 -0.57,-1.13 -1.08,-1.13 h -0.28 v -0.45 c 0.45,0 1.42,0.06 2.32,0.06 0.9,0 1.59,-0.06 2.38,-0.06 1.87,0 3.52,0.51 3.52,2.61 0,1.36 -0.91,2.15 -2.04,2.61 l 2.55,3.8 c 0.4,0.62 0.74,0.79 1.42,0.91 v 0.45 c -0.51,0 -0.96,-0.06 -1.47,-0.06 -0.45,0 -0.91,0.06 -1.42,0.06 -1.13,-1.47 -2.1,-3.12 -3.06,-4.82 h -0.96 v 3.18 c 0,1.13 0.51,1.19 1.19,1.19 h 0.28 v 0.45 c -0.85,0 -1.7,-0.06 -2.55,-0.06 -0.74,0 -1.42,0.06 -2.15,0.06 v -0.45 h 0.28 c 0.57,0 1.08,-0.23 1.08,-0.79 z"
   id="path298" />
		<path
   d="m 154.78,168.52 v 0 l -1.42,4.2 h 2.78 z m -2.15,6.58 c -0.17,0.51 -0.34,0.91 -0.34,1.13 0,0.45 0.62,0.51 1.13,0.51 h 0.17 v 0.45 c -0.57,-0.06 -1.19,-0.06 -1.81,-0.06 -0.51,0 -1.08,0.06 -1.59,0.06 v -0.45 h 0.11 c 0.57,0 1.08,-0.34 1.3,-0.96 l 2.38,-6.8 c 0.17,-0.57 0.45,-1.3 0.57,-1.81 0.45,-0.17 1.08,-0.45 1.36,-0.62 0.06,0 0.06,-0.06 0.11,-0.06 0.06,0 0.06,0 0.11,0.06 0.06,0.11 0.11,0.23 0.11,0.4 l 2.72,7.77 c 0.17,0.51 0.34,1.08 0.57,1.53 0.17,0.4 0.51,0.57 0.96,0.57 h 0.11 v 0.45 c -0.68,-0.06 -1.36,-0.06 -2.04,-0.06 -0.74,0 -1.47,0.06 -2.21,0.06 v -0.45 h 0.17 c 0.34,0 0.91,-0.06 0.91,-0.45 0,-0.17 -0.11,-0.57 -0.28,-1.08 l -0.57,-1.7 h -3.35 z"
   id="path300" />
		<path
   d="m 166.07,175.72 c 0,0.57 0.4,0.79 0.91,0.85 0.62,0.06 1.25,0.06 1.93,-0.06 0.62,-0.06 1.13,-0.45 1.42,-0.79 0.23,-0.34 0.4,-0.74 0.45,-1.08 h 0.45 c -0.17,0.85 -0.4,1.7 -0.57,2.5 -1.3,0 -2.61,-0.06 -3.91,-0.06 -1.3,0 -2.61,0.06 -3.91,0.06 v -0.45 h 0.23 c 0.51,0 1.13,-0.06 1.13,-0.96 v -7.6 c 0,-0.79 -0.57,-0.85 -1.13,-0.85 h -0.23 v -0.45 c 0.79,0 1.53,0.06 2.32,0.06 0.74,0 1.47,-0.06 2.27,-0.06 v 0.45 h -0.4 c -0.57,0 -1.02,0 -1.02,0.79 v 7.66 h 0.06 z"
   id="path302" />
		<path
   d="m 174.4,176.74 h 0.23 c 0.51,0 1.08,-0.06 1.08,-0.85 v -7.77 c 0,-0.79 -0.57,-0.85 -1.08,-0.85 h -0.23 v -0.45 c 0.57,0 1.47,0.06 2.21,0.06 0.74,0 1.64,-0.06 2.32,-0.06 v 0.45 h -0.23 c -0.51,0 -1.08,0.06 -1.08,0.85 v 7.77 c 0,0.79 0.57,0.85 1.08,0.85 h 0.23 v 0.45 c -0.74,0 -1.59,-0.06 -2.32,-0.06 -0.73,0 -1.59,0.06 -2.15,0.06 v -0.45 z"
   id="path304" />
		<path
   d="m 186.6,168.52 v 0 l -1.42,4.2 h 2.78 z m -2.16,6.58 c -0.17,0.51 -0.34,0.91 -0.34,1.13 0,0.45 0.62,0.51 1.13,0.51 h 0.17 v 0.45 c -0.57,-0.06 -1.19,-0.06 -1.81,-0.06 -0.51,0 -1.08,0.06 -1.59,0.06 v -0.45 h 0.11 c 0.57,0 1.08,-0.34 1.3,-0.96 l 2.38,-6.8 c 0.17,-0.57 0.45,-1.3 0.57,-1.81 0.45,-0.17 1.08,-0.45 1.36,-0.62 0.06,0 0.06,-0.06 0.11,-0.06 0.05,0 0.06,0 0.11,0.06 0.06,0.11 0.11,0.23 0.11,0.4 l 2.72,7.77 c 0.17,0.51 0.34,1.08 0.57,1.53 0.17,0.4 0.51,0.57 0.96,0.57 h 0.11 v 0.45 c -0.68,-0.06 -1.36,-0.06 -2.04,-0.06 -0.74,0 -1.47,0.06 -2.21,0.06 v -0.45 h 0.17 c 0.34,0 0.91,-0.06 0.91,-0.45 0,-0.17 -0.11,-0.57 -0.28,-1.08 l -0.57,-1.7 h -3.35 z"
   id="path306" />
	</g>
	<path
   class="st1"
   d="m 144.41,72.58 c -35.14,16.03 -10.74,47.57 10.05,12.12 l -10.43,40.2 c -2.3,-30.38 -34.99,-29.61 -37.36,-0.38 L 95.77,87.84 c 25.78,30.15 41.81,2.15 10.51,-15.27 h 38.13 z"
   id="path310" />
</g>
<g
   id="g438"
   transform="translate(-35,-98.27)">
	<defs
   id="defs315"><rect
     id="SVGID_1_"
     x="35"
     y="98.269997"
     width="180"
     height="53.470001" /></defs>
	<clipPath
   id="SVGID_2_">
		<use
   xlink:href="#SVGID_1_"
   style="overflow:visible"
   id="use317" />
	</clipPath>
	<path
   class="st2"
   d="m 190.13,137.45 c -0.14,0.15 -0.4,0.48 -0.7,0.94 l 5.67,5.67 c 0.96,0.53 1.76,1.32 2.28,2.28 l 0.73,0.73 0.82,-0.82 z"
   clip-path="url(#SVGID_2_)"
   id="path320" />
	
		<rect
   x="196.82001"
   y="132.75"
   transform="matrix(0.708,-0.7062,0.7062,0.708,-40.5043,179.9917)"
   class="st2"
   width="1.16"
   height="12.46"
   clip-path="url(#SVGID_2_)"
   id="rect322" />
	<path
   class="st2"
   d="m 188.84,139.43 c -0.17,0.35 -0.33,0.74 -0.48,1.16 l 2.87,2.87 c 0.36,-0.07 0.74,-0.11 1.13,-0.11 0.14,0 0.28,0.01 0.42,0.02 z"
   clip-path="url(#SVGID_2_)"
   id="path324" />
	<path
   class="st2"
   d="m 198.32,129.24 -0.82,0.82 8.81,8.81 0.11,-0.11 c 0.02,-0.02 0.05,-0.06 0.08,-0.11 v 0 c 0,0 0.05,-0.1 0.08,-0.15 0.03,-0.07 0.15,-0.31 0.29,-0.69 z"
   clip-path="url(#SVGID_2_)"
   id="path326" />
	
		<rect
   x="200.10001"
   y="129.47"
   transform="matrix(0.7068,-0.7074,0.7074,0.7068,-37.1551,181.7434)"
   class="st2"
   width="1.16"
   height="12.46"
   clip-path="url(#SVGID_2_)"
   id="rect328" />
	<path
   class="st2"
   d="m 207.36,133.36 c -0.21,-1.16 -0.73,-2.36 -1.81,-3.44 -0.02,-0.02 -3.95,-3.97 -3.95,-3.97 l -0.82,0.82 z"
   clip-path="url(#SVGID_2_)"
   id="path330" />
	<path
   class="st2"
   d="m 188.02,141.9 c -0.21,1.13 -0.2,2.28 0.01,3.43 0.54,-0.62 1.2,-1.12 1.96,-1.46 z"
   clip-path="url(#SVGID_2_)"
   id="path332" />
	<path
   class="st2"
   d="m 199.96,127.6 -0.82,0.82 8.11,8.11 c 0.1,-0.43 0.18,-0.92 0.21,-1.43 z"
   clip-path="url(#SVGID_2_)"
   id="path334" />
	
		<rect
   x="198.46001"
   y="131.11"
   transform="matrix(0.7065,-0.7077,0.7077,0.7065,-38.7785,181.1555)"
   class="st2"
   width="1.16"
   height="12.46"
   clip-path="url(#SVGID_2_)"
   id="rect336" />
	<path
   class="st2"
   d="m 195.02,100.93 c 0,1.47 -1.19,2.66 -2.66,2.66 -1.47,0 -2.66,-1.19 -2.66,-2.66 0,-1.47 1.19,-2.66 2.66,-2.66 1.47,0 2.66,1.19 2.66,2.66"
   clip-path="url(#SVGID_2_)"
   id="path338" />
	<path
   class="st3"
   d="m 214.78,125.23 c 0.22,-5.45 -3.46,-9.13 -3.5,-9.17 l -10.07,-10.07 c -3.52,3.6 -5.01,7.4 -4.32,11 0.54,2.77 2.18,4.48 2.2,4.5 l 7.29,7.29 c 3.08,3.08 2.51,7.11 1.9,8.17 4.34,-3.87 6.33,-7.62 6.5,-11.72"
   clip-path="url(#SVGID_2_)"
   id="path340" />
	<path
   class="st2"
   d="m 170.08,124.82 c -0.22,5.45 3.46,9.13 3.5,9.17 l 10.07,10.07 c 3.52,-3.6 5.01,-7.4 4.32,-11 -0.54,-2.77 -2.18,-4.48 -2.2,-4.5 l -7.29,-7.29 c -3.08,-3.08 -2.51,-7.11 -1.9,-8.17 -4.34,3.87 -6.33,7.61 -6.5,11.72"
   clip-path="url(#SVGID_2_)"
   id="path342" />
	<path
   class="st3"
   d="m 196.78,104.63 c -1.05,1.21 -2.6,1.98 -4.32,1.98 -2.56,0 -4.73,-1.68 -5.46,-4.01 l -8.61,8.61 c -0.02,0.02 -0.05,0.06 -0.08,0.11 0,0 -0.05,0.1 -0.08,0.15 -0.16,0.32 -2.45,5.08 1.03,8.56 0.02,0.02 3.95,3.97 3.95,3.97 l 11.37,-11.37 c 0.02,-0.02 1.66,-1.73 2.2,-4.5 0.23,-1.15 0.22,-2.32 0,-3.5"
   clip-path="url(#SVGID_2_)"
   id="path344" />
	<path
   class="st3"
   d="m 195.03,149.07 c 0,1.47 -1.19,2.66 -2.66,2.66 -1.47,0 -2.66,-1.19 -2.66,-2.66 0,-1.47 1.19,-2.66 2.66,-2.66 1.47,0 2.66,1.19 2.66,2.66"
   clip-path="url(#SVGID_2_)"
   id="path346" />
	<rect
   x="132.44"
   y="115.24"
   class="st2"
   width="1.35"
   height="8.9899998"
   clip-path="url(#SVGID_2_)"
   id="rect348" />
	<path
   class="st2"
   d="m 125.19,115.91 c 0,0.37 -0.3,0.68 -0.67,0.68 -0.38,0 -0.68,-0.3 -0.68,-0.68 0,-0.37 0.3,-0.67 0.68,-0.67 0.37,0 0.67,0.3 0.67,0.67"
   clip-path="url(#SVGID_2_)"
   id="path350" />
	<path
   class="st2"
   d="m 107.51,126.26 c 0,0.37 -0.3,0.68 -0.67,0.68 -0.37,0 -0.68,-0.3 -0.68,-0.68 0,-0.37 0.3,-0.68 0.68,-0.68 0.37,0 0.67,0.31 0.67,0.68"
   clip-path="url(#SVGID_2_)"
   id="path352" />
	<path
   class="st2"
   d="m 105.43,126.26 c 0,0.37 -0.3,0.68 -0.67,0.68 -0.37,0 -0.67,-0.3 -0.67,-0.68 0,-0.37 0.3,-0.68 0.67,-0.68 0.37,0 0.67,0.31 0.67,0.68"
   clip-path="url(#SVGID_2_)"
   id="path354" />
	<path
   class="st2"
   d="m 97.62,115.91 c 0,0.37 -0.3,0.68 -0.67,0.68 -0.37,0 -0.68,-0.3 -0.68,-0.68 0,-0.37 0.31,-0.67 0.68,-0.67 0.37,0 0.67,0.3 0.67,0.67"
   clip-path="url(#SVGID_2_)"
   id="path356" />
	<path
   class="st2"
   d="m 95.55,115.91 c 0,0.37 -0.3,0.68 -0.67,0.68 -0.38,0 -0.68,-0.3 -0.68,-0.68 0,-0.37 0.3,-0.67 0.68,-0.67 0.37,0 0.67,0.3 0.67,0.67"
   clip-path="url(#SVGID_2_)"
   id="path358" />
	<path
   class="st2"
   d="m 127.27,115.91 c 0,0.37 -0.3,0.68 -0.67,0.68 -0.37,0 -0.67,-0.3 -0.67,-0.68 0,-0.37 0.3,-0.67 0.67,-0.67 0.37,0 0.67,0.3 0.67,0.67"
   clip-path="url(#SVGID_2_)"
   id="path360" />
	<path
   class="st2"
   d="m 120.62,115.24 c -0.37,0 -0.67,0.3 -0.67,0.67 0,0.37 0.3,0.68 0.67,0.68 0.38,0 0.68,-0.3 0.68,-0.68 -0.01,-0.37 -0.31,-0.67 -0.68,-0.67"
   clip-path="url(#SVGID_2_)"
   id="path362" />
	<path
   class="st2"
   d="m 129.83,115.24 v 5.85 c 0,0.99 -0.81,1.79 -1.79,1.79 -0.99,0 -1.8,-0.8 -1.8,-1.79 v -3.15 h -1.35 v 3.15 c 0,0.99 -0.8,1.79 -1.8,1.79 -0.99,0 -1.79,-0.8 -1.79,-1.79 v -3.15 h -1.35 v 3.15 c 0,0.99 -0.81,1.79 -1.8,1.79 -0.99,0 -1.79,-0.8 -1.79,-1.79 0,-1.74 -1.41,-3.15 -3.15,-3.15 -1.74,0 -3.15,1.41 -3.15,3.15 v 0 c 0,0.99 -0.81,1.79 -1.79,1.79 -0.99,0 -1.79,-0.8 -1.79,-1.79 v -3.15 h -1.35 v 3.15 c 0,0.99 -0.81,1.79 -1.8,1.79 -0.99,0 -1.79,-0.8 -1.79,-1.79 v -4.5 h -1.36 v 1.35 h -6.73 c -1.74,0 -3.15,1.41 -3.15,3.15 0,1.74 1.41,3.14 3.15,3.14 h 4.94 c 1,0 1.89,-0.47 2.47,-1.2 0.57,0.73 1.47,1.2 2.47,1.2 1,0 1.9,-0.47 2.47,-1.2 0.58,0.73 1.47,1.2 2.47,1.2 1,0 1.89,-0.47 2.47,-1.2 0.58,0.73 1.47,1.2 2.47,1.2 1,0 1.89,-0.47 2.47,-1.2 0.58,0.73 1.47,1.2 2.47,1.2 1.01,0 1.9,-0.47 2.47,-1.2 0.58,0.73 1.47,1.2 2.47,1.2 1,0 1.89,-0.47 2.47,-1.2 0.58,0.73 1.47,1.2 2.47,1.2 1.73,0 3.14,-1.41 3.14,-3.14 v -5.85 z m -16.63,7.64 c -0.99,0 -1.79,-0.8 -1.79,-1.79 v 0 c 0,-0.99 0.81,-1.8 1.79,-1.8 0.99,0 1.79,0.8 1.79,1.8 0.01,0.99 -0.79,1.79 -1.79,1.79 m -13.03,-1.79 c 0,0.99 -0.8,1.79 -1.79,1.79 h -4.94 c -0.99,0 -1.8,-0.8 -1.8,-1.79 0,-0.99 0.8,-1.8 1.8,-1.8 h 6.73 z"
   clip-path="url(#SVGID_2_)"
   id="path364" />
	<path
   class="st2"
   d="m 145.67,116.59 c -0.89,0 -1.62,0.73 -1.62,1.63 0,0.18 0.04,0.35 0.09,0.51 h -1.02 v 1.11 h 3.73 v -1.11 h -1.18 c -0.29,0 -0.51,-0.23 -0.51,-0.51 0,-0.29 0.23,-0.52 0.51,-0.52 h 1.18 v -1.11 z"
   clip-path="url(#SVGID_2_)"
   id="path366" />
	<path
   class="st2"
   d="m 160.26,126.26 c 0,0.37 -0.3,0.68 -0.68,0.68 -0.37,0 -0.67,-0.3 -0.67,-0.68 0,-0.37 0.31,-0.68 0.67,-0.68 0.38,0 0.68,0.31 0.68,0.68"
   clip-path="url(#SVGID_2_)"
   id="path368" />
	<path
   class="st2"
   d="m 157.79,115.91 c 0,0.37 -0.3,0.68 -0.67,0.68 -0.38,0 -0.68,-0.3 -0.68,-0.68 0,-0.37 0.3,-0.67 0.68,-0.67 0.37,0 0.67,0.3 0.67,0.67"
   clip-path="url(#SVGID_2_)"
   id="path370" />
	<path
   class="st2"
   d="m 161.38,117.94 v 3.15 c 0,0.99 -0.81,1.79 -1.8,1.79 -0.99,0 -1.8,-0.8 -1.8,-1.79 v -3.15 h -1.35 v 3.15 c 0,0.99 -0.8,1.79 -1.79,1.79 -0.99,0 -1.8,-0.8 -1.8,-1.79 v -5.85 h -1.35 v 5.85 c 0,0.99 -0.81,1.79 -1.79,1.79 h -9.88 c -0.99,0 -1.8,-0.8 -1.8,-1.79 h -1.35 c 0,1.74 1.41,3.14 3.14,3.14 h 9.88 c 1,0 1.89,-0.47 2.47,-1.2 0.57,0.73 1.47,1.2 2.47,1.2 1,0 1.89,-0.47 2.47,-1.2 0.58,0.73 1.47,1.2 2.47,1.2 1.73,0 3.14,-1.41 3.14,-3.14 v -3.15 z"
   clip-path="url(#SVGID_2_)"
   id="path372" />
	<path
   class="st2"
   d="m 52.21,126.26 c 0,0.37 -0.3,0.68 -0.68,0.68 -0.37,0 -0.67,-0.3 -0.67,-0.68 0,-0.37 0.3,-0.68 0.67,-0.68 0.38,0 0.68,0.31 0.68,0.68"
   clip-path="url(#SVGID_2_)"
   id="path374" />
	<path
   class="st2"
   d="m 50.13,126.26 c 0,0.37 -0.3,0.68 -0.67,0.68 -0.37,0 -0.67,-0.3 -0.67,-0.68 0,-0.37 0.3,-0.68 0.67,-0.68 0.37,0 0.67,0.31 0.67,0.68"
   clip-path="url(#SVGID_2_)"
   id="path376" />
	<path
   class="st2"
   d="m 42.33,115.91 c 0,0.37 -0.3,0.68 -0.68,0.68 -0.37,0 -0.68,-0.3 -0.68,-0.68 0,-0.37 0.3,-0.67 0.68,-0.67 0.38,0 0.68,0.3 0.68,0.67"
   clip-path="url(#SVGID_2_)"
   id="path378" />
	<path
   class="st2"
   d="m 40.25,115.91 c 0,0.37 -0.3,0.68 -0.67,0.68 -0.37,0 -0.68,-0.3 -0.68,-0.68 0,-0.37 0.3,-0.67 0.68,-0.67 0.37,0 0.67,0.3 0.67,0.67"
   clip-path="url(#SVGID_2_)"
   id="path380" />
	<rect
   x="86.059998"
   y="115.24"
   class="st2"
   width="1.35"
   height="8.9899998"
   clip-path="url(#SVGID_2_)"
   id="rect382" />
	<path
   class="st2"
   d="m 78.5,121.09 c 0,-0.99 -0.81,-1.79 -1.8,-1.79 -0.99,0 -1.8,0.8 -1.8,1.79 0,0.99 0.8,1.79 1.8,1.79 0.99,0 1.8,-0.8 1.8,-1.79 m -33.62,-1.8 h -6.74 c -0.99,0 -1.8,0.8 -1.8,1.79 0,0.99 0.81,1.79 1.8,1.79 h 4.94 c 0.99,0 1.79,-0.8 1.79,-1.79 v -1.79 z m 39.91,-4.05 v 5.85 c 0,1.74 -1.41,3.14 -3.15,3.14 -1,0 -1.89,-0.47 -2.47,-1.2 -0.57,0.73 -1.47,1.2 -2.47,1.2 -1.01,0 -1.9,-0.47 -2.47,-1.2 -0.58,0.73 -1.47,1.2 -2.47,1.2 -1,0 -1.89,-0.47 -2.47,-1.2 -0.58,0.73 -1.47,1.2 -2.47,1.2 h -8.91 c -1,0 -1.89,-0.47 -2.47,-1.2 -0.58,0.73 -1.47,1.2 -2.47,1.2 -1,0 -1.9,-0.47 -2.47,-1.2 -0.58,0.73 -1.47,1.2 -2.47,1.2 -1,0 -1.89,-0.47 -2.47,-1.2 -0.58,0.73 -1.47,1.2 -2.47,1.2 h -4.94 c -1.74,0 -3.15,-1.41 -3.15,-3.14 0,-1.74 1.41,-3.15 3.15,-3.15 h 6.74 v -1.35 h 1.35 v 4.5 c 0,0.99 0.81,1.79 1.79,1.79 0.99,0 1.8,-0.8 1.8,-1.79 v -3.15 h 1.35 v 3.15 c 0,0.99 0.8,1.79 1.79,1.79 0.99,0 1.8,-0.8 1.8,-1.79 v -5.85 h 1.35 v 5.85 c 0,0.99 0.81,1.79 1.79,1.79 h 8.91 c 0.99,0 1.79,-0.8 1.79,-1.79 0,-0.99 -0.8,-1.79 -1.79,-1.79 h -8 v -1.35 h 8 c 1.73,0 3.15,1.41 3.15,3.15 v 0 c 0,0.99 0.8,1.79 1.79,1.79 0.99,0 1.79,-0.8 1.79,-1.79 0,-1.74 1.41,-3.15 3.15,-3.15 1.73,0 3.14,1.41 3.14,3.15 0,0.99 0.8,1.79 1.8,1.79 0.99,0 1.79,-0.8 1.79,-1.79 v -5.85 h 1.36 z"
   clip-path="url(#SVGID_2_)"
   id="path384" />
	<path
   class="st2"
   d="m 36.1,133.68 h 0.98 c 0.34,0 0.73,-0.15 0.73,-0.6 0,-0.48 -0.53,-0.56 -0.88,-0.56 H 36.1 Z m 0,-2.1 h 0.79 c 0.34,0 0.69,-0.14 0.69,-0.56 0,-0.42 -0.39,-0.53 -0.74,-0.53 H 36.1 Z M 35,129.54 h 1.85 c 0.87,0 1.82,0.19 1.82,1.29 0,0.57 -0.34,0.96 -0.86,1.12 v 0.01 c 0.65,0.09 1.09,0.58 1.09,1.25 0,1.06 -0.98,1.42 -1.87,1.42 H 35 Z"
   clip-path="url(#SVGID_2_)"
   id="path386" />
	<path
   class="st2"
   d="m 41.43,131.02 -0.61,1.58 h 1.22 z m -0.42,-1.48 h 0.91 l 2.16,5.09 h -1.23 l -0.43,-1.08 h -1.93 l -0.41,1.08 h -1.21 z"
   clip-path="url(#SVGID_2_)"
   id="path388" />
	<polygon
   class="st2"
   points="49.11,134.63 47.68,134.63 45.51,131.01 45.5,131.01 45.5,134.63 44.4,134.63 44.4,129.54 45.89,129.54 48,133.08 48.02,133.08 48.02,129.54 49.11,129.54 "
   clip-path="url(#SVGID_2_)"
   id="polygon390" />
	<path
   class="st2"
   d="m 52.33,133.6 c 0.84,0 1.52,-0.7 1.52,-1.58 0,-0.88 -0.68,-1.58 -1.52,-1.58 -0.84,0 -1.52,0.7 -1.52,1.58 0.01,0.88 0.69,1.58 1.52,1.58 m 3.06,1.03 h -3.01 c -1.55,0 -2.7,-0.97 -2.7,-2.61 0,-1.54 1.18,-2.61 2.65,-2.61 1.47,0 2.65,1.08 2.65,2.61 0,0.72 -0.31,1.42 -0.99,1.73 v 0.01 h 1.39 v 0.87 z"
   clip-path="url(#SVGID_2_)"
   id="path392" />
	<path
   class="st2"
   d="m 59.94,132.67 c 0,1.2 -0.72,2.09 -2.09,2.09 -1.38,0 -2.1,-0.89 -2.1,-2.09 v -3.13 h 1.1 v 3.08 c 0,0.63 0.42,1.1 1,1.1 0.57,0 1,-0.48 1,-1.1 v -3.08 h 1.1 v 3.13 z"
   clip-path="url(#SVGID_2_)"
   id="path394" />
	<polygon
   class="st2"
   points="64.07,132.56 61.92,132.56 61.92,133.6 64.32,133.6 64.32,134.63 60.82,134.63 60.82,129.54 64.2,129.54 64.2,130.58 61.92,130.58 61.92,131.53 64.07,131.53 "
   clip-path="url(#SVGID_2_)"
   id="polygon396" />
	<path
   class="st2"
   d="m 68.02,133.6 h 0.57 c 1.02,0 1.78,-0.4 1.78,-1.55 0,-1 -0.78,-1.47 -1.71,-1.47 h -0.65 v 3.02 z m -1.09,-4.06 h 1.64 c 1.6,0 2.94,0.7 2.94,2.56 0,1.65 -1.31,2.53 -2.79,2.53 h -1.79 z"
   clip-path="url(#SVGID_2_)"
   id="path398" />
	<polygon
   class="st2"
   points="75.37,132.56 73.22,132.56 73.22,133.6 75.63,133.6 75.63,134.63 72.12,134.63 72.12,129.54 75.5,129.54 75.5,130.58 73.22,130.58 73.22,131.53 75.37,131.53 "
   clip-path="url(#SVGID_2_)"
   id="polygon400" />
	<path
   class="st2"
   d="m 79.33,133.6 h 0.57 c 1.02,0 1.78,-0.4 1.78,-1.55 0,-1 -0.78,-1.47 -1.71,-1.47 h -0.65 v 3.02 z m -1.1,-4.06 h 1.64 c 1.6,0 2.94,0.7 2.94,2.56 0,1.65 -1.31,2.53 -2.79,2.53 h -1.79 z"
   clip-path="url(#SVGID_2_)"
   id="path402" />
	<polygon
   class="st2"
   points="86.68,132.56 84.52,132.56 84.52,133.6 86.93,133.6 86.93,134.63 83.43,134.63 83.43,129.54 86.8,129.54 86.8,130.58 84.52,130.58 84.52,131.53 86.68,131.53 "
   clip-path="url(#SVGID_2_)"
   id="polygon404" />
	<polygon
   class="st2"
   points="90,134.63 89.13,134.63 87.14,129.54 88.39,129.54 89.62,132.88 89.63,132.88 90.88,129.54 92.05,129.54 "
   clip-path="url(#SVGID_2_)"
   id="polygon406" />
	<polygon
   class="st2"
   points="95.69,132.56 93.53,132.56 93.53,133.6 95.94,133.6 95.94,134.63 92.44,134.63 92.44,129.54 95.81,129.54 95.81,130.58 93.53,130.58 93.53,131.53 95.69,131.53 "
   clip-path="url(#SVGID_2_)"
   id="polygon408" />
	<polygon
   class="st2"
   points="96.69,129.54 97.78,129.54 97.78,133.6 99.81,133.6 99.81,134.63 96.69,134.63 "
   clip-path="url(#SVGID_2_)"
   id="polygon410" />
	<path
   class="st2"
   d="m 102.65,133.73 c 0.93,0 1.54,-0.69 1.54,-1.64 0,-0.95 -0.61,-1.64 -1.54,-1.64 -0.93,0 -1.54,0.69 -1.54,1.64 0,0.95 0.61,1.64 1.54,1.64 m 0,-4.32 c 1.55,0 2.68,1.04 2.68,2.68 0,1.63 -1.13,2.68 -2.68,2.68 -1.55,0 -2.68,-1.04 -2.68,-2.68 0,-1.64 1.13,-2.68 2.68,-2.68"
   clip-path="url(#SVGID_2_)"
   id="path412" />
	<path
   class="st2"
   d="m 107,131.7 h 0.73 c 0.39,0 0.77,-0.14 0.77,-0.61 0,-0.52 -0.52,-0.6 -0.94,-0.6 H 107 Z m -1.1,-2.16 h 1.85 c 1.03,0 1.89,0.34 1.89,1.55 0,1.19 -0.79,1.56 -1.84,1.56 H 107 v 1.98 h -1.1 z"
   clip-path="url(#SVGID_2_)"
   id="path414" />
	<path
   class="st2"
   d="m 111.24,131.7 h 0.73 c 0.39,0 0.77,-0.14 0.77,-0.61 0,-0.52 -0.52,-0.6 -0.94,-0.6 h -0.56 z m -1.09,-2.16 H 112 c 1.03,0 1.89,0.34 1.89,1.55 0,1.19 -0.79,1.56 -1.84,1.56 h -0.8 v 1.98 h -1.09 v -5.09 z"
   clip-path="url(#SVGID_2_)"
   id="path416" />
	<polygon
   class="st2"
   points="117.69,132.56 115.53,132.56 115.53,133.6 117.94,133.6 117.94,134.63 114.44,134.63 114.44,129.54 117.82,129.54 117.82,130.58 115.53,130.58 115.53,131.53 117.69,131.53 "
   clip-path="url(#SVGID_2_)"
   id="polygon418" />
	<polygon
   class="st2"
   points="124.26,134.63 123.16,134.63 123.16,130.73 123.15,130.73 121.85,134.63 121.01,134.63 119.75,130.73 119.74,130.73 119.74,134.63 118.64,134.63 118.64,129.54 120.3,129.54 121.45,132.86 121.46,132.86 122.61,129.54 124.26,129.54 "
   clip-path="url(#SVGID_2_)"
   id="polygon420" />
	<polygon
   class="st2"
   points="128.39,132.56 126.23,132.56 126.23,133.6 128.64,133.6 128.64,134.63 125.14,134.63 125.14,129.54 128.51,129.54 128.51,130.58 126.23,130.58 126.23,131.53 128.39,131.53 "
   clip-path="url(#SVGID_2_)"
   id="polygon422" />
	<polygon
   class="st2"
   points="134.05,134.63 132.62,134.63 130.45,131.01 130.44,131.01 130.44,134.63 129.34,134.63 129.34,129.54 130.83,129.54 132.94,133.08 132.96,133.08 132.96,129.54 134.05,129.54 "
   clip-path="url(#SVGID_2_)"
   id="polygon424" />
	<polygon
   class="st2"
   points="136.95,134.63 135.85,134.63 135.85,130.53 134.43,130.53 134.43,129.54 138.36,129.54 138.36,130.53 136.95,130.53 "
   clip-path="url(#SVGID_2_)"
   id="polygon426" />
	<polygon
   class="st2"
   points="140.69,129.54 141.78,129.54 141.78,133.6 143.81,133.6 143.81,134.63 140.69,134.63 "
   clip-path="url(#SVGID_2_)"
   id="polygon428" />
	<path
   class="st2"
   d="m 146.65,133.73 c 0.93,0 1.54,-0.69 1.54,-1.64 0,-0.95 -0.61,-1.64 -1.54,-1.64 -0.93,0 -1.54,0.69 -1.54,1.64 0,0.95 0.61,1.64 1.54,1.64 m 0,-4.32 c 1.55,0 2.68,1.04 2.68,2.68 0,1.63 -1.13,2.68 -2.68,2.68 -1.55,0 -2.68,-1.04 -2.68,-2.68 0,-1.64 1.13,-2.68 2.68,-2.68"
   clip-path="url(#SVGID_2_)"
   id="path430" />
	<path
   class="st2"
   d="m 153.15,130.86 c -0.22,-0.27 -0.53,-0.42 -0.94,-0.42 -0.83,0 -1.44,0.69 -1.44,1.64 0,0.95 0.61,1.64 1.4,1.64 0.44,0 0.8,-0.2 1.03,-0.55 l 0.91,0.7 c -0.41,0.6 -1.12,0.89 -1.8,0.89 -1.55,0 -2.68,-1.04 -2.68,-2.68 0,-1.63 1.13,-2.68 2.68,-2.68 0.56,0 1.26,0.19 1.68,0.75 z"
   clip-path="url(#SVGID_2_)"
   id="path432" />
	<path
   class="st2"
   d="m 156.59,131.02 -0.6,1.58 h 1.21 z m -0.42,-1.48 h 0.91 l 2.16,5.09 H 158 l -0.43,-1.08 h -1.93 l -0.42,1.08 h -1.21 z"
   clip-path="url(#SVGID_2_)"
   id="path434" />
	<polygon
   class="st2"
   points="159.61,129.54 160.7,129.54 160.7,133.6 162.73,133.6 162.73,134.63 159.61,134.63 "
   clip-path="url(#SVGID_2_)"
   id="polygon436" />
</g>
</svg>
