<?xml version="1.0" encoding="UTF-8" standalone="no"?>
<!-- Generator: Adobe Illustrator 25.2.0, SVG Export Plug-In . SVG Version: 6.00 Build 0)  -->

<svg
   version="1.1"
   id="Layer_1"
   x="0px"
   y="0px"
   viewBox="0 0 250 250"
   style="enable-background:new 0 0 250 250;"
   xml:space="preserve"
   sodipodi:docname="Al Salam Bank Algeria SPA-01-01.svg"
   inkscape:version="1.2.2 (732a01da63, 2022-12-09)"
   xmlns:inkscape="http://www.inkscape.org/namespaces/inkscape"
   xmlns:sodipodi="http://sodipodi.sourceforge.net/DTD/sodipodi-0.dtd"
   xmlns="http://www.w3.org/2000/svg"
   xmlns:svg="http://www.w3.org/2000/svg"><defs
   id="defs276" /><sodipodi:namedview
   id="namedview274"
   pagecolor="#505050"
   bordercolor="#eeeeee"
   borderopacity="1"
   inkscape:showpageshadow="0"
   inkscape:pageopacity="0"
   inkscape:pagecheckerboard="0"
   inkscape:deskcolor="#505050"
   showgrid="false"
   inkscape:zoom="0.502"
   inkscape:cx="-3.9840637"
   inkscape:cy="139.44223"
   inkscape:window-width="1366"
   inkscape:window-height="705"
   inkscape:window-x="1358"
   inkscape:window-y="-8"
   inkscape:window-maximized="1"
   inkscape:current-layer="Layer_1" />
<style
   type="text/css"
   id="style205">
	.st0{fill:#020202;}
</style>
<g
   id="g271">
	<g
   id="g229">
		<polygon
   class="st0"
   points="53.59,187.86 52.94,187.86 52.94,195.91 58.09,195.91 58.09,195.26 53.59,195.26   "
   id="polygon207"
   style="fill:#6e928a;fill-opacity:0.84705883" />
		<path
   class="st0"
   d="M73.58,191.4c-1.16-0.5-2.47-1.08-2.39-1.73c0.15-1.21,1.59-1.27,3.94-1.24c0.2,0,0.4,0.01,0.61,0.01    c0.15,0,0.27-0.12,0.27-0.27v-0.11c0-0.15-0.12-0.27-0.27-0.27c-0.2,0-0.4,0-0.6-0.01c-2.14-0.03-4.36-0.06-4.59,1.81    c-0.14,1.14,1.28,1.76,2.78,2.41c1.2,0.52,2.57,1.12,2.58,1.86c0,0.26-0.09,0.47-0.27,0.66c-0.81,0.79-3.06,0.79-4.16,0.76    c-0.18-0.01-0.32,0.13-0.33,0.31l0,0c-0.01,0.18,0.14,0.33,0.32,0.34c0.2,0.01,0.41,0.01,0.62,0.01c1.5,0,3.2-0.16,4-0.95    c0.32-0.31,0.47-0.69,0.47-1.13C76.54,192.69,75.03,192.04,73.58,191.4z"
   id="path209"
   style="fill:#6e928a;fill-opacity:0.84705883" />
		<path
   class="st0"
   d="m 85.17,195.5 v 0 c 0.15,0.09 0.35,0.04 0.44,-0.11 l 1.07,-1.81 h 5.97 l 0.95,1.66 c 0.09,0.16 0.29,0.21 0.44,0.12 v 0 c 0.16,-0.09 0.21,-0.29 0.12,-0.44 l -4.45,-7.74 -4.67,7.88 c -0.08,0.15 -0.02,0.35 0.13,0.44 z m 1.9,-2.57 2.65,-4.47 2.57,4.47 z"
   id="path211"
   style="display:inline;fill:#6e928a;fill-opacity:0.84705883" />
		<path
   class="st0"
   d="M34.58,195.5L34.58,195.5c0.15,0.09,0.35,0.04,0.44-0.11l1.07-1.81h5.97l0.95,1.66    c0.09,0.16,0.29,0.21,0.44,0.12l0,0c0.16-0.09,0.21-0.29,0.12-0.44l-4.45-7.74l-4.67,7.88C34.37,195.21,34.43,195.41,34.58,195.5z     M36.48,192.93l2.65-4.47l2.57,4.47H36.48z"
   id="path213"
   style="fill:#6e928a;fill-opacity:0.84705883" />
		<path
   class="st0"
   d="M116.08,195.5L116.08,195.5c0.15,0.09,0.35,0.04,0.44-0.11l1.07-1.81h5.97l0.95,1.66    c0.09,0.16,0.29,0.21,0.44,0.12l0,0c0.16-0.09,0.21-0.29,0.12-0.44l-4.45-7.74l-4.67,7.88    C115.88,195.21,115.93,195.41,116.08,195.5z M117.98,192.93l2.65-4.47l2.57,4.47H117.98z"
   id="path215"
   style="fill:#6e928a;fill-opacity:0.84705883" />
		<path
   class="st0"
   d="M176.01,195.68L176.01,195.68c0.15,0.09,0.35,0.04,0.44-0.11l1.07-1.81h5.97l0.95,1.66    c0.09,0.16,0.29,0.21,0.44,0.12l0,0c0.16-0.09,0.21-0.29,0.12-0.44l-4.45-7.74l-4.67,7.88    C175.8,195.39,175.85,195.59,176.01,195.68z M177.91,193.11l2.65-4.47l2.57,4.47H177.91z"
   id="path217"
   style="fill:#6e928a;fill-opacity:0.84705883" />
		<polygon
   class="st0"
   points="102.85,187.82 102.2,187.82 102.2,195.83 107.12,195.83 107.12,195.18 102.85,195.18   "
   id="polygon219"
   style="fill:#6e928a;fill-opacity:0.84705883" />
		<polygon
   class="st0"
   points="144.49,195.18 144.35,195.18 139.89,187.49 138.83,187.49 138.55,195.49 139.2,195.51 139.46,188.14     139.52,188.14 143.98,195.83 144.88,195.83 148.89,188.44 149.37,188.44 149.37,195.5 150.02,195.5 150.02,187.79 148.5,187.79       "
   id="polygon221"
   style="fill:#6e928a;fill-opacity:0.84705883" />
		<path
   class="st0"
   d="M166.8,191.45c0.72-0.39,1.31-1.02,1.26-1.99c-0.1-2.02-3.81-1.85-5.21-1.78c-0.15,0.01-0.26,0.01-0.33,0.01    h-0.32v8.09l0.28,0.04c0.48,0.06,1.1,0.12,1.75,0.12c1.22,0,2.57-0.19,3.4-0.89c0.49-0.42,0.75-0.98,0.78-1.65    c0.02-0.53-0.16-0.98-0.52-1.33C167.63,191.8,167.26,191.6,166.8,191.45z M162.85,188.33c0.01,0,0.02,0,0.03,0    c2.96-0.14,4.48,0.26,4.53,1.17c0.03,0.63-0.35,1.05-0.81,1.32c-0.47,0.28-1.02,0.39-1.56,0.37c-0.33-0.01-0.69,0-1.08,0.02    c-0.05,0-0.08,0-0.1,0.01c-0.15,0-0.63,0.01-1.01,0.02V188.33z M167.21,194.55c-0.75,0.64-2.33,0.88-4.37,0.66v-3.32    c0.38-0.01,0.86-0.02,1.01-0.02c0.02,0,0.07,0,0.14-0.01c0.39-0.02,0.75-0.03,1.06-0.02c0.27-0.01,0.32,0,0.55,0.04    c1.04,0.1,1.57,0.39,1.83,0.64c0.23,0.22,0.33,0.5,0.32,0.84C167.75,193.86,167.57,194.25,167.21,194.55z"
   id="path223"
   style="fill:#6e928a;fill-opacity:0.84705883" />
		<polygon
   class="st0"
   points="200.18,195.14 200.06,195.14 194.05,187.87 193.01,187.87 193.01,195.68 193.66,195.68     193.66,188.51 193.75,188.51 199.76,195.79 200.83,195.79 200.83,188.19 200.18,188.19   "
   id="polygon225"
   style="fill:#6e928a;fill-opacity:0.84705883" />
		<polygon
   class="st0"
   points="215.04,187.61 210.17,191.22 209.3,191.22 209.3,188.06 208.65,188.06 208.65,195.68 209.3,195.68 209.3,191.87 210.06,191.87 215.19,195.78 215.58,195.27 210.76,191.59 215.43,188.13 "
   id="polygon227"
   inkscape:label="polygon227"
   style="display:inline;fill:#6e928a;fill-opacity:0.84705883" />
	</g>
	<g
   id="g269">
		<path
   class="st0"
   d="m 134.68,123.86 c -0.01,-8.19 -2.24,-51.71 -2.24,-51.71 0,0 16.62,22.89 23.63,34.25 7.01,11.35 10.14,22.97 9.62,32.89 -0.52,9.92 -5.54,33.75 -31.09,37.59 -15.52,2.48 -28.23,-12.73 -31.59,-17.8 5.56,4.83 14.97,13.56 28.1,13.01 13.87,-0.49 30.48,-12.2 31.21,-34.04 0.25,-20.5 -24.62,-48.36 -26.97,-51.67 0.53,8.86 1.26,21.02 1.54,25.32 0.29,4.3 -0.21,10.69 -2.21,12.16 z"
   id="path231"
   style="display:inline;fill:#015344;fill-opacity:1" />
		<g
   id="g267">
			<path
   class="st0"
   d="m 153.42,62.81 c -2.43,-0.15 -6.72,5.57 -9.75,5.8 -1.44,0.05 -1.46,-0.6 -1.53,-1.17 2.53,-1.26 2.88,-2.57 2.88,-3.14 0,-1.19 -1.33,-2.54 -4.47,-2.71 -5.25,0.02 -10.29,6.25 -10.98,6.42 -2.4,0.09 -3.27,-2.23 -5.29,-2.23 -4.84,-0.38 -10.82,9.34 -14.73,9.29 -2.63,0.09 -3,-1.69 -3.11,-2.54 -0.11,-0.86 0.13,-1.88 0.35,-2.58 9.27,-0.29 12.75,-3.62 12.57,-6.14 -0.18,-2.53 -2.44,-4.9 -4.25,-4.9 -1.81,0 -3.68,3.33 -3.68,3.95 0,0.62 -0.12,1.87 2.32,1.84 2.43,-0.03 2.64,-1.58 3.09,-1.58 0.44,0 0.83,0.21 0.86,0.92 0,0.11 0.01,0.21 0.01,0.31 0.01,0.88 -0.53,1.66 -1.36,1.95 -1.54,0.54 -4.72,1.25 -11.09,1.73 -10.02,0.76 -9.6,-1.79 -9.7,-2.68 -0.1,-0.89 0.52,-1.69 0.86,-3.37 -0.56,0.64 -2.43,2.07 -2.41,4.89 0.02,2.82 6.97,3.19 8.99,3.17 2.01,-0.03 2.79,-0.07 2.79,-0.07 0,0 -0.02,0.54 -0.08,2.23 -0.29,2.94 2.79,4.59 3.99,4.59 3.34,0 8.9,-9.37 13.92,-9.03 2.78,0.26 1.36,1.58 6.38,2.23 3.25,0.46 6.56,-1.32 9.17,-1.33 1.6,0.04 1.48,1.59 3.21,1.59 4.05,-0.3 4.61,-3.23 6.33,-3.46 1.72,-0.23 3.59,2.59 5.26,2.59 1.04,0 2.09,-1.44 2.09,-3 0.01,-1.57 -0.42,-3.44 -2.64,-3.57 z m -38.97,0.09 c -0.63,0 -1.14,-0.51 -1.14,-1.14 0,-0.63 0.51,-1.14 1.14,-1.14 0.63,0 1.14,0.51 1.14,1.14 0,0.63 -0.51,1.14 -1.14,1.14 z m 17.5,4.94 c 1.54,-2.77 5.8,-4.46 7.13,-4.64 1.86,-0.25 4.53,-0.09 4.26,1.62 -0.3,1.9 -8.42,3.22 -11.39,3.02 z m 22.63,-0.68 c -0.73,-0.08 -2.57,-0.73 -3.34,-1.32 -0.14,-0.55 0.33,-1.09 1.22,-1.11 1.31,-0.03 2.6,0.71 2.12,2.43 z"
   id="path233"
   style="display:inline;fill:#6e938b;fill-opacity:1" />
			<path
   class="st0"
   d="m 113.42,54.12 1.87,1.22 c 0.16,0.11 0.2,0.33 0.09,0.48 l -0.84,1.13 c -0.1,0.14 -0.29,0.18 -0.44,0.09 l -1.82,-1.03 c -0.17,-0.09 -0.22,-0.3 -0.12,-0.47 l 0.79,-1.32 c 0.09,-0.16 0.31,-0.21 0.47,-0.1 z"
   id="path235"
   style="display:inline;fill:#6e938b;fill-opacity:1" />
			<path
   class="st0"
   d="m 149,70.8 c 0.85,0.01 0.87,0.66 0.83,0.93 -0.05,0.37 -1.82,-0.08 -2.04,0.31 -0.4,0.67 -2.23,1.51 -3.26,1.46 0.42,-0.59 2.85,-1.37 3.25,-1.72 0.4,-0.35 0.58,-0.98 1.22,-0.98 z"
   id="path237"
   style="display:inline;fill:#6e938b;fill-opacity:1" />
			<path
   class="st0"
   d="M141.67,106.86c0.29,3.65,2.28,23.77,2.63,29.84c1.19-1.12,1.43-4.82,1.38-6.07     c-0.05-1.24-0.79-9.52-1.08-13.87c5.57,4.73,9.63,16.08,9.63,19.68c0,3.61-1.19,7.12-3.7,9.16c0-0.52,0.24-4.46-0.66-3.23     c0.33,3.13-0.62,6.88-3.75,8.21c0-0.71,0.29-3.41-0.71-3.18c0.1,4.56-2.42,6.64-4.41,7.07c0.24-1.18,0.78-3.98,0.05-3.86     c-0.49,4.74-4.37,5.48-5.91,5.6c-1.54,0.12-8.18-0.49-7.74-11.61c1.66-17.51-6.18-33.9-6.18-33.9s-1.6,2.07-2.2,3.17     c1.77,2.99,5.61,19.17,5.54,28.25c-0.08,9.08-3.94,10.92-5.37,10.94c-1.43,0.02-2.54-0.55-2.62-2.43c0.7-0.98,1.94-1.74,3.1-8.87     c1.17-7.13-2.62-18.24-6.11-23.66c-0.37,2.92-2.92,14.85-3.08,21.56c-0.34,4.05,0.21,7.71,1.34,11.77     c-2.21,2.26-7.24,4.26-9.68,4.29c3.24,1.18,7.41,0.33,10.56-0.98c0.73,1.32,2.43,4.21,6.16,4.42c3.73,0.2,5.82-5.06,6.09-5.86     c0.48,1.17,1.48,7.22,6.25,8c1.07,0.1,2.92,0.33,5.48-1.57c4.76,0.93,7.57-1.64,8.37-3.14c2.52-0.3,4.46-2.32,4.79-4.1     c1.59-0.98,5.65-3.93,6.03-15.49C156.23,125.42,145.6,110.74,141.67,106.86z M114.58,148.76c-2.15-2.33-2.42-9.17-2.37-10.69     c0.05-1.52,0.63-6.98,1.52-8.63c1.34,0.54,5.25,6.61,5.01,10.96C118.51,144.42,115.74,147.73,114.58,148.76z"
   id="path239"
   style="fill:#015344;fill-opacity:1" />
			<path
   class="st0"
   d="M129.08,72.45c1.15,1.05,1.38,5.95,1.29,7.24c0.02,12.65-36.36,30.86-37.69,59.41     c0,8.88,5.88,17.85,8.24,20.99s8.62,10.75,11.28,12.9c7.48,6.05,18.87,14.18,20.05,21.31c-1.99-2.88-4.41-6.67-11.32-11.57     c-4.11-2.91-18.96-14.63-26.22-28.59s-6.07-28.4,2.27-40.48c7.68-11.12,14.99-18.26,20.42-23.75c0.94-0.95,1.48-2.24,1.44-3.58     c-0.04-1.75-0.39-3-0.96-4.04c1.39-0.74,4.88-1.48,7.15-3.98C127.32,75.79,129.17,73.45,129.08,72.45z"
   id="path241"
   style="fill:#015344;fill-opacity:1" />
			<path
   class="st0"
   d="M121.47,97.25c0.7-0.37,0.75-0.33,0.85-0.43c0.04,0.93,0.55,3.9-1.06,5.67c-0.23-0.76,0.41-1.32,0.41-3.21     c0-0.6-0.48-0.49-0.67-0.77c-0.03-0.05-0.05-0.11-0.07-0.17C120.83,97.9,121.08,97.46,121.47,97.25z"
   id="path243"
   style="fill:#015344;fill-opacity:1" />
			<path
   class="st0"
   d="M126.87,100.11c-0.8,2.99-1.94,4.45-5.97,6.95c-2.61,1.57-3.44,3.92-4.31,5.09c0-2.53,1.25-4.35,2.65-5.29     c1.91-1.28,4.09-1.96,5.76-4.12C126.13,101.26,126.87,100.11,126.87,100.11z"
   id="path245"
   style="fill:#015344;fill-opacity:1" />
			<path
   class="st0"
   d="M130.19,103.66c-0.6,1.52-2.37,5.06-2.27,7.06c0.1,2,0.83,1.93,1.13,1.93c0.3,0,1.29-0.33,1.69-1.23     c-0.19,1.54-1.16,3.3-2.16,3.22c-1-0.08-1.98-1.19-1.84-3.11C126.88,109.61,129.39,104.41,130.19,103.66z"
   id="path247"
   style="fill:#015344;fill-opacity:1" />
			<path
   class="st0"
   d="M107.37,113.66c-0.6,1.52-2.37,5.06-2.27,7.06s0.83,1.93,1.13,1.93s1.29-0.33,1.69-1.23     c-0.19,1.54-1.16,3.3-2.16,3.22c-1-0.08-1.98-1.19-1.84-3.11C104.06,119.61,106.56,114.41,107.37,113.66z"
   id="path249"
   style="fill:#015344;fill-opacity:1" />
			<path
   class="st0"
   d="M102.67,130.47c0.86-0.49,1.98,0.01,2.06,0.99c0.01,0.09,0.01,0.18-0.01,0.26     c-0.09,0.56-0.61,0.87-0.82,0.87s-0.14-0.72-0.63-0.74c-0.48-0.02-1.55,0.97-1.74,4.4c-0.01,0-0.01-0.01-0.02-0.01     c-0.45-0.17-0.79-0.55-0.91-1.01c-0.2-0.76-0.6-1.99-1.13-2.22c-0.79,0.18-1.43-0.2-1.45-0.81c-0.02-0.61,0.27-1.25,0.93-1.21     c0.84,0.04,1.58,1.75,2.09,3.33c0.28,0.02,0.33-0.04,0.33-0.04s0.32-2.71,0.73-3.33C102.25,130.75,102.46,130.59,102.67,130.47z"
   id="path251"
   style="fill:#015344;fill-opacity:1" />
			<path
   class="st0"
   d="M133.14,126.4c0.86-0.49,1.98,0.01,2.06,0.99c0.01,0.09,0.01,0.18-0.01,0.26c-0.09,0.56-0.61,0.87-0.82,0.87     c-0.21,0-0.14-0.72-0.63-0.74c-0.48-0.02-1.55,0.97-1.74,4.4c-0.01,0-0.01-0.01-0.02-0.01c-0.45-0.17-0.79-0.55-0.91-1.01     c-0.2-0.76-0.6-1.99-1.13-2.22c-0.79,0.18-1.43-0.2-1.45-0.81c-0.02-0.61,0.27-1.25,0.93-1.21c0.84,0.04,1.58,1.75,2.09,3.33     c0.28,0.02,0.33-0.04,0.33-0.04s0.32-2.71,0.73-3.33C132.72,126.68,132.93,126.52,133.14,126.4z"
   id="path253"
   style="fill:#015344;fill-opacity:1" />
			<path
   class="st0"
   d="M100.05,139.1c0.03-1,0.76-1.42,1.45-1.39s2.35,0.88,2.25,2.38c0.05,0.42-0.95,0.17-1.63,0.2     c-0.68,0.02-1.97,0.5-1.79,1.7c0.19,1.2,2.1,6.48,1.44,8.77c-0.38-1.62-0.69-2.91-1.37-5.29c-0.4-1.66-0.63-3.66-0.65-4.29     c-0.02-0.63,0.29-2.01,2.01-1.78c0.34-0.15-0.19-0.74-0.59-0.66C100.75,138.82,100.05,139.1,100.05,139.1z"
   id="path255"
   style="fill:#015344;fill-opacity:1" />
			<path
   class="st0"
   d="M138.53,127.79c0.66,1.41,1.68,5.56,0.13,8.4c0.17-1.98-0.13-5.21-1.3-6.62     C137.91,128.56,138.53,127.79,138.53,127.79z"
   id="path257"
   style="fill:#015344;fill-opacity:1" />
			<path
   class="st0"
   d="M141.52,138.49c0.7,0.23,0.63,3.03,0.63,3.88c0,0.55-0.58,2.09-1.8,2.06s-1.52-1.06-2.07-1.06     c-0.55,0-1.26,1.03-2.15,0.99c-1.15-0.06-1.56-0.98-1.42-1.67c0.14-0.69,0.37-1.42,0.42-1.84c0.05-0.42-0.04-2.01,0.57-2.35     c0.55-0.31,0.92,1.22,0.18,2.22c-0.35,0.48-0.48,1.1-0.26,1.65c0.16,0.41,0.5,0.74,1.14,0.67c1.43-0.14,1.57-1.31,1.65-2.41     c0.09-1.15-0.47-1.17-0.25-1.55c0.56-0.98,1.01-0.43,1.01,0.49c0,0.79-0.42,3.55,1.26,3.57s1.04-1.69,0.73-2.18     C140.96,140.59,140.68,138.35,141.52,138.49z"
   id="path259"
   style="fill:#015344;fill-opacity:1" />
			<path
   class="st0"
   d="M140.93,162.45c-0.13,1.47-0.79,2.31-2.58,2.31c-0.71,0.91-1.32,1.17-2,1.11c-0.68-0.05-1.6-0.51-2.23-0.38     c-1.86,0.3-2.76,4.15-5.47,4.28c0.61-0.91,2.08-1.19,2.46-2.79c0.41-1.39,1.7-2.74,2.94-2.99c1.24-0.25,2.08,0.63,3.12,0.25     c1.04-0.38,1.14-1.17,1.32-1.6c0.18-0.43,0.38,0.71,1.22,0.51S140.93,162.45,140.93,162.45z"
   id="path261"
   style="fill:#015344;fill-opacity:1" />
			<path
   class="st0"
   d="m 123.97,159.08 c -1.18,0.25 -1.16,1.14 -1.08,1.56 0.11,0.62 2.4,3.82 2.15,4.42 -0.66,-0.18 -2.86,-3.01 -4.04,-2.84 -1.19,0.18 -1.74,1.45 -0.22,2.29 0.63,0.22 0.01,-1.48 1.99,-0.2 1.46,0.88 2.04,1.37 1.75,1.92 -0.3,0.55 -0.98,1.28 -1.3,1.45 -0.32,0.17 1.26,0.3 1.75,-0.15 0.49,-0.45 0.81,-1.32 0.83,-1.98 0.02,-0.66 -0.62,-2.09 -1,-2.64 -0.38,-0.55 -1.13,-1.51 -0.94,-2.26 0.19,-0.75 0.98,0 1.19,-0.55 0.21,-0.55 -0.63,-1.12 -1.08,-1.02 z"
   id="path263"
   style="display:inline;fill:#015344;fill-opacity:1" />
			<path
   class="st0"
   d="m 128.64,182.07 c -0.21,-1.34 0.33,-2.11 1.57,-2.11 1.24,0 2.36,2.22 2.05,6.98 -0.45,-2.87 0.02,-5.27 -2.05,-5.41 -1.02,-0.12 -1.36,0.71 -1.57,0.54 z"
   id="path265"
   style="display:inline;fill:#015344;fill-opacity:1" />
		</g>
	</g>
</g>
</svg>
