<?xml version="1.0" encoding="utf-8"?>
<!-- Generator: Adobe Illustrator 25.2.0, SVG Export Plug-In . SVG Version: 6.00 Build 0)  -->
<svg version="1.1" id="Layer_1" xmlns="http://www.w3.org/2000/svg" xmlns:xlink="http://www.w3.org/1999/xlink" x="0px" y="0px"
	 viewBox="0 0 250 250" style="enable-background:new 0 0 250 250;" xml:space="preserve">
<style type="text/css">
	.st0{fill:url(#SVGID_1_);}
	.st1{fill:url(#SVGID_2_);}
	.st2{fill:#BCBEBF;}
	.st3{fill:url(#SVGID_3_);}
	.st4{fill:url(#SVGID_4_);}
	.st5{fill:url(#SVGID_5_);}
	.st6{opacity:0.67;}
	.st7{fill:url(#SVGID_6_);}
	.st8{opacity:0.12;fill:url(#SVGID_7_);}
	.st9{opacity:0.26;fill:url(#SVGID_8_);}
	.st10{opacity:0.41;fill:url(#SVGID_9_);}
	.st11{fill:#A4B5C5;}
	.st12{fill:#8C939B;}
	.st13{fill:#959394;}
	.st14{fill:#FFFFFF;}
	.st15{fill:url(#SVGID_10_);}
	.st16{fill:url(#SVGID_11_);}
	.st17{fill:url(#SVGID_12_);}
	.st18{fill:url(#SVGID_13_);}
	.st19{fill:url(#SVGID_14_);}
	.st20{fill:url(#SVGID_15_);}
	.st21{fill:#BEC0C1;}
	.st22{fill:url(#SVGID_16_);}
	.st23{fill:url(#SVGID_17_);}
	.st24{fill:url(#SVGID_18_);}
	.st25{opacity:0.2;fill:url(#SVGID_19_);}
	.st26{opacity:0.53;fill:url(#SVGID_20_);}
	.st27{opacity:0.41;fill:url(#SVGID_21_);}
	.st28{fill:#999A9C;}
	.st29{fill:#7E90AA;}
	.st30{fill:#A2A4A5;}
	.st31{fill:#1D1D1B;}
	.st32{fill:url(#SVGID_22_);}
	.st33{fill:url(#SVGID_23_);}
	.st34{fill:url(#SVGID_24_);}
	.st35{fill:url(#SVGID_25_);}
	.st36{fill:url(#SVGID_26_);}
	.st37{fill:url(#SVGID_27_);}
	.st38{fill:#017FC4;}
	.st39{fill:url(#SVGID_28_);}
	.st40{fill:url(#SVGID_29_);}
	.st41{fill:#FCFCFC;}
	.st42{fill:#97AABB;}
	.st43{fill:#001358;}
	.st44{fill:#001650;}
	.st45{fill:url(#SVGID_30_);}
	.st46{opacity:0.24;fill:url(#SVGID_31_);}
	.st47{opacity:0.41;fill:url(#SVGID_32_);}
</style>
<g>
	<linearGradient id="SVGID_1_" gradientUnits="userSpaceOnUse" x1="66.4255" y1="94.451" x2="65.5153" y2="155.4353">
		<stop  offset="0" style="stop-color:#FFFFFF"/>
		<stop  offset="0.2836" style="stop-color:#D7D7D7"/>
		<stop  offset="0.5904" style="stop-color:#B3B3B3"/>
		<stop  offset="0.8403" style="stop-color:#9D9D9D"/>
		<stop  offset="1" style="stop-color:#959595"/>
	</linearGradient>
	<ellipse class="st0" cx="65.96" cy="125.34" rx="30.96" ry="30.89"/>
	<linearGradient id="SVGID_2_" gradientUnits="userSpaceOnUse" x1="65.559" y1="154.2101" x2="66.6704" y2="95.0278">
		<stop  offset="0" style="stop-color:#FFFFFF"/>
		<stop  offset="0.2836" style="stop-color:#D7D7D7"/>
		<stop  offset="0.5904" style="stop-color:#B3B3B3"/>
		<stop  offset="0.8403" style="stop-color:#9D9D9D"/>
		<stop  offset="1" style="stop-color:#959595"/>
	</linearGradient>
	<ellipse class="st1" cx="66.11" cy="124.84" rx="30.25" ry="29.82"/>
</g>
<ellipse class="st2" cx="66.11" cy="124.69" rx="29.29" ry="29.22"/>
<linearGradient id="SVGID_3_" gradientUnits="userSpaceOnUse" x1="67.1989" y1="104.6484" x2="66.606" y2="144.3682">
	<stop  offset="0" style="stop-color:#FFFFFF"/>
	<stop  offset="0.2836" style="stop-color:#D7D7D7"/>
	<stop  offset="0.5904" style="stop-color:#B3B3B3"/>
	<stop  offset="0.8403" style="stop-color:#9D9D9D"/>
	<stop  offset="1" style="stop-color:#959595"/>
</linearGradient>
<ellipse class="st3" cx="66.9" cy="124.77" rx="19.93" ry="20.12"/>
<linearGradient id="SVGID_4_" gradientUnits="userSpaceOnUse" x1="66.5471" y1="143.6269" x2="67.2595" y2="105.693">
	<stop  offset="0" style="stop-color:#FFFFFF"/>
	<stop  offset="0.2836" style="stop-color:#D7D7D7"/>
	<stop  offset="0.5904" style="stop-color:#B3B3B3"/>
	<stop  offset="0.8403" style="stop-color:#9D9D9D"/>
	<stop  offset="1" style="stop-color:#959595"/>
</linearGradient>
<ellipse class="st4" cx="66.9" cy="124.8" rx="19.38" ry="19.11"/>
<linearGradient id="SVGID_5_" gradientUnits="userSpaceOnUse" x1="57.1646" y1="109.2157" x2="71.385" y2="131.7566">
	<stop  offset="0" style="stop-color:#74C7F3"/>
	<stop  offset="0.0869" style="stop-color:#62B3E2"/>
	<stop  offset="0.2855" style="stop-color:#3F8ABF"/>
	<stop  offset="0.4803" style="stop-color:#246AA4"/>
	<stop  offset="0.6677" style="stop-color:#105391"/>
	<stop  offset="0.8447" style="stop-color:#044685"/>
	<stop  offset="1" style="stop-color:#004181"/>
</linearGradient>
<ellipse class="st5" cx="66.82" cy="124.52" rx="18.69" ry="18.65"/>
<g>
	<g class="st6">
		<path d="M87.09,143.22c-0.14-2.39-2.4-2.94-2.59-3.67c-0.18-0.74,0.53-2.52-0.38-2.82c-0.14,1.19-2.34,1.95-1.37,3.59
			c-0.05,0.74-0.77,0.94-0.75,1.34c0.03,0.4,1.1,1.82,1.77,2.17c0.02-0.36,0.18-2.06,1.21-2.08c1.03-0.02,1.57,1.03,1.48,1.79
			c-0.09,0.77-0.83,1.61-1.9,1.61c-1.57-0.18-2.4-1.86-4.4-2.39c0.16-0.4,1.1-2.06,0.65-2.15c-0.45-0.09-0.94,1.08-1.87,1.84
			c-0.93,0.76-5.01,0.48-7.78,4.9c-3.53,5.59-6.94,5.26-7.53,5.28c-0.58,0.01-1.53-0.15-1.38-0.34c0.15-0.19,0.44-0.65,0.53-1.17
			c0-0.71-1-1.33-1.95-1.68c0.12,0.4-0.18,1.28-0.6,1.37c-0.42,0.1-2.23-1.84-1.73-2.12c1.02-0.64,3.59-1.96,5.29-2.25
			c0.85-0.08,1.32,0.68,1.32,1.01c0,0.32-0.97,0.4-0.71,0.61c0.27,0.21,1.01,0.9,1.56,0.89c0.56-0.01,1.11-0.39,1.47-1.11
			c0.79,0.97-0.87,2.25-1.47,2.32c-0.59,0.06-1.86-0.88-2.44-0.99c0.25,0.29,1.47,2.13,2.44,1.92c0.98-0.21,2.21-1.58,2.21-2.66
			c0.51-0.44,2.01-2.07,2.26-2.42c-0.4-0.3-1.15,0.08-1.82,0.38c-0.73-0.23-3.2-0.85-4.33-0.91c-1.12-0.05-2.8,0.38-4.79,1.28
			c-0.18-3.1-2.14-3.89-4.14-4.01c-1.09-2.29-6.59-6.98-8.6-7.38c-2.01-0.4-6.33-3.67-6.07-3.87c0.27-0.21,0.95,0.29,1.34,0.23
			c0.38-0.05,0.98-1.18,0.8-1.36c-0.18-0.18-2.08-0.89-2.49-2.05c-0.55-1.38,1.42-2.54,2.47-2.62c1.55,0,1.72,0.53,2.05,0.94
			c-2.05-0.52-3.01,0.71-2.59,0.9c0.55,0.07,1.51,0.25,1.32,1.17c-0.88,2.45,1.4,2.35,1.29,2.09c-0.1-0.25-0.47-1.9,0.59-1.45
			c1.73,0.83-0.47,2.49-0.88,2.65c-0.81,0.3-1.99-0.16-1.55,0.31c1.53,1.33,3.74-1.14,3.92-2.32c0.27-1.67-0.62-3.42-1.68-4.45
			c0.46-0.43,1.44-1.57,1.44-3.67c0.02-2.69-2.08-3.66-3.08-3.79c-0.84,0-1.23,0.95-1.02,0.89c0.45-0.05,1.01-0.38,2.23,0.51
			c1.62,1.15,0.51,2.4,0.18,2.09c-0.23-0.7-0.8-1.52-1.18-1.52c-0.21,0.28-0.99,1.32-0.99,1.32s0.9,0.58,0.69,0.88
			c-0.21,0.29-1.51,1.43-1.15,1.82c1.41,1.13,2.37-0.06,2.74-0.24c0.29,0.38-1.9,1.38-2.18,1.38c-0.27,0-2.7-0.36-3.03-1.89
			c-0.38-2.02,1.42-1.86,2.37-1.95c0.18-1.67-2.14-1.76-1.99-2.1c0.95-2.07,4.7-3.11,5.48-3.71c1.14,1.03,0.35,1.95,0.69,3.16
			c0.94-1.05,0.9-2.08,0.31-3.89c2.3-1.26,6.81-4.92,7.54-7.34c3.44-0.94,3.9-2.49,3.91-4.15c0.23-0.03,0.27,0.03,0.7,0.05
			c1.45,0.85,3.1,1.05,4.89,1.09c1.78,0.04,1.88-1.06,2.93-1.13c1.05-0.07,1.84,0.68,2.33,0.71c0.25-0.3,0.66-0.27,0.66-0.27v-0.41
			c0,0,0,0-0.27,0c-0.5-0.23-1.98-1.45-2.27-2.1c-0.18-0.42-0.73-1.95-2.88-1.89c-1.44,0-2.28,1.2-2.27,2.04
			c0.41-0.34,1.27-1.53,2.46-1.54c2.2,0.2,2.31,1.95,1.77,1.98c-0.54,0.03-1.25-1-1.75-0.98c-0.49,0.01-1.51,0.81-1.64,1.44
			c0.31-0.09,1.1,0.12,1.09,0.3c-0.01,0.18,0.27,0.63-1.82,0.77c-2.1,0.14-4.12-1.71-5.22-2.3c0.2-0.44,1.45-1.97,2.18-1.8
			c0.73,0.18,0.34,0.79,0.67,1.42c0.27-0.22,1.29-0.95,1.36-1.29c0.08-0.35,0.23-0.89-0.48-1.5c2.18-0.46,4.33-0.05,6.14,1.06
			c1.81,1.11,0.88,0.67,4.81,4.42c3.93,3.74,6.04,3.35,6.61,3.74c0.58,0.38,1.69,1.91,2.01,1.68c0.27-0.72-0.9-1.59-0.62-1.66
			c0.68-0.24,2.72-2.33,4.21-2.47c1.86-0.12,2.09,1.17,2.12,1.56c0.02,0.39-0.03,1.65-1.34,1.8c-1.32,0.14-1.4-0.71-1.44-0.94
			c-0.04-0.22,0.24-0.97-0.14-1.03c-0.27,0.23-1.3,1.52-1.34,2.04c-0.03,0.53,0.73,0.92,0.81,1.3c0.08,0.65-0.49,0.77-0.42,1.31
			c0.18,0.49,1.16,1.65,1.94,1.5c-1.23-2.47,2.79-3.79,2.85-5.72c0.1-1.78-1.44-3.07-4.14-2.83c0.08-4.8-4.5-4.02-6.38-4.39
			c-2.02-0.2-3.57-2.6-4.31-1.37c1.52,0.72,1.68,2.12,2.05,3.05s1.95,0.87,2.55,0.85c0.46,2.2,1.47,2.03,2.11,2.1
			c0.65,0.08,0.36,0.77,1.14,0.85c1.04-1.35-0.85-2.25-0.87-2.6c-0.01-0.34,0.1-0.91,0.99-0.92c1.32,0.11,1.6,1.7,1.54,2.27
			c-0.05,0.57-0.17,2.47-3.63,2.45c-3.45-0.02-4.94-3.62-5.52-5.51c-0.58-1.9-1.96-1.82-2.59-1.9c0.18-1.37-0.38-2.12-1.53-2.16
			c-1.15-0.04-1.99-0.79-1.99-0.59c-0.29,0.65,1.38,1.88,0.62,1.72c-0.85,0-1.65-0.8-4.82-0.91c-3.96-0.14-5.38,3.91-6.05,4.15
			c-0.67,0.25-0.81-0.48-2.2-0.55c-2.3-0.1-5.2,2.48-5.5,2.94c-0.31,0.45-2.09,2.46-3.38,3.37c-1.29,0.91-1.3,1.33-1.38,1.82
			c-0.07,0.49,0.05,1.52,0.35,2.3c-1.44-0.13-1.86,0.89-1.86,1.22c0,0.33-0.09,0.92,0.31,0.99c0.4,0.07,0.56-0.36,0.84-0.39
			c0.27-0.02,1.23,0.42,1.23,1.04c-2.66,0.1-3.38,1.15-3.38,1.55c0,0.39,0.76,0.44,0.53,1.24c-0.23,0.81-2.1,1.22-2.46,4.25
			c-0.33,3.78,1.57,4.51,1.55,5.13c-0.02,0.61-1.83,0.9-1.51,3.76c0.32,2.85,2.73,4.45,2.92,4.69c0.19,0.23-0.29,1.12-0.27,1.63
			c0.02,0.51,1.11,1.45,1.79,1.53c0.68,0.08,0.99,0.02,1.84,0.02c-0.06,1.41-2.68,0.4-2.64,1c0.03,0.59,0.99,2.1,0.99,2.1l1.36-0.01
			c0,0-0.54,0.97-0.25,1.85c0.29,0.88,1.96,2.53,2.99,3.38c1.02,0.85,2.09,2.12,3.23,2.91c1.15,0.79,2.67,1.33,3.32,1.33
			c0.65,0,1.62,0.06,3.17-0.61c2.03,3.51,4.41,4.03,5.61,4.08c1.19,0.05,3.2-0.71,3.57-0.91c0.38-0.2,1.52-0.77,1.47,0
			c-0.05,0.77-0.79,0.69-0.73,1.59c0.26-0.14,0.51-0.41,1.29-0.42c2.39,0.1,2.07-1.23,2.09-2.4c0.89,0.01,2.6-0.63,3.03-3.19
			c0.43-2.56,2.66-4.46,4.92-4.49c2.25-0.03,3.25,2.04,3.25,2.4c0,0.36-0.12,2.89-1.65,2.6c-2.53-0.48,0.82-2.35-0.56-3.47
			c-0.16,1.25-2.37,0.44-2.42,2.73c-1.55-0.18-2.85,1.22-3.18,2.75c-0.34,1.53-1.96,1.54-1.77,1.63c0.19,0.1,0.31,0.33,0.81,0.4
			c1.89-0.23,1.37-2.27,6.28-2.27c2.4-0.05,3.43-2.58,3.48-4.44C85.35,146.41,87.23,145.6,87.09,143.22z M46.01,109.65
			c0.12-1.1,1.95-7.47,7.89-8.2c0.73-0.01,1.39,0.41,1.61,0.66c0.21,0.25-0.79,2.51-1.16,3c-0.46,0.28-0.51-0.67-0.49-1.2
			c0.01-0.54,1.35-0.54,1.07-1.65c-0.03-0.56-0.16,0.43-1.56,0.43c-1.51,0.14-2.09,0.89-2.24,1.48c-0.15,0.59,0.49,1.67,0.18,1.67
			c-0.15,0-0.08-0.32-1.08-0.34c-1-0.01-2.14,2.29-2.27,3.22c-0.14,0.92-0.95,2.76-0.61,2.42c0.88-0.87,2.42-3.16,5.87-3.56
			c-0.46,1.43-4.24,5.19-6.88,5.38C45.73,111.21,46.01,110.37,46.01,109.65z M56.65,147.93c-0.37,0.27-0.58,0.94-2.46,0.74
			c-2.78-0.2-5.83-3.92-6.47-5.39c-0.64-1.46-1.12-3.64-0.16-5.55c1.9,0.52,4.85,2.4,6.43,4.75c0.16,0.24,0.18,0.29,0.04,0.29
			c-4.04,0.15-5.05-2.36-5.42-2.7c-0.03,0.23-0.1,0.68,0.79,2.09c0.23,2.3,1.65,2.97,3,3.04c-0.45,1.7,0.46,2.13,0.84,2.47
			c0.38,0.33,1.03,0.38,1.34,0.11c0.81,0,1.51,0.2,1.29-0.01c-0.26-0.42-1.2-2.53-0.65-2.64C55.92,145.09,57.01,147.67,56.65,147.93
			z M56.49,102.67c-0.41,0.97-1.27,3.12-1.27,3.12s1.82,0.29,2.12-1C57.75,103.26,56.97,102.75,56.49,102.67z"/>
	</g>
	<g>
		<linearGradient id="SVGID_6_" gradientUnits="userSpaceOnUse" x1="64.4023" y1="98.5667" x2="62.2849" y2="153.3843">
			<stop  offset="0" style="stop-color:#FFFFFF"/>
			<stop  offset="0.2876" style="stop-color:#D7D7D8"/>
			<stop  offset="0.592" style="stop-color:#B3B4B5"/>
			<stop  offset="0.8404" style="stop-color:#9D9EA0"/>
			<stop  offset="1" style="stop-color:#959698"/>
		</linearGradient>
		<path class="st7" d="M87.09,142.78c-0.14-2.39-2.4-2.94-2.59-3.67c-0.18-0.74,0.53-2.52-0.38-2.82c-0.14,1.19-2.34,1.95-1.37,3.59
			c-0.05,0.74-0.77,0.94-0.75,1.34c0.03,0.4,1.1,1.82,1.77,2.17c0.02-0.36,0.18-2.06,1.21-2.08c1.03-0.02,1.57,1.03,1.48,1.79
			c-0.09,0.77-0.83,1.61-1.9,1.61c-1.57-0.18-2.4-1.86-4.4-2.39c0.16-0.4,1.1-2.06,0.65-2.15c-0.45-0.09-0.94,1.08-1.87,1.84
			c-0.93,0.76-5.01,0.48-7.78,4.9c-3.53,5.59-6.94,5.26-7.53,5.28c-0.58,0.01-1.53-0.15-1.38-0.34c0.15-0.19,0.44-0.65,0.53-1.17
			c0-0.71-1-1.33-1.95-1.68c0.12,0.4-0.18,1.28-0.6,1.37c-0.42,0.1-2.23-1.84-1.73-2.12c1.02-0.64,3.59-1.96,5.29-2.25
			c0.85-0.08,1.32,0.68,1.32,1.01c0,0.32-0.97,0.4-0.71,0.61c0.27,0.21,1.01,0.9,1.56,0.89c0.56-0.01,1.11-0.39,1.47-1.11
			c0.79,0.97-0.87,2.25-1.47,2.32c-0.59,0.06-1.86-0.88-2.44-0.99c0.25,0.29,1.47,2.13,2.44,1.92c0.98-0.21,2.21-1.58,2.21-2.66
			c0.51-0.44,2.01-2.07,2.26-2.42c-0.4-0.3-1.15,0.08-1.82,0.38c-0.73-0.23-3.2-0.85-4.33-0.91c-1.12-0.05-2.8,0.38-4.79,1.28
			c-0.18-3.1-2.14-3.89-4.14-4.01c-1.09-2.29-6.59-6.98-8.6-7.38c-2.01-0.4-6.33-3.67-6.07-3.87c0.27-0.21,0.95,0.29,1.34,0.23
			c0.38-0.05,0.98-1.18,0.8-1.36c-0.18-0.18-2.08-0.89-2.49-2.05c-0.55-1.38,1.42-2.54,2.47-2.62c1.55,0,1.72,0.53,2.05,0.94
			c-2.05-0.52-3.01,0.71-2.59,0.9c0.55,0.07,1.51,0.25,1.32,1.17c-0.88,2.45,1.4,2.35,1.29,2.09c-0.1-0.25-0.47-1.9,0.59-1.45
			c1.73,0.83-0.47,2.49-0.88,2.65c-0.81,0.3-1.99-0.16-1.55,0.31c1.53,1.33,3.74-1.14,3.92-2.32c0.27-1.67-0.62-3.42-1.68-4.45
			c0.46-0.43,1.44-1.57,1.44-3.67c0.02-2.69-2.08-3.66-3.08-3.79c-0.84,0-1.23,0.95-1.02,0.89c0.45-0.05,1.01-0.38,2.23,0.51
			c1.62,1.15,0.51,2.4,0.18,2.09c-0.23-0.7-0.8-1.52-1.18-1.52c-0.21,0.28-0.99,1.32-0.99,1.32s0.9,0.58,0.69,0.88
			c-0.21,0.29-1.51,1.43-1.15,1.82c1.41,1.13,2.37-0.06,2.74-0.24c0.29,0.38-1.9,1.38-2.18,1.38c-0.27,0-2.7-0.36-3.03-1.89
			c-0.38-2.02,1.42-1.86,2.37-1.95c0.18-1.67-2.14-1.76-1.99-2.1c0.95-2.07,4.7-3.11,5.48-3.71c1.14,1.03,0.35,1.95,0.69,3.16
			c0.94-1.05,0.9-2.08,0.31-3.89c2.3-1.26,6.81-4.92,7.54-7.34c3.44-0.94,3.9-2.49,3.91-4.15c0.23-0.03,0.27,0.03,0.7,0.05
			c1.45,0.85,3.1,1.05,4.89,1.09c1.78,0.04,1.88-1.06,2.93-1.13c1.05-0.07,1.84,0.68,2.33,0.71c0.25-0.3,0.66-0.27,0.66-0.27v-0.41
			c0,0,0,0-0.27,0c-0.5-0.23-1.98-1.45-2.27-2.1c-0.18-0.42-0.73-1.95-2.88-1.89c-1.44,0-2.28,1.2-2.27,2.04
			c0.41-0.34,1.27-1.53,2.46-1.54c2.2,0.2,2.31,1.95,1.77,1.98c-0.54,0.03-1.25-1-1.75-0.98c-0.49,0.01-1.51,0.81-1.64,1.44
			c0.31-0.09,1.1,0.12,1.09,0.3c-0.01,0.18,0.27,0.63-1.82,0.77c-2.1,0.14-4.12-1.71-5.22-2.3c0.2-0.44,1.45-1.97,2.18-1.8
			c0.73,0.18,0.34,0.79,0.67,1.42c0.27-0.22,1.29-0.95,1.36-1.29c0.08-0.35,0.23-0.89-0.48-1.5c2.18-0.46,4.33-0.05,6.14,1.06
			c1.81,1.11,0.88,0.67,4.81,4.42c3.93,3.74,6.04,3.35,6.61,3.74c0.58,0.38,1.69,1.91,2.01,1.68c0.27-0.72-0.9-1.59-0.62-1.66
			c0.68-0.24,2.72-2.33,4.21-2.47c1.86-0.12,2.09,1.17,2.12,1.56c0.02,0.39-0.03,1.65-1.34,1.8c-1.32,0.14-1.4-0.71-1.44-0.94
			c-0.04-0.22,0.24-0.97-0.14-1.03c-0.27,0.23-1.3,1.52-1.34,2.04c-0.03,0.53,0.73,0.92,0.81,1.3c0.08,0.65-0.49,0.77-0.42,1.31
			c0.18,0.49,1.16,1.65,1.94,1.5c-1.23-2.47,2.79-3.79,2.85-5.72c0.1-1.78-1.44-3.07-4.14-2.83c0.08-4.8-4.5-4.02-6.38-4.39
			c-2.02-0.2-3.57-2.6-4.31-1.37c1.52,0.72,1.68,2.12,2.05,3.05s1.95,0.87,2.55,0.85c0.46,2.2,1.47,2.03,2.11,2.1
			c0.65,0.08,0.36,0.77,1.14,0.85c1.04-1.35-0.85-2.25-0.87-2.6c-0.01-0.34,0.1-0.91,0.99-0.92c1.32,0.11,1.6,1.7,1.54,2.27
			c-0.05,0.57-0.17,2.47-3.63,2.45c-3.45-0.02-4.94-3.62-5.52-5.51c-0.58-1.9-1.96-1.82-2.59-1.9c0.18-1.37-0.38-2.12-1.53-2.16
			c-1.15-0.04-1.99-0.79-1.99-0.59c-0.29,0.65,1.38,1.88,0.62,1.72c-0.85,0-1.65-0.8-4.82-0.91c-3.96-0.14-5.38,3.91-6.05,4.15
			c-0.67,0.25-0.81-0.48-2.2-0.55c-2.3-0.1-5.2,2.48-5.5,2.94c-0.31,0.45-2.09,2.46-3.38,3.37c-1.29,0.91-1.3,1.33-1.38,1.82
			c-0.07,0.49,0.05,1.52,0.35,2.3c-1.44-0.13-1.86,0.89-1.86,1.22c0,0.33-0.09,0.92,0.31,0.99c0.4,0.07,0.56-0.36,0.84-0.39
			c0.27-0.02,1.23,0.42,1.23,1.04c-2.66,0.1-3.38,1.15-3.38,1.55c0,0.39,0.76,0.44,0.53,1.24c-0.23,0.81-2.1,1.22-2.46,4.25
			c-0.33,3.78,1.57,4.51,1.55,5.13c-0.02,0.61-1.83,0.9-1.51,3.76c0.32,2.85,2.73,4.45,2.92,4.69c0.19,0.23-0.29,1.12-0.27,1.63
			c0.02,0.51,1.11,1.45,1.79,1.53c0.68,0.08,0.99,0.02,1.84,0.02c-0.06,1.41-2.68,0.4-2.64,1c0.03,0.59,0.99,2.1,0.99,2.1l1.36-0.01
			c0,0-0.54,0.97-0.25,1.85c0.29,0.88,1.96,2.53,2.99,3.38c1.02,0.85,2.09,2.12,3.23,2.91c1.15,0.79,2.67,1.33,3.32,1.33
			c0.65,0,1.62,0.06,3.17-0.61c2.03,3.51,4.41,4.03,5.61,4.08c1.19,0.05,3.2-0.71,3.57-0.91c0.38-0.2,1.52-0.77,1.47,0
			c-0.05,0.77-0.79,0.69-0.73,1.59c0.26-0.14,0.51-0.41,1.29-0.42c2.39,0.1,2.07-1.23,2.09-2.4c0.89,0.01,2.6-0.63,3.03-3.19
			c0.43-2.56,2.66-4.46,4.92-4.49c2.25-0.03,3.25,2.04,3.25,2.4c0,0.36-0.12,2.89-1.65,2.6c-2.53-0.48,0.82-2.35-0.56-3.47
			c-0.16,1.25-2.37,0.44-2.42,2.73c-1.55-0.18-2.85,1.22-3.18,2.75c-0.34,1.53-1.96,1.54-1.77,1.63c0.19,0.1,0.31,0.33,0.81,0.4
			c1.89-0.23,1.37-2.27,6.28-2.27c2.4-0.05,3.43-2.58,3.48-4.44C85.35,145.97,87.23,145.16,87.09,142.78z M46.01,109.21
			c0.12-1.1,1.95-7.47,7.89-8.2c0.73-0.01,1.39,0.41,1.61,0.66c0.21,0.25-0.79,2.51-1.16,3c-0.46,0.28-0.51-0.67-0.49-1.2
			c0.01-0.54,1.35-0.54,1.07-1.65c-0.03-0.56-0.16,0.43-1.56,0.43c-1.51,0.14-2.09,0.89-2.24,1.48c-0.15,0.59,0.49,1.67,0.18,1.67
			c-0.15,0-0.08-0.32-1.08-0.34c-1-0.01-2.14,2.29-2.27,3.22c-0.14,0.92-0.95,2.76-0.61,2.42c0.88-0.87,2.42-3.16,5.87-3.56
			c-0.46,1.43-4.24,5.19-6.88,5.38C45.73,110.76,46.01,109.93,46.01,109.21z M56.65,147.48c-0.37,0.27-0.58,0.94-2.46,0.74
			c-2.78-0.2-5.83-3.92-6.47-5.39c-0.64-1.46-1.12-3.64-0.16-5.55c1.9,0.52,4.85,2.4,6.43,4.75c0.16,0.24,0.18,0.29,0.04,0.29
			c-4.04,0.15-5.05-2.36-5.42-2.7c-0.03,0.23-0.1,0.68,0.79,2.09c0.23,2.3,1.65,2.97,3,3.04c-0.45,1.7,0.46,2.13,0.84,2.47
			c0.38,0.33,1.03,0.38,1.34,0.11c0.81,0,1.51,0.2,1.29-0.01c-0.26-0.42-1.2-2.53-0.65-2.64C55.92,144.65,57.01,147.22,56.65,147.48
			z M56.49,102.23c-0.41,0.97-1.27,3.12-1.27,3.12s1.82,0.29,2.12-1C57.75,102.82,56.97,102.31,56.49,102.23z"/>
	</g>
</g>
<g>
	<linearGradient id="SVGID_7_" gradientUnits="userSpaceOnUse" x1="66.6945" y1="124.5677" x2="66.858" y2="107.2365">
		<stop  offset="0" style="stop-color:#C0CDDD;stop-opacity:0.31"/>
		<stop  offset="0.1997" style="stop-color:#D4DDE8;stop-opacity:0.4478"/>
		<stop  offset="0.4928" style="stop-color:#ECF0F5;stop-opacity:0.65"/>
		<stop  offset="0.7666" style="stop-color:#FAFBFC;stop-opacity:0.839"/>
		<stop  offset="1" style="stop-color:#FFFFFF"/>
	</linearGradient>
	<ellipse class="st8" cx="66.78" cy="115.89" rx="13.14" ry="10"/>
	<linearGradient id="SVGID_8_" gradientUnits="userSpaceOnUse" x1="66.5745" y1="106.3049" x2="65.9262" y2="119.7554">
		<stop  offset="0" style="stop-color:#FFFFFF"/>
		<stop  offset="0.0426" style="stop-color:#F5F5F6;stop-opacity:0.964"/>
		<stop  offset="0.2169" style="stop-color:#D3D3D4;stop-opacity:0.8166"/>
		<stop  offset="0.3942" style="stop-color:#B8B8BA;stop-opacity:0.6668"/>
		<stop  offset="0.5734" style="stop-color:#A4A5A7;stop-opacity:0.5152"/>
		<stop  offset="0.7558" style="stop-color:#999A9C;stop-opacity:0.361"/>
		<stop  offset="0.9463" style="stop-color:#959698;stop-opacity:0.2"/>
	</linearGradient>
	<ellipse class="st9" cx="66.27" cy="112.67" rx="8.21" ry="6.8"/>
</g>
<linearGradient id="SVGID_9_" gradientUnits="userSpaceOnUse" x1="57.1473" y1="140.1774" x2="76.5767" y2="139.9878">
	<stop  offset="0" style="stop-color:#FEFEFE;stop-opacity:0"/>
	<stop  offset="0.5009" style="stop-color:#FFFFFF"/>
	<stop  offset="1" style="stop-color:#F6F6F6;stop-opacity:0"/>
</linearGradient>
<path class="st10" d="M66.82,142.64c3.11,0.1,9.37-2.39,10.44-4.56c-0.51-0.32-0.9-0.44-1.05-0.54c-1.61,1.2-4.89,3.29-9.73,3.02
	c-5.3-0.37-7.06-1.22-10.02-2.95c-0.51,0.42-0.39,0.35-0.65,0.56C57.77,140.33,61.25,142.54,66.82,142.64z"/>
<g>
	<path class="st11" d="M80.27,131.25c-0.58,0.38-1.49,0.46,0.33,0.45c0.64,0,0.42-0.51,0.38-0.75c-0.04-0.24-0.93-3.67-0.98-4.08
		c-0.09-0.39,0.6,0.05,1.05,0.05c0.29,0.01,0.3-0.13,0.32-0.18c0.03-0.05-0.51-0.08-0.55-0.2c-0.03-0.12,1.11-0.29,0.99-0.97
		c-0.07-0.21-0.62-0.07-1.03-0.1c-0.41-0.02,0.53-1.05,0.39-1.31c-0.14-0.27-0.43,0.49-0.91,0.34c-0.48-0.16,0.21-0.8-0.06-1.01
		s-0.28,0.55-0.76,0.55c-0.48,0-0.68-0.82-0.99-0.79c-0.31,0.03,0.26,0.92,0,0.94c-0.26,0.02-1.3-0.63-1.47-0.48
		c-0.17,0.15,0.45,0.41,0.38,0.61c-0.08,0.2-1.71,0.12-1.54,0.71c0.24,0.34,0.89-0.35,1.16,0.07c0.27,0.43-1.3,1.24-0.95,1.52
		c0.34,0.28,1.07-0.94,1.41-0.57c0.34,0.37-0.83,1.31-0.43,1.54s0.75-0.97,1.08-0.77s-0.32,1.28,0.13,1.36s0.61-1.51,0.99-1.43
		C79.57,126.79,80.53,130.23,80.27,131.25z"/>
	<path class="st12" d="M51.35,133.13c0.95-0.48,2.98-0.24,3.8-0.33c0.82-0.09,1.06-0.51,2.38-0.34s2.76,0.5,3.72,0.39
		c0.97-0.11,2.95-0.93,3.89-0.95c0.94-0.02,5.85-0.21,7.19-0.19c0.59,0.02,0.81,0.2,1.77,0.11c0.97-0.09,4.74-0.33,5.45-0.24
		c-1.57,0.07-4.83,0.15-5.35,0.57c0.81,0.51,5.22,2.15,6.25,2.17c1.15,0.73-4.77-1.2-6.96-1.96s-2.78-0.35-3.05-0.3
		s-3.09-0.21-4.13,0.17c-1.04,0.37-4.03,0.53-5.05,0.92c-0.69,0.2-3.04-0.24-4.29-0.12c-0.45,0.03-1.19-0.13-1.83,0
		c-0.64,0.13-3.28,0.17-3.49,0.18S51.35,133.13,51.35,133.13z"/>
</g>
<g>
	<path class="st13" d="M79.91,114.25c-1.95,0.27-3.65,0.18-3.71,3.31s-0.55,3.55-1.2,4.31c-0.64,0.76-1.39,1.45-2.84,1.82
		c-1.45,0.37-3.6,1.5-2.21,4.74c0.85,1.55,1.03,2.18,1.06,3.59c0.04,0.83,0.91,2.95,1.18,3.57c0.27,0.62,1.22,0.48,1.46,1.05
		c0.24,0.38-1.84,0.54-2.1,0.05c-0.96-1.11-2.35-7.9-3.84-7.88c-0.5,0-0.76,1.27-1.01,1.85c-0.39,0.7-0.1,1.18-0.18,1.36
		c-0.08,0.18-0.72,0.03-1.08,1.06c-1.35,3.55,0.7,3.45,0.25,3.92c-0.45,0.47-2.32-0.35-2.35-1.07s0.72-1.69,0.95-2.7
		c0.23-1.02,0.3-0.75,0.28-1.4c0-1.09,1.01-2.9,1.23-4.7c-1.59-0.09-4.13-0.33-5.78-1.24c-0.2,0-0.59,2.56-0.85,4.06
		c-0.26,1.5-1.04,2.03-0.97,2.7c0.07,0.67,1.29,3.13,1.46,3.4c0.17,0.28,1.45,0.25,1.33,0.79c-0.12,0.55-1.57,0.55-2.22,0.3
		c-0.65-0.25-1.15-3.15-1.66-3.7c-1-0.81,0.1-1.74-0.25-2.69c-0.16-0.28-2.94,1.22-3.24,3.09c0,0.48-0.38,1.27-0.26,1.57
		s1.17,1.5,0.87,1.77c-0.3,0.27-1.74-0.85-1.92-1.44c-0.17-0.35,0.3-1.55,0.43-2.19c0.26-0.77-0.06-1.3,0.19-1.77
		c0.27-0.72,2.96-1.92,2.74-4.06c-0.18-0.42-0.35,0.48-0.63,0.46c-0.4,0.04-0.4-1.71-0.38-2.65c0.05-1.44,1.04-2.4,1.21-3.13
		s1.99-2.76,2.02-3.39c0.03-0.63,0.03-0.79,0.14-1.02c0.1-0.23,0.58-1.72,0.79-2.16c0.32,0,0.38-0.14,0.38-0.14l0.11-1.71
		c0,0,6.76-0.88,8.12-0.41c0.77,0.4,1.97,0.69,2.07,0.96c0.11,0.26,0.18,3.55,0.19,3.97s1.47,1.57,1.72,1.7
		c0.25,0.12,1.7-1,1.81-1.7c0.11-0.7,0.35-3.79,0.42-4.39c0.07-0.59,0.18-1.34,0.39-1.51s-0.25-0.27-0.29-0.32
		c-0.03-0.05,0.17-0.45,0.44-0.54c0.19-0.19,0.58-0.4,1.21,0.06c0.63,0.46,1.43,0.53,1.75,0.54c0.89,0.05,1.9,0.01,2.13,0.42
		c0.08,0.56,0.61,0.57,0.62,0.83c0.01,0.26-0.98,0.11-1.23,0.16c-0.25,0.05,0.56,0.27,0.93,0.25S79.91,114.25,79.91,114.25z"/>
	<g>
		<path class="st14" d="M54.82,131.1c-0.53-0.03-0.9,0-0.9,0s-0.25,0.8-0.46,1.2c-0.21,0.41-0.89,2.63-0.83,3.06
			c0.05,0.42,0.98,1.5,1.26,1.38c0.27-0.13-0.55-0.48-0.69-1.25c-0.14-0.78,0.14-1.63,0.16-1.86c0.02-0.23,0.3-1.15,0.44-1.27
			C53.94,132.23,55.03,131.11,54.82,131.1z"/>
		<path class="st14" d="M55.52,124.33c0.05,0.45,0.04,2.72-0.07,2.72c-0.11,0-0.36,0.04-0.36-0.42S55.08,124.51,55.52,124.33z"/>
		<path class="st14" d="M56.11,123.05c-0.08-0.25,1.25-2.82,1.76-2.84s0.49,1.4,1.97,1.3c0,0.55,0,0.66,0,0.66s-0.62,2.61-0.6,3.8
			c0.02,1.19-0.49,1.59-0.33,3.08c0.14,0.92-1.25,2.3-0.93,3.87c0.32,1.58,0.76,2.86,2.31,4.07c-0.62,0.15-1.1-0.26-1.33-0.69
			c-0.23-0.43-1.72-3.08-1.76-3.14c-0.03-0.07-0.07-1.56-0.07-1.56s0.39-0.21,0.26-1.6c-0.13-1.39-1.17-4.24-1.15-4.81
			c0.02-0.57,0.54-0.66,0.67-0.63c0.13,0.03,1.21-1.61,0.74-1.86C57.18,122.45,56.42,123.1,56.11,123.05z"/>
		<path class="st14" d="M60.54,121.78c0.17,0.48-0.1,1.98,0,2.55C60.11,123.7,59.97,122.09,60.54,121.78z"/>
		<path class="st14" d="M63.67,121.54c0.06,1.06,0.07,3.38,0.14,3.8c-0.36-0.08-1.11-0.04-1.08,0.35c-0.82-0.33-1.54-1.21-1.97-1.51
			c0.05-0.93,0-2.01,0-2.01s0.55-0.26,0.5-0.62C61.55,121.38,63.66,121.4,63.67,121.54z"/>
		<path class="st14" d="M64.69,121.78c-0.07,0.86-0.51,2.91,0.26,4.47c-0.58-0.07-0.8-2.41-0.82-2.61
			C64.1,123.44,64.03,121.73,64.69,121.78z"/>
		<path class="st14" d="M72.79,136.3c0.2,0.03,0.24,0.37,0.24,0.37h-1.06c0,0-1.1-2.53-1.85-4.7c-0.86-2.13-2.15-5.65-3.59-6.53
			c-0.01-0.29,0-0.96,0-0.96s-0.65,0.84-1,0.86c-0.34,0.01-0.61-1.54-0.6-1.97c0.01-0.43,0.14-1.69,0.5-1.82
			c0.36-0.12,1.46-0.11,1.56-0.13c0.1-0.02,0.14-1.76,0.13-2.28c-0.02-0.52,0.56-1.2,0.86-1.2s1.13,0.95,1.22,1.15
			c0.44,0.14,1.71,1.5,2.42,1.5s2.17-1.72,2.17-1.86c0-0.14,0.22-3.7,0.22-3.9s-0.1-1.03,0.69-1.13c0.2-0.25,0.08-0.44,0.08-0.44
			s-0.22-0.14-0.1-0.49c0.15-0.25,0.66-0.23,0.66-0.32c0-0.09,0.2-0.33,0.36-0.13c0.2-0.01,0.88,0.1,0.98,0.14
			c0.1,0.04-0.13,0.29-0.29,0.24c-0.16-0.04-0.22,0.29-0.08,0.39c0.11,0.09,0.26,0.14,0.48,0.1c0.26-0.07,0.47-0.36,0.91-0.37
			c0.44-0.01,1.25-0.03,1.22,0.22c0.19,0.19,0.28,0.2,0.28,0.2v0.15l0.5,0.07l-0.08,0.15l-1.15,0.05c0,0-0.24,0.32,0.15,0.33
			s0.66,0.2,0.66,0.2s-1.66,0.19-2.53,0.95c-0.36,0.28-0.83,0.84-0.84,1.27c-0.01,0.61,0,1.63,0,2.1s-0.49,2.3-0.93,2.62
			s-0.8,0.65-1.69,0.65c0,0.34,0,0.51,0,0.51h-0.25l-0.17-0.17h-0.25v0.22v0.27h-0.3v-0.31H72v0.5h-0.44v-0.48H71.3v0.61h-0.22
			v-0.24h-0.44l-0.45,0.45l-0.65-0.02c0,0-0.17,2.91-0.19,3.83c0.3,1.34,0.35,2.32,0.8,2.92c0.44,0.17,0.35,0.72,0.32,0.92
			c-0.03,0.2,0.08,0.56,0.33,1.34s0.27,2.04,0.94,2.89C72.21,135.83,72.09,136.18,72.79,136.3z"/>
		<path class="st14" d="M59.32,116.01c-0.13,0.45-0.63,1.27-0.59,1.83c0.34,0.02,2.51,0,3.49,0c0-0.73,0-1.32,0-1.83
			C61.49,116.01,59.32,116.01,59.32,116.01z"/>
		<path class="st14" d="M62.29,118.19c-0.02,0.63-0.02,2.13-1.07,2.13c-0.46,0-0.61,0-0.61,0v-2.13c0,0,0.26,0,0.59,0
			c0,0.55,0.14,2.12,0.67-0.03c0.19-0.03,0.43-0.02,0.43-0.02V118.19z"/>
		<path class="st14" d="M60.41,118.07c-0.02,0.63-0.02,2.13-1.07,2.13c-0.46,0-0.61,0-0.61,0v-2.13c0,0,0.26,0,0.59,0
			c0,0.55,0.14,2.12,0.67-0.03c0.19-0.03,0.43-0.02,0.43-0.02V118.07z"/>
		<rect x="63.11" y="116.01" class="st14" width="3.34" height="1.03"/>
		<polygon class="st14" points="66.45,117.45 63.11,117.45 63.11,117.86 63.75,117.86 63.75,119.97 64.11,119.97 64.11,117.86 
			65.05,117.86 65.05,119.97 65.42,119.97 65.42,117.86 66.45,117.86 		"/>
		<polygon class="st14" points="63.11,118.08 63.39,118.08 63.39,119.97 63.07,119.97 		"/>
		<polygon class="st14" points="64.39,118.08 64.68,118.08 64.68,119.97 64.31,119.97 64.31,118.08 		"/>
		<rect x="65.66" y="118.08" class="st14" width="0.54" height="1.9"/>
		<polygon class="st14" points="59.57,114.2 59.57,115.44 60.38,115.44 60.41,114.2 		"/>
		<polygon class="st14" points="60.6,115.44 60.6,114.14 64.57,113.86 64.57,115.44 		"/>
		<polygon class="st14" points="64.78,113.86 65.2,113.86 65.25,115.44 64.78,115.44 		"/>
		<rect x="65.39" y="113.86" class="st14" width="1.49" height="1.7"/>
		<polygon class="st14" points="67.34,113.86 68.06,114.2 68.06,115.62 67.34,115.62 		"/>
		<polygon class="st14" points="68.48,114.38 69.19,114.71 69.19,115.93 68.48,115.93 		"/>
	</g>
</g>
<g>
	<g>
		<linearGradient id="SVGID_10_" gradientUnits="userSpaceOnUse" x1="184.9576" y1="94.3997" x2="183.645" y2="156.0885">
			<stop  offset="0" style="stop-color:#FFFFFF"/>
			<stop  offset="0.0259" style="stop-color:#FCFCFC"/>
			<stop  offset="0.6921" style="stop-color:#B2B1B4"/>
			<stop  offset="1" style="stop-color:#959498"/>
		</linearGradient>
		<ellipse class="st15" cx="184.3" cy="125.2" rx="30.7" ry="31.09"/>
		<linearGradient id="SVGID_11_" gradientUnits="userSpaceOnUse" x1="183.7433" y1="155.0461" x2="184.8764" y2="94.5378">
			<stop  offset="0" style="stop-color:#FFFFFF"/>
			<stop  offset="0.2876" style="stop-color:#D7D7D8"/>
			<stop  offset="0.592" style="stop-color:#B3B4B5"/>
			<stop  offset="0.8404" style="stop-color:#9D9EA0"/>
			<stop  offset="1" style="stop-color:#959698"/>
		</linearGradient>
		<ellipse class="st16" cx="184.3" cy="125.2" rx="29.73" ry="30.11"/>
	</g>
	<g>
		<linearGradient id="SVGID_12_" gradientUnits="userSpaceOnUse" x1="184.9576" y1="94.3997" x2="183.645" y2="156.0885">
			<stop  offset="0" style="stop-color:#FFFFFF"/>
			<stop  offset="0.0259" style="stop-color:#FCFCFC"/>
			<stop  offset="0.6921" style="stop-color:#B2B1B4"/>
			<stop  offset="1" style="stop-color:#959498"/>
		</linearGradient>
		<ellipse class="st17" cx="184.3" cy="125.2" rx="30.7" ry="31.09"/>
		<linearGradient id="SVGID_13_" gradientUnits="userSpaceOnUse" x1="183.7433" y1="155.0461" x2="184.8764" y2="94.5378">
			<stop  offset="0" style="stop-color:#FFFFFF"/>
			<stop  offset="0.2876" style="stop-color:#D7D7D8"/>
			<stop  offset="0.592" style="stop-color:#B3B4B5"/>
			<stop  offset="0.8404" style="stop-color:#9D9EA0"/>
			<stop  offset="1" style="stop-color:#959698"/>
		</linearGradient>
		<ellipse class="st18" cx="184.3" cy="125.2" rx="29.73" ry="30.11"/>
	</g>
	<g>
		<linearGradient id="SVGID_14_" gradientUnits="userSpaceOnUse" x1="184.9576" y1="94.3997" x2="183.645" y2="156.0885">
			<stop  offset="0" style="stop-color:#FFFFFF"/>
			<stop  offset="0.0259" style="stop-color:#FCFCFC"/>
			<stop  offset="0.6921" style="stop-color:#B2B1B4"/>
			<stop  offset="1" style="stop-color:#959498"/>
		</linearGradient>
		<ellipse class="st19" cx="184.3" cy="125.2" rx="30.7" ry="31.09"/>
		<linearGradient id="SVGID_15_" gradientUnits="userSpaceOnUse" x1="183.7433" y1="155.0461" x2="184.8764" y2="94.5378">
			<stop  offset="0" style="stop-color:#FFFFFF"/>
			<stop  offset="0.2876" style="stop-color:#D7D7D8"/>
			<stop  offset="0.592" style="stop-color:#B3B4B5"/>
			<stop  offset="0.8404" style="stop-color:#9D9EA0"/>
			<stop  offset="1" style="stop-color:#959698"/>
		</linearGradient>
		<ellipse class="st20" cx="184.3" cy="125.2" rx="29.73" ry="30.11"/>
	</g>
	<ellipse class="st21" cx="184.3" cy="125.2" rx="29" ry="29.37"/>
	<g>
		<linearGradient id="SVGID_16_" gradientUnits="userSpaceOnUse" x1="183.7246" y1="104.4041" x2="182.8642" y2="144.8398">
			<stop  offset="0" style="stop-color:#FFFFFF"/>
			<stop  offset="0.0259" style="stop-color:#FCFCFC"/>
			<stop  offset="0.6921" style="stop-color:#B2B1B4"/>
			<stop  offset="1" style="stop-color:#959498"/>
		</linearGradient>
		<ellipse class="st22" cx="183.3" cy="124.59" rx="19.89" ry="20.38"/>
		<linearGradient id="SVGID_17_" gradientUnits="userSpaceOnUse" x1="182.9287" y1="144.1566" x2="183.6714" y2="104.4947">
			<stop  offset="0" style="stop-color:#FFFFFF"/>
			<stop  offset="0.2876" style="stop-color:#D7D7D8"/>
			<stop  offset="0.592" style="stop-color:#B3B4B5"/>
			<stop  offset="0.8404" style="stop-color:#9D9EA0"/>
			<stop  offset="1" style="stop-color:#959698"/>
		</linearGradient>
		<ellipse class="st23" cx="183.3" cy="124.59" rx="19.26" ry="19.74"/>
	</g>
	<g>
		<g>
			<linearGradient id="SVGID_18_" gradientUnits="userSpaceOnUse" x1="180.9005" y1="106.2868" x2="185.2776" y2="141.0957">
				<stop  offset="0" style="stop-color:#74C7F3"/>
				<stop  offset="0.0721" style="stop-color:#5DADDD"/>
				<stop  offset="0.1828" style="stop-color:#418CC1"/>
				<stop  offset="0.3019" style="stop-color:#2971A9"/>
				<stop  offset="0.4308" style="stop-color:#175B97"/>
				<stop  offset="0.5738" style="stop-color:#0A4C8B"/>
				<stop  offset="0.7424" style="stop-color:#024483"/>
				<stop  offset="1" style="stop-color:#004181"/>
			</linearGradient>
			<ellipse class="st24" cx="183.21" cy="124.66" rx="18.53" ry="18.86"/>
		</g>
		<g>
			<linearGradient id="SVGID_19_" gradientUnits="userSpaceOnUse" x1="183.7631" y1="125.5707" x2="183.6095" y2="106.2158">
				<stop  offset="0" style="stop-color:#C0CDDD;stop-opacity:0.31"/>
				<stop  offset="0.419" style="stop-color:#D8E0EA;stop-opacity:0.5991"/>
				<stop  offset="1" style="stop-color:#FFFFFF"/>
			</linearGradient>
			<ellipse class="st25" cx="183.69" cy="115.81" rx="13.19" ry="10.23"/>
			<linearGradient id="SVGID_20_" gradientUnits="userSpaceOnUse" x1="183.0054" y1="105.2291" x2="183.4663" y2="119.3616">
				<stop  offset="0" style="stop-color:#FFFFFF"/>
				<stop  offset="0.0426" style="stop-color:#F5F5F6;stop-opacity:0.964"/>
				<stop  offset="0.2169" style="stop-color:#D3D3D4;stop-opacity:0.8166"/>
				<stop  offset="0.3942" style="stop-color:#B8B8BA;stop-opacity:0.6668"/>
				<stop  offset="0.5734" style="stop-color:#A4A5A7;stop-opacity:0.5152"/>
				<stop  offset="0.7558" style="stop-color:#999A9C;stop-opacity:0.361"/>
				<stop  offset="0.9463" style="stop-color:#959698;stop-opacity:0.2"/>
			</linearGradient>
			<ellipse class="st26" cx="183.23" cy="112.24" rx="8.12" ry="6.35"/>
		</g>
	</g>
	<linearGradient id="SVGID_21_" gradientUnits="userSpaceOnUse" x1="172.3094" y1="140.1557" x2="193.99" y2="140.1557">
		<stop  offset="0" style="stop-color:#FEFEFE;stop-opacity:0"/>
		<stop  offset="0.5009" style="stop-color:#FFFFFF"/>
		<stop  offset="1" style="stop-color:#F6F6F6;stop-opacity:0"/>
	</linearGradient>
	<path class="st27" d="M193.99,138.06c-1.44,1.34-4.82,4.58-10.57,4.4c-5.75-0.18-7.96-1.37-11.11-4.4c1.32-0.12,1.87,0,1.87,0
		s4.13,2.69,8.97,2.47c4.84-0.21,8.57-2.13,9.19-2.53S193.99,138.06,193.99,138.06z"/>
	<g>
		<path class="st28" d="M171.25,127.04c0.17-0.1-0.22-0.42-1.49-0.4c-0.27-0.59-0.18-1.22-1.2-1.27c-0.01,0.23-0.49-0.53-0.23-0.64
			c0.25-0.12,0.56-0.26,0.56-0.26s-0.38-0.1-0.82-0.12c0.01-0.37,0.48-0.55,0.44-0.79c-0.02-0.22-0.4,0.33-0.91-0.18
			c-0.23-0.23-0.64-0.28-0.64-0.28l-0.67,1.63l-0.11,6.71c0.49,0.23,1.09,0.23,1.24-0.81c0.27-0.96,0.7-1.68,1.04-1.93
			c0.34-0.25,0.22,0.86,0.22,1.2c0,0.34,0.33,0.06,0.53-0.97c0.14-0.4,0.54,0.16,0.54,1.06c0.02,0.38,0.58-0.33,0.6-0.56
			c0.03-0.24-0.16-0.85,0.05-0.98c0.21-0.14,0.6,0.42,0.77,0.26s-0.41-0.97-0.8-1.56C170.05,126.89,171.07,127.15,171.25,127.04z
			 M167.32,129.41c-0.26-0.38-0.05-0.7-0.05-0.7s0.14-0.85,0.86-0.82C168.43,128.29,167.78,129.03,167.32,129.41z M167.65,126.88
			c0.01-0.22,0.1-0.32,0.23-0.31c0.14,0.01,0.21,0.09,0.21,0.09c0.07,0.21,0.02,0.45-0.1,0.44
			C167.86,127.09,167.64,127.1,167.65,126.88z M168.94,126.27c-0.1,0.36-0.8,0.02-1.06-0.1c-0.26-0.12-0.29-0.49-0.12-0.54
			c0.18-0.05,0.42-0.06,0.42-0.06C168.71,125.73,169.03,125.9,168.94,126.27z"/>
		<g>
			<path class="st29" d="M167.42,131.57c0,0,1.93,0.12,2.5,0.91c0.59,0.02,0.68,0,0.68,0s-0.11-0.14-0.46-0.14
				c0.24-0.22,0.48-0.18,0.71-0.18c0.24,0,2.3,0.5,2.88,0.5c0.58,0,3.24,0.73,3.95,0.78s6.41,0,6.41,0s-2.42,0.43-3.75,0.62
				c1.78,0.54,5.16,1.63,9.22,2.11c-0.35,0.37-4.68-0.46-5.83-0.74c-1.15-0.28-4.12-0.78-4.79-1.06c-0.68-0.27-1.24-0.65-1.74-0.69
				c-0.5-0.04-3.24-0.64-4.28-0.74s-5.47,0.23-5.99,0.23s-0.29-0.58,0.12-0.62s2.8,0.01,2.8,0.01s-0.7-0.29-0.89-0.43
				c-0.37-0.12-1.54-0.42-1.88-0.43C167.04,131.65,167.42,131.57,167.42,131.57z"/>
			<path class="st29" d="M197.46,134.88c-3.11-0.1-3.31-0.74-3.82-0.79c-0.51-0.06-2.43-0.15-3.22-0.19
				c-2.21,0.01-5.11-0.89-5.64-0.46c0.79,0.15,1.15,0.27,1.88,0.37c0.73,0.1,2.75,0.19,3.5,0.29s2.29,0.18,2.79,0.23
				c0.5,0.05,1.5,0.55,1.89,0.55C195.24,134.88,197.12,135.15,197.46,134.88z"/>
		</g>
	</g>
	<g>
		<path class="st30" d="M170.97,116.31c0.96-0.23,2.48-0.82,3.26-0.73c0.79,0.09,0.68,0.84,0.7,1.79c0.02,0.95,0.28,5.29,0.3,5.6
			s0.63,1.9,0.56,2.47c-0.29,1.53-2.02,2.61-2.18,3.31c-0.29,1.04,0.5,6.25,2.96,5.87c0.91-0.07-1.55-2.15-1.57-4.58
			c0.02-1.18,1.71-1.14,2.44-1.77c0.37-0.14,0.82,1.66,0.82,2.49c0,0.83,0.38,3.02,0.22,3.87c-0.15,0.48-0.73,1.02-0.67,1.35
			c0.06,0.33,0.97,0.27,1.38,0.3s0.55-1.11,0.55-1.65c0-0.55-0.04-5.27,0-6.12c0.01-0.66,0.22-1.01,0.22-1.4
			c0.43,0.01,1.05,0.59,3.02,0.43c1.97-0.17,3.43-0.68,4.29-0.54c0.31,1.72,1.76,2.91,1.61,3.57s-3.59,2.14-3.55,3.95
			c-0.01,0.48,0.62,0.78,1.24,0.16c0.29-0.56,0.03-1.46,0.84-1.25c0.76-0.58,2.78-2.37,3.72-2.15c0.94,0.22,1.85,1.31,1.83,1.79
			c-0.01,0.47,0.11,2.85,0.08,3.2c-0.34,0.45-1.52,1.36,0.25,1.28c0.8-0.02,1.15-1.45,1.14-2.01c-0.02-0.56,0-1.93,0-2.71
			c0-1.67-1.9-3.12-1.72-3.95c0.29-1.37,0.89-3.72,0.7-5.9c0.67,0.6,0.85,1.81,0.87,2.8s1.59,2.9,1.93,3.24
			c0.36-0.7,0.58-1.29,0.5-1.8c0.51-0.32,0-0.67-0.16-1.33c-0.43-1.24-0.28-2.77-1.58-3.65c-1.31-0.87-2.29-0.68-2.7-0.76
			c-0.65-0.82-1.72-1.05-3.29-1.14c-1.57-0.09-4.23,0.49-5.22-0.14c-0.99-0.63-2.91-3.21-3.94-4.31c-0.91-1.17-2.39-3.68-3.56-4.4
			c-0.61-0.59-1.28-1.27-1.53-1.32c-0.25-0.05-0.5,1.34-1.11,1.39c-0.61,0.05-0.84,1.26-1.44,1.82c-0.6,0.56-0.97,1.29-1.21,1.47
			c-0.23,0.17-0.05,0.43,0.29,0.39s-0.33,0.32-0.57,0.42C170.34,115.82,170.67,116.4,170.97,116.31z"/>
		<path class="st14" d="M175.04,110.96c-0.09,0.3-0.26,0.81-0.41,0.84c-0.15,0.03-0.86-0.17-1.25,0.62s-1.42,1.98-1.95,2.34
			c-0.53,0.36-0.33,0.41-0.15,0.5s-0.02,0.49-0.2,0.5c-0.18,0.01-0.32,0.19-0.24,0.36c0.07,0.18,1.82-0.28,2.22-0.37
			c0.63-0.2,2.5,0.12,2.66-0.87c0.15-0.84,0.72,0.67-0.32,0.93c0,1.03,0.2,6.22,0.19,7.59c0.67,0.76,0.86,1.61,0.84,2.17
			c-0.02,0.56-1.98,2.74-2.55,3.42c-0.04,0.61,0.56,3.73,0.56,3.73s0.94,1.42,1.58,1.64c0.21-0.3,0-0.45,0-0.45l-0.98-0.96
			c0,0-0.64-2.41-0.45-3.07c0.34-1.07,2.78-1.85,3.08-2.36c0.3-0.51,1.03-1.68,1.3-1.68c0.28,0,1.54,1.33,3.27,1.26
			c2.34-0.07,5.4-1.33,6.04-0.89s0.2,2.73,2.29,4.45c2.09,1.71,2.49,1.44,2.64,2.69c0.15,1.25,0,2.9,0,2.9l-0.03,0.62l-0.22,0.28
			l0.55,0.15c0,0,0.22-0.27,0.26-0.43c0.04-0.16,0.13-0.95,0.22-1.66c0.09-0.71-0.09-2.8-0.2-3.21c-0.1-0.41-1.77-2.03-1.67-3.11
			c0.1-1.08,1.06-3.35,0.49-5.56c-0.26-0.59-0.37-0.87-0.37-0.87l1.16,0.08c0,0,0.96,0.47,1.14,2.21c0.18,1.75,0.59,2.78,1.32,3.19
			c0.28,0.08,0.35-0.14,0.35-0.14l-0.63-0.63l0.63-0.14l-0.83-0.98h0.37c0,0,0.08-1.12-0.04-1.39c-0.12-0.27-0.59-1.71-1.42-2.11
			c-0.83-0.41-2.1-0.24-2.24-0.24c-0.41-0.43-1.75-1.48-3.11-1.34s-4.27,0.35-4.63,0.26c-0.36-0.08-1.82-0.59-2.35-1.68
			c-0.28,0.2-0.49,0.3-0.49,0.3l-0.18-0.71l-0.21,0.09l-0.04,0.47l-0.35,0.01l-0.04-1.11l-0.3,0.07l-0.67,1.27
			c0,0-0.06-1.89-0.31-2.87c-0.1,0.52-0.29,1.53-0.61,1.54c0-1.89-0.04-2.85-0.1-3.12c-0.23-0.23-0.42,1.29-0.71,1.44
			c-0.04-1.34,0.09-2.1,0.01-2.33c-0.08-0.24-0.46,0.03-0.52-0.35c-0.53-0.36-1.71-1.23-1.91-1.83
			C175.31,111.81,175.04,110.96,175.04,110.96z"/>
	</g>
	<path class="st31" d="M209.49,125.84c0.57-0.88,1.77-2.68,1.73-4.7c0-2.79-1.92-3.67-2.66-5.03c-0.45-0.46,0.63-0.79,0.51-1.28
		c-0.12-0.5-1.06-1.4-3.31-1.42c0.14-0.7,1.01-0.99,1.5-0.83c0.1,0.22,0.18,0.18,0.18,0.18l0.66-0.03c0,0-0.02-1.2-0.02-1.5
		c0-0.29-0.71-0.77-2.07-0.67c0.41-1.17,0.62-1.15,0.6-2.25c-0.02-1.1-2.79-2.82-3.97-4.23c-1.19-1.41-2.83-3.45-6.27-3.98
		c-1-0.1-1.44,0.77-2.22,0.66c-0.79-0.1-1.18-4.19-5.86-4.27c-2.43,0-4.19,1.21-5.11,0.86c-0.63-0.16,0.68-0.81,0.68-1.58
		c0-0.35-0.59,0.62-1.75,0.44c-1.03-0.14-2.36,0.42-1.77,2.3c-1.23-0.03-2.23,0.2-2.87,2.43c-0.64,2.22-2.53,5.06-5.28,4.84
		c-2.76-0.23-3.59-1.5-3.61-2.49c-0.02-0.98,0.62-2.12,1.6-2.07c0.99,0.05,1.1,0.66,0.8,0.95c-0.29,0.29-1.24,1.13-1.13,1.63
		c0.11,0.49,0.42,0.85,0.42,0.85l0.31,0.02c0,0,0.36-0.71,1.05-0.79c0.7-0.08,1.8-0.51,1.83-2.04c1.42-0.01,2.46-0.03,3.06-2.36
		c0.24-0.91,1.27-1.76,1.59-1.94c-0.77-0.49-2.07,0.23-2.87,0.99c-0.8,0.76-3.44,0.83-4.4,0.78c-0.96-0.05-3.52,0.82-3.44,4.26
		c-1.49-0.16-4.01,0.07-4.11,2.58c0,1.56,1.84,2.33,2.61,3.76c0.77,1.43,0.25,2.4,0.25,2.4c1.33-0.51,2.38-1.54,1.52-2.9
		c0.62-0.59,1.02-2.34-0.6-3.36c-0.13,0.68-0.4,1.87-1.41,1.82c-1-0.05-1.76-1.13-1.49-2.11c0.27-0.97,1.49-1.24,1.99-1.13
		c1.16,0.28,3.52,1.97,4.18,2.27c-0.28,0.53-0.64,1.65-0.49,1.84c0.14,0.19,1.28-0.98,2.04-1.78c1.12,0.06,3.25-0.86,4.72-2.14
		c2.44-1.62,4.78-4.62,5.49-5.1c0.71-0.49,4.27-2.91,7.31-1.86c-0.64,0.66-0.66,0.92-0.6,1.22c0.06,0.31,1.02,1.01,1.43,1.43
		c0.16-0.51,0.27-1.33,0.81-1.3c0.55,0.03,1.66,0.7,2.11,1.78c-0.53,0.22-3.09,2.29-5.16,2.29c-1.65-0.03-1.94-0.4-1.95-0.67
		c-0.01-0.27,0.84-0.6,1.23-0.31c-0.22-0.83-1.38-1.41-1.66-1.39c-0.27,0.02-1.41,0.36-1.55,0.9c-0.42-0.33-0.47-0.69-0.47-0.87
		c0-0.29,0.65-1.14,1.94-1.16c1.29-0.02,2.16,1.5,2.62,1.57c0.44,0-0.34-2.08-2.59-2.08c-2.01,0.01-2.4,1.69-2.75,2.19
		c-0.36,0.5-1.72,1.79-2.65,1.81c-0.03,0.56,0.88,0.63,1.33,0.54c0.45-0.1,0.86-0.63,1.78-0.57c0.92,0.06,1.76,1.18,3.6,1.13
		c1.84-0.04,4.28-1.04,4.78-1.12c0.11,1.09,0.42,3.46,4.1,4.11c1.1,2.27,4.55,6.17,7.58,7.33c-0.51,1.28-0.96,2.7,0.22,3.85
		c0.2-0.51-0.27-2.27,0.88-2.99c0.95,1.08,3.81,1.06,5.39,3.65c-1.48,0.25-2.22,1.21-2,2.02c0.87,0.02,2.96-0.03,2.38,2.02
		c-0.6,2.04-2.66,1.77-3.14,1.82c-0.48,0.05-2.31-1.05-2.09-1.38c0.23-0.32,1.05,0.79,1.81,0.69c0.75-0.09,0.91-0.44,0.92-0.63
		c0.01-0.2-1.13-1.34-1.18-1.66c-0.05-0.31,0.88-0.81,0.78-0.95c-0.11-0.14-0.77-1-1.01-1c-0.25,0-0.97,1.05-1.05,1.48
		c-0.54-0.16-0.84-0.56-0.88-1.07c-0.04-0.51,1.61-2.19,2.98-1.97c-0.01-0.7-1.81-0.71-3.07,0.73c-1.11,1.37-0.88,4.47,0.83,5.97
		c-1.47,1.21-1.9,3.59-1.92,4.11c-0.02,0.52,0.32,2.68,3.09,3.11c1.9-0.08,0.64-1.77,0.6-1.86c-0.03-0.1-0.32,0.89-1.21,0.81
		c-1.14-0.17-1.7-1.15-1.7-1.51c0-0.36,0.13-0.87,0.93-0.92c0.81-0.05,0.62,1.28,0.43,1.53c0.25,0.22,1.37-0.06,1.37-0.82
		c0-0.76-0.23-1.27-0.15-1.58c0.08-0.3,1.15-0.62,1.09-1c-0.06-0.38-0.35-1.54-2.27-0.49c0.06-0.47,0.51-0.96,1.6-1.13
		c1.08-0.17,2.92,1.05,2.96,2c0.05,0.94-0.12,2.14-0.91,2.27c-0.79,0.12-0.99-0.76-1.25-0.72c-0.25,0.03-0.45,0.82-0.41,1.24
		c0.03,0.42,0.68,1.06,1.28,1c0.6-0.06,1.41-0.4,0.47,0.97c-0.5,0.71-0.8,1.16-0.97,1.44c0,0,0,0,0,0c-0.07,0.13-0.34,0.5-0.44,0.94
		c-0.16,0.71-0.8,1.22-1.53,1.29c-0.99,0.1-2.09,0.15-2.48-0.1c-0.77-0.48-1.28-1.89-1.49-1.92c-0.21-0.03-0.14,0.22-0.14,0.22
		c0.48,1.22,0.86,1.43,0.44,1.81c-0.42,0.38-6.1,4.32-7.75,6.61c-2.71,0.71-3.91,1.24-4.21,4.12c-2.33-0.89-3.84-1.3-4.87-1.24
		c-1.02,0.06-3.43,0.82-3.96,0.84c-0.53,0.02-0.81-0.62-1.94-0.35c0.52,0.44,1.67,1.56,2.21,2.21c-0.03,1.01,0.85,2.51,2.22,2.64
		c0.91,0.13,2.16-1.56,2.49-1.83c0.33-0.27-1.71,0.96-2.44,0.99c-0.74,0.03-1.82-0.84-1.52-2.04c0.36,0.08,0.94,0.98,1.42,0.92
		c0.75-0.03,1.27-0.68,1.64-0.96c-0.49-0.46-0.86-0.68-0.86-0.92c0-0.23,1.24-0.76,1.73-0.59c0.5,0.18,4.06,1.03,5,2.28
		c0.46,0.7-1.13,1.95-1.78,2.15c-0.42,0.15-0.6-1.14-0.62-1.36c-0.01-0.22-1.61,0.74-1.94,1.46c-0.08,0.39,0.41,0.76,0.71,1.3
		c0.2,0.34-1.18,0.3-2,0.23c-0.82-0.08-3.02-0.2-4.89-2.27c-2.3-2.08-3.63-6.73-9.82-7.66c-0.61-0.52-1.05-1.26-1.77-1.95
		c-0.47-0.52,0.12,1.71,0.4,2.07c-1.81,0.36-2.99,2.43-4.38,2.39c-0.84-0.07-2.07-1.17-2.03-1.89c0.05-0.73,0.53-1.7,1.51-1.7
		c0.97,0,1.73,1.15,1.03,1.84c-0.13,0.33,0.42,0.31,0.84-0.13c0.41-0.44,1.33-1.27,1.1-1.97c-0.05-0.3-0.72-0.4-0.71-0.85
		c0.02-0.45,0.49-0.25,0.34-1.16c-0.15-0.92-1.29-2.02-1.69-2.65c-0.79,0.71,0.25,2.3-0.12,3.09c-0.37,0.79-3.19,1.51-2.99,3.73
		c0.21,2.22,2.24,2.7,4.2,2.3c0,1.85,0.39,2.12,0.63,2.52c0.23,0.4,0.42,1.3,1.25,1.67c0.84,0.36,3.42,0.08,3.92,0.25
		c1.47,0.4,3.11,2.94,4.66,2.04c-0.5-0.37-1.11-0.21-1.64-1.36c-0.53-1.15-1.22-3.39-3.25-3.07c0-2.27-2.09-1.41-2.77-2.8
		c-0.42,1.31,1.46,2.08,0.66,3.31c-0.47,0.69-2.37,0.18-2.5-1.37c-0.12-1.55,0.24-2.03,1.11-2.62c0.86-0.59,2.81-1.09,4.1-0.27
		c1.28,0.81,2.68,1.33,3.35,4.95c0.49,2.19,2.42,2.19,2.69,2.23c-0.21,0.99-0.49,1.96,0.75,2.42c0.42,0.12,1.73-0.18,2.23,0.22
		c0.12,0.09,0.42,0,0.42,0s-1.4-1.61-0.6-1.58c0.8,0.03,2.85,1.11,4.03,1.09c1.18-0.02,2.12-0.01,2.65-0.16
		c0.53-0.16,3.61-3.18,3.83-3.93c1.83,0.77,2.55,0.64,2.98,0.64c1.48-0.04,3.4-1.07,5.11-2.84c1.7-1.76,3.17-2.53,3.56-3.16
		c0.39-0.64,1.44-1.81,0.94-3.18c1.4-0.12,1.93-0.58,2.43-2.45c-0.88-0.05-2.83-0.1-2.94-0.61c-0.12-0.43,2.78-1.14,3.1-1.23
		c0.18-0.06,0.3-0.31,0.34-0.51c0.21-1.22,0.79-2.35,1.54-3.33c0.65-0.86,1.26-1.89,1.32-2.76
		C211.09,127.8,210.57,126.53,209.49,125.84z M192.99,104.68c-0.22-0.58-0.11-1.63,0.64-2.1c0,0,1.05,2.19,1.42,3.26
		C193.65,105.87,193.21,105.26,192.99,104.68z M203.92,112.84c-4.14-0.85-6.55-4.47-6.8-5.51c3.16,0.52,4.83,2.63,5.83,3.5
		c-0.19-0.73-0.51-1.02-0.71-2.26c-0.44-2.94-1.54-3.11-1.85-3.2c-0.31-0.08-1.15,0.21-1.62,0.33c0.07-0.27,0.25-0.94,0.29-1.33
		c0.04-0.4-0.58-1.69-1.86-1.67c-1.49,0-1.71-0.64-1.96-0.5c-0.11,0.69,1.04,1.16,1.12,1.62c0.07,0.46-0.12,1.27-0.6,1.41
		c0-0.57-0.81-2.81-1.04-3.37c0.18-0.16,0.79-0.48,1.27-0.48c0.49,0,2.38-0.35,5.42,2.65C204.43,107.02,204.43,109.65,203.92,112.84
		z M192.2,147.34c-0.49-0.55-0.73-1.34-0.49-1.91c0.24-0.57,1.09-1.52,2.03-1.06C193.75,144.37,192.8,146.52,192.2,147.34z
		 M202.95,141.89c-0.22,0.88-1.76,3.2-2.24,3.56c-0.47,0.36-0.75,1.28-1.75,1.9c-1,0.62-1.43,1.39-3.22,1.22
		c-1.78-0.16-2.44-0.56-2.44-0.56s0.99-3.2,1.68-3.07c0.28,0.55-0.23,2.14-0.62,2.55c1.05,0.15,1.23,0.18,2.14,0.12
		c0.91-0.06,1.29-0.62,1.45-1.02c0.16-0.39-0.08-1.24-0.27-1.45c1.14,0,2.49-0.27,2.84-1.12c0.36-0.85,0.05-1.8,0.45-2.4
		c0.4-0.59,0.97-1.48,0.77-1.62c-0.19-0.14-1.15,1.19-1.86,1.61c-0.71,0.42-1.86,1.35-3.81,0.97c0.09-0.11,0.13-0.16,0.13-0.16
		c0.95-1.09,2.73-3.51,6.44-4.84C203.38,140.18,203.17,141.01,202.95,141.89z"/>
	<linearGradient id="SVGID_22_" gradientUnits="userSpaceOnUse" x1="187.9123" y1="98.3308" x2="184.3577" y2="156.7286">
		<stop  offset="0" style="stop-color:#FFFEFF"/>
		<stop  offset="0.1383" style="stop-color:#E6E6E7"/>
		<stop  offset="0.3732" style="stop-color:#C2C2C4"/>
		<stop  offset="0.5934" style="stop-color:#A8A9AB"/>
		<stop  offset="0.7908" style="stop-color:#99999B"/>
		<stop  offset="0.9463" style="stop-color:#939496"/>
	</linearGradient>
	<path class="st32" d="M209.09,125.6c0.57-0.88,1.77-2.68,1.73-4.7c0-2.79-1.92-3.67-2.66-5.03c-0.45-0.46,0.63-0.79,0.51-1.28
		c-0.12-0.5-1.06-1.4-3.31-1.42c0.14-0.7,1.01-0.99,1.5-0.83c0.1,0.22,0.18,0.18,0.18,0.18l0.66-0.03c0,0-0.02-1.2-0.02-1.5
		c0-0.29-0.71-0.77-2.07-0.67c0.41-1.17,0.62-1.15,0.6-2.25c-0.02-1.1-2.79-2.82-3.97-4.23c-1.19-1.41-2.83-3.45-6.27-3.98
		c-1-0.1-1.44,0.77-2.22,0.66c-0.79-0.1-1.18-4.19-5.86-4.27c-2.43,0-4.19,1.21-5.11,0.86c-0.63-0.16,0.68-0.81,0.68-1.58
		c0-0.35-0.59,0.62-1.75,0.44c-1.03-0.14-2.36,0.42-1.77,2.3c-1.23-0.03-2.23,0.2-2.87,2.43c-0.64,2.22-2.53,5.06-5.28,4.84
		c-2.76-0.23-3.59-1.5-3.61-2.49c-0.02-0.98,0.62-2.12,1.6-2.07s1.1,0.66,0.8,0.95c-0.29,0.29-1.24,1.13-1.13,1.63
		c0.11,0.49,0.42,0.85,0.42,0.85l0.31,0.02c0,0,0.36-0.71,1.05-0.79c0.7-0.08,1.8-0.51,1.83-2.04c1.42-0.01,2.46-0.03,3.06-2.36
		c0.24-0.91,1.27-1.76,1.59-1.94c-0.77-0.49-2.07,0.23-2.87,0.99c-0.8,0.76-3.44,0.83-4.4,0.78c-0.96-0.05-3.52,0.82-3.44,4.26
		c-1.49-0.16-4.01,0.07-4.11,2.58c0,1.56,1.84,2.33,2.61,3.76c0.77,1.43,0.25,2.4,0.25,2.4c1.33-0.51,2.38-1.54,1.52-2.9
		c0.62-0.59,1.02-2.34-0.6-3.36c-0.13,0.68-0.4,1.87-1.41,1.82c-1-0.05-1.76-1.13-1.49-2.11c0.27-0.97,1.49-1.24,1.99-1.13
		c1.16,0.28,3.52,1.97,4.18,2.27c-0.28,0.53-0.64,1.65-0.49,1.84c0.14,0.19,1.28-0.98,2.04-1.78c1.12,0.06,3.25-0.86,4.72-2.14
		c2.44-1.62,4.78-4.62,5.49-5.1c0.71-0.49,4.27-2.91,7.31-1.86c-0.64,0.66-0.66,0.92-0.6,1.22c0.06,0.31,1.02,1.01,1.43,1.43
		c0.16-0.51,0.27-1.33,0.81-1.3c0.55,0.03,1.66,0.7,2.11,1.78c-0.53,0.22-3.09,2.29-5.16,2.29c-1.65-0.03-1.94-0.4-1.95-0.67
		c-0.01-0.27,0.84-0.6,1.23-0.31c-0.22-0.83-1.38-1.41-1.66-1.39c-0.27,0.02-1.41,0.36-1.55,0.9c-0.42-0.33-0.47-0.69-0.47-0.87
		c0-0.29,0.65-1.14,1.94-1.16c1.29-0.02,2.16,1.5,2.62,1.57c0.44,0-0.34-2.08-2.59-2.08c-2.01,0.01-2.4,1.69-2.75,2.19
		c-0.36,0.5-1.72,1.79-2.65,1.81c-0.03,0.56,0.88,0.63,1.33,0.54c0.45-0.1,0.86-0.63,1.78-0.57c0.92,0.06,1.76,1.18,3.6,1.13
		c1.84-0.04,4.28-1.04,4.78-1.12c0.11,1.09,0.42,3.46,4.1,4.11c1.1,2.27,4.55,6.17,7.58,7.33c-0.51,1.28-0.96,2.7,0.22,3.85
		c0.2-0.51-0.27-2.27,0.88-2.99c0.95,1.08,3.81,1.06,5.39,3.65c-1.48,0.25-2.22,1.21-2,2.02c0.87,0.02,2.96-0.03,2.38,2.02
		c-0.6,2.04-2.66,1.77-3.14,1.82c-0.48,0.05-2.31-1.05-2.09-1.38c0.23-0.32,1.05,0.79,1.81,0.69c0.75-0.09,0.91-0.44,0.92-0.63
		c0.01-0.2-1.13-1.34-1.18-1.66c-0.05-0.31,0.88-0.81,0.78-0.95c-0.11-0.14-0.77-1-1.01-1c-0.25,0-0.97,1.05-1.05,1.48
		c-0.54-0.16-0.84-0.56-0.88-1.07c-0.04-0.51,1.61-2.19,2.98-1.97c-0.01-0.7-1.81-0.71-3.07,0.73c-1.11,1.37-0.88,4.47,0.83,5.97
		c-1.47,1.21-1.9,3.59-1.92,4.11c-0.02,0.52,0.32,2.68,3.09,3.11c1.9-0.08,0.64-1.77,0.6-1.86c-0.03-0.1-0.32,0.89-1.21,0.81
		c-1.14-0.17-1.7-1.15-1.7-1.51c0-0.36,0.13-0.87,0.93-0.92c0.81-0.05,0.62,1.28,0.43,1.53c0.25,0.22,1.37-0.06,1.37-0.82
		c0-0.76-0.23-1.27-0.15-1.58c0.08-0.3,1.15-0.62,1.09-1c-0.06-0.38-0.35-1.54-2.27-0.49c0.06-0.47,0.51-0.96,1.6-1.13
		c1.08-0.17,2.92,1.05,2.96,2c0.05,0.94-0.12,2.14-0.91,2.27c-0.79,0.12-0.99-0.76-1.25-0.72c-0.25,0.03-0.45,0.82-0.41,1.24
		c0.03,0.42,0.68,1.06,1.28,1c0.6-0.06,1.41-0.4,0.47,0.97c-0.5,0.71-0.8,1.16-0.97,1.44c0,0,0,0,0,0c-0.07,0.13-0.34,0.5-0.44,0.94
		c-0.16,0.71-0.8,1.22-1.53,1.29c-0.99,0.1-2.09,0.15-2.48-0.1c-0.77-0.48-1.28-1.89-1.49-1.92c-0.21-0.03-0.14,0.22-0.14,0.22
		c0.48,1.22,0.86,1.43,0.44,1.81c-0.42,0.38-6.1,4.32-7.75,6.61c-2.71,0.71-3.91,1.24-4.21,4.12c-2.33-0.89-3.84-1.3-4.87-1.24
		c-1.02,0.06-3.43,0.82-3.96,0.84c-0.53,0.02-0.81-0.62-1.94-0.35c0.52,0.44,1.67,1.56,2.21,2.21c-0.03,1.01,0.85,2.51,2.22,2.64
		c0.91,0.13,2.16-1.56,2.49-1.83c0.33-0.27-1.71,0.96-2.44,0.99c-0.74,0.03-1.82-0.84-1.52-2.04c0.36,0.08,0.94,0.98,1.42,0.92
		c0.75-0.03,1.27-0.68,1.64-0.96c-0.49-0.46-0.86-0.68-0.86-0.92c0-0.23,1.24-0.76,1.73-0.59c0.5,0.18,4.06,1.03,5,2.28
		c0.46,0.7-1.13,1.95-1.78,2.15c-0.42,0.15-0.6-1.14-0.62-1.36c-0.01-0.22-1.61,0.74-1.94,1.46c-0.08,0.39,0.41,0.76,0.71,1.3
		c0.2,0.34-1.18,0.3-2,0.23c-0.82-0.08-3.02-0.2-4.89-2.27c-2.3-2.08-3.63-6.73-9.82-7.66c-0.61-0.52-1.05-1.26-1.77-1.95
		c-0.47-0.52,0.12,1.71,0.4,2.07c-1.81,0.36-2.99,2.43-4.38,2.39c-0.84-0.07-2.07-1.17-2.03-1.89c0.05-0.73,0.53-1.7,1.51-1.7
		c0.97,0,1.73,1.15,1.03,1.84c-0.13,0.33,0.42,0.31,0.84-0.13c0.41-0.44,1.33-1.27,1.1-1.97c-0.05-0.3-0.72-0.4-0.71-0.85
		c0.02-0.45,0.49-0.25,0.34-1.16c-0.15-0.92-1.29-2.01-1.69-2.65c-0.79,0.71,0.25,2.3-0.12,3.09c-0.37,0.79-3.19,1.51-2.99,3.73
		c0.21,2.22,2.24,2.7,4.2,2.3c0,1.85,0.39,2.12,0.63,2.52c0.23,0.4,0.42,1.3,1.25,1.67c0.84,0.36,3.42,0.08,3.92,0.25
		c1.47,0.4,3.11,2.94,4.66,2.04c-0.5-0.37-1.11-0.21-1.64-1.36c-0.53-1.15-1.22-3.39-3.25-3.07c0-2.27-2.09-1.41-2.77-2.8
		c-0.42,1.31,1.46,2.08,0.66,3.31c-0.47,0.69-2.37,0.18-2.5-1.37c-0.12-1.55,0.24-2.03,1.11-2.62c0.86-0.59,2.81-1.09,4.1-0.27
		c1.28,0.81,2.68,1.33,3.35,4.95c0.49,2.19,2.42,2.19,2.69,2.23c-0.21,0.99-0.49,1.96,0.75,2.42c0.42,0.12,1.73-0.18,2.23,0.22
		c0.12,0.09,0.42,0,0.42,0s-1.4-1.61-0.6-1.58c0.8,0.03,2.85,1.11,4.03,1.09c1.18-0.02,2.12-0.01,2.65-0.16
		c0.53-0.16,3.61-3.18,3.83-3.93c1.83,0.77,2.55,0.64,2.98,0.64c1.48-0.04,3.4-1.07,5.11-2.84c1.7-1.76,3.17-2.53,3.56-3.16
		c0.39-0.64,1.44-1.81,0.94-3.18c1.4-0.12,1.93-0.58,2.43-2.45c-0.88-0.05-2.83-0.1-2.94-0.61c-0.12-0.43,2.78-1.14,3.1-1.23
		c0.18-0.06,0.3-0.31,0.34-0.51c0.21-1.22,0.79-2.35,1.54-3.33c0.65-0.86,1.26-1.89,1.32-2.76
		C210.68,127.56,210.16,126.29,209.09,125.6z M192.58,104.43c-0.22-0.58-0.11-1.63,0.64-2.1c0,0,1.05,2.19,1.42,3.26
		C193.25,105.62,192.81,105.01,192.58,104.43z M203.52,112.59c-4.14-0.85-6.55-4.47-6.8-5.51c3.16,0.52,4.83,2.63,5.83,3.5
		c-0.19-0.73-0.51-1.02-0.71-2.26c-0.44-2.94-1.54-3.11-1.85-3.2c-0.31-0.08-1.15,0.21-1.62,0.33c0.07-0.27,0.25-0.94,0.29-1.33
		c0.04-0.4-0.58-1.69-1.86-1.67c-1.49,0-1.71-0.64-1.96-0.5c-0.11,0.69,1.04,1.16,1.12,1.62c0.07,0.46-0.12,1.27-0.6,1.41
		c0-0.57-0.81-2.81-1.04-3.37c0.18-0.16,0.79-0.48,1.27-0.48c0.49,0,2.38-0.35,5.42,2.65C204.02,106.78,204.02,109.41,203.52,112.59
		z M191.79,147.1c-0.49-0.55-0.73-1.34-0.49-1.91c0.24-0.57,1.09-1.52,2.03-1.06C193.34,144.13,192.4,146.28,191.79,147.1z
		 M202.55,141.64c-0.22,0.88-1.76,3.2-2.24,3.56c-0.47,0.36-0.75,1.28-1.75,1.9c-1,0.62-1.43,1.39-3.22,1.22
		c-1.78-0.16-2.44-0.56-2.44-0.56s0.99-3.2,1.68-3.07c0.28,0.55-0.23,2.14-0.62,2.55c1.05,0.15,1.23,0.18,2.14,0.12
		c0.91-0.06,1.29-0.62,1.45-1.02c0.16-0.39-0.08-1.24-0.27-1.45c1.14,0,2.49-0.27,2.84-1.12c0.36-0.85,0.05-1.8,0.45-2.4
		c0.4-0.59,0.97-1.48,0.77-1.62c-0.19-0.14-1.15,1.19-1.86,1.61c-0.71,0.42-1.86,1.35-3.81,0.97c0.09-0.11,0.13-0.16,0.13-0.16
		c0.95-1.09,2.73-3.51,6.44-4.84C202.97,139.93,202.76,140.77,202.55,141.64z"/>
</g>
<g>
	<linearGradient id="SVGID_23_" gradientUnits="userSpaceOnUse" x1="125.965" y1="82.5886" x2="123.197" y2="166.1798">
		<stop  offset="0" style="stop-color:#FFFFFF"/>
		<stop  offset="0.2971" style="stop-color:#D5D5D8"/>
		<stop  offset="0.5974" style="stop-color:#B1B2B6"/>
		<stop  offset="0.8425" style="stop-color:#9B9CA2"/>
		<stop  offset="1" style="stop-color:#93949A"/>
	</linearGradient>
	<ellipse class="st33" cx="124.56" cy="125" rx="41.85" ry="41.59"/>
	<linearGradient id="SVGID_24_" gradientUnits="userSpaceOnUse" x1="124.3566" y1="164.8142" x2="124.7674" y2="84.5751">
		<stop  offset="0" style="stop-color:#FFFFFF"/>
		<stop  offset="0.2876" style="stop-color:#D7D7D8"/>
		<stop  offset="0.592" style="stop-color:#B3B4B5"/>
		<stop  offset="0.8404" style="stop-color:#9D9EA0"/>
		<stop  offset="1" style="stop-color:#959698"/>
	</linearGradient>
	<ellipse class="st34" cx="124.56" cy="124.96" rx="40.35" ry="40.38"/>
	<linearGradient id="SVGID_25_" gradientUnits="userSpaceOnUse" x1="124.3749" y1="156.5968" x2="124.799" y2="84.932">
		<stop  offset="0" style="stop-color:#949597"/>
		<stop  offset="0.0231" style="stop-color:#949597"/>
		<stop  offset="0.9763" style="stop-color:#949597"/>
	</linearGradient>
	<ellipse class="st35" cx="124.56" cy="125.21" rx="39.71" ry="39.4"/>
	<linearGradient id="SVGID_26_" gradientUnits="userSpaceOnUse" x1="125.5722" y1="94.6028" x2="123.5784" y2="154.8178">
		<stop  offset="0" style="stop-color:#FFFFFF"/>
		<stop  offset="0.2971" style="stop-color:#D5D5D8"/>
		<stop  offset="0.5974" style="stop-color:#B1B2B6"/>
		<stop  offset="0.8425" style="stop-color:#9B9CA2"/>
		<stop  offset="1" style="stop-color:#93949A"/>
	</linearGradient>
	<ellipse class="st36" cx="124.56" cy="125.15" rx="29.42" ry="29.96"/>
	<linearGradient id="SVGID_27_" gradientUnits="userSpaceOnUse" x1="124.4163" y1="153.3755" x2="124.7069" y2="96.6006">
		<stop  offset="0" style="stop-color:#FFFFFF"/>
		<stop  offset="0.2876" style="stop-color:#D7D7D8"/>
		<stop  offset="0.592" style="stop-color:#B3B4B5"/>
		<stop  offset="0.8404" style="stop-color:#9D9EA0"/>
		<stop  offset="1" style="stop-color:#959698"/>
	</linearGradient>
	<ellipse class="st37" cx="124.56" cy="125.18" rx="28.37" ry="28.57"/>
	<path class="st38" d="M152.65,125.05c0,15.27-12.41,27.65-27.72,27.65c-15.31,0-27.71-12.38-27.71-27.65
		c0-11.98,7.63-22.18,18.31-26.02c2.94-1.07,6.11-1.64,9.41-1.64c8.73,0,16.51,4.02,21.59,10.31
		C150.36,112.45,152.65,118.49,152.65,125.05z"/>
	<g>
		<g>
			<path class="st31" d="M102.82,148.34c-2.46,0.33-2.01,2.67-1.68,3.27c-0.1-1.42,0.64-1.99,1.76-2.09c1.13-0.09,1.75,1,1.82,1.45
				c0.08,0.45-0.12,2.83-2.72,2.82c-4.63-0.21-4.59-4.72-4.64-5.56c0.53,0.03,2.18,0.09,2.77,0.07c0.58-0.01,2.57-0.24,2.54-1.89
				c-0.03-1.64-0.84-2.51-1.53-2.74c-0.68-0.23-1.85,0.28-2.75,0.74c0.8-0.06,1.35,0.57,2.48,1.69c0,1.19-3.05,1.01-3.92,0.75
				c-0.23-1.73,1.43-6.32,1.46-7.91c0.02-1.59-1.15-2.08-2.16-2.04c-0.24-0.4-0.52-1.22-1.15-2.4c0.09-0.34,0.49-1.11,0.66-2.63
				c0.16-1.52-1.11-4.7-1.44-5.26c0.25-0.31,0.64-1.02,0.64-1.32c0-0.31,0.02-1.13-0.73-1.96c0.29-0.68,1.49-3.33,1.55-4.31
				c0.07-0.97-0.21-2.79-0.7-3.62c0.27-0.48,0.93-1.55,1.31-2.3c0.62-0.04,1.65-0.1,1.89-1.4c0.34-1.54-1.42-6.04-1.27-8.87
				c0.82-0.08,3.9-0.19,3.9,1.02c0,1.22-2.03,1.57-2.37,1.89c0.53,0.24,1.36,0.64,1.96,0.67c0.6,0.03,2.1-0.71,2.13-2.53
				c0.04-2.14-2.69-2.19-5.25-2.04c-0.47-2.86,2.07-5.68,4.25-5.68c1.94-0.04,3.16,1.48,3.24,2.27c0.04,0.4-0.1,1.84-1.94,2.12
				c-1.68,0.22-1.56-1.45-2.07-2.05c-0.47,1.65,0.36,3.09,2.23,3.11c1.86,0.02,3.05-1.67,3.25-2.24c0.16-0.87,0.23-1.84-1.16-3.29
				c0.1-1.37-0.5-2.2-1.75-2.81c0.02,0.05,0.03,0.24,0.03,0.9c-0.01,1.05-0.45,0.92-0.81,0.99c-5.94,0.61-6.24,4.64-6.45,7.5
				c-5.59,5.07-5.81,6.69-5.85,7.11c-0.04,0.42-0.16,1.13,0.31,1.99c-1.14-0.3-1.97,0.44-2.03,1.09c-0.06,0.65,0.23,1.01,0.29,1.82
				c0.01,1.54-0.58,2.11-0.67,2.58c1.37-0.23,1.64-2.77,3.13-2.88c1.09-0.04,1.67,0.91,2.06,1.41c-1.07,3.07-0.96,5.46-0.7,6.71
				c-0.45,0.61-1.83,1.1-2.38,1.1c-0.55,0-1.55-0.36-1.68-1.11c-0.13-0.76,0.44-1.71,1.02-1.82c0.58-0.11,0.81,0.63,1.33,1.26
				c0.63-0.36,0.62-1.72-0.13-2.55c0.47-0.39,1.18-1.3,1.23-1.99c0.05-0.68-0.6-1.35-1.12-1.31c0.02,2.38-4.22,2.71-4.22,5.57
				c0.06,1.76,2.57,2.79,3.46,2.83c0.9,0.03,2.1-0.68,2.36-0.68c0.27,0,0.93,0.7,0.93,1.09c0,0.4-0.58,1.43-0.83,1.32
				c-0.24-0.1-0.74-0.6-2.2-0.6c-1.96-0.03-3.72,1.56-3.72,2.69c0.02,0.98,0.6,2.79,2.34,3.4c1.74,0.62,1.58,1.62,2.17,2.2
				c1.47-0.66,0.71-2.36-0.41-3.24c0.93-1.08,0.52-2.49,0-2.73c0,0.23-0.19,1.28-1.13,1.3c-0.93,0.02-1.06-0.93-1.06-1.22
				c0-0.29,0.16-1.59,1.49-1.51c1.53,0.1,2.05,0.66,2.55,1.22c-0.64,3.1,0.44,5.64,0.6,6.22c0.16,0.59-0.47,1.35-1.86,1.63
				c-1.83,0.34-1.97-3.16-3.72-2.75c0.28,0.4,0.85,0.6,1.11,1.69c0.24,1.42-0.81,2.73,0,3.29c1.07,0.86,1.75,0.42,1.47,1.22
				c-0.49,2.64,3.53,6.41,5.86,8.64c0.27,3.85,1.62,5.05,2.4,5.79c0.78,0.74,2.87,1.41,3.65,1.42c0.77,0.01,1.11,0.51,1.3,1.82
				c2.15-0.7,1.79-1.82,1.68-2.64c0.22-0.43,1.06-1.07,1.18-2.4C106.55,150.3,105.26,148.12,102.82,148.34z M93.26,109.49
				c-0.06-1.05,0.55-3.65,2.64-5.09c0.73,3.26,0.71,5.78-1.07,9.28C93.56,111.65,93.32,110.54,93.26,109.49z M93.55,121.55
				c-0.59-1.02-0.34-1.33-0.3-1.71c0.03-0.4,0.54-1.54,0.75-1.72C94.59,118.51,94.79,120.21,93.55,121.55z M93.44,128.2
				c0.78,0.36,1.33,2.1,0.56,3.35C93.19,130.78,92.92,129.09,93.44,128.2z M96.09,145.6c-2.23-1.43-2.71-3.87-2.79-5.04
				c-0.08-1.17,0.51-3.87,1.39-4.47C95.83,138.16,96.89,141.58,96.09,145.6z"/>
			<path class="st31" d="M144.07,151.65c0.12,1.34,0.97,1.97,1.18,2.4c-0.11,0.82-0.47,1.94,1.68,2.64c0.19-1.31,0.53-1.8,1.3-1.82
				c0.78-0.01,2.87-0.68,3.65-1.42c0.77-0.74,2.13-1.94,2.4-5.79c2.33-2.23,6.35-6,5.86-8.64c-0.28-0.8,0.4-0.36,1.47-1.22
				c0.81-0.56-0.24-1.86,0-3.29c0.26-1.09,0.83-1.29,1.11-1.69c-1.75-0.4-1.9,3.09-3.72,2.75c-1.39-0.29-2.01-1.05-1.86-1.63
				c0.16-0.58,1.24-3.12,0.6-6.22c0.5-0.56,1.01-1.11,2.55-1.22c1.34-0.08,1.49,1.22,1.49,1.51c0,0.29-0.13,1.24-1.06,1.22
				c-0.94-0.01-1.13-1.07-1.13-1.3c-0.52,0.24-0.93,1.65,0,2.73c-1.12,0.88-1.88,2.58-0.41,3.24c0.59-0.58,0.43-1.58,2.17-2.2
				c1.75-0.61,2.32-2.42,2.34-3.4c0-1.13-1.77-2.73-3.72-2.69c-1.47,0-1.96,0.5-2.2,0.6c-0.25,0.11-0.83-0.92-0.83-1.32
				c0-0.39,0.66-1.09,0.93-1.09c0.27,0,1.47,0.71,2.36,0.68c0.89-0.04,3.4-1.07,3.46-2.83c0-2.86-4.24-3.19-4.22-5.57
				c-0.52-0.04-1.17,0.64-1.12,1.31c0.05,0.68,0.76,1.6,1.23,1.99c-0.75,0.83-0.76,2.19-0.13,2.55c0.52-0.63,0.75-1.37,1.33-1.26
				c0.58,0.12,1.15,1.07,1.02,1.82c-0.13,0.76-1.13,1.11-1.68,1.11c-0.55,0-1.92-0.49-2.38-1.1c0.26-1.25,0.37-3.65-0.7-6.71
				c0.39-0.5,0.97-1.45,2.06-1.41c1.49,0.11,1.76,2.65,3.13,2.88c-0.09-0.47-0.68-1.04-0.67-2.58c0.05-0.81,0.35-1.17,0.29-1.82
				c-0.06-0.65-0.89-1.39-2.03-1.09c0.48-0.85,0.36-1.57,0.31-1.99c-0.03-0.42-0.25-2.04-5.85-7.11c-0.21-2.86-0.51-6.89-6.45-7.5
				c-0.36-0.07-0.79,0.06-0.81-0.99c-0.01-0.66,0.01-0.85,0.03-0.9c-1.25,0.61-1.85,1.43-1.75,2.81c-1.39,1.45-1.31,2.42-1.16,3.29
				c0.2,0.57,1.39,2.26,3.25,2.24c1.87-0.01,2.7-1.46,2.23-3.11c-0.51,0.59-0.39,2.27-2.07,2.05c-1.83-0.28-1.98-1.72-1.94-2.12
				c0.08-0.79,1.29-2.31,3.24-2.27c2.18,0,4.72,2.83,4.25,5.68c-2.56-0.15-5.29-0.1-5.25,2.04c0.03,1.82,1.53,2.56,2.13,2.53
				c0.6-0.03,1.44-0.43,1.96-0.67c-0.34-0.31-2.37-0.67-2.37-1.89c0-1.21,3.07-1.09,3.9-1.02c0.15,2.82-1.6,7.32-1.27,8.87
				c0.24,1.3,1.27,1.36,1.89,1.4c0.38,0.75,1.04,1.82,1.31,2.3c-0.49,0.83-0.77,2.65-0.7,3.62c0.06,0.98,1.27,3.63,1.55,4.31
				c-0.75,0.83-0.73,1.65-0.73,1.96c0,0.3,0.4,1,0.64,1.32c-0.34,0.56-1.61,3.74-1.44,5.26c0.16,1.52,0.57,2.29,0.66,2.63
				c-0.63,1.18-0.91,2-1.15,2.4c-1.01-0.04-2.18,0.44-2.16,2.04c0.03,1.59,1.69,6.18,1.46,7.91c-0.87,0.26-3.92,0.44-3.92-0.75
				c1.13-1.12,1.68-1.75,2.48-1.69c-0.9-0.46-2.07-0.96-2.75-0.74c-0.68,0.23-1.49,1.1-1.53,2.74c-0.03,1.65,1.96,1.87,2.54,1.89
				c0.58,0.02,2.23-0.03,2.77-0.07c-0.05,0.84-0.01,5.35-4.64,5.56c-2.6,0.01-2.79-2.37-2.72-2.82c0.08-0.45,0.69-1.54,1.82-1.45
				c1.12,0.1,1.86,0.67,1.76,2.09c0.33-0.6,0.77-2.94-1.68-3.27C145.24,148.12,143.94,150.3,144.07,151.65z M155.68,113.68
				c-1.78-3.5-1.8-6.01-1.07-9.28c2.09,1.43,2.7,4.04,2.64,5.09C157.18,110.54,156.94,111.65,155.68,113.68z M156.49,118.12
				c0.21,0.18,0.72,1.33,0.75,1.72c0.03,0.39,0.29,0.7-0.3,1.71C155.71,120.21,155.9,118.51,156.49,118.12z M156.49,131.56
				c-0.77-1.25-0.22-2.99,0.56-3.35C157.58,129.09,157.31,130.78,156.49,131.56z M155.8,136.09c0.88,0.61,1.47,3.31,1.39,4.47
				c-0.08,1.17-0.56,3.61-2.79,5.04C153.61,141.58,154.66,138.16,155.8,136.09z"/>
		</g>
		<g>
			<g>
				<path class="st31" d="M143.34,92.63c0.91,0,1.53-0.29,1.85-0.49c-0.58,1.2-3.05,5.06-2.41,5.59c-0.23,0.25-0.79-0.25-1.78,0.45
					c0.38-1.09,2.36-4.69,2.47-4.94c0.1-0.25-0.18-0.48-0.25-0.49C143.25,92.63,143.34,92.63,143.34,92.63z"/>
				<path class="st31" d="M141.63,91.63c0.57,0,0.92-0.16,1.47-0.36c-0.1,0.43-2.21,5.14-2.64,5.68c-0.23,0.31-0.89-0.07-1.42,0.2
					c0-0.54-0.41-0.91-0.76-1.25c-0.17-0.12-0.22-0.67-0.17-0.84c0.01-0.23-0.72-0.62-1.09-0.68c-0.22,0.46-0.85,0.67-1.39,0.54
					c-0.2,0.01-0.28,0.01-0.28,0.01l-0.29,0.24c0,0-0.12,0.11-0.26-0.51c-0.41-0.37-1.17-0.6-1.17-1.52
					c-0.89-0.17-2.49-0.87-5.89-1.09c0.32-0.57,0.46-0.62,0.54-0.77c-0.11-0.69,0.08-1.23,0.16-1.47c0.29,0.35,0.54,1.2,0.83,1.5
					c0.29,0.31,1.98,0.1,4.48,1.01c0.45-1.43,0.76-2.79,0.89-3.14c-0.21,0-0.23-0.03-0.23-0.03l0.02-0.23c0,0,1.22-0.15,1.75-0.64
					c-0.13,0.87-0.98,4.15-1.09,4.59c-0.11,0.44-0.02,0.98,0.33,1.05s0.93-0.69,0.68-1.76c0.38-0.22,1.23-0.41,1.42-0.53
					c0.07,0.34-0.24,1.37-0.39,1.74c0.26,0.62,1.01,0.68,1.3,0.79c0.27-0.28,0.27-0.77,0.21-0.99c0.26-0.14,1.15-0.24,1.5-0.44
					c-0.09,0.58-1.37,2.78-0.59,3.11c0.79,0.33,1.95-3.31,2.06-3.78c0.03-0.11-0.18-0.24-0.18-0.24L141.63,91.63z"/>
				<circle class="st31" cx="137.2" cy="95.53" r="0.53"/>
				<circle class="st31" cx="137.2" cy="90.05" r="0.53"/>
				<path class="st31" d="M132.98,89.73v-0.56c0,0-0.64,0-1.08,0c-0.44,0-0.78,0.32-0.78,0.56c0,0.24,0.54,0.53-0.21,1.07
					c0.55-0.09,0.67-0.1,0.92-0.07c0.2-0.01,0.64,0.02,0.94,0.24c0.21,0.08,0.21-0.47,0.02-0.52s-0.88-0.1-0.84-0.41
					s0.51-0.32,0.78-0.18C132.99,90.01,132.98,89.73,132.98,89.73z"/>
				<path class="st31" d="M123.97,87.65c0.63-0.19,1.47-0.57,1.81-1.14c0.02,0.89,0.07,4.71,0.07,4.91s0.37,0.37,0.57,0.49
					c-0.27,0.13-0.96-0.14-2.03,0.93c0.03-1.01,0-4.83,0-4.83l-0.42-0.18V87.65z"/>
				<path class="st31" d="M123.13,86.81c-0.46,0.72-1.35,1.02-1.71,1.25c0.6,0.59,0.61,2.1,0.65,2.94c0.04,0.83-0.05,1.26-0.49,1.24
					c-0.44-0.01-0.61-0.93-0.61-0.93s-0.08-0.01-0.33,0.01c-0.81,0.16-2.37,0.49-2.37,0.49l-0.05-0.44c0,0,0.49-0.58,1.04-1.17
					c-1.15-0.14-2.48-1.29-2.48-1.29s-0.19,0.03-0.38,0.04c-0.09,0.94-1.73,2.4-1.73,2.4l1.61,0.66c0,0,0.03,0.1,0.03,0.43
					c-1.1-0.09-0.81,0.16-0.94,0.16c-0.13,0-0.37,0.01-0.66,0.03c-0.1-0.24-0.64-1.12-0.64-1.12s-0.09,0-0.2,0
					c0.02,0.72-0.53,1.31-0.72,1.5c0.47,0.1,0.88,0.29,0.94,0.94c0.08,1.26-1.26,1.83-1.51,2.27c2.01-0.2,2.45-1.89,2.38-2.78
					c0.83-0.08,2.24-0.42,2.53-0.81c0.51,0.14,1.24-0.01,2.15-0.36c0.38,0.66,1.18,0.77,1.38,0.76c0.21-0.01,0.34,0.12,0.67,0.4
					c0.6-0.48,1.63-0.92,1.63-1.93C123.33,90.7,123.13,86.81,123.13,86.81z M117.05,91.25c0,0-0.41-0.08-0.54-0.14
					c-0.12-0.07,0.27-0.74,0.27-0.74s0.38,0.16,0.53,0.31C117.46,90.82,117.05,91.25,117.05,91.25z"/>
				<circle class="st31" cx="113.33" cy="94.2" r="0.5"/>
				<circle class="st31" cx="110.16" cy="97.07" r="0.5"/>
				<circle class="st31" cx="109.33" cy="97.73" r="0.5"/>
				<path class="st31" d="M109.47,90.66l2.16,1.82c0,0-0.57,0.47-0.52,0.68c0.06,0.21,1.34,1.1,1.34,1.4s-3.1,1.51-4.9,3.16
					c-0.12-0.28-0.15-1.69-0.56-2.27c0.47,0.19,0.74,0.7,1.19,0.74c0.44,0.04,2.05-1.5,2.77-1.49c0.04-0.32-0.05-0.44-0.05-0.44
					l-1.24-0.13c0,0,1-1.06,0.73-1.38s-0.65-0.26-0.94-0.04C109.44,91.95,109.47,90.66,109.47,90.66z"/>
			</g>
			<g>
				<path class="st31" d="M118.84,162.34c-0.17-0.58-0.77-6.18-0.77-6.18l-0.32-0.03l-3.33,5.24c0,0,0,0-0.36-0.04
					c0.07-2.11-0.36-2.83-0.55-3.25c0.53-0.14,1.55-0.49,1.49-1.72c-0.06-1.24-1.57-1.72-3.35-2.58c0,0-0.06,0.11-0.1,0.24
					c0.27,0.24,0.31,0.57,0.21,0.97c-0.11,0.4-2.03,4.43-2.17,4.64c-0.14,0.2-0.4,0.2-0.4,0.2s0,0.1,0,0.23
					c0.12,0.04,1.88,0.73,1.88,0.73s0.11-0.14,0.06-0.27c-0.68-0.55,0.53-2.32,0.67-2.75c0.27,0.05,0.81,0.25,0.86,0.81
					c0.05,0.57,0.01,2.71,0.01,2.71l2.66,0.92l0.02-0.2l-0.42-0.23l0.02-0.62l0.63-1.04l1.62,0.2l0.01,1.89l-0.27,0.01
					c0,0-0.02,0.03-0.06,0.33c0.34,0.05,2.27,0.35,2.27,0.35v-0.16C119.14,162.73,118.91,162.51,118.84,162.34z M112.03,157.21
					l0.86-2.22c0.71,0.12,1.27,0.69,0.9,1.78S112.03,157.21,112.03,157.21z M116.14,159.61l0.82-1.43l0.05,1.61L116.14,159.61z"/>
				<g>
					<path class="st31" d="M110.25,152.79c-0.42,0.44-2.72,2.82-3.06,3.17c-0.37,0.39-1.27,1.24-1.4,1.43
						c-0.14,0.2-0.9,0.53-0.9,0.53l0.99,0.53v-0.53l1.35-1.38l0.99,0.51l-0.57,1.76l-0.67,0.08l-0.01,0.14l2.05,0.95v-0.29
						c0,0,0.21-1.6,0.69-3.91c0.38-1.85,0.55-2.7,0.6-2.96C110.31,152.79,110.27,152.77,110.25,152.79z M108.44,156.57l-0.83-0.4
						l1.19-1.33L108.44,156.57z"/>
					<path class="st31" d="M137.37,161.2c0,0-0.32-0.12-0.48-0.15c-0.9-1.1-3.4-5.14-3.4-5.14h-0.29l-0.9,6.22l-0.57,0.51v0.18
						l1.71-0.25v-0.31l-0.58-0.12c0,0,0.05-1.26,0.13-1.89c0.45-0.02,1.36-0.14,1.36-0.14l0.93,1.22l-0.42,0.68l0.02,0.16l2.57-0.77
						L137.37,161.2z M133.09,159.72l0.12-1.43l1,1.39L133.09,159.72z"/>
					<path class="st31" d="M122.9,159.84C122.9,159.84,122.9,160.06,122.9,159.84c0.92-0.21,1.23-1.05,1.27-1.51
						c0.03-0.46-0.69-1.48-1.6-1.49c-0.9-0.02-2.57-0.27-2.57-0.27l0.01,0.2l0.35,0.24l-0.64,5.51l-0.4,0.25
						c0,0-0.01,0.04-0.06,0.25c0.51,0.05,3.07,0.23,3.45,0.22c0.38-0.01,1.68-0.38,1.66-1.65
						C124.34,160.29,122.9,159.84,122.9,159.84z M121.64,157.32c0,0,1.17,0.16,1.14,1.26c-0.03,1.09-1.36,1.11-1.36,1.11
						L121.64,157.32z M122.78,161.7c-0.25,1-1.64,0.72-1.61,0.49c0.03-0.23,0.14-1.36,0.25-1.95
						C122,160.21,123.04,160.3,122.78,161.7z"/>
					<path class="st31" d="M130.16,159.58c0.01-0.16,0,0,0-0.15c0.19-0.14,0.99-0.62,0.89-1.31c-0.1-0.69-0.88-1.53-1.64-1.41
						c-0.75,0.12-2.08,0.2-2.74,0.23l0.04,0.19l0.37,0.23l0.23,5.43l-0.35,0.26c0,0,0.01,0.12,0.01,0.18h2.31
						c1.55-0.18,2.66-0.81,2.62-1.89C131.85,160.27,130.72,159.66,130.16,159.58z M128.42,157.32c0,0,1.18-0.14,1.19,1.13
						c0.01,1.28-1.05,1.14-1.05,1.14L128.42,157.32z M128.72,162.32c-0.01-0.46-0.1-1.73-0.12-2.18c1.39-0.15,1.73,0.23,1.83,1.19
						C130.49,162.32,128.88,162.5,128.72,162.32z"/>
					<path class="st31" d="M139.2,153.47l0.18,0.29l-0.29,0.21l2.6,5.75l-0.49,0.23l-4.72-3.56l1.56,4.26l0.64,0.21v0.21
						c0,0-0.86,0.06-1.05,0.29c-0.21-0.08-0.17-0.13-0.17-0.13l0.13-0.4l-1.85-5.31l-0.27-0.08l1.1-0.79l3.54,2.75l-1.54-3.17
						l-0.35-0.03v-0.18L139.2,153.47z"/>
					<path class="st31" d="M139.51,153.4l1.36-0.87l0.1,0.13l-0.22,0.37l1.12,2.46h0.18c0,0,0.02-2.48,0-2.82
						c-0.02-0.34-0.4-0.38-0.49-0.34c-0.06-0.13-0.07-0.18-0.07-0.18l1.05-0.58l0.1,0.17v2.69c0,0,2.92,2.61,3.77,2.81
						c-0.19,0.15-1.6,1.01-1.6,1.01l-0.11-0.15c0,0,0.06-0.28,0.01-0.42s-2.05-1.95-2.29-1.77c0,0.13-0.01,0.63-0.01,0.63
						s0.92,2.1,1.86,1.89c0.05,0.15,0.05,0.15,0.05,0.15s-1.57,0.64-1.92,0.91c-0.16-0.15-0.19-0.23-0.19-0.23s0.25-0.12,0.01-0.68
						c-0.24-0.56-2.55-4.89-2.55-4.89l-0.26-0.11L139.51,153.4z"/>
				</g>
			</g>
		</g>
	</g>
	<g>
		<g>
			<linearGradient id="SVGID_28_" gradientUnits="userSpaceOnUse" x1="96.3773" y1="95.5751" x2="96.0364" y2="153.4115">
				<stop  offset="0" style="stop-color:#FEFEFE"/>
				<stop  offset="1" style="stop-color:#AAABAD"/>
			</linearGradient>
			<path class="st39" d="M102.34,148.09c-2.46,0.33-2.01,2.67-1.68,3.27c-0.1-1.42,0.64-1.99,1.76-2.09c1.13-0.09,1.75,1,1.82,1.45
				c0.08,0.45-0.12,2.83-2.72,2.82c-4.63-0.21-4.59-4.72-4.64-5.56c0.53,0.03,2.18,0.09,2.77,0.07c0.58-0.01,2.57-0.24,2.54-1.89
				c-0.03-1.64-0.84-2.51-1.53-2.74c-0.68-0.23-1.85,0.28-2.75,0.74c0.8-0.06,1.35,0.57,2.48,1.69c0,1.19-3.05,1.01-3.92,0.75
				c-0.23-1.73,1.43-6.32,1.46-7.91c0.02-1.59-1.15-2.08-2.16-2.04c-0.24-0.4-0.52-1.22-1.15-2.4c0.09-0.34,0.49-1.11,0.66-2.63
				c0.16-1.52-1.11-4.7-1.44-5.26c0.25-0.31,0.64-1.02,0.64-1.32c0-0.31,0.02-1.13-0.73-1.96c0.29-0.68,1.49-3.33,1.55-4.31
				c0.07-0.97-0.21-2.79-0.7-3.62c0.27-0.48,0.93-1.55,1.31-2.3c0.62-0.04,1.65-0.1,1.89-1.4c0.34-1.54-1.42-6.04-1.27-8.87
				c0.82-0.08,3.9-0.19,3.9,1.02c0,1.22-2.03,1.57-2.37,1.89c0.53,0.24,1.36,0.64,1.96,0.67c0.6,0.03,2.1-0.71,2.13-2.53
				c0.04-2.14-2.69-2.19-5.25-2.04c-0.47-2.86,2.07-5.68,4.25-5.68c1.94-0.04,3.16,1.48,3.24,2.27c0.04,0.4-0.1,1.84-1.94,2.12
				c-1.68,0.22-1.56-1.45-2.07-2.05c-0.47,1.65,0.36,3.09,2.23,3.11c1.86,0.02,3.05-1.67,3.25-2.24c0.16-0.87,0.23-1.84-1.16-3.29
				c0.1-1.37-0.5-2.2-1.75-2.81c0.02,0.05,0.03,0.24,0.03,0.9c-0.01,1.05-0.45,0.92-0.81,0.99c-5.94,0.61-6.24,4.64-6.45,7.5
				c-5.59,5.07-5.81,6.69-5.85,7.11c-0.04,0.42-0.16,1.13,0.31,1.99c-1.14-0.3-1.97,0.44-2.03,1.09c-0.06,0.65,0.23,1.01,0.29,1.82
				c0.01,1.54-0.58,2.11-0.67,2.58c1.37-0.23,1.64-2.77,3.13-2.88c1.09-0.04,1.67,0.91,2.06,1.41c-1.07,3.07-0.96,5.46-0.7,6.71
				c-0.45,0.61-1.83,1.1-2.38,1.1c-0.55,0-1.55-0.36-1.68-1.11c-0.13-0.76,0.44-1.71,1.02-1.82c0.58-0.11,0.81,0.63,1.33,1.26
				c0.63-0.36,0.62-1.72-0.13-2.55c0.47-0.39,1.18-1.3,1.23-1.99c0.05-0.68-0.6-1.35-1.12-1.31c0.02,2.38-4.22,2.71-4.22,5.57
				c0.06,1.76,2.57,2.79,3.46,2.83c0.9,0.03,2.1-0.68,2.36-0.68c0.27,0,0.93,0.7,0.93,1.09c0,0.4-0.58,1.43-0.83,1.32
				c-0.24-0.1-0.74-0.6-2.2-0.6c-1.96-0.03-3.72,1.56-3.72,2.69c0.02,0.98,0.6,2.79,2.34,3.4c1.74,0.62,1.58,1.62,2.17,2.2
				c1.47-0.66,0.71-2.36-0.41-3.24c0.93-1.08,0.52-2.49,0-2.73c0,0.23-0.19,1.28-1.13,1.3c-0.93,0.02-1.06-0.93-1.06-1.22
				c0-0.29,0.16-1.59,1.49-1.51c1.53,0.1,2.05,0.66,2.55,1.22c-0.64,3.1,0.44,5.64,0.6,6.22c0.16,0.59-0.47,1.35-1.86,1.63
				c-1.83,0.34-1.97-3.16-3.72-2.75c0.28,0.4,0.85,0.6,1.11,1.69c0.24,1.42-0.81,2.73,0,3.29c1.07,0.86,1.75,0.42,1.47,1.22
				c-0.49,2.64,3.53,6.41,5.86,8.64c0.27,3.85,1.62,5.05,2.4,5.79c0.78,0.74,2.87,1.41,3.65,1.42c0.77,0.01,1.11,0.51,1.3,1.82
				c2.15-0.7,1.79-1.82,1.68-2.64c0.22-0.43,1.06-1.07,1.18-2.4C106.07,150.05,104.77,147.86,102.34,148.09z M92.77,109.24
				c-0.06-1.05,0.55-3.65,2.64-5.09c0.73,3.26,0.71,5.78-1.07,9.28C93.07,111.4,92.83,110.29,92.77,109.24z M93.07,121.3
				c-0.59-1.02-0.34-1.33-0.3-1.71c0.03-0.4,0.54-1.54,0.75-1.72C94.11,118.25,94.3,119.96,93.07,121.3z M92.96,127.95
				c0.78,0.36,1.33,2.1,0.56,3.35C92.7,130.53,92.43,128.83,92.96,127.95z M95.61,145.35c-2.23-1.43-2.71-3.87-2.79-5.04
				c-0.08-1.17,0.51-3.87,1.39-4.47C95.35,137.9,96.4,141.33,95.61,145.35z"/>
			
				<linearGradient id="SVGID_29_" gradientUnits="userSpaceOnUse" x1="1772.174" y1="95.5751" x2="1771.833" y2="153.4115" gradientTransform="matrix(-1 0 0 1 1925.3185 0)">
				<stop  offset="0" style="stop-color:#FEFEFE"/>
				<stop  offset="1" style="stop-color:#AAABAD"/>
			</linearGradient>
			<path class="st40" d="M143.58,151.4c0.12,1.34,0.97,1.97,1.18,2.4c-0.11,0.82-0.47,1.94,1.68,2.64c0.19-1.31,0.53-1.8,1.3-1.82
				c0.78-0.01,2.87-0.68,3.65-1.42c0.77-0.74,2.13-1.94,2.4-5.79c2.33-2.23,6.35-6,5.86-8.64c-0.28-0.8,0.4-0.36,1.47-1.22
				c0.81-0.56-0.24-1.86,0-3.29c0.26-1.09,0.83-1.29,1.11-1.69c-1.75-0.4-1.9,3.09-3.72,2.75c-1.39-0.29-2.01-1.05-1.86-1.63
				c0.16-0.58,1.24-3.12,0.6-6.22c0.5-0.56,1.01-1.11,2.55-1.22c1.34-0.08,1.49,1.22,1.49,1.51c0,0.29-0.13,1.24-1.06,1.22
				c-0.94-0.01-1.13-1.07-1.13-1.3c-0.52,0.24-0.93,1.65,0,2.73c-1.12,0.88-1.88,2.58-0.41,3.24c0.59-0.58,0.43-1.58,2.17-2.2
				c1.75-0.61,2.32-2.42,2.34-3.4c0-1.13-1.77-2.73-3.72-2.69c-1.47,0-1.96,0.5-2.2,0.6c-0.25,0.11-0.83-0.92-0.83-1.32
				c0-0.39,0.66-1.09,0.93-1.09c0.27,0,1.47,0.71,2.36,0.68c0.89-0.04,3.4-1.07,3.46-2.83c0-2.86-4.24-3.19-4.22-5.57
				c-0.52-0.04-1.17,0.64-1.12,1.31c0.05,0.68,0.76,1.6,1.23,1.99c-0.75,0.83-0.76,2.19-0.13,2.55c0.52-0.63,0.75-1.37,1.33-1.26
				c0.58,0.12,1.15,1.07,1.02,1.82c-0.13,0.76-1.13,1.11-1.68,1.11c-0.55,0-1.92-0.49-2.38-1.1c0.26-1.25,0.37-3.65-0.7-6.71
				c0.39-0.5,0.97-1.45,2.06-1.41c1.49,0.11,1.76,2.65,3.13,2.88c-0.09-0.47-0.68-1.04-0.67-2.58c0.05-0.81,0.35-1.17,0.29-1.82
				c-0.06-0.65-0.89-1.39-2.03-1.09c0.48-0.85,0.36-1.57,0.31-1.99c-0.03-0.42-0.25-2.04-5.85-7.11c-0.21-2.86-0.51-6.89-6.45-7.5
				c-0.36-0.07-0.79,0.06-0.81-0.99c-0.01-0.66,0.01-0.85,0.03-0.9c-1.25,0.61-1.85,1.43-1.75,2.81c-1.39,1.45-1.31,2.42-1.16,3.29
				c0.2,0.57,1.39,2.26,3.25,2.24c1.87-0.01,2.7-1.46,2.23-3.11c-0.51,0.59-0.39,2.27-2.07,2.05c-1.83-0.28-1.98-1.72-1.94-2.12
				c0.08-0.79,1.29-2.31,3.24-2.27c2.18,0,4.72,2.83,4.25,5.68c-2.56-0.15-5.29-0.1-5.25,2.04c0.03,1.82,1.53,2.56,2.13,2.53
				c0.6-0.03,1.44-0.43,1.96-0.67c-0.34-0.31-2.37-0.67-2.37-1.89c0-1.21,3.07-1.09,3.9-1.02c0.15,2.82-1.6,7.32-1.27,8.87
				c0.24,1.3,1.27,1.36,1.89,1.4c0.38,0.75,1.04,1.82,1.31,2.3c-0.49,0.83-0.77,2.65-0.7,3.62c0.06,0.98,1.27,3.63,1.55,4.31
				c-0.75,0.83-0.73,1.65-0.73,1.96c0,0.3,0.4,1,0.64,1.32c-0.34,0.56-1.61,3.74-1.44,5.26c0.16,1.52,0.57,2.29,0.66,2.63
				c-0.63,1.18-0.91,2-1.15,2.4c-1.01-0.04-2.18,0.44-2.16,2.04c0.03,1.59,1.69,6.18,1.46,7.91c-0.87,0.26-3.92,0.44-3.92-0.75
				c1.13-1.12,1.68-1.75,2.48-1.69c-0.9-0.46-2.07-0.96-2.75-0.74c-0.68,0.23-1.49,1.1-1.53,2.74c-0.03,1.65,1.96,1.87,2.54,1.89
				c0.58,0.02,2.23-0.03,2.77-0.07c-0.05,0.84-0.01,5.35-4.64,5.56c-2.6,0.01-2.79-2.37-2.72-2.82c0.08-0.45,0.69-1.54,1.82-1.45
				c1.12,0.1,1.86,0.67,1.76,2.09c0.33-0.6,0.77-2.94-1.68-3.27C144.75,147.86,143.45,150.05,143.58,151.4z M155.19,113.42
				c-1.78-3.5-1.8-6.01-1.07-9.28c2.09,1.43,2.7,4.04,2.64,5.09C156.69,110.29,156.45,111.4,155.19,113.42z M156,117.86
				c0.21,0.18,0.72,1.33,0.75,1.72c0.03,0.39,0.29,0.7-0.3,1.71C155.22,119.96,155.42,118.25,156,117.86z M156,131.31
				c-0.77-1.25-0.22-2.99,0.56-3.35C157.09,128.83,156.82,130.53,156,131.31z M155.31,135.84c0.88,0.61,1.47,3.31,1.39,4.47
				c-0.08,1.17-0.56,3.61-2.79,5.04C153.12,141.33,154.18,137.9,155.31,135.84z"/>
		</g>
		<g>
			<g>
				<path class="st41" d="M142.8,92.29c0.91,0,1.53-0.29,1.85-0.49c-0.58,1.2-3.05,5.06-2.41,5.59c-0.23,0.25-0.79-0.25-1.78,0.45
					c0.38-1.09,2.36-4.69,2.47-4.94s-0.18-0.48-0.25-0.49C142.71,92.3,142.8,92.29,142.8,92.29z"/>
				<path class="st41" d="M141.09,91.29c0.57,0,0.92-0.16,1.47-0.36c-0.1,0.43-2.21,5.14-2.64,5.68c-0.23,0.31-0.89-0.07-1.42,0.2
					c0-0.54-0.41-0.91-0.76-1.25c-0.17-0.12-0.22-0.67-0.17-0.84c0.01-0.23-0.72-0.62-1.09-0.68c-0.22,0.46-0.85,0.67-1.39,0.54
					c-0.2,0.01-0.28,0.01-0.28,0.01l-0.29,0.24c0,0-0.12,0.11-0.26-0.51c-0.41-0.37-1.17-0.6-1.17-1.52
					c-0.89-0.17-2.49-0.87-5.89-1.09c0.32-0.57,0.46-0.62,0.54-0.77c-0.11-0.69,0.08-1.23,0.16-1.47c0.29,0.35,0.54,1.2,0.83,1.5
					c0.29,0.31,1.98,0.1,4.48,1.01c0.45-1.43,0.76-2.79,0.89-3.14c-0.21,0-0.23-0.03-0.23-0.03l0.02-0.23c0,0,1.22-0.15,1.75-0.64
					c-0.13,0.87-0.98,4.15-1.09,4.59c-0.11,0.44-0.02,0.98,0.33,1.05c0.35,0.07,0.93-0.69,0.68-1.76c0.38-0.22,1.23-0.41,1.42-0.53
					c0.07,0.34-0.24,1.37-0.39,1.74c0.26,0.62,1.01,0.68,1.3,0.79c0.27-0.28,0.27-0.77,0.21-0.99c0.26-0.14,1.15-0.24,1.5-0.44
					c-0.09,0.58-1.37,2.78-0.59,3.11c0.79,0.33,1.95-3.31,2.06-3.78c0.03-0.11-0.18-0.24-0.18-0.24L141.09,91.29z"/>
				<circle class="st41" cx="136.66" cy="95.19" r="0.53"/>
				<circle class="st41" cx="136.66" cy="89.71" r="0.53"/>
				<path class="st41" d="M132.44,89.4v-0.56c0,0-0.64,0-1.08,0c-0.44,0-0.78,0.32-0.78,0.56c0,0.24,0.54,0.53-0.21,1.07
					c0.55-0.09,0.67-0.1,0.92-0.07c0.2-0.01,0.64,0.02,0.94,0.24c0.21,0.08,0.21-0.47,0.02-0.52c-0.19-0.06-0.88-0.1-0.84-0.41
					c0.04-0.31,0.51-0.32,0.78-0.18C132.45,89.68,132.44,89.4,132.44,89.4z"/>
				<path class="st41" d="M123.43,87.31c0.63-0.19,1.47-0.57,1.81-1.14c0.02,0.89,0.07,4.71,0.07,4.91s0.37,0.37,0.57,0.49
					c-0.27,0.13-0.96-0.14-2.03,0.93c0.03-1.01,0-4.83,0-4.83l-0.42-0.18V87.31z"/>
				<path class="st41" d="M122.59,86.47c-0.46,0.72-1.35,1.02-1.71,1.25c0.6,0.59,0.61,2.1,0.65,2.94c0.04,0.83-0.05,1.26-0.49,1.24
					c-0.44-0.01-0.61-0.93-0.61-0.93s-0.08-0.01-0.33,0.01c-0.81,0.16-2.37,0.49-2.37,0.49l-0.05-0.44c0,0,0.49-0.58,1.04-1.17
					c-1.15-0.14-2.48-1.29-2.48-1.29s-0.19,0.03-0.38,0.04c-0.09,0.94-1.73,2.4-1.73,2.4l1.61,0.66c0,0,0.03,0.1,0.03,0.43
					c-1.1-0.09-0.81,0.16-0.94,0.16c-0.13,0-0.37,0.01-0.66,0.03c-0.1-0.24-0.64-1.12-0.64-1.12s-0.09,0-0.2,0
					c0.02,0.72-0.53,1.31-0.72,1.5c0.47,0.1,0.88,0.29,0.94,0.94c0.08,1.26-1.26,1.83-1.51,2.27c2.01-0.2,2.45-1.89,2.38-2.78
					c0.83-0.08,2.24-0.42,2.53-0.81c0.51,0.14,1.24-0.01,2.15-0.36c0.38,0.66,1.18,0.77,1.38,0.76c0.21-0.01,0.34,0.12,0.67,0.4
					c0.6-0.48,1.63-0.92,1.63-1.93C122.79,90.36,122.59,86.47,122.59,86.47z M116.51,90.91c0,0-0.41-0.08-0.54-0.14
					c-0.12-0.07,0.27-0.74,0.27-0.74s0.38,0.16,0.53,0.31C116.92,90.48,116.51,90.91,116.51,90.91z"/>
				<circle class="st41" cx="112.79" cy="93.87" r="0.5"/>
				<circle class="st41" cx="109.62" cy="96.73" r="0.5"/>
				<circle class="st41" cx="108.79" cy="97.39" r="0.5"/>
				<path class="st41" d="M108.93,90.33l2.16,1.82c0,0-0.57,0.47-0.52,0.68c0.06,0.21,1.34,1.1,1.34,1.4s-3.1,1.51-4.9,3.16
					c-0.12-0.28-0.15-1.69-0.56-2.27c0.47,0.19,0.74,0.7,1.19,0.74c0.44,0.04,2.05-1.5,2.77-1.49c0.04-0.32-0.05-0.44-0.05-0.44
					l-1.24-0.13c0,0,1-1.06,0.73-1.38c-0.27-0.32-0.65-0.26-0.94-0.04C108.9,91.61,108.93,90.33,108.93,90.33z"/>
			</g>
			<g>
				<path class="st41" d="M118.3,162c-0.17-0.58-0.77-6.18-0.77-6.18l-0.32-0.03l-3.33,5.24c0,0,0,0-0.36-0.04
					c0.07-2.11-0.36-2.83-0.55-3.25c0.53-0.14,1.55-0.49,1.49-1.72c-0.06-1.24-1.57-1.72-3.35-2.58c0,0-0.06,0.11-0.1,0.24
					c0.27,0.24,0.31,0.57,0.21,0.97c-0.11,0.4-2.03,4.43-2.17,4.64c-0.14,0.2-0.4,0.2-0.4,0.2s0,0.1,0,0.23
					c0.12,0.04,1.88,0.73,1.88,0.73s0.11-0.14,0.06-0.27c-0.68-0.55,0.53-2.32,0.67-2.75c0.27,0.05,0.81,0.25,0.86,0.81
					c0.05,0.57,0.01,2.71,0.01,2.71l2.66,0.92l0.02-0.2l-0.42-0.23l0.02-0.62l0.63-1.04l1.62,0.2l0.01,1.89l-0.27,0.01
					c0,0-0.02,0.03-0.06,0.33c0.34,0.05,2.27,0.35,2.27,0.35v-0.16C118.6,162.39,118.37,162.17,118.3,162z M111.5,156.88l0.86-2.22
					c0.71,0.12,1.27,0.69,0.9,1.78C112.88,157.52,111.5,156.88,111.5,156.88z M115.6,159.28l0.82-1.43l0.05,1.61L115.6,159.28z"/>
				<g>
					<path class="st41" d="M109.72,152.46c-0.42,0.44-2.72,2.82-3.06,3.17c-0.37,0.39-1.27,1.24-1.4,1.43
						c-0.14,0.2-0.9,0.53-0.9,0.53l0.99,0.53v-0.53l1.35-1.38l0.99,0.51l-0.57,1.76l-0.67,0.08l-0.01,0.14l2.05,0.95v-0.29
						c0,0,0.21-1.6,0.69-3.91c0.38-1.85,0.55-2.7,0.6-2.96C109.77,152.46,109.74,152.44,109.72,152.46z M107.9,156.23l-0.83-0.4
						l1.19-1.33L107.9,156.23z"/>
					<path class="st41" d="M136.83,160.86c0,0-0.32-0.12-0.48-0.15c-0.9-1.1-3.4-5.14-3.4-5.14h-0.29l-0.9,6.22l-0.57,0.51v0.18
						l1.71-0.25v-0.31l-0.58-0.12c0,0,0.05-1.26,0.13-1.89c0.45-0.02,1.36-0.14,1.36-0.14l0.93,1.22l-0.42,0.68l0.02,0.16l2.57-0.77
						L136.83,160.86z M132.56,159.39l0.12-1.43l1,1.39L132.56,159.39z"/>
					<path class="st41" d="M122.36,159.5C122.36,159.5,122.36,159.72,122.36,159.5c0.92-0.21,1.23-1.05,1.27-1.51
						c0.03-0.46-0.69-1.48-1.6-1.49c-0.9-0.02-2.57-0.27-2.57-0.27l0.01,0.2l0.35,0.24l-0.64,5.51l-0.4,0.25
						c0,0-0.01,0.04-0.06,0.25c0.51,0.05,3.07,0.23,3.45,0.22c0.38-0.01,1.68-0.38,1.66-1.65
						C123.8,159.96,122.36,159.5,122.36,159.5z M121.1,156.98c0,0,1.17,0.16,1.14,1.26c-0.03,1.09-1.36,1.11-1.36,1.11L121.1,156.98
						z M122.24,161.37c-0.25,1-1.64,0.72-1.61,0.49c0.03-0.23,0.14-1.36,0.25-1.95C121.46,159.88,122.51,159.97,122.24,161.37z"/>
					<path class="st41" d="M129.63,159.24c0.01-0.16,0,0,0-0.15c0.19-0.14,0.99-0.62,0.89-1.31c-0.1-0.69-0.88-1.53-1.64-1.41
						c-0.75,0.12-2.08,0.2-2.74,0.23l0.04,0.19l0.37,0.23l0.23,5.43l-0.35,0.26c0,0,0.01,0.12,0.01,0.18h2.31
						c1.55-0.18,2.66-0.81,2.62-1.89C131.32,159.93,130.18,159.32,129.63,159.24z M127.88,156.98c0,0,1.18-0.14,1.19,1.13
						c0.01,1.28-1.05,1.14-1.05,1.14L127.88,156.98z M128.18,161.98c-0.01-0.46-0.1-1.73-0.12-2.18c1.39-0.15,1.73,0.23,1.83,1.19
						C129.95,161.99,128.34,162.17,128.18,161.98z"/>
					<path class="st41" d="M138.66,153.13l0.18,0.29l-0.29,0.21l2.6,5.75l-0.49,0.23l-4.72-3.56l1.56,4.26l0.64,0.21v0.21
						c0,0-0.86,0.06-1.05,0.29c-0.21-0.08-0.17-0.13-0.17-0.13l0.13-0.4l-1.85-5.31l-0.27-0.08l1.1-0.79l3.54,2.75l-1.54-3.17
						l-0.35-0.03v-0.18L138.66,153.13z"/>
					<path class="st41" d="M138.98,153.07l1.36-0.87l0.1,0.13l-0.22,0.37l1.12,2.46h0.18c0,0,0.02-2.48,0-2.82
						c-0.02-0.34-0.4-0.38-0.49-0.34c-0.06-0.13-0.07-0.18-0.07-0.18l1.05-0.58l0.1,0.17v2.69c0,0,2.92,2.61,3.77,2.81
						c-0.19,0.15-1.6,1.01-1.6,1.01l-0.11-0.15c0,0,0.06-0.28,0.01-0.42c-0.05-0.14-2.05-1.95-2.29-1.77c0,0.13-0.01,0.63-0.01,0.63
						s0.92,2.1,1.86,1.89c0.05,0.15,0.05,0.15,0.05,0.15s-1.57,0.64-1.92,0.91c-0.16-0.15-0.19-0.23-0.19-0.23s0.25-0.12,0.01-0.68
						c-0.24-0.56-2.55-4.89-2.55-4.89l-0.26-0.11L138.98,153.07z"/>
				</g>
			</g>
		</g>
	</g>
	<g>
		<g class="st6">
			<path d="M140.99,141.66c0.09-0.91-0.18-1.08-0.22-1.05c-0.04,0.03-0.05-1.29-0.01-2.47c0.3-1.33,1.96-1.55,2.64-1.91
				c0.68-0.36,1.57-1.85,1.57-1.85s-0.08,0.01-1.44-0.12c-1.36-0.13-3.12-1.95-3.12-1.95l-0.05-0.61c0,0,0.3-0.42,0.76-0.92
				c-0.08-0.08-0.14-0.14-0.14-0.14l-3.43-2.87c-0.37,0.38-0.95,1.03-0.97,1.28c-0.03,0.33,0.19,0.85,0.18,1.08
				c-0.01,0.23,0.05,0.72-0.05,1.44c-0.64,0.64-0.63,1.26-0.66,1.63c-0.04,0.12-0.33,0.34-0.33,0.34s-0.14,1.03-0.19,1.3
				c-0.15,0.16-0.08,0.38,0.18,0.52c0.15,0.21,1.6,1.56,1.6,1.56v0.85c0,0-0.64-0.03-1.12,0.2c-0.49,0.24-0.42,0.82-0.42,0.82
				s-0.17,0.05-1.39,0c-1.21-0.05-1.09-0.58-1.48-0.66c-0.39-0.08-0.58,0.31-1.02,0.24c-0.44-0.08-0.79-0.52-1.07-0.82
				c-0.28-0.3-0.49-0.17-0.87-0.33c-0.6-1.02-1.67-1.59-2.1-1.77c0.04-1.2-0.7-1.87-0.7-1.87s0-0.28-0.12-0.58
				c-0.12-0.3-0.63-0.47-0.62-1.2c-0.04-1.83,0.96-1.53,1.13-2.32c0.17-0.79-0.34-0.85-0.36-1.08c-0.02-0.23,0.12-0.77-0.17-0.93
				c-0.29-0.16-4.53-2.01-5.01-2.23c-0.48-0.22-1.23,0.82-1.43,0.74c-0.2-0.09-1.42-0.7-1.59-0.52c-0.17,0.18-3.14,2.32-3.78,2.73
				c-0.64,0.41-1.24,0.68-2.22,0.74c-0.32-1.57-0.84-0.71-1.39-1.18c-0.65-0.52-3.13-3.19-3.85-3.18c-0.73,0.01-1.16,0.45-1.06,1.25
				c0.1,0.8,1.17,2.95,1.39,4.08c0.23,1.13-0.83,1.64-1.16,1.86c-0.34,0.23-1.42,0.02-1.69,0c-0.26-0.02-0.01,0.32-0.91,0.55
				c-0.9,0.23-0.87-0.38-1.2-0.39c-0.32-0.01-0.2,0.6-0.8,0.6s-1.39-1.28-1.96-1.34c-0.43-0.04-0.66,0.22-0.99,0.65
				c-0.02,0.24-0.05,0.42-0.09,0.5c0.1,0.32,0.09,1.13,0.12,1.61c0.62,0.54,2.4,3.13,2.4,3.13l4.18,3.16l1.89-1.07l2.35,0.23
				l4.04-1.49l1.24,1.27c0,0,1.37-0.32,2.24-0.42c0.93,0.56,0.87,3.05,0.87,3.05l-0.6,1.29c0,0,2.73,3.77,4.02,5.46
				c-0.43,1.26,0.43,3.69,0.62,5.17c9.4,0.86,15.33-3.26,17.61-4.62l0.13-4.76c0,0,0.68-1.42,1.05-2.19
				C141.34,141.78,141.26,141.78,140.99,141.66z"/>
			<path d="M142.3,132.06c-0.2-0.28-0.89-1-1.18-1.3c-0.47,0.5-0.76,0.92-0.76,0.92l0.05,0.61c0,0,1.76,1.82,3.12,1.95
				c1.36,0.13,1.44,0.12,1.44,0.12s-0.89,1.48-1.57,1.85c-0.68,0.36-2.34,0.59-2.64,1.91c-0.04,1.18-0.03,2.5,0.01,2.47
				c0.04-0.03,0.31,0.14,0.22,1.05c0.27,0.13,0.35,0.12,0.45,0.46c0.07-0.15,0.14-0.28,0.18-0.37c6.13-5.12,6.03-11.13,6.03-11.13
				S143.82,131.65,142.3,132.06z"/>
			<path d="M100.36,131.15c0.57,0.06,1.36,1.34,1.96,1.34s0.48-0.61,0.8-0.6c0.32,0.01,0.3,0.62,1.2,0.39
				c0.9-0.23,0.65-0.57,0.91-0.55c0.26,0.02,1.35,0.23,1.69,0c0.34-0.23,1.39-0.73,1.16-1.86c-0.23-1.13-1.3-3.28-1.39-4.08
				c-0.1-0.8,0.33-1.24,1.06-1.25c0.73-0.01,3.2,2.66,3.85,3.18c0.55,0.47,1.07-0.39,1.39,1.18c0.97-0.06,1.58-0.33,2.22-0.74
				c0.64-0.41,3.61-2.54,3.78-2.73c0.17-0.18,1.39,0.43,1.59,0.52c0.2,0.09,0.95-0.96,1.43-0.74c0.48,0.22,4.72,2.08,5.01,2.23
				c0.29,0.16,0.14,0.7,0.17,0.93c0.02,0.23,0.53,0.3,0.36,1.08c-0.17,0.79-1.17,0.49-1.13,2.32c-0.01,0.73,0.5,0.9,0.62,1.2
				c0.12,0.3,0.12,0.58,0.12,0.58s0.74,0.67,0.7,1.87c0.43,0.17,1.51,0.75,2.1,1.77c0.38,0.16,0.58,0.03,0.87,0.33
				c0.28,0.3,0.63,0.74,1.07,0.82c0.44,0.08,0.63-0.31,1.02-0.24c0.39,0.08,0.27,0.61,1.48,0.66c1.21,0.05,1.39,0,1.39,0
				s-0.06-0.58,0.42-0.82c0.49-0.24,1.12-0.2,1.12-0.2v-0.85c0,0-1.45-1.35-1.6-1.56c-0.26-0.14-0.33-0.36-0.18-0.52
				c0.05-0.27,0.19-1.3,0.19-1.3s0.29-0.22,0.33-0.34c0.03-0.37,0.01-0.98,0.66-1.63c0.11-0.71,0.04-1.2,0.05-1.44
				c0.01-0.23-0.21-0.75-0.18-1.08c0.02-0.25,0.6-0.9,0.97-1.28l-0.16-0.14c0,0-2.11-3.05-3.34-4.71c-1.23-1.66-2.87-5.17-2.87-5.17
				l-1.23,0.65l-5.87-0.62l-0.23,1.11c0,0-0.62-0.02-1.78,0c-1.18-0.65-4.09-1.75-4.09-1.75l-0.09-1.89l-6.43,0.32l-0.76,0.75h-3.1
				l-3.12,3c0,0,0.09,1.2-0.14,1.52c-0.23,0.32-2.05,0.83-2.22,1.13c-0.17,0.3-2.59,3.97-2.91,4.22c-0.32,0.25-0.29,0.66,0.08,1.81
				c0.07,0.83,0.16,2.85,0.09,3.83C99.69,131.36,99.93,131.11,100.36,131.15z"/>
			<path d="M151.24,121.47c0,0-0.46,2.67-0.68,3.74c-3.1,1.69-2.83,3.09-3.38,3.4c-0.98,0.43-3.18,1.63-4.79,2.18
				c-0.15-0.28-1.75-1.91-2.42-2.92c-0.68-1.01-2.21-2.14-2.42-3.15c-0.2-1.01-1.09-2.55-1.4-3.07c-0.31-0.52-1.51-1.32-1.88-1.81
				c-0.37-0.48-0.89-1.63-0.89-1.63l-0.18-0.05l-0.06,1.18l-1.32-1.55l1.26-0.68v-0.69l0.31-1.21l-0.8-0.8l-0.21-0.4l0.54-0.46
				l4.46-1.28l0.66-0.05l1.2,0.37l3.16,4.33c0,0,0.05,0.02,0.15,0.05c-0.03,0.01-0.18,0.08-0.37,0.81c0.46,1.13,2.49,3,3.74,4.04
				c0.43-0.46,1.2-0.55,1.2-0.55l1.11-1.19L151.24,121.47z"/>
			<path d="M151.24,118.86l-2.14,0.4l-1.1-0.4l-1.42,0.48c0,0-1.53-0.55-2.25-0.83c-0.32-1.1-1.92-1.59-1.92-1.59l-3.17-4.33
				l-1.42-0.44l-4.9,1.4l-1.73,1.47l-2.5-0.81l-0.9-1.66l-0.4-0.38c0.02,0,0.1-0.01,0.31-0.29c0.44-0.18,4.1-1.87,4.1-1.87
				l2.59,0.33l1.24-0.57l-0.45-0.81l-2.52-1.61l0.47-1.19l-0.57-0.2l-1.71,0.97h-1.68c0,0-1.27,1.55-1.6,1.88
				c-0.21,0.61,0,2.42,0,2.42l-1.68,0.06l-0.96,0.51l-0.05,1.4l-1.26-0.06c0,0-0.49-1.26-1-2.25c-1.12-0.53-2.36-1.58-2.72-2.08
				c-0.49,0.13-1.22,0.4-1.22,0.4l3.1,2.79l-1.18,0.84c0,0-2.88-2.5-3.51-3.07c-0.53,0.09-1.47,0.65-1.81,0.74
				c-0.34,0.09-1.54-0.29-1.86-0.12c-0.32,0.17,0.06,0.58,0.16,1.07c-2.37,0.64-2.68,3.56-2.68,3.56s-2.53,0.46-3.16,0.5
				c-0.4-0.68-1.27-0.81-1.57-0.87c0.06-0.59-0.2-0.83-0.23-0.99c-0.04-0.16,0.46-1.33,0.54-1.68c0.09-0.35-0.31-1.84-0.31-1.84
				s3.36-0.05,4.48-0.36c1.07-0.84,0.05-2.54-0.66-3.08c0.01-0.07,0.03-0.14,0.06-0.24c0.21-0.74,1.67-4.08,5.47-6.43
				c2.94-1.07,6.11-1.64,9.41-1.64c8.73,0,16.51,4.02,21.59,10.31C150.51,114.79,151.24,118.86,151.24,118.86z"/>
			<path d="M116.28,111.52l0.37,0.18l0.78-0.09l-0.57-0.48C116.86,111.13,116.23,111.28,116.28,111.52z"/>
			<path d="M116.85,112.09l0.58,0.47c0,0-0.12,1.32-0.73,1.42c-0.5-0.01-0.45-0.28-0.43-0.4s0.25-1.36,0.25-1.36L116.85,112.09z"/>
			<path d="M120.81,114.54l0.11,0.67c0,0-1.29,0.32-1.71,0.27c-0.29,0.03,0.01-0.62,0.33-0.67
				C119.85,114.77,120.81,114.54,120.81,114.54z"/>
			<path d="M124.33,113.98c0.53-0.13,1.08,0.61,1.06,1.67c-0.82-0.38-1.31-0.98-1.3-1.11C124.1,114.41,124.33,113.98,124.33,113.98z
				"/>
		</g>
		<g>
			<g>
				<path class="st42" d="M140.99,140.66c0.09-0.91-0.18-1.08-0.22-1.05c-0.04,0.03-0.05-1.29-0.01-2.47
					c0.3-1.33,1.96-1.55,2.64-1.91c0.68-0.36,1.57-1.85,1.57-1.85s-0.08,0.01-1.44-0.12c-1.36-0.13-3.12-1.95-3.12-1.95l-0.05-0.61
					c0,0,0.3-0.42,0.76-0.92c-0.08-0.08-0.14-0.14-0.14-0.14l-3.43-2.87c-0.37,0.38-0.95,1.03-0.97,1.28
					c-0.03,0.33,0.19,0.85,0.18,1.08c-0.01,0.23,0.05,0.72-0.05,1.44c-0.64,0.64-0.63,1.26-0.66,1.63
					c-0.04,0.12-0.33,0.34-0.33,0.34s-0.14,1.03-0.19,1.3c-0.15,0.16-0.08,0.38,0.18,0.52c0.15,0.21,1.6,1.56,1.6,1.56v0.85
					c0,0-0.64-0.03-1.12,0.2c-0.49,0.24-0.42,0.82-0.42,0.82s-0.17,0.05-1.39,0c-1.21-0.05-1.09-0.58-1.48-0.66
					c-0.39-0.08-0.58,0.31-1.02,0.24c-0.44-0.08-0.79-0.52-1.07-0.82c-0.28-0.3-0.49-0.17-0.87-0.33c-0.6-1.02-1.67-1.59-2.1-1.77
					c0.04-1.2-0.7-1.87-0.7-1.87s0-0.28-0.12-0.58c-0.12-0.3-0.63-0.47-0.62-1.2c-0.04-1.83,0.96-1.53,1.13-2.32
					c0.17-0.79-0.34-0.85-0.36-1.08c-0.02-0.23,0.12-0.77-0.17-0.93c-0.29-0.16-4.53-2.01-5.01-2.23c-0.48-0.22-1.23,0.82-1.43,0.74
					c-0.2-0.09-1.42-0.7-1.59-0.52c-0.17,0.18-3.14,2.32-3.78,2.73c-0.64,0.41-1.24,0.68-2.22,0.74c-0.32-1.57-0.84-0.71-1.39-1.18
					c-0.65-0.52-3.13-3.19-3.85-3.18c-0.73,0.01-1.16,0.45-1.06,1.25c0.1,0.8,1.17,2.95,1.39,4.08c0.23,1.13-0.83,1.64-1.16,1.86
					c-0.34,0.23-1.42,0.02-1.69,0c-0.26-0.02-0.01,0.32-0.91,0.55c-0.9,0.23-0.87-0.38-1.2-0.39c-0.32-0.01-0.2,0.6-0.8,0.6
					s-1.39-1.28-1.96-1.34c-0.43-0.04-0.66,0.22-0.99,0.65c-0.02,0.24-0.05,0.42-0.09,0.5c0.1,0.32,0.09,1.13,0.12,1.61
					c0.62,0.54,2.4,3.13,2.4,3.13l4.18,3.16l1.89-1.07l2.35,0.23l4.04-1.49l1.24,1.27c0,0,1.37-0.32,2.24-0.42
					c0.93,0.56,0.87,3.05,0.87,3.05l-0.6,1.29c0,0,2.73,3.77,4.02,5.46c-0.43,1.26,0.43,3.69,0.62,5.17
					c9.4,0.86,15.33-3.26,17.61-4.62l0.13-4.76c0,0,0.68-1.42,1.05-2.19C141.34,140.78,141.26,140.78,140.99,140.66z"/>
				<g>
					<path class="st43" d="M142.3,131.06c-0.2-0.28-0.89-1-1.18-1.3c-0.47,0.5-0.76,0.92-0.76,0.92l0.05,0.61
						c0,0,1.76,1.82,3.12,1.95c1.36,0.13,1.44,0.12,1.44,0.12s-0.89,1.48-1.57,1.85c-0.68,0.36-2.34,0.59-2.64,1.91
						c-0.04,1.18-0.03,2.5,0.01,2.47c0.04-0.03,0.31,0.14,0.22,1.05c0.27,0.13,0.35,0.12,0.45,0.46c0.07-0.15,0.14-0.28,0.18-0.37
						c6.13-5.12,6.03-11.13,6.03-11.13S143.82,130.65,142.3,131.06z"/>
					<path class="st43" d="M100.36,130.15c0.57,0.06,1.36,1.34,1.96,1.34s0.48-0.61,0.8-0.6c0.32,0.01,0.3,0.62,1.2,0.39
						c0.9-0.23,0.65-0.57,0.91-0.55c0.26,0.02,1.35,0.23,1.69,0c0.34-0.23,1.39-0.73,1.16-1.86c-0.23-1.13-1.3-3.28-1.39-4.08
						c-0.1-0.8,0.33-1.24,1.06-1.25c0.73-0.01,3.2,2.66,3.85,3.18c0.55,0.47,1.07-0.39,1.39,1.18c0.97-0.06,1.58-0.33,2.22-0.74
						c0.64-0.41,3.61-2.54,3.78-2.73c0.17-0.18,1.39,0.43,1.59,0.52c0.2,0.09,0.95-0.96,1.43-0.74c0.48,0.22,4.72,2.08,5.01,2.23
						c0.29,0.16,0.14,0.7,0.17,0.93c0.02,0.23,0.53,0.3,0.36,1.08c-0.17,0.79-1.17,0.49-1.13,2.32c-0.01,0.73,0.5,0.9,0.62,1.2
						c0.12,0.3,0.12,0.58,0.12,0.58s0.74,0.67,0.7,1.87c0.43,0.17,1.51,0.75,2.1,1.77c0.38,0.16,0.58,0.03,0.87,0.33
						c0.28,0.3,0.63,0.74,1.07,0.82c0.44,0.08,0.63-0.31,1.02-0.24c0.39,0.08,0.27,0.61,1.48,0.66c1.21,0.05,1.39,0,1.39,0
						s-0.06-0.58,0.42-0.82c0.49-0.24,1.12-0.2,1.12-0.2v-0.85c0,0-1.45-1.35-1.6-1.56c-0.26-0.14-0.33-0.36-0.18-0.52
						c0.05-0.27,0.19-1.3,0.19-1.3s0.29-0.22,0.33-0.34c0.03-0.37,0.01-0.98,0.66-1.63c0.11-0.71,0.04-1.2,0.05-1.44
						c0.01-0.23-0.21-0.75-0.18-1.08c0.02-0.25,0.6-0.9,0.97-1.28l-0.16-0.14c0,0-2.11-3.05-3.34-4.71
						c-1.23-1.66-2.87-5.17-2.87-5.17l-1.23,0.65l-5.87-0.62l-0.23,1.11c0,0-0.62-0.02-1.78,0c-1.18-0.65-4.09-1.75-4.09-1.75
						l-0.09-1.89l-6.43,0.32l-0.76,0.75h-3.1l-3.12,3c0,0,0.09,1.2-0.14,1.52c-0.23,0.32-2.05,0.83-2.22,1.13
						c-0.17,0.3-2.59,3.97-2.91,4.22c-0.32,0.25-0.29,0.66,0.08,1.81c0.07,0.83,0.16,2.85,0.09,3.83
						C99.69,130.36,99.93,130.11,100.36,130.15z"/>
					<path class="st44" d="M151.24,120.47c0,0-0.46,2.67-0.68,3.74c-3.1,1.69-2.83,3.09-3.38,3.4c-0.98,0.43-3.18,1.63-4.79,2.18
						c-0.15-0.28-1.75-1.91-2.42-2.92c-0.68-1.01-2.21-2.14-2.42-3.15c-0.2-1.01-1.09-2.55-1.4-3.07c-0.31-0.52-1.51-1.32-1.88-1.81
						c-0.37-0.48-0.89-1.63-0.89-1.63l-0.18-0.05l-0.06,1.18l-1.32-1.55l1.26-0.68v-0.69l0.31-1.21l-0.8-0.8l-0.21-0.4l0.54-0.46
						l4.46-1.28l0.66-0.05l1.2,0.37l3.16,4.33c0,0,0.05,0.02,0.15,0.05c-0.03,0.01-0.18,0.08-0.37,0.81c0.46,1.13,2.49,3,3.74,4.04
						c0.43-0.46,1.2-0.55,1.2-0.55l1.11-1.19L151.24,120.47z"/>
				</g>
				<g>
					<path class="st41" d="M151.24,117.86l-2.14,0.4l-1.1-0.4l-1.42,0.48c0,0-1.53-0.55-2.25-0.83c-0.32-1.1-1.92-1.59-1.92-1.59
						l-3.17-4.33l-1.42-0.44l-4.9,1.4l-1.73,1.47l-2.5-0.81l-0.9-1.66l-0.4-0.38c0.02,0,0.1-0.01,0.31-0.29
						c0.44-0.18,4.1-1.87,4.1-1.87l2.59,0.33l1.24-0.57l-0.45-0.81l-2.52-1.61l0.47-1.19l-0.57-0.2l-1.71,0.97h-1.68
						c0,0-1.27,1.55-1.6,1.88c-0.21,0.61,0,2.42,0,2.42l-1.68,0.06l-0.96,0.51l-0.05,1.4l-1.26-0.06c0,0-0.49-1.26-1-2.25
						c-1.12-0.53-2.36-1.58-2.72-2.08c-0.49,0.13-1.22,0.4-1.22,0.4l3.1,2.79l-1.18,0.84c0,0-2.88-2.5-3.51-3.07
						c-0.53,0.09-1.47,0.65-1.81,0.74c-0.34,0.09-1.54-0.29-1.86-0.12c-0.32,0.17,0.06,0.58,0.16,1.07
						c-2.37,0.64-2.68,3.56-2.68,3.56s-2.53,0.46-3.16,0.5c-0.4-0.68-1.27-0.81-1.57-0.87c0.06-0.59-0.2-0.83-0.23-0.99
						c-0.04-0.16,0.46-1.33,0.54-1.68c0.09-0.35-0.31-1.84-0.31-1.84s3.36-0.05,4.48-0.36c1.07-0.84,0.05-2.54-0.66-3.08
						c0.01-0.07,0.03-0.14,0.06-0.24c0.21-0.74,1.67-4.08,5.47-6.43c2.94-1.07,6.11-1.64,9.41-1.64c8.73,0,16.51,4.02,21.59,10.31
						C150.51,113.79,151.24,117.86,151.24,117.86z"/>
					<g>
						<path class="st41" d="M116.28,110.52l0.37,0.18l0.78-0.09l-0.57-0.48C116.86,110.13,116.23,110.28,116.28,110.52z"/>
						<path class="st41" d="M116.85,111.09l0.58,0.47c0,0-0.12,1.32-0.73,1.42c-0.5-0.01-0.45-0.28-0.43-0.4s0.25-1.36,0.25-1.36
							L116.85,111.09z"/>
						<path class="st41" d="M120.81,113.54l0.11,0.67c0,0-1.29,0.32-1.71,0.27c-0.29,0.03,0.01-0.62,0.33-0.67
							C119.85,113.77,120.81,113.54,120.81,113.54z"/>
						<path class="st41" d="M124.33,112.98c0.53-0.13,1.08,0.61,1.06,1.67c-0.82-0.38-1.31-0.98-1.3-1.11
							C124.1,113.41,124.33,112.98,124.33,112.98z"/>
					</g>
				</g>
			</g>
		</g>
	</g>
	<linearGradient id="SVGID_30_" gradientUnits="userSpaceOnUse" x1="123.4323" y1="133.4759" x2="126.3258" y2="97.4184">
		<stop  offset="0" style="stop-color:#FFFFFF;stop-opacity:0"/>
		<stop  offset="0.0237" style="stop-color:#FFFFFF;stop-opacity:0.018"/>
		<stop  offset="1" style="stop-color:#FFFFFF;stop-opacity:0.76"/>
	</linearGradient>
	<ellipse class="st45" cx="124.88" cy="115.43" rx="23.51" ry="18.82"/>
	<linearGradient id="SVGID_31_" gradientUnits="userSpaceOnUse" x1="123.4601" y1="95.7099" x2="124.6825" y2="120.857">
		<stop  offset="0" style="stop-color:#FEFEFE;stop-opacity:0.57"/>
		<stop  offset="0.9659" style="stop-color:#FFFFFF;stop-opacity:0.59"/>
		<stop  offset="0.9775" style="stop-color:#FAFAFA;stop-opacity:0.3897"/>
		<stop  offset="1" style="stop-color:#F6F6F6;stop-opacity:0"/>
	</linearGradient>
	<ellipse class="st46" cx="124.09" cy="108.64" rx="14.57" ry="11.83"/>
	<linearGradient id="SVGID_32_" gradientUnits="userSpaceOnUse" x1="106.9397" y1="147.5285" x2="140.5897" y2="147.5285">
		<stop  offset="0" style="stop-color:#FEFEFE;stop-opacity:0"/>
		<stop  offset="0.5009" style="stop-color:#FFFFFF"/>
		<stop  offset="0.5899" style="stop-color:#FDFDFD;stop-opacity:0.8217"/>
		<stop  offset="1" style="stop-color:#F6F6F6;stop-opacity:0"/>
	</linearGradient>
	<path class="st47" d="M108.48,143.33c3.16,1.74,9.3,5.49,16.69,5.01c7.4-0.48,11.15-1.74,15.32-4.82c0.22,2.52,0,2.67,0,2.67
		s-6.77,6.01-16.43,5.53c-9.82-0.5-14.39-4.86-16.4-6.71C105.65,143.14,108.48,143.33,108.48,143.33z"/>
</g>
</svg>
