<?xml version="1.0" encoding="utf-8"?>
<!-- Generator: Adobe Illustrator 25.2.0, SVG Export Plug-In . SVG Version: 6.00 Build 0)  -->
<svg version="1.1" id="Layer_1" xmlns="http://www.w3.org/2000/svg" xmlns:xlink="http://www.w3.org/1999/xlink" x="0px" y="0px"
	 viewBox="0 0 250 250" style="enable-background:new 0 0 250 250;" xml:space="preserve">
<style type="text/css">
	.st0{fill:#DDA833;}
	.st1{fill:#E8AD34;}
	.st2{fill:#008049;}
</style>
<g>
	<g>
		<g>
			<g>
				<g>
					<g>
						<path class="st0" d="M45.81,147.51c-0.02,0-0.04,0-0.05-0.01c-0.42-0.26-1.51-1.1-2.95-2.63c-8.89-9.44-10.35-23.7-3.56-34.66
							C45.62,99.93,56.39,97.36,60,97.23c0.05-0.01,0.1,0.04,0.1,0.1c0,0.06-0.04,0.1-0.1,0.1c-3.58,0.12-14.27,2.68-20.59,12.89
							c-6.75,10.89-5.29,25.04,3.54,34.42c1.43,1.52,2.5,2.34,2.91,2.59c0.05,0.03,0.06,0.09,0.03,0.14
							C45.88,147.5,45.85,147.51,45.81,147.51z"/>
					</g>
				</g>
				<g>
					<g>
						<path class="st0" d="M40.3,110.94c-0.02,0-0.04-0.01-0.06-0.02c-0.05-0.03-0.06-0.09-0.03-0.14
							c6.27-9.26,15.27-12.26,19.8-12.02c0.06,0,0.1,0.05,0.09,0.1c0,0.05-0.05,0.1-0.1,0.09c-4.48-0.24-13.4,2.74-19.62,11.93
							C40.36,110.92,40.33,110.94,40.3,110.94z"/>
					</g>
				</g>
				<g>
					<g>
						<path class="st0" d="M43.11,109.49c-0.02,0-0.04-0.01-0.06-0.02c-0.04-0.03-0.05-0.1-0.02-0.14
							c4.26-5.52,12.93-9.37,16.47-9.16c0.05,0,0.1,0.05,0.09,0.11c0,0.05-0.05,0.09-0.11,0.09c-3.5-0.2-12.07,3.6-16.3,9.08
							C43.17,109.48,43.14,109.49,43.11,109.49z"/>
					</g>
				</g>
				<g>
					<g>
						<path class="st0" d="M45.55,109.22c-0.03,0-0.05-0.01-0.07-0.03c-0.04-0.04-0.04-0.1,0-0.14c4.61-4.69,8.25-6.18,13.38-7.28
							c0.06-0.01,0.11,0.02,0.12,0.08c0.01,0.05-0.02,0.11-0.08,0.12c-5.09,1.09-8.71,2.57-13.28,7.23
							C45.6,109.21,45.58,109.22,45.55,109.22z"/>
					</g>
				</g>
				<g>
					<g>
						<path class="st0" d="M44.62,113.88c-0.02,0-0.03,0-0.04-0.01c-0.05-0.02-0.07-0.08-0.04-0.13c2.6-5.16,7.02-8.46,13.51-10.07
							c0.05-0.01,0.11,0.02,0.12,0.07c0.01,0.05-0.02,0.11-0.07,0.12c-6.43,1.6-10.8,4.86-13.38,9.96
							C44.7,113.86,44.66,113.88,44.62,113.88z"/>
					</g>
				</g>
				<g>
					<g>
						<path class="st0" d="M46.08,114.27c-0.02,0-0.03,0-0.05-0.01c-0.05-0.03-0.07-0.09-0.04-0.13c1.97-3.63,5.77-6.69,10.15-8.16
							c0.05-0.02,0.11,0.01,0.13,0.06c0.02,0.05-0.01,0.11-0.06,0.13c-4.34,1.46-8.1,4.48-10.04,8.07
							C46.15,114.25,46.12,114.27,46.08,114.27z"/>
					</g>
				</g>
				<path class="st1" d="M39.72,117.6c-0.53-2.01,2.08-6.53,2.41-6.95c0.21-0.34,1.67,0.86,2.67-0.53
					C45.45,111.29,41.6,116.49,39.72,117.6z"/>
				<path class="st1" d="M39.2,112.68c-0.44,0.3-3.91,6.59-0.62,9.04c0.18-2.47,0.39-5.17,0.37-6.2
					C38.92,114.48,38.1,115.92,39.2,112.68z"/>
				<path class="st1" d="M39.65,121.82c0.46-3.11,2.87-5.79,3.36-6.32c0.36-0.43,1.37,0.59,2.27-0.56c0.52,0.67-0.95,3.97-1.7,4.23
					C42.7,119.55,39.65,121.82,39.65,121.82z"/>
				<path class="st1" d="M36.26,119.8c-0.03-1.15-0.18,6.62-0.18,6.98c0,0.33,1.15,1.66,1.7,2.16c0.07,0.06,0.18,0.02,0.19-0.07
					c0.19-1.23,0.22-4.36,0.22-5.72c0-0.25-0.15-0.48-0.38-0.58C37.25,122.34,36.66,122.04,36.26,119.8z"/>
				<path class="st1" d="M39.77,129.58c-0.63-0.78-0.61-5.37,0.91-7.48c0.43-0.62,1.43,0.86,2.56-1.48c0.56,0.7-0.32,4.17-0.97,5.16
					C41.74,126.65,40.44,129.19,39.77,129.58z"/>
				<path class="st1" d="M36.27,129.3c-0.58,2.13,2.03,6.61,4.48,6.88C40.29,133.74,38.16,129.67,36.27,129.3z"/>
				<path class="st1" d="M42.76,127.66c1.13,2.2,1.25,3.87,1.1,5.09c-0.11,0.85-1.41,3.35-1.34,4.68c-1.26-1.07-2.24-4.54-2.09-6
					C40.63,129.4,42.76,127.66,42.76,127.66z"/>
				<path class="st1" d="M38.93,137.06c3.83,0.65,4.01,3.76,6.04,5.04C42.16,142.73,39.96,140.18,38.93,137.06z"/>
				<path class="st1" d="M44.21,133.78c-0.74,4.76-1.32,5.67,2.01,8.56c-0.07-3.09,0.75-1.65,0.73-3.71
					C46.96,137.59,44.66,135.38,44.21,133.78z"/>
				<path class="st1" d="M42.06,142.83c0.03-0.36,1.97,1.01,2.19,1.01c0.22,0,1.7-0.91,2.93-0.12c1.23,0.79,2.83,2.16,3,2.73
					c-1.33,0.22-3.22,0.42-4.06-0.12S42.01,143.37,42.06,142.83z"/>
				<path class="st1" d="M47.07,141.78c0.25,0.88,3.49,3.08,5.15,3.59c0.54-1.29-0.76-4.69-4.15-6.66c-0.76-0.55,1.15,2,0.34,2.56
					S46.9,141.25,47.07,141.78z"/>
				<path class="st1" d="M56.22,150.39c-1.07,1.08-4.67,2.14-9.66-2.39c2.15-0.43,3.63-0.21,4.08,0.13
					C51.08,148.46,53.12,150.87,56.22,150.39z"/>
				<path class="st1" d="M58.88,148.62c0.1-2.88-2.65-4.97-4.94-5.6c-0.22,0.58,0.56,2.92,0.32,3.15c-0.41-0.23-2.29-0.55-3.37-0.16
					c1.56,1.21,1.24,4.24,7.02,4.09c3.19,0.71,3.69,4.34,4.55,4.16c0.85-0.19,1.03-0.56,1.03-1.74
					C63.26,150.89,59.94,149.22,58.88,148.62z M59.59,150.02c-1.52-0.91-2.64-0.98-2.13-1.37c0.45-0.38,4.3,1.78,5.29,3.4
					C62.95,152.41,61.11,150.93,59.59,150.02z"/>
			</g>
			<g>
				<g>
					<g>
						<path class="st0" d="M81.15,147.51c0.02,0,0.04,0,0.05-0.01c0.42-0.26,1.51-1.1,2.95-2.63c8.89-9.44,10.35-23.7,3.56-34.66
							c-6.37-10.28-17.14-12.85-20.75-12.98c-0.05-0.01-0.1,0.04-0.1,0.1c0,0.06,0.04,0.1,0.1,0.1c3.58,0.12,14.27,2.68,20.59,12.89
							c6.75,10.89,5.29,25.04-3.54,34.42c-1.43,1.52-2.5,2.34-2.91,2.59c-0.05,0.03-0.06,0.09-0.03,0.14
							C81.09,147.5,81.12,147.51,81.15,147.51z"/>
					</g>
				</g>
				<g>
					<g>
						<path class="st0" d="M86.67,110.94c0.02,0,0.04-0.01,0.06-0.02c0.05-0.03,0.06-0.09,0.03-0.14
							c-6.27-9.26-15.27-12.26-19.8-12.02c-0.06,0-0.1,0.05-0.09,0.1c0,0.05,0.05,0.1,0.1,0.09c4.48-0.24,13.4,2.74,19.62,11.93
							C86.61,110.92,86.64,110.94,86.67,110.94z"/>
					</g>
				</g>
				<g>
					<g>
						<path class="st0" d="M83.86,109.49c0.02,0,0.04-0.01,0.06-0.02c0.04-0.03,0.05-0.1,0.02-0.14
							c-4.26-5.52-12.93-9.37-16.47-9.16c-0.05,0-0.1,0.05-0.09,0.11c0,0.05,0.05,0.09,0.11,0.09c3.5-0.2,12.07,3.6,16.3,9.08
							C83.8,109.48,83.83,109.49,83.86,109.49z"/>
					</g>
				</g>
				<g>
					<g>
						<path class="st0" d="M81.42,109.22c0.03,0,0.05-0.01,0.07-0.03c0.04-0.04,0.04-0.1,0-0.14c-4.61-4.69-8.25-6.18-13.38-7.28
							c-0.06-0.01-0.11,0.02-0.12,0.08c-0.01,0.05,0.02,0.11,0.08,0.12c5.09,1.09,8.71,2.57,13.28,7.23
							C81.36,109.21,81.39,109.22,81.42,109.22z"/>
					</g>
				</g>
				<g>
					<g>
						<path class="st0" d="M82.34,113.88c0.02,0,0.03,0,0.04-0.01c0.05-0.02,0.07-0.08,0.04-0.13c-2.6-5.16-7.02-8.46-13.51-10.07
							c-0.05-0.01-0.11,0.02-0.12,0.07c-0.01,0.05,0.02,0.11,0.07,0.12c6.43,1.6,10.8,4.86,13.38,9.96
							C82.27,113.86,82.31,113.88,82.34,113.88z"/>
					</g>
				</g>
				<g>
					<g>
						<path class="st0" d="M80.88,114.27c0.02,0,0.03,0,0.05-0.01c0.05-0.03,0.07-0.09,0.04-0.13c-1.97-3.63-5.77-6.69-10.15-8.16
							c-0.05-0.02-0.11,0.01-0.13,0.06c-0.02,0.05,0.01,0.11,0.06,0.13c4.34,1.46,8.1,4.48,10.04,8.07
							C80.81,114.25,80.85,114.27,80.88,114.27z"/>
					</g>
				</g>
				<path class="st1" d="M87.25,117.6c0.53-2.01-2.08-6.53-2.41-6.95c-0.21-0.34-1.67,0.86-2.67-0.53
					C81.52,111.29,85.36,116.49,87.25,117.6z"/>
				<path class="st1" d="M87.77,112.68c0.44,0.3,3.91,6.59,0.62,9.04c-0.18-2.47-0.39-5.17-0.37-6.2
					C88.04,114.48,88.87,115.92,87.77,112.68z"/>
				<path class="st1" d="M87.32,121.82c-0.46-3.11-2.87-5.79-3.36-6.32c-0.36-0.43-1.37,0.59-2.27-0.56
					c-0.52,0.67,0.95,3.97,1.7,4.23C84.27,119.55,87.32,121.82,87.32,121.82z"/>
				<path class="st1" d="M90.71,119.8c0.03-1.15,0.18,6.62,0.18,6.98c0,0.33-1.15,1.66-1.7,2.16c-0.07,0.06-0.18,0.02-0.19-0.07
					c-0.19-1.23-0.22-4.36-0.22-5.72c0-0.25,0.15-0.48,0.38-0.58C89.72,122.34,90.31,122.04,90.71,119.8z"/>
				<path class="st1" d="M87.2,129.58c0.63-0.78,0.61-5.37-0.91-7.48c-0.43-0.62-1.43,0.86-2.56-1.48c-0.56,0.7,0.32,4.17,0.97,5.16
					C85.23,126.65,86.53,129.19,87.2,129.58z"/>
				<path class="st1" d="M90.7,129.3c0.58,2.13-2.03,6.61-4.48,6.88C86.68,133.74,88.81,129.67,90.7,129.3z"/>
				<path class="st1" d="M84.21,127.66c-1.13,2.2-1.25,3.87-1.1,5.09c0.11,0.85,1.41,3.35,1.34,4.68c1.26-1.07,2.24-4.54,2.09-6
					C86.33,129.4,84.21,127.66,84.21,127.66z"/>
				<path class="st1" d="M88.04,137.06c-3.83,0.65-4.01,3.76-6.04,5.04C84.81,142.73,87.01,140.18,88.04,137.06z"/>
				<path class="st1" d="M82.76,133.78c0.74,4.76,1.32,5.67-2.01,8.56c0.07-3.09-0.75-1.65-0.73-3.71
					C80.01,137.59,82.3,135.38,82.76,133.78z"/>
				<path class="st1" d="M84.91,142.83c-0.03-0.36-1.97,1.01-2.19,1.01c-0.22,0-1.7-0.91-2.93-0.12s-2.83,2.16-3,2.73
					c1.33,0.22,3.22,0.42,4.06-0.12S84.96,143.37,84.91,142.83z"/>
				<path class="st1" d="M79.9,141.78c-0.25,0.88-3.49,3.08-5.15,3.59c-0.54-1.29,0.76-4.69,4.15-6.66c0.76-0.55-1.15,2-0.34,2.56
					C79.36,141.83,80.07,141.25,79.9,141.78z"/>
				<path class="st1" d="M70.74,150.39c1.07,1.08,4.67,2.14,9.66-2.39c-2.15-0.43-3.63-0.21-4.08,0.13
					C75.88,148.46,73.85,150.87,70.74,150.39z"/>
				<path class="st1" d="M63.48,152.52c0,1.18,0.17,1.56,1.03,1.74c0.85,0.19,1.36-3.44,4.55-4.16c5.78,0.15,5.46-2.87,7.02-4.09
					c-1.08-0.39-2.96-0.08-3.37,0.16c-0.24-0.23,0.55-2.57,0.32-3.15c-2.29,0.63-5.05,2.72-4.94,5.6
					C67.03,149.22,63.7,150.89,63.48,152.52z M64.23,152.05c0.98-1.63,4.83-3.78,5.29-3.4c0.51,0.39-0.61,0.46-2.13,1.37
					C65.86,150.93,64.02,152.41,64.23,152.05z"/>
			</g>
		</g>
		<g>
			<circle class="st2" cx="63.25" cy="98.27" r="2.54"/>
			<circle class="st2" cx="48.4" cy="120.48" r="2.5"/>
			<path class="st2" d="M78.58,117.56c0.04-0.17,0.06-0.34,0.06-0.52c0-1.33-1.07-2.4-2.4-2.4c-1.33,0-2.4,1.07-2.4,2.4
				c0,1.08,0.72,2,1.71,2.3c-0.04,0.17-0.06,0.34-0.06,0.52c0,1.33,1.07,2.4,2.4,2.4s2.4-1.07,2.4-2.4
				C80.28,118.77,79.56,117.85,78.58,117.56z"/>
			<path class="st2" d="M63.11,101.95H62.9c0,0-7.61,4.32-7.39,8.45c0.22,4.13,3.58,5.57,5.31,5.6c0,1.08,0,7.86,0,7.86h4.58
				c0,0,0-6.27,0-7.8c1.99-0.06,4.93-1.88,4.9-5.52C70.27,106.91,66.51,103.8,63.11,101.95z M63.08,110.54
				c-0.81,0-1.47-0.66-1.47-1.47c0-0.81,0.66-1.47,1.47-1.47c0.81,0,1.47,0.66,1.47,1.47C64.55,109.88,63.89,110.54,63.08,110.54z"
				/>
			<path class="st2" d="M45.61,123.28c-0.11,3.04-1.49,16.7,15.08,20.62c0-3.26,0-8.13,0-10.55c2.29-1.06,10.39-5.33,10.39-5.33
				l0.14-4.5c0,0,1.26-1.12,2.12-1.91c-1.17-0.14-5.18-1.12-7.4-3.63c0.09,2.42,0.24,7.36,0.24,7.36l-10.31,5.9v6.19
				c0,0-5.54-3.31-5.58-7.11c0.06-1.57,0.75-2.66,1.5-3.06C51.16,126.99,47.71,127.7,45.61,123.28z"/>
			<path class="st2" d="M59.18,117.98c-1.2,1.24-3.71,3.91-6.05,4.57c0,0.66,0,1.33,0,1.33s1.56,0.38,1.65,1.49
				c0.09,1.11,0,2,0,2.63c0,0.42,1.96,1.59,2.46,1.31c0.5-0.28,4.4-2.63,4.4-2.63l-2.19-1.96L59.18,117.98z"/>
			<path class="st2" d="M66.18,134.29v9.61c0,0-1.44,2.5-4.9,1.78c0.81-0.72,1.36-0.36,1.48-1.35s0-4.36,0-5.05
				c0-0.69-0.15-1.4-1.04-2.21c0.83,0,3.34-1.13,3.64-2.59C65.76,134.47,66.18,134.29,66.18,134.29z"/>
			<path class="st2" d="M80.85,122.06c1.45,2.45,1.22,18.35-13.29,21.32c0-3.1,0.02-7.82,0-8.85c-0.02-1.03-1.34-2.1-3.05-2.49
				c1.66-0.86,4.09-2.01,4.78-2.46c0.48-0.28,2.27,0.68,2.35,2.67s-0.2,3.06,0,4.34c1.28-0.72,5.08-3.64,4.96-7.62
				c-0.1-1.2-0.73-1.78-1.41-2c-0.01-0.28,0.02-0.7,0.02-1.04C76.23,125.96,79.58,125.04,80.85,122.06z"/>
		</g>
	</g>
	<g>
		<g>
			<circle class="st2" cx="209.58" cy="112.55" r="0.96"/>
			<circle class="st2" cx="213.41" cy="120.43" r="0.96"/>
			<circle class="st2" cx="184.66" cy="110.95" r="0.96"/>
			<path class="st2" d="M213.43,114.94v2.19H211v-2.19h-1.39v2.19h-2.1c-0.06-0.7-0.31-1.56-0.86-2.08c-0.32-0.3-0.7-0.45-1.1-0.43
				c-0.46,0.02-3.09,0.02-5.24,0.01l2.15-2.16l-0.19-1.78l-5.3,5.32l1.66,0.01c0.25,0,6.2,0.04,6.98,0
				c0.13,0.03,0.41,0.48,0.49,1.12h-9.93l-0.86,1.39h19.52v-3.58H213.43z"/>
			<g>
				<path class="st2" d="M192.28,118.63c-0.25,0-0.51,0-0.71-0.13c-0.26-0.17-0.52-0.42-0.52-1.18v-8.19c0-0.33,0.27-0.6,0.6-0.6
					s0.6,0.27,0.6,0.6v8.19c0,0.15-0.01,0.63,0,0.67c0.06,0,0.6,0.02,1-0.03C193.63,117.92,192.97,118.63,192.28,118.63z"/>
			</g>
			<g>
				<path class="st2" d="M124.12,118.49c-0.25,0-0.51,0-0.71-0.13c-0.26-0.17-0.52-0.42-0.52-1.18v-8.19c0-0.33,0.27-0.6,0.6-0.6
					c0.33,0,0.6,0.27,0.6,0.6v8.19c0,0.15-0.01,0.63,0,0.67c0.06,0,0.6,0.02,1-0.03C125.47,117.77,124.82,118.49,124.12,118.49z"/>
			</g>
			<g>
				<path class="st2" d="M153.79,118.61c-0.25,0-0.51,0-0.71-0.13c-0.26-0.17-0.52-0.42-0.52-1.18v-8.19c0-0.33,0.27-0.6,0.6-0.6
					s0.6,0.27,0.6,0.6v8.19c0,0.15-0.01,0.63,0,0.67c0.06,0,0.6,0.02,1-0.03C155.14,117.9,154.49,118.61,153.79,118.61z"/>
			</g>
			<path class="st2" d="M189.61,108.41c-0.33,0-0.6,0.27-0.6,0.6v8.04h-2.48v-2.44c0-0.08-0.02-0.16-0.05-0.24
				c-0.19-0.83-0.93-1.45-1.82-1.45c-1.03,0-1.87,0.84-1.87,1.87s0.84,1.87,1.87,1.87c0.24,0,0.46-0.05,0.67-0.13v0.52h-5.02v-8.04
				c0-0.33-0.27-0.6-0.6-0.6c-0.33,0-0.6,0.27-0.6,0.6v8.18c-0.22-0.09-0.46-0.14-0.71-0.14c-0.25,0-0.49,0.05-0.7,0.14
				c0.02-0.06,0.03-0.11,0.03-0.17v-8c0-0.33-0.27-0.6-0.6-0.6s-0.6,0.27-0.6,0.6v8c0,0.31,0.24,0.56,0.54,0.59
				c-0.33,0.34-0.54,0.8-0.54,1.31c0,1.03,0.84,1.87,1.87,1.87c1.03,0,1.87-0.84,1.87-1.87c0-0.24-0.05-0.46-0.13-0.67h10.05v-9.23
				C190.2,108.68,189.94,108.41,189.61,108.41z M184.66,115.46c-0.37,0-0.67-0.3-0.67-0.67c0-0.37,0.3-0.67,0.67-0.67
				s0.67,0.3,0.67,0.67C185.34,115.16,185.03,115.46,184.66,115.46z M178.42,119.59c-0.37,0-0.67-0.3-0.67-0.67
				c0-0.37,0.3-0.67,0.67-0.67s0.67,0.3,0.67,0.67C179.09,119.28,178.79,119.59,178.42,119.59z"/>
			<path class="st2" d="M172.37,117.17l-2.64-2.24l-0.81,1.21l1.02,1.04h-3.41l0.02-1.72l-0.02-0.52c-0.01-0.01,0.01,0.01,0,0v-0.27
				c0-0.05-0.03-0.11-0.08-0.13c-0.19-0.07-0.31-0.2-0.31-0.35c0-0.14,0.12-0.27,0.31-0.34c0.06-0.02,0.09-0.08,0.09-0.14v-0.97
				c0-0.07-0.04-0.13-0.1-0.15c-0.18-0.07-0.29-0.2-0.29-0.34c0-0.14,0.12-0.27,0.3-0.34c0.06-0.02,0.1-0.08,0.1-0.15v-2.84
				c0-0.33-0.27-0.6-0.6-0.6s-0.6,0.27-0.6,0.6v3.47c0,0.05,0.03,0.1,0.07,0.11c0.19,0.07,0.31,0.2,0.31,0.34
				c0,0.13-0.11,0.25-0.27,0.33c-0.07,0.03-0.12,0.1-0.12,0.17v1.25c-0.06,0-0.12,0-0.19,0c-1.2,0-2.24,0.94-2.26,2.15
				c-0.01,0.55,0.17,1.07,0.51,1.5l0.18,0.22h0.07v0.1h11.48l0.7-1.39H172.37z M164.16,117.05c0.01-0.19-0.01-0.62,0.06-0.81
				c0.11-0.3,0.38-0.31,0.67-0.3c0.17,0,0.39,0.16,0.4,0.34l0.01,0.77L164.16,117.05z"/>
			<circle class="st2" cx="163.88" cy="110.71" r="0.77"/>
			<circle class="st2" cx="163.88" cy="112.69" r="0.77"/>
			<path class="st2" d="M160.62,116.04c0-0.78-0.01-1.4-0.01-1.45l-0.99,0.23c-0.24-0.11-0.5-0.17-0.78-0.17
				c-1.02,0-1.84,0.83-1.84,1.84s0.83,1.85,1.84,1.85c0.28,0,0.54-0.06,0.78-0.17c-0.01,0.37-0.02,0.7-0.04,0.95
				c-0.03,0.32-0.13,0.56-0.35,0.67c-0.51,0.25-2.07,0.31-2.07,0.31c0.23,0.3,0.53,0.78,1.48,0.82c0.42,0.02,0.8-0.09,1.11-0.28
				c0.34-0.21,0.76-0.63,0.82-1.44c0.04-0.54,0.06-1.41,0.06-2.25C160.62,116.63,160.62,116.32,160.62,116.04z M158.83,117.34
				c-0.47,0-0.85-0.38-0.85-0.85c0-0.47,0.38-0.85,0.85-0.85c0.36,0,0.67,0.23,0.79,0.55c0,0.19,0,0.39,0,0.6
				C159.51,117.11,159.2,117.34,158.83,117.34z"/>
			<circle class="st2" cx="142.91" cy="112.41" r="0.81"/>
			<circle class="st2" cx="128.24" cy="110.71" r="0.81"/>
			<circle class="st2" cx="99.16" cy="110.55" r="0.81"/>
			<circle class="st2" cx="99.16" cy="112.75" r="0.81"/>
			<circle class="st2" cx="103.02" cy="120.23" r="0.81"/>
			<circle class="st2" cx="105.35" cy="120.23" r="0.81"/>
			<circle class="st2" cx="110.07" cy="110.75" r="0.81"/>
			<circle class="st2" cx="113.18" cy="120.23" r="0.81"/>
			<circle class="st2" cx="115.33" cy="120.23" r="0.81"/>
			<circle class="st2" cx="128.24" cy="112.75" r="0.81"/>
			<circle class="st2" cx="132.08" cy="120.23" r="0.81"/>
			<circle class="st2" cx="134.23" cy="120.23" r="0.81"/>
			<circle class="st2" cx="145.7" cy="112.41" r="0.81"/>
			<circle class="st2" cx="147.85" cy="112.41" r="0.81"/>
			<path class="st2" d="M151.37,108.47c-0.36,0-0.65,0.29-0.65,0.65V117h-2.52v-2.55l-1.4,0.6V117h-2.35v-2.55l-1.37,0.8V117h-2.38
				v-1.31c0,0-1.4-1.53-1.81-1.53c-0.4,0-2.04,1.51-2.04,1.51l-0.01,1.33h-2.29v-2.55l-1.17,0.72V117h-1.03h-1.5l0.02-1.72
				l-0.02-0.52v-0.27c0-0.06-0.03-0.11-0.08-0.13c-0.19-0.07-0.31-0.2-0.31-0.35c0-0.14,0.12-0.27,0.3-0.34
				c0.06-0.02,0.09-0.08,0.09-0.14v-0.97c0-0.07-0.04-0.13-0.1-0.15c-0.18-0.07-0.3-0.2-0.3-0.34c0-0.14,0.12-0.26,0.3-0.34
				c0.06-0.02,0.1-0.08,0.1-0.15v-2.84c0-0.33-0.27-0.6-0.6-0.6s-0.6,0.27-0.6,0.6v3.47c0,0.05,0.03,0.09,0.07,0.11
				c0.19,0.07,0.31,0.2,0.31,0.34c0,0.13-0.11,0.25-0.27,0.33c-0.07,0.03-0.12,0.1-0.12,0.18v1.25c-0.06,0-0.13,0-0.19,0
				c-1.2,0-2.24,0.94-2.26,2.15c-0.01,0.55,0.17,1.07,0.51,1.51l0.18,0.22h0.07v0.1h4.37h19.66v-9.28
				C152.02,108.76,151.73,108.47,151.37,108.47z M128.48,116.88c0.01-0.19-0.01-0.62,0.06-0.81c0.11-0.3,0.38-0.31,0.67-0.3
				c0.17,0,0.39,0.16,0.4,0.34l0.01,0.77L128.48,116.88z M139.3,116.37c0,0.25,0.01,0.54-0.08,0.63h-0.77c-0.03,0-0.05,0-0.08,0
				c0.01,0,0.01,0,0.02,0c-0.14-0.35-0.07-0.93,0.09-0.95h0.61C139.25,116.05,139.29,116.18,139.3,116.37z"/>
			<path class="st2" d="M114.3,115.13V117h-2.37l-0.1-2.88c-0.11-0.77-0.91-1.39-1.76-1.39c-1,0-1.82,0.81-1.82,1.82
				s0.81,1.82,1.82,1.82c0.24,0,0.48-0.05,0.69-0.14V117h-3.72h-1.35v-2.55l-1.17,0.72V117h-2.54l0.02-1.72l-0.02-0.52v-0.27
				c0-0.06-0.03-0.11-0.08-0.13c-0.19-0.07-0.31-0.2-0.31-0.35c0-0.14,0.12-0.27,0.3-0.34c0.06-0.02,0.09-0.08,0.09-0.14v-0.97
				c0-0.07-0.04-0.13-0.1-0.15c-0.18-0.07-0.29-0.2-0.29-0.34c0-0.14,0.12-0.26,0.3-0.34c0.06-0.02,0.1-0.08,0.1-0.15v-2.84
				c0-0.33-0.27-0.6-0.6-0.6c-0.33,0-0.6,0.27-0.6,0.6v3.47c0,0.05,0.03,0.1,0.07,0.11c0.19,0.07,0.31,0.2,0.31,0.34
				c0,0.14-0.11,0.25-0.27,0.33c-0.07,0.03-0.12,0.1-0.12,0.18v1.25c-0.06,0-0.13,0-0.19,0c-1.2,0-2.24,0.94-2.26,2.15
				c-0.01,0.55,0.17,1.07,0.51,1.51l0.18,0.22h0.07v0.1h7.93h8.42v-4.06L114.3,115.13z M110.07,115.17c-0.34,0-0.62-0.28-0.62-0.62
				c0-0.34,0.28-0.62,0.62-0.62s0.62,0.28,0.62,0.62C110.7,114.89,110.42,115.17,110.07,115.17z M99.61,116.88
				c0.01-0.19-0.01-0.62,0.06-0.81c0.11-0.3,0.38-0.31,0.67-0.3c0.17,0,0.39,0.16,0.4,0.34l0.01,0.77L99.61,116.88z"/>
			<path class="st2" d="M122.07,118.4v-9.28c0-0.28-0.23-0.51-0.51-0.51l0,0c-0.28,0-0.51,0.23-0.51,0.51V117h-2.59v-2.45
				c-0.75-0.18-1.36,0.62-1.36,0.62s0.1,3.63,0.04,4.52c-0.06,0.89-1.31,0.73-1.81,1.34c3.22-0.04,3.13-0.91,3.13-1.82
				c0-0.18,0-0.47,0-0.82H122.07z"/>
		</g>
		<g>
			<path class="st2" d="M101.71,127.68c0.73-0.33,1.09-0.91,1.06-1.6c-0.04-0.69-0.42-1.72-1.63-1.77c-1.21-0.05-2.79,0-2.79,0v6.55
				c0,0,1.68,0,2.96,0c1.28,0,1.49-0.87,1.46-1.55S102.37,128.01,101.71,127.68z M99.78,125.42c0,0,1.58-0.32,1.62,0.78
				c0,1.47-1.62,1.15-1.62,1.15V125.42z M99.92,130.06v-1.94c0,0,1.53-0.15,1.62,0.78C101.54,130.3,99.92,130.06,99.92,130.06z"/>
			<path class="st2" d="M106.72,125.9c-1.6-0.07-1.99,0.6-2.08,0.87c-0.02,0.16-0.18,0.67,0.31,0.75c0.85,0.11,0.26-0.8,1.68-0.75
				c0.85,0.07,0.69,0.89,0.69,1.2c-0.15,0.03-0.28,0-0.79,0c-1.04,0.01-1.89,0.66-1.89,1.53c0,0.87,0.91,1.5,1.75,1.46
				c0.84-0.04,1.14-0.4,1.14-0.4s0.04,0.3,0.24,0.3h1.06v-3.29C108.83,126.22,107.84,125.94,106.72,125.9z M106.72,130.07
				c-0.35,0-0.64-0.29-0.64-0.64c0-0.35,0.29-0.64,0.64-0.64c0.35,0,0.64,0.29,0.64,0.64C107.36,129.78,107.07,130.07,106.72,130.07
				z"/>
			<path class="st2" d="M161.74,125.9c-1.6-0.07-1.99,0.6-2.08,0.87c-0.02,0.16-0.18,0.67,0.31,0.75c0.85,0.11,0.26-0.8,1.68-0.75
				c0.85,0.07,0.69,0.89,0.69,1.2c-0.15,0.03-0.28,0-0.79,0c-1.04,0.01-1.89,0.66-1.89,1.53c0,0.87,0.91,1.5,1.75,1.46
				c0.84-0.04,1.14-0.4,1.14-0.4s0.04,0.3,0.24,0.3h1.06v-3.29C163.86,126.22,162.86,125.94,161.74,125.9z M161.74,130.07
				c-0.35,0-0.64-0.29-0.64-0.64c0-0.35,0.29-0.64,0.64-0.64c0.35,0,0.64,0.29,0.64,0.64C162.38,129.78,162.09,130.07,161.74,130.07
				z"/>
			<path class="st2" d="M210.18,135.6c-1.6-0.07-1.99,0.6-2.08,0.87c-0.02,0.16-0.18,0.67,0.31,0.75c0.85,0.11,0.26-0.8,1.68-0.75
				c0.85,0.07,0.69,0.89,0.69,1.2c-0.15,0.03-0.28,0-0.79,0c-1.04,0.01-1.89,0.66-1.89,1.53c0,0.87,0.91,1.5,1.75,1.46
				c0.84-0.04,1.14-0.4,1.14-0.4s0.04,0.3,0.24,0.3h1.06v-3.29C212.29,135.92,211.3,135.65,210.18,135.6z M210.18,139.77
				c-0.35,0-0.64-0.29-0.64-0.64s0.29-0.64,0.64-0.64c0.35,0,0.64,0.29,0.64,0.64S210.53,139.77,210.18,139.77z"/>
			<path class="st2" d="M110.7,125.89v4.97h1.42c0,0,0-2.65,0-3.29c0.09-0.96,1.59-0.9,1.59-0.22c0,0.89,0,3.5,0,3.5h1.31
				c0,0,0-2.86,0-3.56c0-0.7-0.68-1.41-1.22-1.41c-1.1-0.02-1.14,0.4-1.37,0.4s-0.34-0.3-0.36-0.4
				C111.73,125.89,110.7,125.89,110.7,125.89z"/>
			<path class="st2" d="M182.82,135.65v4.97h1.42c0,0,0-2.65,0-3.29c0.09-0.96,1.59-0.9,1.59-0.22c0,0.89,0,3.5,0,3.5h1.31
				c0,0,0-2.86,0-3.56c0-0.7-0.68-1.41-1.22-1.41c-1.1-0.02-1.14,0.4-1.37,0.4c-0.23,0-0.34-0.3-0.36-0.4
				C183.86,135.64,182.82,135.65,182.82,135.65z"/>
			<path class="st2" d="M127.42,130.92v-4.97h-1.42c0,0,0,2.65,0,3.29c-0.09,0.96-1.59,0.9-1.59,0.22c0-0.89,0-3.5,0-3.5h-1.31
				c0,0,0,2.86,0,3.56c0,0.7,0.68,1.41,1.22,1.41c1.1,0.02,1.14-0.4,1.37-0.4c0.23,0,0.34,0.3,0.36,0.4
				C126.38,130.93,127.42,130.92,127.42,130.92z"/>
			<path class="st2" d="M119.65,140.64v-4.97h-1.42c0,0,0,2.65,0,3.29c-0.09,0.96-1.59,0.9-1.59,0.22c0-0.89,0-3.5,0-3.5h-1.31
				c0,0,0,2.86,0,3.56c0,0.7,0.68,1.41,1.22,1.41c1.1,0.02,1.14-0.4,1.37-0.4s0.34,0.3,0.36,0.4
				C118.62,140.65,119.65,140.64,119.65,140.64z"/>
			<path class="st2" d="M189.78,130.9v-4.97h-1.42c0,0,0,2.65,0,3.29c-0.09,0.96-1.59,0.9-1.59,0.22c0-0.89,0-3.5,0-3.5h-1.31
				c0,0,0,2.86,0,3.56s0.68,1.41,1.22,1.41c1.1,0.02,1.14-0.4,1.37-0.4c0.23,0,0.34,0.3,0.36,0.4
				C188.75,130.9,189.78,130.9,189.78,130.9z"/>
			<path class="st2" d="M204.03,130.77v-4.97h-1.42c0,0,0,2.65,0,3.29c-0.09,0.96-1.59,0.9-1.59,0.22c0-0.89,0-3.5,0-3.5h-1.31
				c0,0,0,2.86,0,3.56c0,0.7,0.68,1.41,1.22,1.41c1.1,0.02,1.14-0.4,1.37-0.4c0.23,0,0.34,0.3,0.36,0.4
				C203,130.77,204.03,130.77,204.03,130.77z"/>
			<path class="st2" d="M202.73,140.61v-4.97h-1.42c0,0,0,2.65,0,3.29c-0.09,0.96-1.59,0.9-1.59,0.22c0-0.89,0-3.5,0-3.5h-1.31
				c0,0,0,2.86,0,3.56c0,0.7,0.68,1.41,1.22,1.41c1.1,0.02,1.14-0.4,1.37-0.4c0.23,0,0.34,0.3,0.36,0.4
				C201.69,140.61,202.73,140.61,202.73,140.61z"/>
			<path class="st2" d="M117.75,125.89c-0.54,0-0.62,1.15-0.62,2.63c0,1.06-0.2,2.34,0.74,2.34c0.94,0,1.68,0,1.68,0v1.36h1.33
				v-6.33C120.88,125.89,118.56,125.89,117.75,125.89z M119.6,129.58c0,0.18-0.14,0.32-0.32,0.32h-0.38c-0.18,0-0.32-0.14-0.32-0.32
				v-2.28c0-0.18,0.14-0.32,0.32-0.32h0.38c0.18,0,0.32,0.14,0.32,0.32V129.58z"/>
			<path class="st2" d="M142.28,130.72v-6.33h-1.45v1.36c0,0-0.81,0-1.84,0c-1.03,0-0.81,1.28-0.81,2.34c0,1.48,0.09,2.63,0.68,2.63
				C139.75,130.72,142.28,130.72,142.28,130.72z M140.88,129.31c0,0.18-0.16,0.32-0.35,0.32h-0.41c-0.19,0-0.35-0.14-0.35-0.32
				v-2.28c0-0.18,0.16-0.32,0.35-0.32h0.41c0.19,0,0.35,0.14,0.35,0.32V129.31z"/>
			<path class="st2" d="M127.01,140.52v-6.33h-1.45v1.36c0,0-0.81,0-1.84,0c-1.03,0-0.81,1.28-0.81,2.34c0,1.48,0.09,2.63,0.68,2.63
				C124.48,140.52,127.01,140.52,127.01,140.52z M125.61,139.11c0,0.18-0.16,0.32-0.35,0.32h-0.41c-0.19,0-0.35-0.14-0.35-0.32
				l0-2.28c0-0.18,0.16-0.32,0.35-0.32h0.41c0.19,0,0.35,0.14,0.35,0.32V139.11z"/>
			<path class="st2" d="M114.19,140.65v-6.33h-1.45v1.36c0,0-0.81,0-1.84,0c-1.03,0-0.81,1.28-0.81,2.34c0,1.48,0.09,2.63,0.68,2.63
				C111.65,140.65,114.19,140.65,114.19,140.65z M112.79,139.23c0,0.18-0.16,0.32-0.35,0.32h-0.41c-0.19,0-0.35-0.14-0.35-0.32
				v-2.28c0-0.18,0.16-0.32,0.35-0.32h0.41c0.19,0,0.35,0.14,0.35,0.32V139.23z"/>
			<path class="st2" d="M131.57,130.11c-0.65-0.06-1.23-0.29-1.17-1.19c0.59,0,3.03,0,3.03,0l-0.01-0.2
				c0.04-1.9-0.13-2.72-1.97-2.82c-1.84-0.1-2.53,1.04-2.53,2.55c0,1.52,0.63,2.5,2.35,2.48c1.72-0.02,2.19-0.88,2.16-1.45
				C133.25,128.82,132.51,130.13,131.57,130.11z M131.23,126.79c0.92,0,0.65,1.04,0.65,1.04h-1.3
				C130.29,127.82,130.32,126.79,131.23,126.79z"/>
			<path class="st2" d="M130.81,139.67c-0.65-0.06-1.23-0.29-1.17-1.19c0.59,0,3.03,0,3.03,0l-0.01-0.2
				c0.04-1.9-0.13-2.72-1.97-2.82c-1.84-0.1-2.53,1.04-2.53,2.55c0,1.52,0.63,2.5,2.35,2.48c1.72-0.02,2.19-0.88,2.16-1.45
				C132.5,138.38,131.76,139.69,130.81,139.67z M130.48,136.35c0.92,0,0.65,1.04,0.65,1.04h-1.3
				C129.53,137.39,129.56,136.35,130.48,136.35z"/>
			<path class="st2" d="M141.7,139.79c-0.65-0.06-1.23-0.29-1.17-1.19c0.59,0,3.03,0,3.03,0l-0.01-0.2c0.04-1.9-0.13-2.72-1.97-2.82
				c-1.84-0.1-2.53,1.04-2.53,2.55c0,1.52,0.63,2.5,2.35,2.48c1.72-0.02,2.19-0.88,2.16-1.45
				C143.39,138.51,142.65,139.82,141.7,139.79z M141.37,136.47c0.92,0,0.65,1.04,0.65,1.04h-1.3
				C140.42,137.51,140.46,136.47,141.37,136.47z"/>
			<path class="st2" d="M100.95,139.76c-0.65-0.06-1.23-0.29-1.17-1.19c0.59,0,3.03,0,3.03,0l-0.01-0.2
				c0.04-1.9-0.13-2.72-1.97-2.82c-1.84-0.1-2.53,1.04-2.53,2.55c0,1.52,0.63,2.5,2.35,2.48c1.72-0.02,2.19-0.88,2.16-1.45
				C102.64,138.48,101.9,139.79,100.95,139.76z M100.62,136.44c0.92,0,0.65,1.04,0.65,1.04h-1.3
				C99.67,137.48,99.71,136.44,100.62,136.44z"/>
			<path class="st2" d="M146.61,130.06c-0.65-0.06-1.23-0.29-1.17-1.19c0.59,0,3.03,0,3.03,0l-0.01-0.2
				c0.04-1.9-0.13-2.72-1.97-2.82c-1.84-0.1-2.53,1.04-2.53,2.55c0,1.52,0.63,2.5,2.35,2.48c1.72-0.02,2.19-0.88,2.16-1.45
				C148.3,128.78,147.56,130.09,146.61,130.06z M146.28,126.74c0.92,0,0.65,1.04,0.65,1.04h-1.3
				C145.33,127.78,145.36,126.74,146.28,126.74z"/>
			<path class="st2" d="M166.19,139.67c-0.65-0.06-1.23-0.29-1.17-1.19c0.59,0,3.03,0,3.03,0l-0.01-0.2
				c0.04-1.9-0.13-2.72-1.97-2.82c-1.84-0.1-2.53,1.04-2.53,2.55c0,1.52,0.63,2.5,2.35,2.48c1.72-0.02,2.19-0.88,2.16-1.45
				C167.88,138.38,167.14,139.69,166.19,139.67z M165.86,136.35c0.92,0,0.65,1.04,0.65,1.04h-1.3
				C164.91,137.39,164.94,136.35,165.86,136.35z"/>
			<path class="st2" d="M213.14,129.99c-0.65-0.06-1.23-0.29-1.17-1.19c0.59,0,3.03,0,3.03,0l-0.01-0.2
				c0.04-1.9-0.13-2.72-1.97-2.82c-1.84-0.1-2.53,1.04-2.53,2.55c0,1.52,0.63,2.5,2.35,2.48c1.72-0.02,2.19-0.88,2.16-1.45
				C214.82,128.71,214.09,130.02,213.14,129.99z M212.81,126.67c0.92,0,0.65,1.04,0.65,1.04h-1.3
				C211.86,127.71,211.89,126.67,212.81,126.67z"/>
			<path class="st2" d="M179.98,139.67c-0.65-0.06-1.23-0.29-1.17-1.19c0.59,0,3.03,0,3.03,0l-0.01-0.2
				c0.04-1.9-0.13-2.72-1.97-2.82c-1.84-0.1-2.53,1.04-2.53,2.55c0,1.52,0.63,2.5,2.35,2.48c1.72-0.02,2.19-0.88,2.16-1.45
				C181.67,138.38,180.93,139.69,179.98,139.67z M179.65,136.35c0.92,0,0.65,1.04,0.65,1.04H179
				C178.7,137.39,178.73,136.35,179.65,136.35z"/>
			<path class="st2" d="M154.44,130.72h-1.47v-5.53c0-0.38,0.31-0.69,0.69-0.69h0.09c0.38,0,0.69,0.31,0.69,0.69V130.72z"/>
			<path class="st2" d="M146.2,140.5h-1.47v-5.53c0-0.38,0.31-0.69,0.69-0.69h0.09c0.38,0,0.69,0.31,0.69,0.69V140.5z"/>
			<path class="st2" d="M193.14,130.69h-1.47V125c0-0.38,0.31-0.69,0.69-0.69h0.09c0.38,0,0.69,0.31,0.69,0.69V130.69z"/>
			<path class="st2" d="M214.88,140.61h-1.47v-5.69c0-0.38,0.31-0.69,0.69-0.69h0.09c0.38,0,0.69,0.31,0.69,0.69V140.61z"/>
			<path class="st2" d="M156.89,124.31c1.27,0,1.01,1.54,0.83,1.96c-0.09,0.21-0.98,1.33-1.6,0.99c-0.42-0.22,1.17-0.64,0.93-1.28
				c-0.11-0.39-0.83-0.17-1-0.62C155.9,124.96,156.09,124.31,156.89,124.31z"/>
			<path class="st2" d="M167.9,125.82c-1.46,0-2.26,0.44-2.29,2.61c-0.02,2.16,1.26,2.53,2.85,2.53c0,0.34,0.33,1.34-0.92,1.31
				c-1,0-1.29-1.73-1.69-0.92c-0.4,0.81,0.52,1.59,1.69,1.56c1.17-0.03,2.35-0.33,2.35-0.98c0-0.64,0-6.04,0-6.04
				S169.36,125.82,167.9,125.82z M168.57,129.69c0,0.13-0.11,0.24-0.24,0.24h-0.84c-0.13,0-0.24-0.11-0.24-0.24v-2.55
				c0-0.13,0.11-0.24,0.24-0.24h0.84c0.13,0,0.24,0.11,0.24,0.24V129.69z"/>
			<path class="st2" d="M174.09,125.96c0.01,0.21-0.25,0.63-0.46,0.63c-0.1,0-0.22-0.08-0.32-0.16v-0.54h-1.35v4.8h1.35v-2.93
				c0.33-0.5,1.48-0.35,1.96-0.35c0-0.3,0-1.45,0-1.45S174.62,125.96,174.09,125.96z"/>
			<path class="st2" d="M196.53,135.64c0.01,0.21-0.25,0.63-0.46,0.63c-0.1,0-0.22-0.08-0.32-0.16v-0.54h-1.35v4.8h1.35v-2.93
				c0.33-0.5,1.48-0.35,1.96-0.35c0-0.3,0-1.45,0-1.45S197.06,135.64,196.53,135.64z"/>
			<path class="st2" d="M206.16,135.64c0.01,0.21-0.25,0.63-0.46,0.63c-0.1,0-0.22-0.08-0.32-0.16v-0.54h-1.35v4.8h1.35v-2.93
				c0.33-0.5,1.48-0.35,1.96-0.35c0-0.3,0-1.45,0-1.45S206.7,135.64,206.16,135.64z"/>
			<path class="st2" d="M208.14,125.96c0.01,0.21-0.25,0.63-0.46,0.63c-0.1,0-0.22-0.08-0.32-0.16v-0.54h-1.35v4.8h1.35v-2.93
				c0.33-0.5,1.48-0.35,1.96-0.35c0-0.3,0-1.45,0-1.45S208.67,125.96,208.14,125.96z"/>
			<rect x="176.82" y="126.01" class="st2" width="1.49" height="4.68"/>
			<rect x="176.82" y="124.45" class="st2" width="1.49" height="0.91"/>
			<path class="st2" d="M182.95,127.38c0.87,0,0.87,0,0.87,0s-0.11-1.45-1.89-1.49s-2.12,1.6-2.07,2.63
				c0.05,1.03,0.48,2.44,2.08,2.41c1.6-0.02,1.91-1.44,1.88-1.63c-0.31,0-0.71,0-0.95,0c-0.05,0.15-0.2,0.73-0.74,0.65
				c-1,0.01-0.75-2.18-0.66-2.95c0.09-0.5,0.94-0.41,1.17-0.22C182.85,126.95,182.95,127.38,182.95,127.38z"/>
			<path class="st2" d="M197.04,126.87c0,0.63-0.03,1.99,0,2.39c0.05,0.76,0.36,0.85,0.93,0.89c0.57,0.04,0.1,0.69-1.04,0.63
				s-1.15-1.04-1.16-1.56c-0.01-0.45,0-2.35,0-2.35s-0.7-0.07-0.7-0.5c0-0.47,0.64-0.47,0.64-0.47v-1.29h1.27v1.33
				c0,0,0.82-0.04,0.85,0.36C197.86,126.7,197.43,126.89,197.04,126.87z"/>
			<path class="st2" d="M190.6,136.69c0,0.63-0.03,1.99,0,2.39c0.05,0.76,0.23,0.8,0.8,0.88c0.27,0.04,0.23,0.71-0.91,0.64
				s-1.15-1.04-1.16-1.56c-0.01-0.45,0-2.35,0-2.35s-0.7-0.07-0.7-0.5c0-0.47,0.64-0.47,0.64-0.47v-1.29h1.27v1.33
				c0,0,0.82-0.04,0.85,0.36C191.42,136.52,190.99,136.72,190.6,136.69z"/>
			<path class="st2" d="M106.02,136.53c0,0.63-0.03,1.99,0,2.39c0.05,0.76,0.36,0.85,0.93,0.89s0.1,0.69-1.04,0.63
				c-1.14-0.07-1.15-1.04-1.16-1.56c-0.01-0.45,0-2.35,0-2.35s-0.7-0.07-0.7-0.5c0-0.47,0.64-0.47,0.64-0.47v-1.29h1.27v1.33
				c0,0,0.82-0.04,0.85,0.36C106.84,136.37,106.42,136.56,106.02,136.53z"/>
			<path class="st2" d="M133.94,135.66l0.02,5.14c0,0,0.79,0.05,1.45,0.05c0.66,0,2.37-0.48,2.42-2.1c0.05-1.42-0.01-2.21-0.01-2.75
				s-1.33-0.53-1.33-0.15s0,3.22,0,3.58s-1.3,0.41-1.32,0.14c-0.02-0.23-0.01-3.89-0.01-3.89L133.94,135.66z"/>
			<path class="st2" d="M150.06,135.57h-1.26c-0.88,0-1.59,0.71-1.59,1.59v2.1c0,0.88,0.71,1.59,1.59,1.59h1.26
				c0.88,0,1.59-0.71,1.59-1.59v-2.1C151.65,136.29,150.94,135.57,150.06,135.57z M150.1,139.05c0,0.37-0.36,0.66-0.66,0.66
				c-0.3,0-0.76-0.21-0.75-0.63c0-0.24,0-1.91,0-2.09s0.25-0.51,0.66-0.52c0.37,0,0.73,0.13,0.75,0.52
				C150.11,137.38,150.1,138.67,150.1,139.05z"/>
			<path class="st2" d="M155.35,135.43c-0.25-0.03-0.55,0.2-0.75,0.34c-0.11,0.07-0.25,0.06-0.35-0.02
				c-0.45-0.37-1.49-0.56-1.49,0.21v5.5c0,0.56,1.5,0.47,1.5,0.32v-1.05c1.07,0.02,2.74,0.08,2.82-2.52
				C157.15,135.61,155.72,135.46,155.35,135.43z M155.53,139.49c0,0.21-0.17,0.38-0.38,0.38h-0.46c-0.21,0-0.38-0.17-0.38-0.38
				v-2.64c0-0.21,0.17-0.38,0.38-0.38h0.46c0.21,0,0.38,0.17,0.38,0.38V139.49z"/>
			<path class="st2" d="M160.82,135.43c-0.25-0.03-0.55,0.2-0.75,0.34c-0.11,0.07-0.25,0.06-0.35-0.02
				c-0.45-0.37-1.49-0.56-1.49,0.21v5.5c0,0.56,1.5,0.47,1.5,0.32v-1.05c1.07,0.02,2.74,0.08,2.82-2.52
				C162.63,135.61,161.2,135.46,160.82,135.43z M161.01,139.49c0,0.21-0.17,0.38-0.38,0.38h-0.46c-0.21,0-0.38-0.17-0.38-0.38v-2.64
				c0-0.21,0.17-0.38,0.38-0.38h0.46c0.21,0,0.38,0.17,0.38,0.38V139.49z"/>
			<path class="st2" d="M169.11,139.98c0-1.61,0-3.59,0-4.01c0-0.42,0.53-0.45,0.78-0.45c0.25,0,0.45,0.29,0.76,0.29
				c0.33,0,0.42-0.29,1.05-0.29c0.67,0.07,0.93,0.48,1.42,0.41c0.49-0.07,0.7-0.5,1.5-0.49s1.62,0.83,1.63,1.63s0,3.42,0,3.42h-1.5
				c0,0,0-3.26,0-3.62c0-0.37-0.44-0.61-0.65-0.63s-0.73,0.23-0.73,0.9s0,3.35,0,3.35h-1.41c0,0,0-2.99,0-3.45s-0.34-0.73-0.77-0.77
				c-0.42-0.03-0.57,0.56-0.59,1.11c-0.02,0.55,0,3.1,0,3.1h-1.49V139.98z"/>
		</g>
	</g>
</g>
</svg>
