<?xml version="1.0" encoding="UTF-8" standalone="no"?>
<!-- Generator: Adobe Illustrator 25.2.0, SVG Export Plug-In . SVG Version: 6.00 Build 0)  -->

<svg
   version="1.1"
   id="Layer_1"
   x="0px"
   y="0px"
   viewBox="0 0 180.00159 58.537197"
   xml:space="preserve"
   sodipodi:docname="Banque_de_l'agriculture_et_du_développement_rural(BADR)-01-01.svg"
   width="180.00159"
   height="58.537197"
   inkscape:version="1.2.2 (732a01da63, 2022-12-09)"
   xmlns:inkscape="http://www.inkscape.org/namespaces/inkscape"
   xmlns:sodipodi="http://sodipodi.sourceforge.net/DTD/sodipodi-0.dtd"
   xmlns="http://www.w3.org/2000/svg"
   xmlns:svg="http://www.w3.org/2000/svg"><defs
   id="defs7462" /><sodipodi:namedview
   id="namedview7460"
   pagecolor="#505050"
   bordercolor="#eeeeee"
   borderopacity="1"
   inkscape:showpageshadow="0"
   inkscape:pageopacity="0"
   inkscape:pagecheckerboard="0"
   inkscape:deskcolor="#505050"
   showgrid="false"
   inkscape:zoom="2.1"
   inkscape:cx="90"
   inkscape:cy="29.52381"
   inkscape:window-width="1366"
   inkscape:window-height="705"
   inkscape:window-x="-8"
   inkscape:window-y="-8"
   inkscape:window-maximized="1"
   inkscape:current-layer="Layer_1" />
<style
   type="text/css"
   id="style7147">
	.st0{fill:#DDA833;}
	.st1{fill:#E8AD34;}
	.st2{fill:#008049;}
</style>
<g
   id="g7457"
   transform="translate(-34.999746,-95.729997)">
	<g
   id="g7297">
		<g
   id="g7277">
			<g
   id="g7211">
				<g
   id="g7153">
					<g
   id="g7151">
						<path
   class="st0"
   d="m 45.81,147.51 c -0.02,0 -0.04,0 -0.05,-0.01 -0.42,-0.26 -1.51,-1.1 -2.95,-2.63 -8.89,-9.44 -10.35,-23.7 -3.56,-34.66 C 45.62,99.93 56.39,97.36 60,97.23 c 0.05,-0.01 0.1,0.04 0.1,0.1 0,0.06 -0.04,0.1 -0.1,0.1 -3.58,0.12 -14.27,2.68 -20.59,12.89 -6.75,10.89 -5.29,25.04 3.54,34.42 1.43,1.52 2.5,2.34 2.91,2.59 0.05,0.03 0.06,0.09 0.03,0.14 -0.01,0.03 -0.04,0.04 -0.08,0.04 z"
   id="path7149" />
					</g>
				</g>
				<g
   id="g7159">
					<g
   id="g7157">
						<path
   class="st0"
   d="m 40.3,110.94 c -0.02,0 -0.04,-0.01 -0.06,-0.02 -0.05,-0.03 -0.06,-0.09 -0.03,-0.14 6.27,-9.26 15.27,-12.26 19.8,-12.02 0.06,0 0.1,0.05 0.09,0.1 0,0.05 -0.05,0.1 -0.1,0.09 -4.48,-0.24 -13.4,2.74 -19.62,11.93 -0.02,0.04 -0.05,0.06 -0.08,0.06 z"
   id="path7155" />
					</g>
				</g>
				<g
   id="g7165">
					<g
   id="g7163">
						<path
   class="st0"
   d="m 43.11,109.49 c -0.02,0 -0.04,-0.01 -0.06,-0.02 -0.04,-0.03 -0.05,-0.1 -0.02,-0.14 4.26,-5.52 12.93,-9.37 16.47,-9.16 0.05,0 0.1,0.05 0.09,0.11 0,0.05 -0.05,0.09 -0.11,0.09 -3.5,-0.2 -12.07,3.6 -16.3,9.08 -0.01,0.03 -0.04,0.04 -0.07,0.04 z"
   id="path7161" />
					</g>
				</g>
				<g
   id="g7171">
					<g
   id="g7169">
						<path
   class="st0"
   d="m 45.55,109.22 c -0.03,0 -0.05,-0.01 -0.07,-0.03 -0.04,-0.04 -0.04,-0.1 0,-0.14 4.61,-4.69 8.25,-6.18 13.38,-7.28 0.06,-0.01 0.11,0.02 0.12,0.08 0.01,0.05 -0.02,0.11 -0.08,0.12 -5.09,1.09 -8.71,2.57 -13.28,7.23 -0.02,0.01 -0.04,0.02 -0.07,0.02 z"
   id="path7167" />
					</g>
				</g>
				<g
   id="g7177">
					<g
   id="g7175">
						<path
   class="st0"
   d="m 44.62,113.88 c -0.02,0 -0.03,0 -0.04,-0.01 -0.05,-0.02 -0.07,-0.08 -0.04,-0.13 2.6,-5.16 7.02,-8.46 13.51,-10.07 0.05,-0.01 0.11,0.02 0.12,0.07 0.01,0.05 -0.02,0.11 -0.07,0.12 -6.43,1.6 -10.8,4.86 -13.38,9.96 -0.02,0.04 -0.06,0.06 -0.1,0.06 z"
   id="path7173" />
					</g>
				</g>
				<g
   id="g7183">
					<g
   id="g7181">
						<path
   class="st0"
   d="m 46.08,114.27 c -0.02,0 -0.03,0 -0.05,-0.01 -0.05,-0.03 -0.07,-0.09 -0.04,-0.13 1.97,-3.63 5.77,-6.69 10.15,-8.16 0.05,-0.02 0.11,0.01 0.13,0.06 0.02,0.05 -0.01,0.11 -0.06,0.13 -4.34,1.46 -8.1,4.48 -10.04,8.07 -0.02,0.02 -0.05,0.04 -0.09,0.04 z"
   id="path7179" />
					</g>
				</g>
				<path
   class="st1"
   d="m 39.72,117.6 c -0.53,-2.01 2.08,-6.53 2.41,-6.95 0.21,-0.34 1.67,0.86 2.67,-0.53 0.65,1.17 -3.2,6.37 -5.08,7.48 z"
   id="path7185" />
				<path
   class="st1"
   d="m 39.2,112.68 c -0.44,0.3 -3.91,6.59 -0.62,9.04 0.18,-2.47 0.39,-5.17 0.37,-6.2 -0.03,-1.04 -0.85,0.4 0.25,-2.84 z"
   id="path7187" />
				<path
   class="st1"
   d="m 39.65,121.82 c 0.46,-3.11 2.87,-5.79 3.36,-6.32 0.36,-0.43 1.37,0.59 2.27,-0.56 0.52,0.67 -0.95,3.97 -1.7,4.23 -0.88,0.38 -3.93,2.65 -3.93,2.65 z"
   id="path7189" />
				<path
   class="st1"
   d="m 36.26,119.8 c -0.03,-1.15 -0.18,6.62 -0.18,6.98 0,0.33 1.15,1.66 1.7,2.16 0.07,0.06 0.18,0.02 0.19,-0.07 0.19,-1.23 0.22,-4.36 0.22,-5.72 0,-0.25 -0.15,-0.48 -0.38,-0.58 -0.56,-0.23 -1.15,-0.53 -1.55,-2.77 z"
   id="path7191" />
				<path
   class="st1"
   d="m 39.77,129.58 c -0.63,-0.78 -0.61,-5.37 0.91,-7.48 0.43,-0.62 1.43,0.86 2.56,-1.48 0.56,0.7 -0.32,4.17 -0.97,5.16 -0.53,0.87 -1.83,3.41 -2.5,3.8 z"
   id="path7193" />
				<path
   class="st1"
   d="m 36.27,129.3 c -0.58,2.13 2.03,6.61 4.48,6.88 -0.46,-2.44 -2.59,-6.51 -4.48,-6.88 z"
   id="path7195" />
				<path
   class="st1"
   d="m 42.76,127.66 c 1.13,2.2 1.25,3.87 1.1,5.09 -0.11,0.85 -1.41,3.35 -1.34,4.68 -1.26,-1.07 -2.24,-4.54 -2.09,-6 0.2,-2.03 2.33,-3.77 2.33,-3.77 z"
   id="path7197" />
				<path
   class="st1"
   d="m 38.93,137.06 c 3.83,0.65 4.01,3.76 6.04,5.04 -2.81,0.63 -5.01,-1.92 -6.04,-5.04 z"
   id="path7199" />
				<path
   class="st1"
   d="m 44.21,133.78 c -0.74,4.76 -1.32,5.67 2.01,8.56 -0.07,-3.09 0.75,-1.65 0.73,-3.71 0.01,-1.04 -2.29,-3.25 -2.74,-4.85 z"
   id="path7201" />
				<path
   class="st1"
   d="m 42.06,142.83 c 0.03,-0.36 1.97,1.01 2.19,1.01 0.22,0 1.7,-0.91 2.93,-0.12 1.23,0.79 2.83,2.16 3,2.73 -1.33,0.22 -3.22,0.42 -4.06,-0.12 -0.84,-0.54 -4.11,-2.96 -4.06,-3.5 z"
   id="path7203" />
				<path
   class="st1"
   d="m 47.07,141.78 c 0.25,0.88 3.49,3.08 5.15,3.59 0.54,-1.29 -0.76,-4.69 -4.15,-6.66 -0.76,-0.55 1.15,2 0.34,2.56 -0.81,0.56 -1.51,-0.02 -1.34,0.51 z"
   id="path7205" />
				<path
   class="st1"
   d="m 56.22,150.39 c -1.07,1.08 -4.67,2.14 -9.66,-2.39 2.15,-0.43 3.63,-0.21 4.08,0.13 0.44,0.33 2.48,2.74 5.58,2.26 z"
   id="path7207" />
				<path
   class="st1"
   d="m 58.88,148.62 c 0.1,-2.88 -2.65,-4.97 -4.94,-5.6 -0.22,0.58 0.56,2.92 0.32,3.15 -0.41,-0.23 -2.29,-0.55 -3.37,-0.16 1.56,1.21 1.24,4.24 7.02,4.09 3.19,0.71 3.69,4.34 4.55,4.16 0.85,-0.19 1.03,-0.56 1.03,-1.74 -0.23,-1.63 -3.55,-3.3 -4.61,-3.9 z m 0.71,1.4 c -1.52,-0.91 -2.64,-0.98 -2.13,-1.37 0.45,-0.38 4.3,1.78 5.29,3.4 0.2,0.36 -1.64,-1.12 -3.16,-2.03 z"
   id="path7209" />
			</g>
			<g
   id="g7275">
				<g
   id="g7217">
					<g
   id="g7215">
						<path
   class="st0"
   d="m 81.15,147.51 c 0.02,0 0.04,0 0.05,-0.01 0.42,-0.26 1.51,-1.1 2.95,-2.63 8.89,-9.44 10.35,-23.7 3.56,-34.66 C 81.34,99.93 70.57,97.36 66.96,97.23 c -0.05,-0.01 -0.1,0.04 -0.1,0.1 0,0.06 0.04,0.1 0.1,0.1 3.58,0.12 14.27,2.68 20.59,12.89 6.75,10.89 5.29,25.04 -3.54,34.42 -1.43,1.52 -2.5,2.34 -2.91,2.59 -0.05,0.03 -0.06,0.09 -0.03,0.14 0.02,0.03 0.05,0.04 0.08,0.04 z"
   id="path7213" />
					</g>
				</g>
				<g
   id="g7223">
					<g
   id="g7221">
						<path
   class="st0"
   d="m 86.67,110.94 c 0.02,0 0.04,-0.01 0.06,-0.02 0.05,-0.03 0.06,-0.09 0.03,-0.14 -6.27,-9.26 -15.27,-12.26 -19.8,-12.02 -0.06,0 -0.1,0.05 -0.09,0.1 0,0.05 0.05,0.1 0.1,0.09 4.48,-0.24 13.4,2.74 19.62,11.93 0.02,0.04 0.05,0.06 0.08,0.06 z"
   id="path7219" />
					</g>
				</g>
				<g
   id="g7229">
					<g
   id="g7227">
						<path
   class="st0"
   d="m 83.86,109.49 c 0.02,0 0.04,-0.01 0.06,-0.02 0.04,-0.03 0.05,-0.1 0.02,-0.14 -4.26,-5.52 -12.93,-9.37 -16.47,-9.16 -0.05,0 -0.1,0.05 -0.09,0.11 0,0.05 0.05,0.09 0.11,0.09 3.5,-0.2 12.07,3.6 16.3,9.08 0.01,0.03 0.04,0.04 0.07,0.04 z"
   id="path7225" />
					</g>
				</g>
				<g
   id="g7235">
					<g
   id="g7233">
						<path
   class="st0"
   d="m 81.42,109.22 c 0.03,0 0.05,-0.01 0.07,-0.03 0.04,-0.04 0.04,-0.1 0,-0.14 -4.61,-4.69 -8.25,-6.18 -13.38,-7.28 -0.06,-0.01 -0.11,0.02 -0.12,0.08 -0.01,0.05 0.02,0.11 0.08,0.12 5.09,1.09 8.71,2.57 13.28,7.23 0.01,0.01 0.04,0.02 0.07,0.02 z"
   id="path7231" />
					</g>
				</g>
				<g
   id="g7241">
					<g
   id="g7239">
						<path
   class="st0"
   d="m 82.34,113.88 c 0.02,0 0.03,0 0.04,-0.01 0.05,-0.02 0.07,-0.08 0.04,-0.13 -2.6,-5.16 -7.02,-8.46 -13.51,-10.07 -0.05,-0.01 -0.11,0.02 -0.12,0.07 -0.01,0.05 0.02,0.11 0.07,0.12 6.43,1.6 10.8,4.86 13.38,9.96 0.03,0.04 0.07,0.06 0.1,0.06 z"
   id="path7237" />
					</g>
				</g>
				<g
   id="g7247">
					<g
   id="g7245">
						<path
   class="st0"
   d="m 80.88,114.27 c 0.02,0 0.03,0 0.05,-0.01 0.05,-0.03 0.07,-0.09 0.04,-0.13 -1.97,-3.63 -5.77,-6.69 -10.15,-8.16 -0.05,-0.02 -0.11,0.01 -0.13,0.06 -0.02,0.05 0.01,0.11 0.06,0.13 4.34,1.46 8.1,4.48 10.04,8.07 0.02,0.02 0.06,0.04 0.09,0.04 z"
   id="path7243" />
					</g>
				</g>
				<path
   class="st1"
   d="m 87.25,117.6 c 0.53,-2.01 -2.08,-6.53 -2.41,-6.95 -0.21,-0.34 -1.67,0.86 -2.67,-0.53 -0.65,1.17 3.19,6.37 5.08,7.48 z"
   id="path7249" />
				<path
   class="st1"
   d="m 87.77,112.68 c 0.44,0.3 3.91,6.59 0.62,9.04 -0.18,-2.47 -0.39,-5.17 -0.37,-6.2 0.02,-1.04 0.85,0.4 -0.25,-2.84 z"
   id="path7251" />
				<path
   class="st1"
   d="m 87.32,121.82 c -0.46,-3.11 -2.87,-5.79 -3.36,-6.32 -0.36,-0.43 -1.37,0.59 -2.27,-0.56 -0.52,0.67 0.95,3.97 1.7,4.23 0.88,0.38 3.93,2.65 3.93,2.65 z"
   id="path7253" />
				<path
   class="st1"
   d="m 90.71,119.8 c 0.03,-1.15 0.18,6.62 0.18,6.98 0,0.33 -1.15,1.66 -1.7,2.16 -0.07,0.06 -0.18,0.02 -0.19,-0.07 -0.19,-1.23 -0.22,-4.36 -0.22,-5.72 0,-0.25 0.15,-0.48 0.38,-0.58 0.56,-0.23 1.15,-0.53 1.55,-2.77 z"
   id="path7255" />
				<path
   class="st1"
   d="m 87.2,129.58 c 0.63,-0.78 0.61,-5.37 -0.91,-7.48 -0.43,-0.62 -1.43,0.86 -2.56,-1.48 -0.56,0.7 0.32,4.17 0.97,5.16 0.53,0.87 1.83,3.41 2.5,3.8 z"
   id="path7257" />
				<path
   class="st1"
   d="m 90.7,129.3 c 0.58,2.13 -2.03,6.61 -4.48,6.88 0.46,-2.44 2.59,-6.51 4.48,-6.88 z"
   id="path7259" />
				<path
   class="st1"
   d="m 84.21,127.66 c -1.13,2.2 -1.25,3.87 -1.1,5.09 0.11,0.85 1.41,3.35 1.34,4.68 1.26,-1.07 2.24,-4.54 2.09,-6 -0.21,-2.03 -2.33,-3.77 -2.33,-3.77 z"
   id="path7261" />
				<path
   class="st1"
   d="m 88.04,137.06 c -3.83,0.65 -4.01,3.76 -6.04,5.04 2.81,0.63 5.01,-1.92 6.04,-5.04 z"
   id="path7263" />
				<path
   class="st1"
   d="m 82.76,133.78 c 0.74,4.76 1.32,5.67 -2.01,8.56 0.07,-3.09 -0.75,-1.65 -0.73,-3.71 -0.01,-1.04 2.28,-3.25 2.74,-4.85 z"
   id="path7265" />
				<path
   class="st1"
   d="m 84.91,142.83 c -0.03,-0.36 -1.97,1.01 -2.19,1.01 -0.22,0 -1.7,-0.91 -2.93,-0.12 -1.23,0.79 -2.83,2.16 -3,2.73 1.33,0.22 3.22,0.42 4.06,-0.12 0.84,-0.54 4.11,-2.96 4.06,-3.5 z"
   id="path7267" />
				<path
   class="st1"
   d="m 79.9,141.78 c -0.25,0.88 -3.49,3.08 -5.15,3.59 -0.54,-1.29 0.76,-4.69 4.15,-6.66 0.76,-0.55 -1.15,2 -0.34,2.56 0.8,0.56 1.51,-0.02 1.34,0.51 z"
   id="path7269" />
				<path
   class="st1"
   d="m 70.74,150.39 c 1.07,1.08 4.67,2.14 9.66,-2.39 -2.15,-0.43 -3.63,-0.21 -4.08,0.13 -0.44,0.33 -2.47,2.74 -5.58,2.26 z"
   id="path7271" />
				<path
   class="st1"
   d="m 63.48,152.52 c 0,1.18 0.17,1.56 1.03,1.74 0.85,0.19 1.36,-3.44 4.55,-4.16 5.78,0.15 5.46,-2.87 7.02,-4.09 -1.08,-0.39 -2.96,-0.08 -3.37,0.16 -0.24,-0.23 0.55,-2.57 0.32,-3.15 -2.29,0.63 -5.05,2.72 -4.94,5.6 -1.06,0.6 -4.39,2.27 -4.61,3.9 z m 0.75,-0.47 c 0.98,-1.63 4.83,-3.78 5.29,-3.4 0.51,0.39 -0.61,0.46 -2.13,1.37 -1.53,0.91 -3.37,2.39 -3.16,2.03 z"
   id="path7273" />
			</g>
		</g>
		<g
   id="g7295">
			<circle
   class="st2"
   cx="63.25"
   cy="98.269997"
   r="2.54"
   id="circle7279" />
			<circle
   class="st2"
   cx="48.400002"
   cy="120.48"
   r="2.5"
   id="circle7281" />
			<path
   class="st2"
   d="m 78.58,117.56 c 0.04,-0.17 0.06,-0.34 0.06,-0.52 0,-1.33 -1.07,-2.4 -2.4,-2.4 -1.33,0 -2.4,1.07 -2.4,2.4 0,1.08 0.72,2 1.71,2.3 -0.04,0.17 -0.06,0.34 -0.06,0.52 0,1.33 1.07,2.4 2.4,2.4 1.33,0 2.4,-1.07 2.4,-2.4 -0.01,-1.09 -0.73,-2.01 -1.71,-2.3 z"
   id="path7283" />
			<path
   class="st2"
   d="M 63.11,101.95 H 62.9 c 0,0 -7.61,4.32 -7.39,8.45 0.22,4.13 3.58,5.57 5.31,5.6 0,1.08 0,7.86 0,7.86 h 4.58 c 0,0 0,-6.27 0,-7.8 1.99,-0.06 4.93,-1.88 4.9,-5.52 -0.03,-3.63 -3.79,-6.74 -7.19,-8.59 z m -0.03,8.59 c -0.81,0 -1.47,-0.66 -1.47,-1.47 0,-0.81 0.66,-1.47 1.47,-1.47 0.81,0 1.47,0.66 1.47,1.47 0,0.81 -0.66,1.47 -1.47,1.47 z"
   id="path7285" />
			<path
   class="st2"
   d="m 45.61,123.28 c -0.11,3.04 -1.49,16.7 15.08,20.62 0,-3.26 0,-8.13 0,-10.55 2.29,-1.06 10.39,-5.33 10.39,-5.33 l 0.14,-4.5 c 0,0 1.26,-1.12 2.12,-1.91 -1.17,-0.14 -5.18,-1.12 -7.4,-3.63 0.09,2.42 0.24,7.36 0.24,7.36 l -10.31,5.9 v 6.19 c 0,0 -5.54,-3.31 -5.58,-7.11 0.06,-1.57 0.75,-2.66 1.5,-3.06 -0.63,-0.27 -4.08,0.44 -6.18,-3.98 z"
   id="path7287" />
			<path
   class="st2"
   d="m 59.18,117.98 c -1.2,1.24 -3.71,3.91 -6.05,4.57 0,0.66 0,1.33 0,1.33 0,0 1.56,0.38 1.65,1.49 0.09,1.11 0,2 0,2.63 0,0.42 1.96,1.59 2.46,1.31 0.5,-0.28 4.4,-2.63 4.4,-2.63 l -2.19,-1.96 z"
   id="path7289" />
			<path
   class="st2"
   d="m 66.18,134.29 v 9.61 c 0,0 -1.44,2.5 -4.9,1.78 0.81,-0.72 1.36,-0.36 1.48,-1.35 0.12,-0.99 0,-4.36 0,-5.05 0,-0.69 -0.15,-1.4 -1.04,-2.21 0.83,0 3.34,-1.13 3.64,-2.59 0.4,-0.01 0.82,-0.19 0.82,-0.19 z"
   id="path7291" />
			<path
   class="st2"
   d="m 80.85,122.06 c 1.45,2.45 1.22,18.35 -13.29,21.32 0,-3.1 0.02,-7.82 0,-8.85 -0.02,-1.03 -1.34,-2.1 -3.05,-2.49 1.66,-0.86 4.09,-2.01 4.78,-2.46 0.48,-0.28 2.27,0.68 2.35,2.67 0.08,1.99 -0.2,3.06 0,4.34 1.28,-0.72 5.08,-3.64 4.96,-7.62 -0.1,-1.2 -0.73,-1.78 -1.41,-2 -0.01,-0.28 0.02,-0.7 0.02,-1.04 1.02,0.03 4.37,-0.89 5.64,-3.87 z"
   id="path7293" />
		</g>
	</g>
	<g
   id="g7455">
		<g
   id="g7363">
			<circle
   class="st2"
   cx="209.58"
   cy="112.55"
   r="0.95999998"
   id="circle7299" />
			<circle
   class="st2"
   cx="213.41"
   cy="120.43"
   r="0.95999998"
   id="circle7301" />
			<circle
   class="st2"
   cx="184.66"
   cy="110.95"
   r="0.95999998"
   id="circle7303" />
			<path
   class="st2"
   d="m 213.43,114.94 v 2.19 H 211 v -2.19 h -1.39 v 2.19 h -2.1 c -0.06,-0.7 -0.31,-1.56 -0.86,-2.08 -0.32,-0.3 -0.7,-0.45 -1.1,-0.43 -0.46,0.02 -3.09,0.02 -5.24,0.01 l 2.15,-2.16 -0.19,-1.78 -5.3,5.32 1.66,0.01 c 0.25,0 6.2,0.04 6.98,0 0.13,0.03 0.41,0.48 0.49,1.12 h -9.93 l -0.86,1.39 h 19.52 v -3.58 h -1.4 z"
   id="path7305" />
			<g
   id="g7309">
				<path
   class="st2"
   d="m 192.28,118.63 c -0.25,0 -0.51,0 -0.71,-0.13 -0.26,-0.17 -0.52,-0.42 -0.52,-1.18 v -8.19 c 0,-0.33 0.27,-0.6 0.6,-0.6 0.33,0 0.6,0.27 0.6,0.6 v 8.19 c 0,0.15 -0.01,0.63 0,0.67 0.06,0 0.6,0.02 1,-0.03 0.38,-0.04 -0.28,0.67 -0.97,0.67 z"
   id="path7307" />
			</g>
			<g
   id="g7313">
				<path
   class="st2"
   d="m 124.12,118.49 c -0.25,0 -0.51,0 -0.71,-0.13 -0.26,-0.17 -0.52,-0.42 -0.52,-1.18 v -8.19 c 0,-0.33 0.27,-0.6 0.6,-0.6 0.33,0 0.6,0.27 0.6,0.6 v 8.19 c 0,0.15 -0.01,0.63 0,0.67 0.06,0 0.6,0.02 1,-0.03 0.38,-0.05 -0.27,0.67 -0.97,0.67 z"
   id="path7311" />
			</g>
			<g
   id="g7317">
				<path
   class="st2"
   d="m 153.79,118.61 c -0.25,0 -0.51,0 -0.71,-0.13 -0.26,-0.17 -0.52,-0.42 -0.52,-1.18 v -8.19 c 0,-0.33 0.27,-0.6 0.6,-0.6 0.33,0 0.6,0.27 0.6,0.6 v 8.19 c 0,0.15 -0.01,0.63 0,0.67 0.06,0 0.6,0.02 1,-0.03 0.38,-0.04 -0.27,0.67 -0.97,0.67 z"
   id="path7315" />
			</g>
			<path
   class="st2"
   d="m 189.61,108.41 c -0.33,0 -0.6,0.27 -0.6,0.6 v 8.04 h -2.48 v -2.44 c 0,-0.08 -0.02,-0.16 -0.05,-0.24 -0.19,-0.83 -0.93,-1.45 -1.82,-1.45 -1.03,0 -1.87,0.84 -1.87,1.87 0,1.03 0.84,1.87 1.87,1.87 0.24,0 0.46,-0.05 0.67,-0.13 v 0.52 h -5.02 v -8.04 c 0,-0.33 -0.27,-0.6 -0.6,-0.6 -0.33,0 -0.6,0.27 -0.6,0.6 v 8.18 c -0.22,-0.09 -0.46,-0.14 -0.71,-0.14 -0.25,0 -0.49,0.05 -0.7,0.14 0.02,-0.06 0.03,-0.11 0.03,-0.17 v -8 c 0,-0.33 -0.27,-0.6 -0.6,-0.6 -0.33,0 -0.6,0.27 -0.6,0.6 v 8 c 0,0.31 0.24,0.56 0.54,0.59 -0.33,0.34 -0.54,0.8 -0.54,1.31 0,1.03 0.84,1.87 1.87,1.87 1.03,0 1.87,-0.84 1.87,-1.87 0,-0.24 -0.05,-0.46 -0.13,-0.67 h 10.05 v -9.23 c 0.01,-0.34 -0.25,-0.61 -0.58,-0.61 z m -4.95,7.05 c -0.37,0 -0.67,-0.3 -0.67,-0.67 0,-0.37 0.3,-0.67 0.67,-0.67 0.37,0 0.67,0.3 0.67,0.67 0.01,0.37 -0.3,0.67 -0.67,0.67 z m -6.24,4.13 c -0.37,0 -0.67,-0.3 -0.67,-0.67 0,-0.37 0.3,-0.67 0.67,-0.67 0.37,0 0.67,0.3 0.67,0.67 0,0.36 -0.3,0.67 -0.67,0.67 z"
   id="path7319" />
			<path
   class="st2"
   d="m 172.37,117.17 -2.64,-2.24 -0.81,1.21 1.02,1.04 h -3.41 l 0.02,-1.72 -0.02,-0.52 c -0.01,-0.01 0.01,0.01 0,0 v -0.27 c 0,-0.05 -0.03,-0.11 -0.08,-0.13 -0.19,-0.07 -0.31,-0.2 -0.31,-0.35 0,-0.14 0.12,-0.27 0.31,-0.34 0.06,-0.02 0.09,-0.08 0.09,-0.14 v -0.97 c 0,-0.07 -0.04,-0.13 -0.1,-0.15 -0.18,-0.07 -0.29,-0.2 -0.29,-0.34 0,-0.14 0.12,-0.27 0.3,-0.34 0.06,-0.02 0.1,-0.08 0.1,-0.15 v -2.84 c 0,-0.33 -0.27,-0.6 -0.6,-0.6 -0.33,0 -0.6,0.27 -0.6,0.6 v 3.47 c 0,0.05 0.03,0.1 0.07,0.11 0.19,0.07 0.31,0.2 0.31,0.34 0,0.13 -0.11,0.25 -0.27,0.33 -0.07,0.03 -0.12,0.1 -0.12,0.17 v 1.25 c -0.06,0 -0.12,0 -0.19,0 -1.2,0 -2.24,0.94 -2.26,2.15 -0.01,0.55 0.17,1.07 0.51,1.5 l 0.18,0.22 h 0.07 v 0.1 h 11.48 l 0.7,-1.39 z m -8.21,-0.12 c 0.01,-0.19 -0.01,-0.62 0.06,-0.81 0.11,-0.3 0.38,-0.31 0.67,-0.3 0.17,0 0.39,0.16 0.4,0.34 l 0.01,0.77 z"
   id="path7321" />
			<circle
   class="st2"
   cx="163.88"
   cy="110.71"
   r="0.76999998"
   id="circle7323" />
			<circle
   class="st2"
   cx="163.88"
   cy="112.69"
   r="0.76999998"
   id="circle7325" />
			<path
   class="st2"
   d="m 160.62,116.04 c 0,-0.78 -0.01,-1.4 -0.01,-1.45 l -0.99,0.23 c -0.24,-0.11 -0.5,-0.17 -0.78,-0.17 -1.02,0 -1.84,0.83 -1.84,1.84 0,1.01 0.83,1.85 1.84,1.85 0.28,0 0.54,-0.06 0.78,-0.17 -0.01,0.37 -0.02,0.7 -0.04,0.95 -0.03,0.32 -0.13,0.56 -0.35,0.67 -0.51,0.25 -2.07,0.31 -2.07,0.31 0.23,0.3 0.53,0.78 1.48,0.82 0.42,0.02 0.8,-0.09 1.11,-0.28 0.34,-0.21 0.76,-0.63 0.82,-1.44 0.04,-0.54 0.06,-1.41 0.06,-2.25 -0.01,-0.32 -0.01,-0.63 -0.01,-0.91 z m -1.79,1.3 c -0.47,0 -0.85,-0.38 -0.85,-0.85 0,-0.47 0.38,-0.85 0.85,-0.85 0.36,0 0.67,0.23 0.79,0.55 0,0.19 0,0.39 0,0.6 -0.11,0.32 -0.42,0.55 -0.79,0.55 z"
   id="path7327" />
			<circle
   class="st2"
   cx="142.91"
   cy="112.41"
   r="0.81"
   id="circle7329" />
			<circle
   class="st2"
   cx="128.24001"
   cy="110.71"
   r="0.81"
   id="circle7331" />
			<circle
   class="st2"
   cx="99.160004"
   cy="110.55"
   r="0.81"
   id="circle7333" />
			<circle
   class="st2"
   cx="99.160004"
   cy="112.75"
   r="0.81"
   id="circle7335" />
			<circle
   class="st2"
   cx="103.02"
   cy="120.23"
   r="0.81"
   id="circle7337" />
			<circle
   class="st2"
   cx="105.35"
   cy="120.23"
   r="0.81"
   id="circle7339" />
			<circle
   class="st2"
   cx="110.07"
   cy="110.75"
   r="0.81"
   id="circle7341" />
			<circle
   class="st2"
   cx="113.18"
   cy="120.23"
   r="0.81"
   id="circle7343" />
			<circle
   class="st2"
   cx="115.33"
   cy="120.23"
   r="0.81"
   id="circle7345" />
			<circle
   class="st2"
   cx="128.24001"
   cy="112.75"
   r="0.81"
   id="circle7347" />
			<circle
   class="st2"
   cx="132.08"
   cy="120.23"
   r="0.81"
   id="circle7349" />
			<circle
   class="st2"
   cx="134.23"
   cy="120.23"
   r="0.81"
   id="circle7351" />
			<circle
   class="st2"
   cx="145.7"
   cy="112.41"
   r="0.81"
   id="circle7353" />
			<circle
   class="st2"
   cx="147.85001"
   cy="112.41"
   r="0.81"
   id="circle7355" />
			<path
   class="st2"
   d="m 151.37,108.47 c -0.36,0 -0.65,0.29 -0.65,0.65 V 117 h -2.52 v -2.55 l -1.4,0.6 V 117 h -2.35 v -2.55 l -1.37,0.8 V 117 h -2.38 v -1.31 c 0,0 -1.4,-1.53 -1.81,-1.53 -0.4,0 -2.04,1.51 -2.04,1.51 l -0.01,1.33 h -2.29 v -2.55 l -1.17,0.72 V 117 h -1.03 -1.5 l 0.02,-1.72 -0.02,-0.52 v -0.27 c 0,-0.06 -0.03,-0.11 -0.08,-0.13 -0.19,-0.07 -0.31,-0.2 -0.31,-0.35 0,-0.14 0.12,-0.27 0.3,-0.34 0.06,-0.02 0.09,-0.08 0.09,-0.14 v -0.97 c 0,-0.07 -0.04,-0.13 -0.1,-0.15 -0.18,-0.07 -0.3,-0.2 -0.3,-0.34 0,-0.14 0.12,-0.26 0.3,-0.34 0.06,-0.02 0.1,-0.08 0.1,-0.15 v -2.84 c 0,-0.33 -0.27,-0.6 -0.6,-0.6 -0.33,0 -0.6,0.27 -0.6,0.6 v 3.47 c 0,0.05 0.03,0.09 0.07,0.11 0.19,0.07 0.31,0.2 0.31,0.34 0,0.13 -0.11,0.25 -0.27,0.33 -0.07,0.03 -0.12,0.1 -0.12,0.18 v 1.25 c -0.06,0 -0.13,0 -0.19,0 -1.2,0 -2.24,0.94 -2.26,2.15 -0.01,0.55 0.17,1.07 0.51,1.51 l 0.18,0.22 h 0.07 v 0.1 h 4.37 19.66 v -9.28 c 0.04,-0.36 -0.25,-0.65 -0.61,-0.65 z m -22.89,8.41 c 0.01,-0.19 -0.01,-0.62 0.06,-0.81 0.11,-0.3 0.38,-0.31 0.67,-0.3 0.17,0 0.39,0.16 0.4,0.34 l 0.01,0.77 z m 10.82,-0.51 c 0,0.25 0.01,0.54 -0.08,0.63 h -0.77 c -0.03,0 -0.05,0 -0.08,0 0.01,0 0.01,0 0.02,0 -0.14,-0.35 -0.07,-0.93 0.09,-0.95 h 0.61 c 0.16,0 0.2,0.13 0.21,0.32 z"
   id="path7357" />
			<path
   class="st2"
   d="M 114.3,115.13 V 117 h -2.37 l -0.1,-2.88 c -0.11,-0.77 -0.91,-1.39 -1.76,-1.39 -1,0 -1.82,0.81 -1.82,1.82 0,1.01 0.81,1.82 1.82,1.82 0.24,0 0.48,-0.05 0.69,-0.14 V 117 h -3.72 -1.35 v -2.55 l -1.17,0.72 V 117 h -2.54 l 0.02,-1.72 -0.02,-0.52 v -0.27 c 0,-0.06 -0.03,-0.11 -0.08,-0.13 -0.19,-0.07 -0.31,-0.2 -0.31,-0.35 0,-0.14 0.12,-0.27 0.3,-0.34 0.06,-0.02 0.09,-0.08 0.09,-0.14 v -0.97 c 0,-0.07 -0.04,-0.13 -0.1,-0.15 -0.18,-0.07 -0.29,-0.2 -0.29,-0.34 0,-0.14 0.12,-0.26 0.3,-0.34 0.06,-0.02 0.1,-0.08 0.1,-0.15 v -2.84 c 0,-0.33 -0.27,-0.6 -0.6,-0.6 -0.33,0 -0.6,0.27 -0.6,0.6 v 3.47 c 0,0.05 0.03,0.1 0.07,0.11 0.19,0.07 0.31,0.2 0.31,0.34 0,0.14 -0.11,0.25 -0.27,0.33 -0.07,0.03 -0.12,0.1 -0.12,0.18 v 1.25 c -0.06,0 -0.13,0 -0.19,0 -1.2,0 -2.24,0.94 -2.26,2.15 -0.01,0.55 0.17,1.07 0.51,1.51 l 0.18,0.22 h 0.07 v 0.1 h 7.93 8.42 v -4.06 z m -4.23,0.04 c -0.34,0 -0.62,-0.28 -0.62,-0.62 0,-0.34 0.28,-0.62 0.62,-0.62 0.34,0 0.62,0.28 0.62,0.62 0.01,0.34 -0.27,0.62 -0.62,0.62 z m -10.46,1.71 c 0.01,-0.19 -0.01,-0.62 0.06,-0.81 0.11,-0.3 0.38,-0.31 0.67,-0.3 0.17,0 0.39,0.16 0.4,0.34 l 0.01,0.77 z"
   id="path7359" />
			<path
   class="st2"
   d="m 122.07,118.4 v -9.28 c 0,-0.28 -0.23,-0.51 -0.51,-0.51 v 0 c -0.28,0 -0.51,0.23 -0.51,0.51 V 117 h -2.59 v -2.45 c -0.75,-0.18 -1.36,0.62 -1.36,0.62 0,0 0.1,3.63 0.04,4.52 -0.06,0.89 -1.31,0.73 -1.81,1.34 3.22,-0.04 3.13,-0.91 3.13,-1.82 0,-0.18 0,-0.47 0,-0.82 h 3.61 z"
   id="path7361" />
		</g>
		<g
   id="g7453">
			<path
   class="st2"
   d="m 101.71,127.68 c 0.73,-0.33 1.09,-0.91 1.06,-1.6 -0.04,-0.69 -0.42,-1.72 -1.63,-1.77 -1.21,-0.05 -2.79,0 -2.79,0 v 6.55 c 0,0 1.68,0 2.96,0 1.28,0 1.49,-0.87 1.46,-1.55 -0.03,-0.68 -0.4,-1.3 -1.06,-1.63 z m -1.93,-2.26 c 0,0 1.58,-0.32 1.62,0.78 0,1.47 -1.62,1.15 -1.62,1.15 z m 0.14,4.64 v -1.94 c 0,0 1.53,-0.15 1.62,0.78 0,1.4 -1.62,1.16 -1.62,1.16 z"
   id="path7365" />
			<path
   class="st2"
   d="m 106.72,125.9 c -1.6,-0.07 -1.99,0.6 -2.08,0.87 -0.02,0.16 -0.18,0.67 0.31,0.75 0.85,0.11 0.26,-0.8 1.68,-0.75 0.85,0.07 0.69,0.89 0.69,1.2 -0.15,0.03 -0.28,0 -0.79,0 -1.04,0.01 -1.89,0.66 -1.89,1.53 0,0.87 0.91,1.5 1.75,1.46 0.84,-0.04 1.14,-0.4 1.14,-0.4 0,0 0.04,0.3 0.24,0.3 h 1.06 v -3.29 c 0,-1.35 -0.99,-1.63 -2.11,-1.67 z m 0,4.17 c -0.35,0 -0.64,-0.29 -0.64,-0.64 0,-0.35 0.29,-0.64 0.64,-0.64 0.35,0 0.64,0.29 0.64,0.64 0,0.35 -0.29,0.64 -0.64,0.64 z"
   id="path7367" />
			<path
   class="st2"
   d="m 161.74,125.9 c -1.6,-0.07 -1.99,0.6 -2.08,0.87 -0.02,0.16 -0.18,0.67 0.31,0.75 0.85,0.11 0.26,-0.8 1.68,-0.75 0.85,0.07 0.69,0.89 0.69,1.2 -0.15,0.03 -0.28,0 -0.79,0 -1.04,0.01 -1.89,0.66 -1.89,1.53 0,0.87 0.91,1.5 1.75,1.46 0.84,-0.04 1.14,-0.4 1.14,-0.4 0,0 0.04,0.3 0.24,0.3 h 1.06 v -3.29 c 0.01,-1.35 -0.99,-1.63 -2.11,-1.67 z m 0,4.17 c -0.35,0 -0.64,-0.29 -0.64,-0.64 0,-0.35 0.29,-0.64 0.64,-0.64 0.35,0 0.64,0.29 0.64,0.64 0,0.35 -0.29,0.64 -0.64,0.64 z"
   id="path7369" />
			<path
   class="st2"
   d="m 210.18,135.6 c -1.6,-0.07 -1.99,0.6 -2.08,0.87 -0.02,0.16 -0.18,0.67 0.31,0.75 0.85,0.11 0.26,-0.8 1.68,-0.75 0.85,0.07 0.69,0.89 0.69,1.2 -0.15,0.03 -0.28,0 -0.79,0 -1.04,0.01 -1.89,0.66 -1.89,1.53 0,0.87 0.91,1.5 1.75,1.46 0.84,-0.04 1.14,-0.4 1.14,-0.4 0,0 0.04,0.3 0.24,0.3 h 1.06 v -3.29 c 0,-1.35 -0.99,-1.62 -2.11,-1.67 z m 0,4.17 c -0.35,0 -0.64,-0.29 -0.64,-0.64 0,-0.35 0.29,-0.64 0.64,-0.64 0.35,0 0.64,0.29 0.64,0.64 0,0.35 -0.29,0.64 -0.64,0.64 z"
   id="path7371" />
			<path
   class="st2"
   d="m 110.7,125.89 v 4.97 h 1.42 c 0,0 0,-2.65 0,-3.29 0.09,-0.96 1.59,-0.9 1.59,-0.22 0,0.89 0,3.5 0,3.5 h 1.31 c 0,0 0,-2.86 0,-3.56 0,-0.7 -0.68,-1.41 -1.22,-1.41 -1.1,-0.02 -1.14,0.4 -1.37,0.4 -0.23,0 -0.34,-0.3 -0.36,-0.4 -0.34,0.01 -1.37,0.01 -1.37,0.01 z"
   id="path7373" />
			<path
   class="st2"
   d="m 182.82,135.65 v 4.97 h 1.42 c 0,0 0,-2.65 0,-3.29 0.09,-0.96 1.59,-0.9 1.59,-0.22 0,0.89 0,3.5 0,3.5 h 1.31 c 0,0 0,-2.86 0,-3.56 0,-0.7 -0.68,-1.41 -1.22,-1.41 -1.1,-0.02 -1.14,0.4 -1.37,0.4 -0.23,0 -0.34,-0.3 -0.36,-0.4 -0.33,0 -1.37,0.01 -1.37,0.01 z"
   id="path7375" />
			<path
   class="st2"
   d="m 127.42,130.92 v -4.97 H 126 c 0,0 0,2.65 0,3.29 -0.09,0.96 -1.59,0.9 -1.59,0.22 0,-0.89 0,-3.5 0,-3.5 h -1.31 c 0,0 0,2.86 0,3.56 0,0.7 0.68,1.41 1.22,1.41 1.1,0.02 1.14,-0.4 1.37,-0.4 0.23,0 0.34,0.3 0.36,0.4 0.33,0 1.37,-0.01 1.37,-0.01 z"
   id="path7377" />
			<path
   class="st2"
   d="m 119.65,140.64 v -4.97 h -1.42 c 0,0 0,2.65 0,3.29 -0.09,0.96 -1.59,0.9 -1.59,0.22 0,-0.89 0,-3.5 0,-3.5 h -1.31 c 0,0 0,2.86 0,3.56 0,0.7 0.68,1.41 1.22,1.41 1.1,0.02 1.14,-0.4 1.37,-0.4 0.23,0 0.34,0.3 0.36,0.4 0.34,0 1.37,-0.01 1.37,-0.01 z"
   id="path7379" />
			<path
   class="st2"
   d="m 189.78,130.9 v -4.97 h -1.42 c 0,0 0,2.65 0,3.29 -0.09,0.96 -1.59,0.9 -1.59,0.22 0,-0.89 0,-3.5 0,-3.5 h -1.31 c 0,0 0,2.86 0,3.56 0,0.7 0.68,1.41 1.22,1.41 1.1,0.02 1.14,-0.4 1.37,-0.4 0.23,0 0.34,0.3 0.36,0.4 0.34,-0.01 1.37,-0.01 1.37,-0.01 z"
   id="path7381" />
			<path
   class="st2"
   d="m 204.03,130.77 v -4.97 h -1.42 c 0,0 0,2.65 0,3.29 -0.09,0.96 -1.59,0.9 -1.59,0.22 0,-0.89 0,-3.5 0,-3.5 h -1.31 c 0,0 0,2.86 0,3.56 0,0.7 0.68,1.41 1.22,1.41 1.1,0.02 1.14,-0.4 1.37,-0.4 0.23,0 0.34,0.3 0.36,0.4 0.34,-0.01 1.37,-0.01 1.37,-0.01 z"
   id="path7383" />
			<path
   class="st2"
   d="m 202.73,140.61 v -4.97 h -1.42 c 0,0 0,2.65 0,3.29 -0.09,0.96 -1.59,0.9 -1.59,0.22 0,-0.89 0,-3.5 0,-3.5 h -1.31 c 0,0 0,2.86 0,3.56 0,0.7 0.68,1.41 1.22,1.41 1.1,0.02 1.14,-0.4 1.37,-0.4 0.23,0 0.34,0.3 0.36,0.4 0.33,-0.01 1.37,-0.01 1.37,-0.01 z"
   id="path7385" />
			<path
   class="st2"
   d="m 117.75,125.89 c -0.54,0 -0.62,1.15 -0.62,2.63 0,1.06 -0.2,2.34 0.74,2.34 0.94,0 1.68,0 1.68,0 v 1.36 h 1.33 v -6.33 c 0,0 -2.32,0 -3.13,0 z m 1.85,3.69 c 0,0.18 -0.14,0.32 -0.32,0.32 h -0.38 c -0.18,0 -0.32,-0.14 -0.32,-0.32 v -2.28 c 0,-0.18 0.14,-0.32 0.32,-0.32 h 0.38 c 0.18,0 0.32,0.14 0.32,0.32 z"
   id="path7387" />
			<path
   class="st2"
   d="m 142.28,130.72 v -6.33 h -1.45 v 1.36 c 0,0 -0.81,0 -1.84,0 -1.03,0 -0.81,1.28 -0.81,2.34 0,1.48 0.09,2.63 0.68,2.63 0.89,0 3.42,0 3.42,0 z m -1.4,-1.41 c 0,0.18 -0.16,0.32 -0.35,0.32 h -0.41 c -0.19,0 -0.35,-0.14 -0.35,-0.32 v -2.28 c 0,-0.18 0.16,-0.32 0.35,-0.32 h 0.41 c 0.19,0 0.35,0.14 0.35,0.32 z"
   id="path7389" />
			<path
   class="st2"
   d="m 127.01,140.52 v -6.33 h -1.45 v 1.36 c 0,0 -0.81,0 -1.84,0 -1.03,0 -0.81,1.28 -0.81,2.34 0,1.48 0.09,2.63 0.68,2.63 0.89,0 3.42,0 3.42,0 z m -1.4,-1.41 c 0,0.18 -0.16,0.32 -0.35,0.32 h -0.41 c -0.19,0 -0.35,-0.14 -0.35,-0.32 v -2.28 c 0,-0.18 0.16,-0.32 0.35,-0.32 h 0.41 c 0.19,0 0.35,0.14 0.35,0.32 z"
   id="path7391" />
			<path
   class="st2"
   d="m 114.19,140.65 v -6.33 h -1.45 v 1.36 c 0,0 -0.81,0 -1.84,0 -1.03,0 -0.81,1.28 -0.81,2.34 0,1.48 0.09,2.63 0.68,2.63 0.88,0 3.42,0 3.42,0 z m -1.4,-1.42 c 0,0.18 -0.16,0.32 -0.35,0.32 h -0.41 c -0.19,0 -0.35,-0.14 -0.35,-0.32 v -2.28 c 0,-0.18 0.16,-0.32 0.35,-0.32 h 0.41 c 0.19,0 0.35,0.14 0.35,0.32 z"
   id="path7393" />
			<path
   class="st2"
   d="m 131.57,130.11 c -0.65,-0.06 -1.23,-0.29 -1.17,-1.19 0.59,0 3.03,0 3.03,0 l -0.01,-0.2 c 0.04,-1.9 -0.13,-2.72 -1.97,-2.82 -1.84,-0.1 -2.53,1.04 -2.53,2.55 0,1.52 0.63,2.5 2.35,2.48 1.72,-0.02 2.19,-0.88 2.16,-1.45 -0.18,-0.66 -0.92,0.65 -1.86,0.63 z m -0.34,-3.32 c 0.92,0 0.65,1.04 0.65,1.04 h -1.3 c -0.29,-0.01 -0.26,-1.04 0.65,-1.04 z"
   id="path7395" />
			<path
   class="st2"
   d="m 130.81,139.67 c -0.65,-0.06 -1.23,-0.29 -1.17,-1.19 0.59,0 3.03,0 3.03,0 l -0.01,-0.2 c 0.04,-1.9 -0.13,-2.72 -1.97,-2.82 -1.84,-0.1 -2.53,1.04 -2.53,2.55 0,1.52 0.63,2.5 2.35,2.48 1.72,-0.02 2.19,-0.88 2.16,-1.45 -0.17,-0.66 -0.91,0.65 -1.86,0.63 z m -0.33,-3.32 c 0.92,0 0.65,1.04 0.65,1.04 h -1.3 c -0.3,0 -0.27,-1.04 0.65,-1.04 z"
   id="path7397" />
			<path
   class="st2"
   d="m 141.7,139.79 c -0.65,-0.06 -1.23,-0.29 -1.17,-1.19 0.59,0 3.03,0 3.03,0 l -0.01,-0.2 c 0.04,-1.9 -0.13,-2.72 -1.97,-2.82 -1.84,-0.1 -2.53,1.04 -2.53,2.55 0,1.52 0.63,2.5 2.35,2.48 1.72,-0.02 2.19,-0.88 2.16,-1.45 -0.17,-0.65 -0.91,0.66 -1.86,0.63 z m -0.33,-3.32 c 0.92,0 0.65,1.04 0.65,1.04 h -1.3 c -0.3,0 -0.26,-1.04 0.65,-1.04 z"
   id="path7399" />
			<path
   class="st2"
   d="m 100.95,139.76 c -0.65,-0.06 -1.23,-0.29 -1.17,-1.19 0.59,0 3.03,0 3.03,0 l -0.01,-0.2 c 0.04,-1.9 -0.13,-2.72 -1.97,-2.82 -1.84,-0.1 -2.53,1.04 -2.53,2.55 0,1.52 0.63,2.5 2.35,2.48 1.72,-0.02 2.19,-0.88 2.16,-1.45 -0.17,-0.65 -0.91,0.66 -1.86,0.63 z m -0.33,-3.32 c 0.92,0 0.65,1.04 0.65,1.04 h -1.3 c -0.3,0 -0.26,-1.04 0.65,-1.04 z"
   id="path7401" />
			<path
   class="st2"
   d="m 146.61,130.06 c -0.65,-0.06 -1.23,-0.29 -1.17,-1.19 0.59,0 3.03,0 3.03,0 l -0.01,-0.2 c 0.04,-1.9 -0.13,-2.72 -1.97,-2.82 -1.84,-0.1 -2.53,1.04 -2.53,2.55 0,1.52 0.63,2.5 2.35,2.48 1.72,-0.02 2.19,-0.88 2.16,-1.45 -0.17,-0.65 -0.91,0.66 -1.86,0.63 z m -0.33,-3.32 c 0.92,0 0.65,1.04 0.65,1.04 h -1.3 c -0.3,0 -0.27,-1.04 0.65,-1.04 z"
   id="path7403" />
			<path
   class="st2"
   d="m 166.19,139.67 c -0.65,-0.06 -1.23,-0.29 -1.17,-1.19 0.59,0 3.03,0 3.03,0 l -0.01,-0.2 c 0.04,-1.9 -0.13,-2.72 -1.97,-2.82 -1.84,-0.1 -2.53,1.04 -2.53,2.55 0,1.52 0.63,2.5 2.35,2.48 1.72,-0.02 2.19,-0.88 2.16,-1.45 -0.17,-0.66 -0.91,0.65 -1.86,0.63 z m -0.33,-3.32 c 0.92,0 0.65,1.04 0.65,1.04 h -1.3 c -0.3,0 -0.27,-1.04 0.65,-1.04 z"
   id="path7405" />
			<path
   class="st2"
   d="m 213.14,129.99 c -0.65,-0.06 -1.23,-0.29 -1.17,-1.19 0.59,0 3.03,0 3.03,0 l -0.01,-0.2 c 0.04,-1.9 -0.13,-2.72 -1.97,-2.82 -1.84,-0.1 -2.53,1.04 -2.53,2.55 0,1.52 0.63,2.5 2.35,2.48 1.72,-0.02 2.19,-0.88 2.16,-1.45 -0.18,-0.65 -0.91,0.66 -1.86,0.63 z m -0.33,-3.32 c 0.92,0 0.65,1.04 0.65,1.04 h -1.3 c -0.3,0 -0.27,-1.04 0.65,-1.04 z"
   id="path7407" />
			<path
   class="st2"
   d="m 179.98,139.67 c -0.65,-0.06 -1.23,-0.29 -1.17,-1.19 0.59,0 3.03,0 3.03,0 l -0.01,-0.2 c 0.04,-1.9 -0.13,-2.72 -1.97,-2.82 -1.84,-0.1 -2.53,1.04 -2.53,2.55 0,1.52 0.63,2.5 2.35,2.48 1.72,-0.02 2.19,-0.88 2.16,-1.45 -0.17,-0.66 -0.91,0.65 -1.86,0.63 z m -0.33,-3.32 c 0.92,0 0.65,1.04 0.65,1.04 H 179 c -0.3,0 -0.27,-1.04 0.65,-1.04 z"
   id="path7409" />
			<path
   class="st2"
   d="m 154.44,130.72 h -1.47 v -5.53 c 0,-0.38 0.31,-0.69 0.69,-0.69 h 0.09 c 0.38,0 0.69,0.31 0.69,0.69 z"
   id="path7411" />
			<path
   class="st2"
   d="m 146.2,140.5 h -1.47 v -5.53 c 0,-0.38 0.31,-0.69 0.69,-0.69 h 0.09 c 0.38,0 0.69,0.31 0.69,0.69 z"
   id="path7413" />
			<path
   class="st2"
   d="m 193.14,130.69 h -1.47 V 125 c 0,-0.38 0.31,-0.69 0.69,-0.69 h 0.09 c 0.38,0 0.69,0.31 0.69,0.69 z"
   id="path7415" />
			<path
   class="st2"
   d="m 214.88,140.61 h -1.47 v -5.69 c 0,-0.38 0.31,-0.69 0.69,-0.69 h 0.09 c 0.38,0 0.69,0.31 0.69,0.69 z"
   id="path7417" />
			<path
   class="st2"
   d="m 156.89,124.31 c 1.27,0 1.01,1.54 0.83,1.96 -0.09,0.21 -0.98,1.33 -1.6,0.99 -0.42,-0.22 1.17,-0.64 0.93,-1.28 -0.11,-0.39 -0.83,-0.17 -1,-0.62 -0.15,-0.4 0.04,-1.05 0.84,-1.05 z"
   id="path7419" />
			<path
   class="st2"
   d="m 167.9,125.82 c -1.46,0 -2.26,0.44 -2.29,2.61 -0.02,2.16 1.26,2.53 2.85,2.53 0,0.34 0.33,1.34 -0.92,1.31 -1,0 -1.29,-1.73 -1.69,-0.92 -0.4,0.81 0.52,1.59 1.69,1.56 1.17,-0.03 2.35,-0.33 2.35,-0.98 0,-0.64 0,-6.04 0,-6.04 0,0 -0.53,-0.07 -1.99,-0.07 z m 0.67,3.87 c 0,0.13 -0.11,0.24 -0.24,0.24 h -0.84 c -0.13,0 -0.24,-0.11 -0.24,-0.24 v -2.55 c 0,-0.13 0.11,-0.24 0.24,-0.24 h 0.84 c 0.13,0 0.24,0.11 0.24,0.24 z"
   id="path7421" />
			<path
   class="st2"
   d="m 174.09,125.96 c 0.01,0.21 -0.25,0.63 -0.46,0.63 -0.1,0 -0.22,-0.08 -0.32,-0.16 v -0.54 h -1.35 v 4.8 h 1.35 v -2.93 c 0.33,-0.5 1.48,-0.35 1.96,-0.35 0,-0.3 0,-1.45 0,-1.45 0,0 -0.65,0 -1.18,0 z"
   id="path7423" />
			<path
   class="st2"
   d="m 196.53,135.64 c 0.01,0.21 -0.25,0.63 -0.46,0.63 -0.1,0 -0.22,-0.08 -0.32,-0.16 v -0.54 h -1.35 v 4.8 h 1.35 v -2.93 c 0.33,-0.5 1.48,-0.35 1.96,-0.35 0,-0.3 0,-1.45 0,-1.45 0,0 -0.65,0 -1.18,0 z"
   id="path7425" />
			<path
   class="st2"
   d="m 206.16,135.64 c 0.01,0.21 -0.25,0.63 -0.46,0.63 -0.1,0 -0.22,-0.08 -0.32,-0.16 v -0.54 h -1.35 v 4.8 h 1.35 v -2.93 c 0.33,-0.5 1.48,-0.35 1.96,-0.35 0,-0.3 0,-1.45 0,-1.45 0,0 -0.64,0 -1.18,0 z"
   id="path7427" />
			<path
   class="st2"
   d="m 208.14,125.96 c 0.01,0.21 -0.25,0.63 -0.46,0.63 -0.1,0 -0.22,-0.08 -0.32,-0.16 v -0.54 h -1.35 v 4.8 h 1.35 v -2.93 c 0.33,-0.5 1.48,-0.35 1.96,-0.35 0,-0.3 0,-1.45 0,-1.45 0,0 -0.65,0 -1.18,0 z"
   id="path7429" />
			<rect
   x="176.82001"
   y="126.01"
   class="st2"
   width="1.49"
   height="4.6799998"
   id="rect7431" />
			<rect
   x="176.82001"
   y="124.45"
   class="st2"
   width="1.49"
   height="0.91000003"
   id="rect7433" />
			<path
   class="st2"
   d="m 182.95,127.38 c 0.87,0 0.87,0 0.87,0 0,0 -0.11,-1.45 -1.89,-1.49 -1.78,-0.04 -2.12,1.6 -2.07,2.63 0.05,1.03 0.48,2.44 2.08,2.41 1.6,-0.02 1.91,-1.44 1.88,-1.63 -0.31,0 -0.71,0 -0.95,0 -0.05,0.15 -0.2,0.73 -0.74,0.65 -1,0.01 -0.75,-2.18 -0.66,-2.95 0.09,-0.5 0.94,-0.41 1.17,-0.22 0.21,0.17 0.31,0.6 0.31,0.6 z"
   id="path7435" />
			<path
   class="st2"
   d="m 197.04,126.87 c 0,0.63 -0.03,1.99 0,2.39 0.05,0.76 0.36,0.85 0.93,0.89 0.57,0.04 0.1,0.69 -1.04,0.63 -1.14,-0.06 -1.15,-1.04 -1.16,-1.56 -0.01,-0.45 0,-2.35 0,-2.35 0,0 -0.7,-0.07 -0.7,-0.5 0,-0.47 0.64,-0.47 0.64,-0.47 v -1.29 h 1.27 v 1.33 c 0,0 0.82,-0.04 0.85,0.36 0.03,0.4 -0.4,0.59 -0.79,0.57 z"
   id="path7437" />
			<path
   class="st2"
   d="m 190.6,136.69 c 0,0.63 -0.03,1.99 0,2.39 0.05,0.76 0.23,0.8 0.8,0.88 0.27,0.04 0.23,0.71 -0.91,0.64 -1.14,-0.07 -1.15,-1.04 -1.16,-1.56 -0.01,-0.45 0,-2.35 0,-2.35 0,0 -0.7,-0.07 -0.7,-0.5 0,-0.47 0.64,-0.47 0.64,-0.47 v -1.29 h 1.27 v 1.33 c 0,0 0.82,-0.04 0.85,0.36 0.03,0.4 -0.4,0.6 -0.79,0.57 z"
   id="path7439" />
			<path
   class="st2"
   d="m 106.02,136.53 c 0,0.63 -0.03,1.99 0,2.39 0.05,0.76 0.36,0.85 0.93,0.89 0.57,0.04 0.1,0.69 -1.04,0.63 -1.14,-0.07 -1.15,-1.04 -1.16,-1.56 -0.01,-0.45 0,-2.35 0,-2.35 0,0 -0.7,-0.07 -0.7,-0.5 0,-0.47 0.64,-0.47 0.64,-0.47 v -1.29 h 1.27 v 1.33 c 0,0 0.82,-0.04 0.85,0.36 0.03,0.41 -0.39,0.6 -0.79,0.57 z"
   id="path7441" />
			<path
   class="st2"
   d="m 133.94,135.66 0.02,5.14 c 0,0 0.79,0.05 1.45,0.05 0.66,0 2.37,-0.48 2.42,-2.1 0.05,-1.42 -0.01,-2.21 -0.01,-2.75 0,-0.54 -1.33,-0.53 -1.33,-0.15 0,0.38 0,3.22 0,3.58 0,0.36 -1.3,0.41 -1.32,0.14 -0.02,-0.23 -0.01,-3.89 -0.01,-3.89 z"
   id="path7443" />
			<path
   class="st2"
   d="m 150.06,135.57 h -1.26 c -0.88,0 -1.59,0.71 -1.59,1.59 v 2.1 c 0,0.88 0.71,1.59 1.59,1.59 h 1.26 c 0.88,0 1.59,-0.71 1.59,-1.59 v -2.1 c 0,-0.87 -0.71,-1.59 -1.59,-1.59 z m 0.04,3.48 c 0,0.37 -0.36,0.66 -0.66,0.66 -0.3,0 -0.76,-0.21 -0.75,-0.63 0,-0.24 0,-1.91 0,-2.09 0,-0.18 0.25,-0.51 0.66,-0.52 0.37,0 0.73,0.13 0.75,0.52 0.01,0.39 0,1.68 0,2.06 z"
   id="path7445" />
			<path
   class="st2"
   d="m 155.35,135.43 c -0.25,-0.03 -0.55,0.2 -0.75,0.34 -0.11,0.07 -0.25,0.06 -0.35,-0.02 -0.45,-0.37 -1.49,-0.56 -1.49,0.21 v 5.5 c 0,0.56 1.5,0.47 1.5,0.32 v -1.05 c 1.07,0.02 2.74,0.08 2.82,-2.52 0.07,-2.6 -1.36,-2.75 -1.73,-2.78 z m 0.18,4.06 c 0,0.21 -0.17,0.38 -0.38,0.38 h -0.46 c -0.21,0 -0.38,-0.17 -0.38,-0.38 v -2.64 c 0,-0.21 0.17,-0.38 0.38,-0.38 h 0.46 c 0.21,0 0.38,0.17 0.38,0.38 z"
   id="path7447" />
			<path
   class="st2"
   d="m 160.82,135.43 c -0.25,-0.03 -0.55,0.2 -0.75,0.34 -0.11,0.07 -0.25,0.06 -0.35,-0.02 -0.45,-0.37 -1.49,-0.56 -1.49,0.21 v 5.5 c 0,0.56 1.5,0.47 1.5,0.32 v -1.05 c 1.07,0.02 2.74,0.08 2.82,-2.52 0.08,-2.6 -1.35,-2.75 -1.73,-2.78 z m 0.19,4.06 c 0,0.21 -0.17,0.38 -0.38,0.38 h -0.46 c -0.21,0 -0.38,-0.17 -0.38,-0.38 v -2.64 c 0,-0.21 0.17,-0.38 0.38,-0.38 h 0.46 c 0.21,0 0.38,0.17 0.38,0.38 z"
   id="path7449" />
			<path
   class="st2"
   d="m 169.11,139.98 c 0,-1.61 0,-3.59 0,-4.01 0,-0.42 0.53,-0.45 0.78,-0.45 0.25,0 0.45,0.29 0.76,0.29 0.33,0 0.42,-0.29 1.05,-0.29 0.67,0.07 0.93,0.48 1.42,0.41 0.49,-0.07 0.7,-0.5 1.5,-0.49 0.8,0.01 1.62,0.83 1.63,1.63 0.01,0.8 0,3.42 0,3.42 h -1.5 c 0,0 0,-3.26 0,-3.62 0,-0.37 -0.44,-0.61 -0.65,-0.63 -0.21,-0.02 -0.73,0.23 -0.73,0.9 0,0.67 0,3.35 0,3.35 h -1.41 c 0,0 0,-2.99 0,-3.45 0,-0.46 -0.34,-0.73 -0.77,-0.77 -0.42,-0.03 -0.57,0.56 -0.59,1.11 -0.02,0.55 0,3.1 0,3.1 h -1.49 z"
   id="path7451" />
		</g>
	</g>
</g>
</svg>
