<?xml version="1.0" encoding="utf-8"?>
<!-- Generator: Adobe Illustrator 24.3.0, SVG Export Plug-In . SVG Version: 6.00 Build 0)  -->
<svg version="1.1" id="Layer_1" xmlns="http://www.w3.org/2000/svg" xmlns:xlink="http://www.w3.org/1999/xlink" x="0px" y="0px"
	 viewBox="0 0 512 512" style="enable-background:new 0 0 512 512;" xml:space="preserve">
<style type="text/css">
	.st0{fill:#006E96;}
	.st1{fill:#009ABF;}
	.st2{fill:#00556F;}
	.st3{fill:#55565A;}
</style>
<g id="XMLID_1_">
	<rect id="XMLID_2_" x="66.24" y="209.86" class="st0" width="27.21" height="92.13"/>
	<polygon id="XMLID_3_" class="st1" points="59.37,302 32.3,302 0.05,209.86 27.26,209.86 	"/>
	<path id="XMLID_4_" class="st2" d="M136.08,209.86c-20.61,5.33-35.76,23.84-35.76,46.14c0,22.16,15.29,40.81,35.76,46.14
		C136.08,297.79,136.08,214.91,136.08,209.86z"/>
	<path id="XMLID_5_" class="st3" d="M204.37,272.69c-1.68-1.96-3.65-3.51-6.31-4.49c1.96-0.98,3.65-2.38,4.91-4.07
		c1.82-2.24,2.66-5.33,2.66-9.4v-1.54c0-5.33-1.54-9.26-4.49-11.78c-2.94-2.52-7.85-3.65-14.58-3.65h-23.28V302h23.28
		c6.87,0,12.06-1.4,15.43-4.21c3.51-2.8,5.19-7.29,5.19-13.18v-1.4C207.32,278.72,206.34,275.21,204.37,272.69z M199.46,255.02
		c0,3.79-0.98,6.59-2.94,8.27c-1.96,1.68-5.05,2.66-9.26,2.66h-17.67v-22.3h17.11c4.77,0,8.13,0.84,9.96,2.24
		c1.82,1.4,2.8,3.93,2.8,7.57L199.46,255.02L199.46,255.02z M197.64,294c-2.1,1.82-5.89,2.66-11.08,2.66h-17.11v-24.68h17.81
		c4.91,0,8.41,0.84,10.52,2.66c1.96,1.68,3.09,4.63,3.09,8.83v1.4C200.87,289.24,199.89,292.18,197.64,294z"/>
	<path id="XMLID_9_" class="st3" d="M248.97,264.41c-0.7-1.96-1.82-3.65-3.51-4.91c-1.54-1.26-3.65-2.1-6.17-2.66
		c-2.38-0.56-5.47-0.84-8.98-0.84c-2.1,0-13.74,0-13.74,0v5.47c0,0,11.64,0,13.74,0c2.8,0,5.19,0.14,7.01,0.56
		c1.82,0.42,3.09,0.84,4.07,1.68s1.68,1.82,1.96,3.09c0.42,1.4,0.56,3.09,0.56,5.19v3.93c-1.12-0.98-2.66-1.82-4.49-2.38
		c-2.38-0.84-5.75-1.12-9.82-1.12c-6.03,0-10.52,1.12-13.18,3.51c-2.8,2.38-4.21,6.03-4.21,11.08v1.26c0,4.91,1.4,8.41,4.21,10.66
		c2.66,2.1,7.15,3.23,13.32,3.23h14.3c2.38,0,3.79-0.42,4.63-1.12c0.84-0.84,1.26-2.24,1.26-4.35v-25.24
		C250.09,268.76,249.67,266.38,248.97,264.41z M218.4,286.99c0-3.37,0.84-5.75,2.52-7.15c1.68-1.4,4.63-1.96,8.83-1.96h1.12
		c2.1,0,4.07,0.14,5.75,0.42c1.68,0.28,3.09,0.84,4.07,1.4c1.12,0.7,1.82,1.54,2.52,2.66c0.56,1.12,0.84,2.52,0.84,4.35v9.82h-14.3
		c-2.24,0-4.21-0.14-5.61-0.56c-1.4-0.28-2.66-0.84-3.51-1.54c-0.84-0.7-1.4-1.54-1.82-2.52c-0.28-0.98-0.56-2.38-0.56-3.79
		L218.4,286.99L218.4,286.99z"/>
	<path id="XMLID_12_" class="st3" d="M294.26,264.55c-0.56-2.1-1.54-3.93-2.94-5.33c-1.4-1.4-3.37-2.66-5.89-3.37
		c-2.52-0.7-5.61-1.12-9.4-1.12s-7.01,0.42-9.4,1.12c-2.52,0.84-4.49,1.82-5.89,3.37c-1.4,1.4-2.52,3.23-2.94,5.33
		c-0.56,2.1-0.84,4.49-0.84,7.01V302h6.17v-29.87c0-1.96,0.14-3.65,0.42-5.19c0.28-1.4,0.84-2.66,1.68-3.65
		c0.84-0.98,2.1-1.68,3.79-2.24c1.82-0.56,4.21-0.84,7.15-0.84s5.33,0.28,7.15,0.84c1.68,0.56,2.94,1.26,3.79,2.24
		c0.84,0.98,1.4,2.1,1.68,3.65c0.28,1.54,0.42,3.23,0.42,5.33v29.87h6.17v-30.43C295.11,269.04,294.83,266.66,294.26,264.55z"/>
	<polygon id="XMLID_13_" class="st3" points="313.48,276.61 339,256.14 330.3,256.14 308.15,274.09 308.15,237.77 301.98,237.77 
		301.98,302 308.15,302 308.15,279.7 332.83,302 341.38,302 	"/>
	<path id="XMLID_14_" class="st3" d="M389.34,285.03h-24.96L358.35,302h-12.06l23.98-64.23h13.74L408,302h-12.62L389.34,285.03z
		 M367.75,275.21h18.37l-9.26-26.22L367.75,275.21z"/>
	<path id="XMLID_17_" class="st3" d="M413.18,237.77h27.77c6.73,0,11.64,1.26,14.58,3.93c3.09,2.66,4.49,6.59,4.49,12.06v0.84
		c0,3.37-0.7,6.17-1.96,8.27c-1.4,2.24-3.51,3.93-6.31,5.05c3.09,0.84,5.61,2.66,7.43,5.05c1.82,2.38,2.8,5.75,2.8,9.82v1.4
		c0,6.17-1.82,10.66-5.61,13.46c-3.65,2.8-8.98,4.21-15.71,4.21h-27.49L413.18,237.77L413.18,237.77z M425.1,247.59v16.27h13.6
		c3.51,0,5.89-0.7,7.15-1.82c1.4-1.26,2.1-3.37,2.1-6.17v-1.26c0-2.52-0.7-4.35-1.96-5.33c-1.26-1.12-3.51-1.68-6.59-1.68H425.1
		L425.1,247.59z M425.1,292.18h15.01c3.65,0,6.03-0.56,7.43-1.82s2.1-3.51,2.1-6.73v-1.12c0-3.37-0.84-5.75-2.38-7.01
		s-4.21-1.96-7.99-1.96h-14.3L425.1,292.18L425.1,292.18z"/>
	<path id="XMLID_21_" class="st3" d="M496.76,248.15c-3.23,0-5.89,0.14-7.85,0.7c-1.96,0.42-3.65,1.4-4.77,2.66
		c-1.12,1.4-1.82,3.23-2.24,5.61c-0.42,2.38-0.56,5.47-0.56,9.4v6.59c0,3.79,0.14,6.87,0.7,9.26c0.42,2.38,1.26,4.35,2.38,5.61
		c1.12,1.4,2.8,2.24,4.77,2.66c1.96,0.42,4.63,0.7,7.85,0.7c1.12,0,2.24,0,3.37,0c1.12,0,2.38,0,3.65,0c1.4,0,2.8,0,4.49,0
		s1.4,0,3.51-0.14v10.38c-3.65,0.14-6.59,0.14-8.98,0.14c-2.52,0-4.49,0-6.17,0c-5.33,0-9.68-0.56-13.32-1.54
		c-3.65-0.98-6.45-2.66-8.55-4.91c-2.1-2.24-3.65-5.19-4.63-8.98c-0.84-3.65-1.4-8.13-1.4-13.46v-6.59c0-5.33,0.42-9.96,1.4-13.6
		c0.98-3.65,2.52-6.59,4.77-8.98c2.24-2.24,5.05-3.79,8.55-4.77s7.85-1.4,12.9-1.4c1.96,0,4.35,0,6.87,0c2.52,0,4.49,0,8.41,0.14
		v10.38c-1.96,0-4.91-0.14-7.57-0.14C501.53,248.15,499.15,248.15,496.76,248.15z"/>
</g>
</svg>
