<?xml version="1.0" encoding="UTF-8" standalone="no"?>
<!-- Generator: Adobe Illustrator 24.3.0, SVG Export Plug-In . SVG Version: 6.00 Build 0)  -->

<svg
   version="1.1"
   id="Layer_1"
   x="0px"
   y="0px"
   viewBox="0 0 512.01001 92.300003"
   xml:space="preserve"
   sodipodi:docname="Bank-ABC-01.svg"
   width="512.01001"
   height="92.300003"
   inkscape:version="1.2.2 (732a01da63, 2022-12-09)"
   xmlns:inkscape="http://www.inkscape.org/namespaces/inkscape"
   xmlns:sodipodi="http://sodipodi.sourceforge.net/DTD/sodipodi-0.dtd"
   xmlns="http://www.w3.org/2000/svg"
   xmlns:svg="http://www.w3.org/2000/svg"><defs
   id="defs6560" /><sodipodi:namedview
   id="namedview6558"
   pagecolor="#505050"
   bordercolor="#eeeeee"
   borderopacity="1"
   inkscape:showpageshadow="0"
   inkscape:pageopacity="0"
   inkscape:pagecheckerboard="0"
   inkscape:deskcolor="#505050"
   showgrid="false"
   inkscape:zoom="1.0253906"
   inkscape:cx="255.51238"
   inkscape:cy="46.811429"
   inkscape:window-width="1366"
   inkscape:window-height="705"
   inkscape:window-x="-8"
   inkscape:window-y="-8"
   inkscape:window-maximized="1"
   inkscape:current-layer="Layer_1" />
<style
   type="text/css"
   id="style6544">
	.st0{fill:#006E96;}
	.st1{fill:#009ABF;}
	.st2{fill:#00556F;}
	.st3{fill:#55565A;}
</style>
<g
   id="XMLID_1_"
   transform="translate(-0.05,-209.86)">
	<rect
   id="XMLID_2_"
   x="66.239998"
   y="209.86"
   class="st0"
   width="27.209999"
   height="92.129997" />
	<polygon
   id="XMLID_3_"
   class="st1"
   points="0.05,209.86 27.26,209.86 59.37,302 32.3,302 " />
	<path
   id="XMLID_4_"
   class="st2"
   d="m 136.08,209.86 c -20.61,5.33 -35.76,23.84 -35.76,46.14 0,22.16 15.29,40.81 35.76,46.14 0,-4.35 0,-87.23 0,-92.28 z" />
	<path
   id="XMLID_5_"
   class="st3"
   d="m 204.37,272.69 c -1.68,-1.96 -3.65,-3.51 -6.31,-4.49 1.96,-0.98 3.65,-2.38 4.91,-4.07 1.82,-2.24 2.66,-5.33 2.66,-9.4 v -1.54 c 0,-5.33 -1.54,-9.26 -4.49,-11.78 -2.94,-2.52 -7.85,-3.65 -14.58,-3.65 H 163.28 V 302 h 23.28 c 6.87,0 12.06,-1.4 15.43,-4.21 3.51,-2.8 5.19,-7.29 5.19,-13.18 v -1.4 c 0.14,-4.49 -0.84,-8 -2.81,-10.52 z m -4.91,-17.67 c 0,3.79 -0.98,6.59 -2.94,8.27 -1.96,1.68 -5.05,2.66 -9.26,2.66 h -17.67 v -22.3 h 17.11 c 4.77,0 8.13,0.84 9.96,2.24 1.82,1.4 2.8,3.93 2.8,7.57 z M 197.64,294 c -2.1,1.82 -5.89,2.66 -11.08,2.66 h -17.11 v -24.68 h 17.81 c 4.91,0 8.41,0.84 10.52,2.66 1.96,1.68 3.09,4.63 3.09,8.83 v 1.4 c 0,4.37 -0.98,7.31 -3.23,9.13 z" />
	<path
   id="XMLID_9_"
   class="st3"
   d="m 248.97,264.41 c -0.7,-1.96 -1.82,-3.65 -3.51,-4.91 -1.54,-1.26 -3.65,-2.1 -6.17,-2.66 -2.38,-0.56 -5.47,-0.84 -8.98,-0.84 -2.1,0 -13.74,0 -13.74,0 v 5.47 c 0,0 11.64,0 13.74,0 2.8,0 5.19,0.14 7.01,0.56 1.82,0.42 3.09,0.84 4.07,1.68 0.98,0.84 1.68,1.82 1.96,3.09 0.42,1.4 0.56,3.09 0.56,5.19 v 3.93 c -1.12,-0.98 -2.66,-1.82 -4.49,-2.38 -2.38,-0.84 -5.75,-1.12 -9.82,-1.12 -6.03,0 -10.52,1.12 -13.18,3.51 -2.8,2.38 -4.21,6.03 -4.21,11.08 v 1.26 c 0,4.91 1.4,8.41 4.21,10.66 2.66,2.1 7.15,3.23 13.32,3.23 h 14.3 c 2.38,0 3.79,-0.42 4.63,-1.12 0.84,-0.84 1.26,-2.24 1.26,-4.35 v -25.24 c 0.16,-2.69 -0.26,-5.07 -0.96,-7.04 z m -30.57,22.58 c 0,-3.37 0.84,-5.75 2.52,-7.15 1.68,-1.4 4.63,-1.96 8.83,-1.96 h 1.12 c 2.1,0 4.07,0.14 5.75,0.42 1.68,0.28 3.09,0.84 4.07,1.4 1.12,0.7 1.82,1.54 2.52,2.66 0.56,1.12 0.84,2.52 0.84,4.35 v 9.82 h -14.3 c -2.24,0 -4.21,-0.14 -5.61,-0.56 -1.4,-0.28 -2.66,-0.84 -3.51,-1.54 -0.84,-0.7 -1.4,-1.54 -1.82,-2.52 -0.28,-0.98 -0.56,-2.38 -0.56,-3.79 z" />
	<path
   id="XMLID_12_"
   class="st3"
   d="m 294.26,264.55 c -0.56,-2.1 -1.54,-3.93 -2.94,-5.33 -1.4,-1.4 -3.37,-2.66 -5.89,-3.37 -2.52,-0.7 -5.61,-1.12 -9.4,-1.12 -3.79,0 -7.01,0.42 -9.4,1.12 -2.52,0.84 -4.49,1.82 -5.89,3.37 -1.4,1.4 -2.52,3.23 -2.94,5.33 -0.56,2.1 -0.84,4.49 -0.84,7.01 V 302 h 6.17 v -29.87 c 0,-1.96 0.14,-3.65 0.42,-5.19 0.28,-1.4 0.84,-2.66 1.68,-3.65 0.84,-0.98 2.1,-1.68 3.79,-2.24 1.82,-0.56 4.21,-0.84 7.15,-0.84 2.94,0 5.33,0.28 7.15,0.84 1.68,0.56 2.94,1.26 3.79,2.24 0.84,0.98 1.4,2.1 1.68,3.65 0.28,1.54 0.42,3.23 0.42,5.33 v 29.87 h 6.17 v -30.43 c -0.27,-2.67 -0.55,-5.05 -1.12,-7.16 z" />
	<polygon
   id="XMLID_13_"
   class="st3"
   points="330.3,256.14 308.15,274.09 308.15,237.77 301.98,237.77 301.98,302 308.15,302 308.15,279.7 332.83,302 341.38,302 313.48,276.61 339,256.14 " />
	<path
   id="XMLID_14_"
   class="st3"
   d="M 389.34,285.03 H 364.38 L 358.35,302 h -12.06 l 23.98,-64.23 h 13.74 L 408,302 h -12.62 z m -21.59,-9.82 h 18.37 l -9.26,-26.22 z" />
	<path
   id="XMLID_17_"
   class="st3"
   d="m 413.18,237.77 h 27.77 c 6.73,0 11.64,1.26 14.58,3.93 3.09,2.66 4.49,6.59 4.49,12.06 v 0.84 c 0,3.37 -0.7,6.17 -1.96,8.27 -1.4,2.24 -3.51,3.93 -6.31,5.05 3.09,0.84 5.61,2.66 7.43,5.05 1.82,2.38 2.8,5.75 2.8,9.82 v 1.4 c 0,6.17 -1.82,10.66 -5.61,13.46 -3.65,2.8 -8.98,4.21 -15.71,4.21 h -27.49 z m 11.92,9.82 v 16.27 h 13.6 c 3.51,0 5.89,-0.7 7.15,-1.82 1.4,-1.26 2.1,-3.37 2.1,-6.17 v -1.26 c 0,-2.52 -0.7,-4.35 -1.96,-5.33 -1.26,-1.12 -3.51,-1.68 -6.59,-1.68 h -14.3 z m 0,44.59 h 15.01 c 3.65,0 6.03,-0.56 7.43,-1.82 1.4,-1.26 2.1,-3.51 2.1,-6.73 v -1.12 c 0,-3.37 -0.84,-5.75 -2.38,-7.01 -1.54,-1.26 -4.21,-1.96 -7.99,-1.96 h -14.3 z" />
	<path
   id="XMLID_21_"
   class="st3"
   d="m 496.76,248.15 c -3.23,0 -5.89,0.14 -7.85,0.7 -1.96,0.42 -3.65,1.4 -4.77,2.66 -1.12,1.4 -1.82,3.23 -2.24,5.61 -0.42,2.38 -0.56,5.47 -0.56,9.4 v 6.59 c 0,3.79 0.14,6.87 0.7,9.26 0.42,2.38 1.26,4.35 2.38,5.61 1.12,1.4 2.8,2.24 4.77,2.66 1.96,0.42 4.63,0.7 7.85,0.7 1.12,0 2.24,0 3.37,0 1.12,0 2.38,0 3.65,0 1.4,0 2.8,0 4.49,0 1.69,0 1.4,0 3.51,-0.14 v 10.38 c -3.65,0.14 -6.59,0.14 -8.98,0.14 -2.52,0 -4.49,0 -6.17,0 -5.33,0 -9.68,-0.56 -13.32,-1.54 -3.65,-0.98 -6.45,-2.66 -8.55,-4.91 -2.1,-2.24 -3.65,-5.19 -4.63,-8.98 -0.84,-3.65 -1.4,-8.13 -1.4,-13.46 v -6.59 c 0,-5.33 0.42,-9.96 1.4,-13.6 0.98,-3.65 2.52,-6.59 4.77,-8.98 2.24,-2.24 5.05,-3.79 8.55,-4.77 3.5,-0.98 7.85,-1.4 12.9,-1.4 1.96,0 4.35,0 6.87,0 2.52,0 4.49,0 8.41,0.14 v 10.38 c -1.96,0 -4.91,-0.14 -7.57,-0.14 -2.81,0.28 -5.19,0.28 -7.58,0.28 z" />
</g>
</svg>
