<?xml version="1.0" encoding="utf-8"?>
<!-- Generator: Adobe Illustrator 25.2.0, SVG Export Plug-In . SVG Version: 6.00 Build 0)  -->
<svg version="1.1" id="Layer_1" xmlns="http://www.w3.org/2000/svg" xmlns:xlink="http://www.w3.org/1999/xlink" x="0px" y="0px"
	 viewBox="0 0 250 250" style="enable-background:new 0 0 250 250;" xml:space="preserve">
<style type="text/css">
	.st0{fill:#FFFFFF;}
	.st1{fill:#073F7B;}
	.st2{fill:#25B6E0;}
	.st3{fill:#0B3578;}
	.st4{fill:#01398E;}
</style>
<g>
	<rect x="34.9" y="53.19" class="st0" width="180.19" height="143.62"/>
	<g>
		<g>
			<g>
				<path class="st1" d="M195.51,126.31c-0.04,1.2-0.11,2.39-0.21,3.57c-1.54,15.15-8.73,29.25-20.51,38.98
					c-11.37,9.4-27.09,13.96-41.78,12.33c-1.82-0.2-3.64-0.5-5.43-0.89c-3.85-0.83-7.62-2.07-11.18-3.74
					c-7.51-3.53-14.35-8.66-19.66-15.05c-6.68-8.04-11.15-17.87-12.7-28.22c0-0.01,0-0.02,0-0.03c-0.13-0.88-0.24-1.77-0.34-2.67
					l21.16-2.19l-8.18-12.22l-12.84,1.28l-14,1.39c-0.15,1.9-0.23,3.82-0.23,5.76c0,39.2,31.28,70.98,69.86,70.98
					c38.42,0,69.59-31.51,69.86-70.48L195.51,126.31z"/>
				<path class="st1" d="M193.89,80.11l-6.2,15.41c2.03,3.46,3.71,7.17,4.98,11.06l0.01,0.02h0l-88.83,8.86l8.5,12.16l82.93-8.59
					l13.72-1.42C207.63,103.48,202.19,90.57,193.89,80.11z"/>
			</g>
			<g>
				<path class="st2" d="M108.64,114.98l-2.17,0.22c-0.28-0.43-0.43-0.73-0.43-0.85C106.03,113.36,107.73,113.72,108.64,114.98z"/>
				<path class="st2" d="M118.25,114.02l-4.83,0.48C115.31,113.81,116.74,111.78,118.25,114.02z"/>
				<path class="st2" d="M131.67,112.69l-1.35,0.13c-0.89-1.18-2.11-3.17-0.81-3.8C130.59,108.39,131.67,112.69,131.67,112.69z"/>
				<path class="st2" d="M117.62,127.08l19.44-2.01c-1.36,0.14-3.93,1.5-6.73,1.25c-2.79-0.26-8.17,1.67-11.38,1.31
					C118.59,127.58,118.13,127.39,117.62,127.08z"/>
				<path class="st2" d="M144.86,111.37l-2.09,0.21c-0.73-0.89-2.3-2.92-1.81-3.55C141.61,107.22,144.33,110.11,144.86,111.37z"/>
				<path class="st2" d="M90.75,116.76l-6.93,0.69c3.46-28.09,27.06-49.82,55.64-49.82c20.51,0,38.45,11.19,48.22,27.88
					c2.03,3.46,3.71,7.17,4.98,11.06c0,0,0,0.01,0,0.02l-3.63,0.36c-0.8-2.49-1.76-5.25-3.12-7.92c-2.62-5.15-9.93-13.78-13.09-15.7
					c-3.15-1.92-7.24-6.47-19.01-8.32c-4.24-0.59-5.76,0.27-7.07-1.58c-1.03-1.41,0.34,2.07-0.98,2.07c-1.09,0-2.7-4.67-4.37-4.78
					l-0.51,2.81h-2.22c0,0-0.68,0.96-1.36,1c-0.68,0.04-2.05-0.98-2.23-0.95c-0.19,0.04-0.15,2.01-1.17,1.97
					c-1.02-0.04-0.68-1.97-1.25-1.78c-0.57,0.19-0.08,2.72-0.68,2.68c-0.6-0.04-2.49-2.61-3.93-2.2c-1.44,0.42-2.76-1.63-3.71-1.74
					c-0.95-0.11-1.17,0.84-1.4,1.07c-0.23,0.22-1.21-0.37-1.44,0c-0.23,0.37-2.82,1.77-3.52,2.63s-5.98,4.46-5.92,5.96
					c0.06,1.49,0.66,2.49,2.16,1.99c1.5-0.5,4.65-1.27,4.98-2.05c0.34-0.78-0.99-1.66,0.06-2.33c1.05-0.66,2.44-3.1,2.88-2.82
					c0.94,0.54-1.55,3.64-0.11,4.43c1.44,0.78,2.19-0.21,2.97,0.21c0.78,0.42-3.72,3.65-4.52,4.07c-0.79,0.42-8.55,1.41-9.59,1.19
					c-0.38,0.89-1.48,2.93-2.65,3.34c-1.16,0.41-1.94,0.15-2.51,0.92c-0.57,0.77-7.12,5.28-6.32,6.2c0.8,0.92,0.38,2.24-0.07,2.99
					c-0.39,0.69-0.5,2.75,0.73,2.62c1.23-0.13,2.77-0.35,4.08-2.68c1.32-2.33,3.25-3.34,3.91-3.51c0.66-0.18,1.54-0.18,2.15-0.26
					c0.61-0.09,1.36-1.01,2.2-0.13c0.83,0.88,1.25,2.85,2.85,2.97c1.59,0.13,2.7,0.03,3.21-0.13c0.51-0.15,0.67,2.12,0.98,2.63
					c0.32,0.51,1.72,0.51,1.92-1.18c0.19-1.69,0.08-2.35,1.06-2.31c0.98,0.04,0.97,2.23,1.76,3.53c0.79,1.31,3.52,1.29,4.32,0.8
					c0.8-0.48,1.4-0.88,1.8-0.64c0.4,0.24-0.4,2-0.76,3c-0.36,1,0.24,2.44-0.72,2.36c-0.96-0.08-1.8-0.48-2.32-0.48
					c-0.52,0-1.16,0.93-2.32,0.48c-1.16-0.44-4.88-2.2-5.83-1.77c-0.95,0.43-0.09,2.9-0.85,2.95c-0.76,0.05-3.57-2.85-4.8-2.81
					c-1.24,0.05-2.09,2.62-2.47,2.62c-0.38,0-0.81-3-0.71-3.52c0.09-0.52,1.42-1.95,0.81-2.61c-0.62-0.67-1.57,0.95-3.71,0.85
					c-2.14-0.09-3.28-0.14-3.61,0.15c-0.33,0.28-2.38,1.9-3.71,1.57c-1.33-0.34-1.33-1.14-2.14-0.76c-0.81,0.38-1.62,2.71-2.24,3.57
					c-0.61,0.85,0.02,3.66-0.8,4.52c-0.81,0.86-2.91,2.28-3.24,4.01C90.85,116.32,90.8,116.52,90.75,116.76z"/>
				<path class="st2" d="M195.27,119.03l-2.93,0.3l-5.49,0.57l-14.86,1.54l-5.44,0.56l-29.48,3.06c1.36-0.14,2.41,1.79,3.38,1.25
					c0.97-0.54,4.94-1.39,4.94-0.61c0,0.78-1.44,5.78-2.33,6.88c-0.89,1.1-7.23,6.68-8.12,8.43c-0.89,1.75,2.56,7.58,1.14,9.68
					c-0.6,0.79-5.79,3.8-5.87,4.3c-0.09,0.51,1.2,5.05-0.23,4.9c-1.71,0.14-1.29,0.74-1.2,2.17c0.09,1.44-5.92,5.87-5.92,5.87
					s-2.13-0.04-3.1-0.19c-0.97-0.14-2.82,2.73-3.79-0.51c-1.16-4.35-3.05-4.53-3.15-5.41c-0.09-0.88,0.19-3.01-0.65-3.88
					c-0.83-0.88-1.39-3.19-2.04-4.62c-0.65-1.44,0.28-3.24,0.32-4.07c0.05-0.83,0.88-6.38-0.23-6.39c-1.11,0-0.88-2.72-1.94-2.72
					c-1.07,0-1.3-0.74-0.88-4.26c0.42-3.51-1.25-2.41-2.55-2.36c-1.3,0.04-1.62-2.13-1.62-2.13s-1.32-0.11-3.18,0
					c-1.85,2.7-4,3.12-4.71,3.12c-0.71,0-3.95,0.93-5.59-3.51c-0.12-0.32-0.21-0.66-0.29-1.02l-5.76,0.6
					c0.72,6.99,2.72,13.89,5.92,20.14c2.13,4.16,4.68,7.98,7.74,11.51c6.53,7.55,15.12,13.37,24.61,16.51
					c1.46,0.52,2.94,0.96,4.45,1.33c16.44,3.99,34.58-0.13,47.75-10.7c12.12-9.73,19.57-24.1,21.14-39.5
					c0.11-1.18,0.17-2.37,0.21-3.57c0.02-0.57,0.03-1.13,0.03-1.7C195.54,122.73,195.45,120.87,195.27,119.03z M143.35,152.13
					c-0.85,0.85-2.3,7.92-4.6,8.51c-2.3,0.6-0.94-3.74-0.94-4.17c0-0.43,0.59-1.79,1.03-3.31c0.44-1.52,1.81-2.25,2.45-2.13
					c0.64,0.12,1.63-3.05,2.91-2.65C145.48,148.79,144.2,151.28,143.35,152.13z M167.38,131.58c0.97-0.26,3.95,2.05,4.34,3.12
					c0.39,1.06,2.24,1.68,2.74,1.79c0.5,0.11,0.39,1.51,0.39,2.02c0,0.85,1.9-0.11,2.68,0.84c1.12,1.79-1.4,2.93-2.64,2.44
					c-1.23-0.49-2.47-2.83-3.76-4.96C169.85,134.69,165.58,132.07,167.38,131.58z M185.66,153.45c-0.23,1.4-3.69,4.2-3.75,5.09
					c-0.06,0.89-0.17,1.62-2.85,1.51c-2.69-0.11-2.24,0.67-2.63,1.84c-0.39,1.18-3.8,0.78-4.81,0.62c-1.01-0.17-1.79-3.02-2.13-3.97
					c-0.34-0.95-1.51-1.85-1.68-4.59c-0.17-2.74,2.13-3.47,3.86-3.65c1.73-0.18,1.31-1.2,1.96-2.4c2.69-4.98,9.52-4.03,10.58-3.58
					c1.06,0.45-0.39,2.35,0,2.97c0.39,0.61,3.19,0.51,3.3,1.51C187.62,149.81,185.88,152.05,185.66,153.45z"/>
				<circle class="st3" cx="178.22" cy="147.4" r="4.63"/>
			</g>
		</g>
		<g>
			<path class="st4" d="M58.87,83.11c1.66-0.25,5.9-2.02,5.96-5.92c0.05-3.9-4.06-5.45-8.77-5.45c-4.71,0-15.14,0-15.14,0V73
				l3.38,0.49V94.3l-3.38,0.56v1.35c0,0,12.69,0.11,16.16,0c3.47-0.12,9.98-1.76,9.78-7.18C66.5,83.74,60.58,83.18,58.87,83.11z
				 M50.7,73.7c0,0,2.3,0.02,2.95,0c0.65-0.01,4.43-0.18,4.43,3.69c0.09,4.63-2.86,4.9-4.19,4.88c-1.33-0.03-3.18,0-3.18,0V73.7z
				 M55.66,94.31c-1.9,0-2.97-0.05-4.96,0c0-1.41,0-10.13,0-10.13s2.23-0.05,4.56,0c2.33,0.05,4.58,1,4.85,4.84
				C60.38,92.86,57.57,94.31,55.66,94.31z"/>
			<polygon class="st4" points="68.84,71.74 68.84,73.03 72.26,73.44 72.26,94.31 68.84,94.97 68.84,96.13 93.41,96.13 93.65,89.39 
				92.01,89.43 90.76,94.11 78.75,94.14 78.75,84.85 85.94,84.85 86.58,87.54 88.28,87.52 88.27,80.1 86.56,80.1 85.99,82.84 
				78.57,82.82 78.57,73.69 89.6,73.69 90.2,77.69 92.01,77.69 91.98,71.74 			"/>
			<path class="st4" d="M123.87,94.44l-9.78-22.95h-5.89l-9.77,22.88l-2.02,0.55v1.21h8.26v-1.21l-3.57-0.56l2.58-6.32h10.59
				l2.64,6.41l-3.24,0.46v1.22h12.18v-1.28L123.87,94.44z M104.47,86.13l4.58-11.02l4.53,11.02H104.47z"/>
		</g>
	</g>
</g>
</svg>
