<?xml version="1.0" encoding="UTF-8" standalone="no"?>
<!-- Generator: Adobe Illustrator 25.2.0, SVG Export Plug-In . SVG Version: 6.00 Build 0)  -->

<svg
   version="1.1"
   id="Layer_1"
   x="0px"
   y="0px"
   viewBox="0 0 168.41 127.96"
   xml:space="preserve"
   sodipodi:docname="Banque_extérieure_d'Algérie(BEA).svg"
   width="168.41"
   height="127.96"
   inkscape:version="1.2.2 (732a01da63, 2022-12-09)"
   xmlns:inkscape="http://www.inkscape.org/namespaces/inkscape"
   xmlns:sodipodi="http://sodipodi.sourceforge.net/DTD/sodipodi-0.dtd"
   xmlns="http://www.w3.org/2000/svg"
   xmlns:svg="http://www.w3.org/2000/svg"><defs
   id="defs7632" /><sodipodi:namedview
   id="namedview7630"
   pagecolor="#505050"
   bordercolor="#eeeeee"
   borderopacity="1"
   inkscape:showpageshadow="0"
   inkscape:pageopacity="0"
   inkscape:pagecheckerboard="0"
   inkscape:deskcolor="#505050"
   showgrid="false"
   inkscape:zoom="2.9698485"
   inkscape:cx="39.059232"
   inkscape:cy="42.089689"
   inkscape:window-width="1366"
   inkscape:window-height="705"
   inkscape:window-x="-8"
   inkscape:window-y="-8"
   inkscape:window-maximized="1"
   inkscape:current-layer="g7627" />
<style
   type="text/css"
   id="style7587">
	.st0{fill:#FFFFFF;}
	.st1{fill:#073F7B;}
	.st2{fill:#25B6E0;}
	.st3{fill:#0B3578;}
	.st4{fill:#01398E;}
</style>
<g
   id="g7627"
   transform="translate(-40.92,-67.63)">
	<ellipse
   style="opacity:1;fill:#ffffff;fill-opacity:1;stroke-width:3.64015"
   id="path13662"
   cx="139.41496"
   cy="124.63311"
   inkscape:label="path13662"
   rx="55.942169"
   ry="56.884773" />
	<g
   id="g7625">
		<g
   id="g7615">
			<g
   id="g7595">
				<path
   class="st1"
   d="m 195.51,126.31 c -0.04,1.2 -0.11,2.39 -0.21,3.57 -1.54,15.15 -8.73,29.25 -20.51,38.98 -11.37,9.4 -27.09,13.96 -41.78,12.33 -1.82,-0.2 -3.64,-0.5 -5.43,-0.89 -3.85,-0.83 -7.62,-2.07 -11.18,-3.74 -7.51,-3.53 -14.35,-8.66 -19.66,-15.05 -6.68,-8.04 -11.15,-17.87 -12.7,-28.22 0,-0.01 0,-0.02 0,-0.03 -0.13,-0.88 -0.24,-1.77 -0.34,-2.67 l 21.16,-2.19 -8.18,-12.22 -12.84,1.28 -14,1.39 c -0.15,1.9 -0.23,3.82 -0.23,5.76 0,39.2 31.28,70.98 69.86,70.98 38.42,0 69.59,-31.51 69.86,-70.48 z"
   id="path7591" />
				<path
   class="st1"
   d="m 193.89,80.11 -6.2,15.41 c 2.03,3.46 3.71,7.17 4.98,11.06 l 0.01,0.02 v 0 l -88.83,8.86 8.5,12.16 82.93,-8.59 13.72,-1.42 c -1.37,-14.13 -6.81,-27.04 -15.11,-37.5 z"
   id="path7593" />
			</g>
			<g
   id="g7613">
				<path
   class="st2"
   d="m 108.64,114.98 -2.17,0.22 c -0.28,-0.43 -0.43,-0.73 -0.43,-0.85 -0.01,-0.99 1.69,-0.63 2.6,0.63 z"
   id="path7597" />
				<path
   class="st2"
   d="m 118.25,114.02 -4.83,0.48 c 1.89,-0.69 3.32,-2.72 4.83,-0.48 z"
   id="path7599" />
				<path
   class="st2"
   d="m 131.67,112.69 -1.35,0.13 c -0.89,-1.18 -2.11,-3.17 -0.81,-3.8 1.08,-0.63 2.16,3.67 2.16,3.67 z"
   id="path7601" />
				<path
   class="st2"
   d="m 117.62,127.08 19.44,-2.01 c -1.36,0.14 -3.93,1.5 -6.73,1.25 -2.79,-0.26 -8.17,1.67 -11.38,1.31 -0.36,-0.05 -0.82,-0.24 -1.33,-0.55 z"
   id="path7603" />
				<path
   class="st2"
   d="m 144.86,111.37 -2.09,0.21 c -0.73,-0.89 -2.3,-2.92 -1.81,-3.55 0.65,-0.81 3.37,2.08 3.9,3.34 z"
   id="path7605" />
				<path
   class="st2"
   d="m 90.75,116.76 -6.93,0.69 c 3.46,-28.09 27.06,-49.82 55.64,-49.82 20.51,0 38.45,11.19 48.22,27.88 2.03,3.46 3.71,7.17 4.98,11.06 0,0 0,0.01 0,0.02 l -3.63,0.36 c -0.8,-2.49 -1.76,-5.25 -3.12,-7.92 -2.62,-5.15 -9.93,-13.78 -13.09,-15.7 -3.15,-1.92 -7.24,-6.47 -19.01,-8.32 -4.24,-0.59 -5.76,0.27 -7.07,-1.58 -1.03,-1.41 0.34,2.07 -0.98,2.07 -1.09,0 -2.7,-4.67 -4.37,-4.78 l -0.51,2.81 h -2.22 c 0,0 -0.68,0.96 -1.36,1 -0.68,0.04 -2.05,-0.98 -2.23,-0.95 -0.19,0.04 -0.15,2.01 -1.17,1.97 -1.02,-0.04 -0.68,-1.97 -1.25,-1.78 -0.57,0.19 -0.08,2.72 -0.68,2.68 -0.6,-0.04 -2.49,-2.61 -3.93,-2.2 -1.44,0.42 -2.76,-1.63 -3.71,-1.74 -0.95,-0.11 -1.17,0.84 -1.4,1.07 -0.23,0.22 -1.21,-0.37 -1.44,0 -0.23,0.37 -2.82,1.77 -3.52,2.63 -0.7,0.86 -5.98,4.46 -5.92,5.96 0.06,1.49 0.66,2.49 2.16,1.99 1.5,-0.5 4.65,-1.27 4.98,-2.05 0.34,-0.78 -0.99,-1.66 0.06,-2.33 1.05,-0.66 2.44,-3.1 2.88,-2.82 0.94,0.54 -1.55,3.64 -0.11,4.43 1.44,0.78 2.19,-0.21 2.97,0.21 0.78,0.42 -3.72,3.65 -4.52,4.07 -0.79,0.42 -8.55,1.41 -9.59,1.19 -0.38,0.89 -1.48,2.93 -2.65,3.34 -1.16,0.41 -1.94,0.15 -2.51,0.92 -0.57,0.77 -7.12,5.28 -6.32,6.2 0.8,0.92 0.38,2.24 -0.07,2.99 -0.39,0.69 -0.5,2.75 0.73,2.62 1.23,-0.13 2.77,-0.35 4.08,-2.68 1.32,-2.33 3.25,-3.34 3.91,-3.51 0.66,-0.18 1.54,-0.18 2.15,-0.26 0.61,-0.09 1.36,-1.01 2.2,-0.13 0.83,0.88 1.25,2.85 2.85,2.97 1.59,0.13 2.7,0.03 3.21,-0.13 0.51,-0.15 0.67,2.12 0.98,2.63 0.32,0.51 1.72,0.51 1.92,-1.18 0.19,-1.69 0.08,-2.35 1.06,-2.31 0.98,0.04 0.97,2.23 1.76,3.53 0.79,1.31 3.52,1.29 4.32,0.8 0.8,-0.48 1.4,-0.88 1.8,-0.64 0.4,0.24 -0.4,2 -0.76,3 -0.36,1 0.24,2.44 -0.72,2.36 -0.96,-0.08 -1.8,-0.48 -2.32,-0.48 -0.52,0 -1.16,0.93 -2.32,0.48 -1.16,-0.44 -4.88,-2.2 -5.83,-1.77 -0.95,0.43 -0.09,2.9 -0.85,2.95 -0.76,0.05 -3.57,-2.85 -4.8,-2.81 -1.24,0.05 -2.09,2.62 -2.47,2.62 -0.38,0 -0.81,-3 -0.71,-3.52 0.09,-0.52 1.42,-1.95 0.81,-2.61 -0.62,-0.67 -1.57,0.95 -3.71,0.85 -2.14,-0.09 -3.28,-0.14 -3.61,0.15 -0.33,0.28 -2.38,1.9 -3.71,1.57 -1.33,-0.34 -1.33,-1.14 -2.14,-0.76 -0.81,0.38 -1.62,2.71 -2.24,3.57 -0.61,0.85 0.02,3.66 -0.8,4.52 -0.81,0.86 -2.91,2.28 -3.24,4.01 -0.03,0.17 -0.08,0.37 -0.13,0.61 z"
   id="path7607" />
				<path
   class="st2"
   d="m 195.27,119.03 -2.93,0.3 -5.49,0.57 -14.86,1.54 -5.44,0.56 -29.48,3.06 c 1.36,-0.14 2.41,1.79 3.38,1.25 0.97,-0.54 4.94,-1.39 4.94,-0.61 0,0.78 -1.44,5.78 -2.33,6.88 -0.89,1.1 -7.23,6.68 -8.12,8.43 -0.89,1.75 2.56,7.58 1.14,9.68 -0.6,0.79 -5.79,3.8 -5.87,4.3 -0.09,0.51 1.2,5.05 -0.23,4.9 -1.71,0.14 -1.29,0.74 -1.2,2.17 0.09,1.44 -5.92,5.87 -5.92,5.87 0,0 -2.13,-0.04 -3.1,-0.19 -0.97,-0.14 -2.82,2.73 -3.79,-0.51 -1.16,-4.35 -3.05,-4.53 -3.15,-5.41 -0.09,-0.88 0.19,-3.01 -0.65,-3.88 -0.83,-0.88 -1.39,-3.19 -2.04,-4.62 -0.65,-1.44 0.28,-3.24 0.32,-4.07 0.05,-0.83 0.88,-6.38 -0.23,-6.39 -1.11,0 -0.88,-2.72 -1.94,-2.72 -1.07,0 -1.3,-0.74 -0.88,-4.26 0.42,-3.51 -1.25,-2.41 -2.55,-2.36 -1.3,0.04 -1.62,-2.13 -1.62,-2.13 0,0 -1.32,-0.11 -3.18,0 -1.85,2.7 -4,3.12 -4.71,3.12 -0.71,0 -3.95,0.93 -5.59,-3.51 -0.12,-0.32 -0.21,-0.66 -0.29,-1.02 l -5.76,0.6 c 0.72,6.99 2.72,13.89 5.92,20.14 2.13,4.16 4.68,7.98 7.74,11.51 6.53,7.55 15.12,13.37 24.61,16.51 1.46,0.52 2.94,0.96 4.45,1.33 16.44,3.99 34.58,-0.13 47.75,-10.7 12.12,-9.73 19.57,-24.1 21.14,-39.5 0.11,-1.18 0.17,-2.37 0.21,-3.57 0.02,-0.57 0.03,-1.13 0.03,-1.7 -0.01,-1.87 -0.1,-3.73 -0.28,-5.57 z m -51.92,33.1 c -0.85,0.85 -2.3,7.92 -4.6,8.51 -2.3,0.6 -0.94,-3.74 -0.94,-4.17 0,-0.43 0.59,-1.79 1.03,-3.31 0.44,-1.52 1.81,-2.25 2.45,-2.13 0.64,0.12 1.63,-3.05 2.91,-2.65 1.28,0.41 0,2.9 -0.85,3.75 z m 24.03,-20.55 c 0.97,-0.26 3.95,2.05 4.34,3.12 0.39,1.06 2.24,1.68 2.74,1.79 0.5,0.11 0.39,1.51 0.39,2.02 0,0.85 1.9,-0.11 2.68,0.84 1.12,1.79 -1.4,2.93 -2.64,2.44 -1.23,-0.49 -2.47,-2.83 -3.76,-4.96 -1.28,-2.14 -5.55,-4.76 -3.75,-5.25 z m 18.28,21.87 c -0.23,1.4 -3.69,4.2 -3.75,5.09 -0.06,0.89 -0.17,1.62 -2.85,1.51 -2.69,-0.11 -2.24,0.67 -2.63,1.84 -0.39,1.18 -3.8,0.78 -4.81,0.62 -1.01,-0.17 -1.79,-3.02 -2.13,-3.97 -0.34,-0.95 -1.51,-1.85 -1.68,-4.59 -0.17,-2.74 2.13,-3.47 3.86,-3.65 1.73,-0.18 1.31,-1.2 1.96,-2.4 2.69,-4.98 9.52,-4.03 10.58,-3.58 1.06,0.45 -0.39,2.35 0,2.97 0.39,0.61 3.19,0.51 3.3,1.51 0.11,1.01 -1.63,3.25 -1.85,4.65 z"
   id="path7609" />
				<circle
   class="st3"
   cx="178.22"
   cy="147.39999"
   r="4.6300001"
   id="circle7611" />
			</g>
		</g>
		<g
   id="g7623">
			<path
   class="st4"
   d="m 58.87,83.11 c 1.66,-0.25 5.9,-2.02 5.96,-5.92 0.05,-3.9 -4.06,-5.45 -8.77,-5.45 -4.71,0 -15.14,0 -15.14,0 V 73 l 3.38,0.49 V 94.3 l -3.38,0.56 v 1.35 c 0,0 12.69,0.11 16.16,0 3.47,-0.12 9.98,-1.76 9.78,-7.18 -0.36,-5.29 -6.28,-5.85 -7.99,-5.92 z M 50.7,73.7 c 0,0 2.3,0.02 2.95,0 0.65,-0.01 4.43,-0.18 4.43,3.69 0.09,4.63 -2.86,4.9 -4.19,4.88 -1.33,-0.03 -3.18,0 -3.18,0 V 73.7 Z m 4.96,20.61 c -1.9,0 -2.97,-0.05 -4.96,0 0,-1.41 0,-10.13 0,-10.13 0,0 2.23,-0.05 4.56,0 2.33,0.05 4.58,1 4.85,4.84 0.27,3.84 -2.54,5.29 -4.45,5.29 z"
   id="path7617" />
			<polygon
   class="st4"
   points="72.26,73.44 72.26,94.31 68.84,94.97 68.84,96.13 93.41,96.13 93.65,89.39 92.01,89.43 90.76,94.11 78.75,94.14 78.75,84.85 85.94,84.85 86.58,87.54 88.28,87.52 88.27,80.1 86.56,80.1 85.99,82.84 78.57,82.82 78.57,73.69 89.6,73.69 90.2,77.69 92.01,77.69 91.98,71.74 68.84,71.74 68.84,73.03 "
   id="polygon7619" />
			<path
   class="st4"
   d="m 123.87,94.44 -9.78,-22.95 h -5.89 l -9.77,22.88 -2.02,0.55 v 1.21 h 8.26 v -1.21 l -3.57,-0.56 2.58,-6.32 h 10.59 l 2.64,6.41 -3.24,0.46 v 1.22 h 12.18 v -1.28 z m -19.4,-8.31 4.58,-11.02 4.53,11.02 z"
   id="path7621" />
		</g>
	</g>
</g>
</svg>
