<?xml version="1.0" encoding="UTF-8" standalone="no"?>
<!-- Created with Inkscape (http://www.inkscape.org/) -->

<svg
   width="135.46667mm"
   height="135.46666mm"
   viewBox="0 0 135.46667 135.46666"
   version="1.1"
   id="svg12"
   xml:space="preserve"
   xmlns="http://www.w3.org/2000/svg"
   xmlns:svg="http://www.w3.org/2000/svg"><defs
     id="defs9" /><g
     id="layer1"
     transform="translate(14.556192,-22.21524)"><path
       d="M 118.1641,46.586003 56.151058,22.754982 a 8.4555542,8.4555542 0 0 0 -5.945188,0 l -62.015687,23.831021 a 4.2335979,4.2335979 0 0 0 -2.746375,3.963458 v 9.765771 c 0,2.338917 1.894417,4.233333 4.233333,4.233333 H 116.67714 c 2.33892,0 4.23334,-1.894416 4.23334,-4.233333 v -9.765771 c 0,-1.764771 -1.09538,-3.344333 -2.74638,-3.963458 z M 2.3771409,73.015232 v 42.333338 h -4.233333 c -2.338917,0 -4.2333333,1.89441 -4.2333333,4.23333 v 12.7 H 112.44381 v -12.7 c 0,-2.33892 -1.89442,-4.23333 -4.23333,-4.23333 h -4.23334 V 73.015232 H 87.043808 v 42.333338 h -25.4 V 73.015232 H 44.710475 v 42.333338 h -25.4 V 73.015232 Z M 116.67714,140.74856 H -10.322859 c -2.338916,0 -4.233333,1.89442 -4.233333,4.23334 v 8.46666 c 0,2.33892 1.894417,4.23334 4.233333,4.23334 H 116.67714 c 2.33892,0 4.23334,-1.89442 4.23334,-4.23334 v -8.46666 c 0,-2.33892 -1.89442,-4.23334 -4.23334,-4.23334 z"
       id="path16"
       style="stroke-width:0.264583;fill:#404040;fill-opacity:1" /></g></svg>
