<?xml version="1.0" encoding="utf-8"?>
<!-- Generator: Adobe Illustrator 25.2.0, SVG Export Plug-In . SVG Version: 6.00 Build 0)  -->
<svg version="1.1" id="Layer_1" xmlns="http://www.w3.org/2000/svg" xmlns:xlink="http://www.w3.org/1999/xlink" x="0px" y="0px"
	 viewBox="0 0 250 250" style="enable-background:new 0 0 250 250;" xml:space="preserve">
<style type="text/css">
	.st0{fill:#FFFFFF;}
	.st1{fill-rule:evenodd;clip-rule:evenodd;fill:#4E9F2A;}
	.st2{fill-rule:evenodd;clip-rule:evenodd;fill:#FFFFFF;}
</style>
<g>
	<rect x="35.25" y="35.25" class="st0" width="179.5" height="179.5"/>
	<rect x="35.25" y="35.25" class="st1" width="179.21" height="179.29"/>
	<path class="st2" d="M144.02,122.95c-11.47,6.05-24.21,4.23-24.22,4.23c-4.9-0.7-10.08-2.26-13.64-5.98
		c-10.48-10.97-2.23-27.46,8.3-34.89c4.91-3.46,10.56-5.81,16.37-7.27c6.73-1.69,13.71-2.22,20.65-2.23
		c-1.91-1.07-3.17-3.06-3.8-5.15c-0.64-2.09-0.73-4.31-0.77-6.49c-16.68,4.32-34.46,4.3-51.12-0.07c0.46,4.47,0.81,9.39-1.8,13.05
		c10.07-3.09,20.84-2.65,31.37-2.18c-4.07,1.09-6.95,2.38-9.48,3.78c-3.04,1.69-5.87,3.77-8.41,6.15
		c-5.08,4.76-9.02,10.76-11.21,17.37c-2.05,6.19-2.55,13.38,0.65,19.28c2.67,4.91,7.55,8.05,12.64,10.03
		c10.47,4.07,25.03,3.36,32.31-6.4C142.37,125.48,144.02,122.95,144.02,122.95"/>
	<path class="st2" d="M144.07,90.48v-3.01c0,0-3.01-0.11-3.01,3.01H144.07 M105.42,96.56h38.61v-3.33h-7.68
		c0.27-8.03,8.42-9.27,8.42-9.27c3.01-1.15,5.21-3.48,5.21-3.48v19.53h-38.75C107.86,97.35,105.42,96.56,105.42,96.56"/>
	<path class="st2" d="M94.2,114.24h64.98V97.49c0,0-5.61,5.28-7.87,6.24v0.84h2.54v5H89.4C89.4,109.58,94.2,112.45,94.2,114.24"/>
	<path class="st2" d="M130.6,88.72c0,1.54-1.28,2.76-2.84,2.76c-1.54,0-2.82-1.22-2.82-2.76c0-1.52,1.28-2.77,2.82-2.77
		C129.32,85.95,130.6,87.2,130.6,88.72"/>
	<path class="st2" d="M155.16,118.37c0,1.54-1.25,2.77-2.83,2.77c-1.57,0-2.84-1.23-2.84-2.77c0-1.54,1.27-2.75,2.84-2.75
		C153.9,115.62,155.16,116.82,155.16,118.37"/>
	<path class="st2" d="M74.75,173.29h1.34c3.06,0,8.25,0.18,8.25-4.56c0-5.19-5.14-4.68-8.53-4.68h-1.06V173.29 M74.75,158.23h1.16
		c2.77,0,5.61-0.53,5.61-4.18c0-3.94-3.22-4.17-6.03-4.17h-0.74V158.23z M64.37,184.65v-43.1H79.2c7.08,0,11.83,2.99,11.83,11.22
		c0,3.87-1.16,7-4.36,8.78v0.11c5.72,0.81,8.14,5,8.14,10.98c0,9.04-7.14,12.01-14.47,12.01H64.37z"/>
	<polygon class="st2" points="98.8,141.55 109.47,141.55 129.02,167.91 129.13,167.91 129.13,141.55 139.82,141.55 139.82,184.65 
		129.13,184.65 109.58,158.26 109.47,158.26 109.47,184.65 98.8,184.65 	"/>
	<path class="st2" d="M164.72,154.87h-0.11l-4.24,13.72h8.58L164.72,154.87z M157.49,177.18l-2.75,7.47h-10.95l15.27-43.11h11.3
		l14.97,43.11h-11.01l-2.61-7.47H157.49z"/>
</g>
</svg>
