<?xml version="1.0" encoding="UTF-8" standalone="no"?>
<!-- Generator: Adobe Illustrator 25.0.1, SVG Export Plug-In . SVG Version: 6.00 Build 0)  -->

<svg
   version="1.1"
   id="Calque_1"
   x="0px"
   y="0px"
   viewBox="0 0 64.649999 64.650005"
   xml:space="preserve"
   sodipodi:docname="Banque_nationale_d'Algérie(BNA).svg"
   width="64.650002"
   height="64.650002"
   inkscape:export-filename="Banque_nationale_d'Algérie(BNA).svg"
   inkscape:export-xdpi="96"
   inkscape:export-ydpi="96"
   inkscape:version="1.2.2 (732a01da63, 2022-12-09)"
   xmlns:inkscape="http://www.inkscape.org/namespaces/inkscape"
   xmlns:sodipodi="http://sodipodi.sourceforge.net/DTD/sodipodi-0.dtd"
   xmlns="http://www.w3.org/2000/svg"
   xmlns:svg="http://www.w3.org/2000/svg"><defs
   id="defs12352" /><sodipodi:namedview
   id="namedview12350"
   pagecolor="#505050"
   bordercolor="#eeeeee"
   borderopacity="1"
   inkscape:showpageshadow="0"
   inkscape:pageopacity="0"
   inkscape:pagecheckerboard="0"
   inkscape:deskcolor="#505050"
   showgrid="false"
   inkscape:zoom="8.7497998"
   inkscape:cx="27.772064"
   inkscape:cy="64.001464"
   inkscape:window-width="1366"
   inkscape:window-height="705"
   inkscape:window-x="-8"
   inkscape:window-y="-8"
   inkscape:window-maximized="1"
   inkscape:current-layer="Calque_1" />
<style
   type="text/css"
   id="style12237">
	.st0{fill:#4C8C1E;}
	.st1{fill-rule:evenodd;clip-rule:evenodd;fill:#FFFFFF;}
	.st2{fill-rule:evenodd;clip-rule:evenodd;fill:#404041;}
</style>
<g
   id="g12347"
   transform="translate(0,-1.05)">
	<rect
   y="1.05"
   class="st0"
   width="64.650002"
   height="64.650002"
   id="rect12239"
   x="0"
   style="display:inline" />
	<g
   id="g12345">
		<path
   class="st1"
   d="m 40.2,31.79 c -4.65,2.57 -9.8,1.8 -9.8,1.8 C 20.3,32.12 23.39,22.63 23.39,22.63 27.39,11.33 43.21,12.2 43.21,12.2 41.18,11.14 41.35,7.23 41.35,7.23 c -10.63,3.13 -20.67,0 -20.67,0 0.46,4.77 -0.75,5.59 -0.75,5.59 3.19,-1.64 12.72,-0.96 12.72,-0.96 -5.4,1.2 -9.73,7.02 -9.73,7.02 0,0 -10.34,16.63 7.78,18.15 0,0 6.74,0.07 9.19,-4.81 l 0.31,-0.43"
   id="path12241" />
		<path
   class="st1"
   d="m 40.22,17.99 v -1.27 c 0,0 -1.22,-0.04 -1.22,1.27 h 1.22 M 24.58,20.58 H 40.2 v -1.41 h -3.1 c 0.1,-3.41 3.4,-3.95 3.4,-3.95 1.22,-0.47 2.11,-1.47 2.11,-1.47 v 8.3 H 26.93 c -1.35,-1.13 -2.35,-1.47 -2.35,-1.47"
   id="path12243" />
		<path
   class="st1"
   d="m 20.06,28.09 h 26.28 v -7.1 c 0,0 -2.28,2.23 -3.19,2.64 v 0.35 h 1.02 v 2.13 H 18.1 c 0,0 1.96,1.22 1.96,1.98"
   id="path12245" />
		<path
   class="st1"
   d="m 34.77,17.25 c 0,0.65 -0.51,1.18 -1.14,1.18 -0.63,0 -1.14,-0.53 -1.14,-1.18 0,-0.65 0.51,-1.18 1.14,-1.18 0.63,0 1.14,0.53 1.14,1.18"
   id="path12247" />
		<path
   class="st1"
   d="m 44.7,29.84 c 0,0.65 -0.51,1.18 -1.14,1.18 -0.63,0 -1.14,-0.53 -1.14,-1.18 0,-0.65 0.51,-1.18 1.14,-1.18 0.63,0 1.14,0.53 1.14,1.18"
   id="path12249" />
		<path
   class="st1"
   d="m 10.94,55.24 h 0.57 c 1.31,0 3.54,0.08 3.54,-2.06 0,-2.34 -2.2,-2.11 -3.66,-2.11 h -0.45 v 4.17 m 0,-7.94 h 0.5 c 1.18,0 2.41,-0.23 2.41,-1.88 0,-1.77 -1.39,-1.88 -2.59,-1.88 H 10.94 Z M 6.49,59.1 V 39.68 h 6.36 c 3.05,0 5.09,1.34 5.09,5.05 0,1.75 -0.5,3.17 -1.89,3.96 v 0.05 c 2.45,0.36 3.5,2.24 3.5,4.95 0,4.07 -3.07,5.41 -6.21,5.41 H 6.49 Z"
   id="path12251" />
		<polygon
   class="st1"
   points="34.24,51.56 34.29,51.56 34.29,39.68 38.87,39.68 38.87,59.1 34.29,59.1 25.89,47.2 25.84,47.2 25.84,59.1 21.26,59.1 21.26,39.68 25.84,39.68 "
   id="polygon12253" />
		<path
   class="st1"
   d="m 49.56,45.68 h -0.05 l -1.83,6.18 h 3.69 z m -3.1,10.05 -1.18,3.37 h -4.71 l 6.56,-19.42 h 4.85 L 58.4,59.1 h -4.73 l -1.11,-3.37 z"
   id="path12255" />
		
		
		
		
		
		
		
		
		
		
		
		
		
		
		
		
		
		
		
		
		
		
		
		
		
		
		
		
		
		
		
		
		
		
		
		
		
		
		
		
		
		
		
		
	</g>
</g>
</svg>
