<?xml version="1.0" encoding="utf-8"?>
<!-- Generator: Adobe Illustrator 25.2.0, SVG Export Plug-In . SVG Version: 6.00 Build 0)  -->
<svg version="1.1" id="Layer_1" xmlns="http://www.w3.org/2000/svg" xmlns:xlink="http://www.w3.org/1999/xlink" x="0px" y="0px"
	 viewBox="0 0 250 250" style="enable-background:new 0 0 250 250;" xml:space="preserve">
<style type="text/css">
	.st0{fill-rule:evenodd;clip-rule:evenodd;fill:#010000;}
	.st1{fill-rule:evenodd;clip-rule:evenodd;fill:#00925C;}
	.st2{fill-rule:evenodd;clip-rule:evenodd;fill:#FFFFFF;}
</style>
<g>
	<path class="st0" d="M209.86,130.83c-3.29,0-5.5,1.64-5.5,4.1c0,2.46,2.31,3.45,4.35,4.34c1.57,0.68,3.22,1.41,3.22,2.58
		c0,0.36-0.1,0.63-0.28,0.85c-0.37,0.48-1.15,0.7-2.37,0.64c-1.2-0.06-2.55-0.49-4.06-1.24l-0.62-0.3v3.03l0.4,0.12l0.25,0.06
		c0.76,0.2,2.2,0.55,3.67,0.55c3.82,0,6.1-1.62,6.1-4.34c0-2.52-2.35-3.54-4.43-4.43c-1.52-0.65-3.1-1.33-3.1-2.4
		c0-0.31-0.02-1.24,1.95-1.24c1.47,0,2.92,0.63,3.7,0.97l0.73,0.33v-3.06l-0.73-0.15C212.37,131.07,211.14,130.83,209.86,130.83
		L209.86,130.83L209.86,130.83z M80.98,131.32v0.15c0.1,1.47,0.17,5.17,0.17,6.52c0,1.24-0.02,5.36-0.2,7.16v0.15h6.04
		c2.96,0,6.1-0.99,6.1-3.82c0-1.78-1.18-3.1-3.42-3.82c1.64-0.47,2.77-1.68,2.77-3.09c0-2.31-2.48-3.19-4.8-3.25H80.98L80.98,131.32
		z M95.63,131.32v0.15c0.1,1.47,0.17,5.13,0.17,6.49c0,1.23-0.02,5.4-0.2,7.19v0.15h3.02v-0.12c-0.17-3.43-0.17-6.87-0.17-10.19
		c0.1,0.39,0.27,0.77,0.73,1.52c0.05,0.09,5.26,8.25,5.53,8.74v0.06h2.46l-0.03-0.15c-0.17-1.8-0.17-5.96-0.17-7.19
		c0-1.36,0.08-5.02,0.17-6.49v-0.15h-3.05l0.14,3.52c0.06,1.76,0.08,3.54,0.2,5.28c-0.2-0.53-0.36-0.82-1.24-2.21
		c-0.02-0.05-3.06-5.12-4.12-6.55l-0.03-0.03H95.63L95.63,131.32z M110.56,131.32l0.03,0.12c0.1,1.48,0.17,5.16,0.17,6.52
		c0,1.23-0.02,5.39-0.2,7.19l-0.03,0.15h3.64l-0.03-0.15c-0.12-1.28-0.16-3.72-0.17-5.61c0.15,0.01,0.65,0.03,0.65,0.03l0.51,0.03
		c4.78,0,7.09-1.38,7.09-4.22c0-3.24-3.23-4-5.96-4.07L110.56,131.32L110.56,131.32L110.56,131.32z M129.13,131.32v0.12
		c0.1,1.48,0.2,5.16,0.2,6.52c0,1.23-0.05,5.39-0.23,7.19v0.15h3.61v-0.15c-0.12-1.28-0.17-3.72-0.2-5.61
		c0.16,0.01,0.68,0.03,0.68,0.03l0.51,0.03c4.78,0,7.08-1.38,7.08-4.22c0-3.24-3.26-4-5.98-4.07L129.13,131.32L129.13,131.32
		L129.13,131.32z M145.59,131.32l-0.03,0.09c-0.67,1.99-5,12.15-5.67,13.71l-0.08,0.18h3.1l0.03-0.06c0.27-0.95,0.6-2.04,1.02-3.22
		l2.57-0.06l2.12,0.03c0,0,0.36,0.03,0.45,0.03c0.56,1.51,0.98,2.65,1.16,3.22l0.03,0.06h3.58l-5.79-13.99H145.59L145.59,131.32z
		 M155.3,131.32v0.15c0.1,1.47,0.17,5.13,0.17,6.49c0,1.23-0.01,5.4-0.2,7.19v0.15h3.61v-0.15c-0.18-1.8-0.2-5.96-0.2-7.19
		c0-0.98,0.05-3.15,0.11-4.88c0.29-0.04,0.69-0.05,0.96-0.06c1.69-0.03,2.9,0.34,3.47,1.09c0.26,0.34,0.4,0.78,0.4,1.27
		c0,1.61-1.43,2.41-2.74,2.49c-0.43,0.02-0.76-0.03-0.76-0.03l-0.25-0.06l0.17,0.27c1.26,2.02,3.2,5.52,4.01,7.19l0.03,0.06h3.87
		l-0.11-0.21c-0.14-0.22-2.68-4.24-3.75-5.95c0,0-0.03-0.04-0.06-0.09c1.96-0.64,2.94-1.84,2.94-3.67c0-3.24-3.26-4-5.98-4.07H155.3
		L155.3,131.32z M169.64,131.32v0.12c0.1,1.48,0.17,5.17,0.17,6.52c0,1.23-0.02,5.39-0.2,7.19v0.15h3.61l-0.03-0.15
		c-0.18-1.8-0.17-5.96-0.17-7.19c0-1.36,0.08-5.05,0.17-6.52v-0.12H169.64L169.64,131.32z M176.47,131.32v0.15
		c0.1,1.47,0.17,5.17,0.17,6.52c0,1.24,0.01,5.36-0.17,7.16l-0.03,0.15h6.07c2.95,0,6.1-0.99,6.1-3.82c0-1.78-1.2-3.1-3.44-3.82
		c1.65-0.47,2.77-1.68,2.77-3.09c0-2.31-2.48-3.19-4.8-3.25H176.47L176.47,131.32z M195.07,131.32l-0.03,0.06
		c-0.71,2.11-5.29,12.86-5.67,13.74l-0.08,0.18l3.1,0l0.03-0.09c0.27-0.95,0.6-2.04,1.02-3.22c0.1,0,2.57-0.03,2.57-0.03l2.12,0.03
		c0,0,0.36,0,0.45,0c0.56,1.5,0.98,2.65,1.16,3.22l0.03,0.09h3.58l-5.79-13.99H195.07L195.07,131.32L195.07,131.32z M84.99,132.89
		c0.21-0.02,0.46,0,0.68,0c2.52,0.01,3.44,0.55,3.44,2.03c0,0.4-0.1,0.74-0.31,1.03c-0.49,0.62-1.47,0.94-2.65,0.88h-0.06
		l-0.71,1.97h0.71c1.39-0.04,2.6,0.43,3.22,1.24c0.29,0.38,0.42,0.81,0.42,1.27c0,1.56-1.27,2.34-3.75,2.34c-0.42,0-1.1,0-1.52-0.03
		c-0.09-2.05-0.08-4.82-0.08-5.64c0-0.98,0.03-3.15,0.08-5.01C84.59,132.96,84.78,132.91,84.99,132.89L84.99,132.89L84.99,132.89z
		 M180.51,132.89c0.21-0.02,0.43,0,0.65,0c2.53,0.01,3.47,0.55,3.47,2.03c0,0.4-0.11,0.74-0.34,1.03c-0.49,0.62-1.46,0.94-2.65,0.88
		h-0.06l-0.71,1.97h0.73c1.39-0.04,2.57,0.43,3.19,1.24c0.29,0.38,0.45,0.81,0.45,1.27c0,1.56-1.27,2.34-3.75,2.34
		c-0.43,0-1.1,0-1.52-0.03c-0.09-2.05-0.11-4.82-0.11-5.64c0-0.98,0.05-3.15,0.11-5.01C180.11,132.96,180.3,132.91,180.51,132.89
		L180.51,132.89L180.51,132.89z M115.02,133.02c1.69-0.03,2.87,0.34,3.44,1.09c0.26,0.35,0.4,0.78,0.4,1.27
		c0,2.03-2.09,2.46-3.87,2.46l-0.73-0.03c0,0-0.17-0.04-0.28-0.06c-0.01-0.47,0-1.06,0-1.76c0-0.89-0.01-1.91,0.03-2.88
		C114.22,133.06,114.63,133.03,115.02,133.02L115.02,133.02L115.02,133.02z M133.57,133.02c1.69-0.03,2.9,0.34,3.47,1.09
		c0.26,0.35,0.4,0.78,0.4,1.27c0,2.03-2.09,2.46-3.87,2.46l-0.73-0.03c0,0-0.18-0.04-0.28-0.06c-0.01-0.47-0.03-1.06-0.03-1.76
		c0-0.89,0.02-1.91,0.06-2.88C132.8,133.06,133.18,133.03,133.57,133.02L133.57,133.02L133.57,133.02z M146.52,135.44
		c0.29,0.66,1.04,2.53,1.89,4.73c-0.12,0-0.28,0-0.28,0l-1.61,0.03c0,0-1.63-0.02-1.89-0.03
		C145.31,138.4,145.95,136.8,146.52,135.44L146.52,135.44z M196,135.44c0.29,0.66,1.04,2.53,1.89,4.73c-0.14,0-0.28,0-0.28,0
		l-1.61,0.03c0,0-1.63-0.03-1.89-0.03C194.79,138.4,195.43,136.8,196,135.44L196,135.44L196,135.44z"/>
	<polygon class="st1" points="35,145.68 73.49,145.68 73.49,104.32 35,104.32 35,145.68 	"/>
	<path class="st2" d="M56.85,108.9c1.05,0.47,5.28,2.96,5.81,3.73c-2.25,0.32-6.53,1.69-8.69,2.91c2.48-0.59,5.94-0.9,8.33-1.03
		c-0.93,1.47-1.43,2.22-2.94,3.97c2.57-1.66,3.29-1.78,5.67-3.28c0.89,1.43,1.12,4.73,1.16,7.34c0.78-1.66,1.72-7.91,1.33-9.04
		c1.43-1.01,1.43-1.41,1.81-2.09c-1.45,0.14-2.26,0.16-3.05,0.42C64.29,110.53,60.19,109.18,56.85,108.9L56.85,108.9L56.85,108.9z
		 M51.2,116.82c-0.64,0.1-2.46,0.98-3.67,2c0,0-0.8-0.11-2.15-0.06c-1.34,0.06-3.1,0.43-3.78,0.73c1.31,0.07,3.09,0.42,3.78,1.15
		c0,0-2,1.94-3.95,6.16c0,0,3.59-3.59,5.14-4.49c0,0,0.79,2.92,1.35,4.37c0,0,0.5-3.37,1.33-5.31c0,0,0.23-0.15,1.38-0.27
		c1.14-0.11,2.75-0.19,5.84,0.39c0,0-2.84-1.94-6.35-2.46C50.26,118.51,50.76,117.4,51.2,116.82L51.2,116.82L51.2,116.82z
		 M41.1,128.28c-0.23,2.08-0.3,3.59-0.03,5.25c-0.88,0.26-1.51,0.47-2.23,0.82c1.02,0.67,1.85,1.2,2.99,1.76
		c0.6,1.4,1.21,2.33,2.23,3.4c-0.24-0.91-0.29-1.65-0.2-2.61c1.28,0.4,2.34,0.62,3.78,0.67c-1.38-0.55-2.36-1.19-3.44-2.28
		c0.33-0.95,0.7-1.72,1.3-2.67c-1.11,0.17-1.92,0.31-2.88,0.52C41.84,131.67,41.49,130.24,41.1,128.28L41.1,128.28L41.1,128.28z
		 M57.98,134.75c-0.97,0.73-1.82,1.31-2.94,1.88c-0.06-0.56-0.09-1.04-0.11-1.67c-0.63,0.9-1.16,1.6-1.86,2.43
		c-1.19,0.35-2.12,0.48-3.27,0.49c0.7,0.39,1.41,0.63,2.15,0.79c-0.73,0.72-1.38,1.24-2.09,1.73c1.21-0.31,2.78-0.87,3.95-1.61
		c0.61,0.02,1.22-0.01,1.64-0.09c-0.1-0.39-0.18-0.68-0.28-1.18C56.27,136.58,57.06,135.75,57.98,134.75L57.98,134.75L57.98,134.75z
		"/>
</g>
</svg>
