<?xml version="1.0" encoding="UTF-8" standalone="no"?>
<svg
   id="Calque_1"
   data-name="Calque 1"
   viewBox="0 0 271.29002 56.129999"
   version="1.1"
   sodipodi:docname="BNP_Paribas_el_Djazair-01-01.svg"
   width="271.29001"
   height="56.130001"
   inkscape:version="1.2.2 (732a01da63, 2022-12-09)"
   xmlns:inkscape="http://www.inkscape.org/namespaces/inkscape"
   xmlns:sodipodi="http://sodipodi.sourceforge.net/DTD/sodipodi-0.dtd"
   xmlns:xlink="http://www.w3.org/1999/xlink"
   xmlns="http://www.w3.org/2000/svg"
   xmlns:svg="http://www.w3.org/2000/svg">
  <sodipodi:namedview
     id="namedview11654"
     pagecolor="#505050"
     bordercolor="#eeeeee"
     borderopacity="1"
     inkscape:showpageshadow="0"
     inkscape:pageopacity="0"
     inkscape:pagecheckerboard="0"
     inkscape:deskcolor="#505050"
     showgrid="false"
     inkscape:zoom="2.2285945"
     inkscape:cx="157.94708"
     inkscape:cy="-33.653498"
     inkscape:window-width="1366"
     inkscape:window-height="705"
     inkscape:window-x="-8"
     inkscape:window-y="-8"
     inkscape:window-maximized="1"
     inkscape:current-layer="Calque_1" />
  <defs
     id="defs11591">
    <style
       id="style11559">.cls-1{fill:url(#linear-gradient);}.cls-2{fill:url(#linear-gradient-2);}.cls-3{fill:url(#linear-gradient-3);}.cls-4{fill:url(#linear-gradient-4);}.cls-5{fill:url(#linear-gradient-5);}.cls-6{fill:url(#linear-gradient-6);}.cls-7{fill:#fff;}</style>
    <linearGradient
       id="linear-gradient"
       x1="28.059999"
       y1="-1.38"
       x2="28.059999"
       y2="57.869999"
       gradientUnits="userSpaceOnUse">
      <stop
         offset="0"
         stop-color="#00774a"
         id="stop11561" />
      <stop
         offset="0.6"
         stop-color="#8ac9ad"
         id="stop11563" />
      <stop
         offset="1"
         stop-color="#00965f"
         id="stop11565" />
    </linearGradient>
    <linearGradient
       id="linear-gradient-2"
       x1="27.969999"
       y1="-13.94"
       x2="27.969999"
       y2="52.639999"
       gradientUnits="userSpaceOnUse">
      <stop
         offset="0"
         stop-color="#00965f"
         id="stop11568" />
      <stop
         offset="0.3"
         stop-color="#8ac9ad"
         id="stop11570" />
      <stop
         offset="0.55"
         stop-color="#00965f"
         id="stop11572" />
      <stop
         offset="0.84"
         stop-color="#00774a"
         id="stop11574" />
      <stop
         offset="0.89"
         stop-color="#008053"
         id="stop11576" />
      <stop
         offset="0.98"
         stop-color="#00986a"
         id="stop11578" />
      <stop
         offset="1"
         stop-color="#009e70"
         id="stop11580" />
    </linearGradient>
    <linearGradient
       id="linear-gradient-3"
       x1="38.639999"
       y1="48.959999"
       x2="38.639999"
       y2="5.8800001"
       gradientUnits="userSpaceOnUse">
      <stop
         offset="0"
         stop-color="#00a87c"
         id="stop11583" />
      <stop
         offset="1"
         stop-color="#00965f"
         id="stop11585" />
    </linearGradient>
    <linearGradient
       id="linear-gradient-4"
       x1="11.91"
       y1="48.959999"
       x2="11.91"
       y2="5.8600001"
       xlink:href="#linear-gradient-3" />
    <linearGradient
       id="linear-gradient-5"
       x1="20.23"
       y1="48.950001"
       x2="20.23"
       y2="5.8800001"
       xlink:href="#linear-gradient-3" />
    <linearGradient
       id="linear-gradient-6"
       x1="27.43"
       y1="48.959999"
       x2="27.43"
       y2="5.8699999"
       xlink:href="#linear-gradient-3" />
    <linearGradient
       inkscape:collect="always"
       xlink:href="#linear-gradient-3"
       id="linearGradient11889"
       gradientUnits="userSpaceOnUse"
       x1="38.639999"
       y1="48.959999"
       x2="38.639999"
       y2="5.8800001" />
  </defs>
  <title
     id="title11593">Plan de travail 7</title>
  <rect
     class="cls-1"
     width="56.130001"
     height="56.130001"
     id="rect11595"
     x="0"
     y="0"
     style="fill:url(#linear-gradient)" />
  <path
     class="cls-2"
     d="m 54.39,28.39 c 0,11.72 0.54,23.71 0.54,23.71 a 2,2 0 0 1 -2,2.21 H 4.38 c -1.09,0 -1.84,-1 -2,-2.21 A 211,211 0 0 1 1,26.21 C 1,10.56 2.4,3.21 2.4,3.21 2.58,1.91 3.3,1 4.38,1 H 53 a 2.09,2.09 0 0 1 2,2.21 c 0,0 -0.61,13.46 -0.61,25.18 z"
     id="path11597"
     style="fill:url(#linear-gradient-2)" />
  <path
     class="cls-3"
     d="m 43.58,15.16 c -3.47,2 -4.53,2.2 -8.3,4.46 l 0.18,-0.42 a 38.64,38.64 0 0 0 4.14,-5 84.71,84.71 0 0 0 -12.13,1.4 v 0 l 0.19,-0.39 a 51.57,51.57 0 0 1 12.45,-3.58 c -0.76,-1.06 -6.91,-4.39 -8.45,-5 v 0 L 31.84,6.24 A 40.33,40.33 0 0 1 45.39,10.6 21.53,21.53 0 0 1 49.81,10 c 0,0 -0.31,1.27 -2.61,2.85 v 0 c 0.57,1.53 -0.8,10 -1.93,12.24 v 0 C 45.21,21.56 44.9,17.1 43.58,15.16 Z"
     id="path11599"
     style="fill:url(#linearGradient11889)" />
  <path
     class="cls-4"
     d="m 18.22,45.5 0.18,-0.39 c -1.84,-0.72 -3.69,-1.28 -5.18,-2.69 v 0 A 15.23,15.23 0 0 1 15.1,38.8 v 0 l 0.18,-0.4 c -1.58,0.24 -3,0.82 -4.39,1.09 v 0 c -1.08,-1.9 -1.5,-4.5 -2,-7 l -0.18,0.39 v 0 a 23.75,23.75 0 0 0 0,7.09 v 0 a 26.35,26.35 0 0 0 -3.06,0.75 l -0.18,0.39 v 0 a 39.19,39.19 0 0 0 4.31,2.37 v 0 A 14.71,14.71 0 0 0 13,48.16 v 0 l 0.18,-0.39 A 8.4,8.4 0 0 1 12.7,44.61 v 0 a 20.59,20.59 0 0 0 5.52,0.89 z"
     id="path11601"
     style="fill:url(#linear-gradient-4)" />
  <path
     class="cls-5"
     d="M 23.34,17.31 A 20.11,20.11 0 0 0 22,20.37 h -0.14 a 30.83,30.83 0 0 1 9.43,2.94 l -0.18,0.39 v 0 a 30.31,30.31 0 0 0 -8.52,-0.55 v 0 a 6.13,6.13 0 0 0 -2,0.37 v 0 a 32.55,32.55 0 0 0 -1.75,6.81 l -0.18,0.39 v 0 c -0.82,-2 -2,-5.91 -2,-5.91 v 0 c -2.26,1.21 -7.47,6.1 -7.47,6.1 v 0 A 30.13,30.13 0 0 1 15,22.56 v 0 c -1,-1 -3.62,-1.52 -5.53,-1.6 v 0 L 9.65,20.57 A 29.53,29.53 0 0 1 14.93,20 v 0 a 28,28 0 0 1 3.15,0.05 v 0 a 15.66,15.66 0 0 1 5.26,-2.74 z"
     id="path11603"
     style="fill:url(#linear-gradient-5)" />
  <path
     class="cls-6"
     d="m 28.84,41.94 c -0.91,1.23 -1.68,2.2 -2.68,3.32 v 0 a 20.22,20.22 0 0 1 -4.61,0.27 l -0.18,0.39 v 0 A 11.83,11.83 0 0 0 24.48,47 v 0 a 23.7,23.7 0 0 1 -2.85,1.95 l -0.18,0.39 v 0 a 22.26,22.26 0 0 0 5.78,-2.17 v 0 A 10.26,10.26 0 0 0 29.57,47 v 0 l 0.18,-0.39 c -0.11,-0.4 -0.46,-0.64 -0.57,-1.19 v 0 a 40.69,40.69 0 0 0 4.13,-3.75 v 0 L 33.5,41.28 A 35.11,35.11 0 0 1 29,44.22 v 0 C 28.93,43.45 28.88,42.8 28.84,41.94 Z"
     id="path11605"
     style="fill:url(#linear-gradient-6)" />
  <path
     class="cls-7"
     d="m 43.76,14.76 c -3.46,2 -4.52,2.21 -8.29,4.46 a 38.45,38.45 0 0 0 4.31,-5.38 83.55,83.55 0 0 0 -12.12,1.4 v 0 a 48.24,48.24 0 0 1 12.64,-4 c -0.76,-1.05 -6.92,-4.39 -8.45,-5 v 0 c 4.88,0.38 10.84,2.2 13.73,4 A 22.59,22.59 0 0 1 50,9.64 v 0 a 5.85,5.85 0 0 1 -2.64,2.84 v 0 c 0.58,1.54 -0.8,10 -1.93,12.24 v 0 C 45.4,21.17 45.09,16.7 43.76,14.76 Z"
     id="path11607" />
  <path
     class="cls-7"
     d="m 18.4,45.11 a 13.77,13.77 0 0 1 -5,-3.07 v 0 a 15.56,15.56 0 0 1 1.89,-3.63 v 0 c -1.62,0.24 -2.81,0.42 -4.21,0.69 v 0 A 21.58,21.58 0 0 1 8.85,32.53 v 0 a 23.83,23.83 0 0 0 0,7.1 v 0 a 20.88,20.88 0 0 0 -3.24,1.14 v 0 a 40.36,40.36 0 0 0 4.29,2.36 v 0 a 14.71,14.71 0 0 0 3.29,4.65 v 0 a 8.64,8.64 0 0 1 -0.3,-3.55 v 0 a 20.57,20.57 0 0 0 5.51,0.88 z"
     id="path11609" />
  <path
     class="cls-7"
     d="m 23.58,17 v 0 A 11.5,11.5 0 0 0 22,20 v 0 a 25.53,25.53 0 0 1 9.25,3.33 v 0 a 30,30 0 0 0 -8.52,-0.55 v 0 a 6.51,6.51 0 0 0 -2,0.35 v 0 a 35.52,35.52 0 0 0 -1.94,7.2 v 0 c -0.82,-2 -2,-5.91 -2,-5.91 v 0 c -2.26,1.21 -7.47,6.11 -7.47,6.11 v 0 a 29.75,29.75 0 0 1 5.77,-8.34 v 0 c -1,-1 -3.62,-1.52 -5.54,-1.6 v 0 a 21.58,21.58 0 0 1 5.51,-1 v 0 a 28.75,28.75 0 0 1 3.15,0.06 v 0 A 15.77,15.77 0 0 1 23.58,17 Z"
     id="path11611" />
  <path
     class="cls-7"
     d="m 29,41.55 a 42.16,42.16 0 0 1 -2.69,3.32 v 0 a 16.5,16.5 0 0 1 -4.79,0.66 v 0 a 11.92,11.92 0 0 0 3.11,1.08 v 0 a 21.65,21.65 0 0 1 -3,2.34 v 0 a 22.22,22.22 0 0 0 5.78,-2.18 v 0 a 10.57,10.57 0 0 0 2.35,-0.14 v 0 A 13.25,13.25 0 0 1 29.36,45 v 0 a 39.36,39.36 0 0 0 4.14,-3.7 v 0 a 27.91,27.91 0 0 1 -4.32,2.53 v 0 C 29.1,43.06 29.06,42.41 29,41.55 Z"
     id="path11613" />
  <path
     d="m 70.24,8.54 c 0.12,2 0.24,7.2 0.24,9.09 0,1.89 0,7.54 -0.31,10 v 0.2 h 9.07 c 4.46,0 9.17,-1.39 9.17,-5.35 0,-2.48 -1.79,-4.31 -5.15,-5.31 2.49,-0.67 4.15,-2.37 4.15,-4.31 0,-3.23 -3.71,-4.45 -7.2,-4.53 h -10 z m 7,2 c 3.78,0 5.17,0.8 5.17,2.86 A 2.19,2.19 0 0 1 81.9,14.86 4.66,4.66 0 0 1 78,16 h -0.09 l -1.09,2.8 h 1.06 a 6,6 0 0 1 4.83,1.74 2.78,2.78 0 0 1 0.65,1.78 c 0,2.15 -1.89,3.26 -5.64,3.26 -0.63,0 -1.65,0 -2.29,0 -0.11,-2.87 -0.16,-6.76 -0.16,-7.93 0,-1.36 0.09,-4.38 0.16,-7 a 10.25,10.25 0 0 1 1.82,-0.13 z"
     id="path11615" />
  <path
     d="m 109.33,8.36 h -4.41 l 0.18,4.92 c 0.08,2.43 0.17,4.93 0.34,7.36 v 0 a 14.15,14.15 0 0 0 -1.89,-3.1 c 0,-0.07 -4.59,-7.12 -6.18,-9.13 v 0 h -5.18 v 0.18 c 0.16,2 0.23,7.2 0.23,9.09 0,1.89 0,7.54 -0.24,10 v 0.2 h 4.56 v -0.2 C 96.48,22.92 96.48,18.12 96.48,13.46 v 0 a 6.67,6.67 0 0 0 1.08,2.12 c 0.06,0.13 7.92,11.57 8.3,12.22 v 0.08 h 3.65 v -0.2 c -0.28,-2.5 -0.3,-8.31 -0.3,-10 0,-1.69 0.12,-7 0.24,-9.09 l 0.06,-0.18 z"
     id="path11617" />
  <path
     d="m 114.6,8.54 c 0.18,2 0.25,7.2 0.25,9.09 0,1.89 0,7.54 -0.27,10 v 0.2 H 120 v -0.2 c -0.18,-1.8 -0.28,-5.24 -0.3,-7.86 l 1,0.05 h 0.77 c 7.14,0 10.61,-1.89 10.61,-5.87 0,-4.52 -4.87,-5.56 -8.94,-5.65 h -8.54 z m 6.69,2.17 c 2.55,0 4.32,0.47 5.16,1.54 a 2.68,2.68 0 0 1 0.6,1.76 c 0,2.82 -3.18,3.43 -5.83,3.43 l -1.08,-0.06 h -0.44 c 0,-0.65 0,-1.51 0,-2.47 0,-1.23 0,-2.68 0.06,-4 a 11.48,11.48 0 0 1 1.54,-0.2 z"
     id="path11619" />
  <path
     d="m 142.46,8.54 c 0.17,2 0.27,7.2 0.27,9.09 0,1.89 0,7.54 -0.3,10 v 0.2 h 5.43 v -0.2 c -0.17,-1.8 -0.27,-5.24 -0.27,-7.86 l 1,0.05 h 0.79 C 156.46,19.87 160,18 160,14 160,9.48 155.1,8.44 151,8.35 h -8.53 z m 6.68,2.17 c 2.55,0 4.32,0.47 5.18,1.54 a 2.64,2.64 0 0 1 0.59,1.76 c 0,2.82 -3.17,3.43 -5.79,3.43 L 148,17.38 h -0.45 c 0,-0.65 0,-1.52 0,-2.47 0,-1.24 0,-2.68 0.05,-4 a 10.79,10.79 0 0 1 1.54,-0.2 z"
     id="path11621" />
  <path
     d="m 167.23,8.36 h -0.07 v 0.1 c -1,2.77 -7.52,17 -8.55,19.16 l -0.09,0.24 h 4.62 v -0.11 c 0.41,-1.34 1,-2.85 1.55,-4.46 l 3.86,-0.06 h 3.19 0.67 c 0.82,2.1 1.45,3.68 1.73,4.48 l 0.05,0.08 h 5.36 l -8.66,-19.5 h -3.67 z m 1.32,5.75 c 0.43,0.93 1.55,3.52 2.81,6.61 h -0.44 -2.37 -2.87 c 1.03,-2.48 2.04,-4.72 2.87,-6.62 z"
     id="path11623" />
  <path
     d="m 181.73,8.54 c 0.15,2 0.23,7.2 0.23,9.09 0,1.89 0,7.54 -0.3,10 v 0.2 h 5.46 v -0.2 c -0.29,-2.52 -0.31,-8.31 -0.31,-10 0,-1.36 0,-4.38 0.18,-6.82 0.41,0 1,-0.09 1.47,-0.09 2.53,0 4.31,0.47 5.15,1.54 a 2.62,2.62 0 0 1 0.58,1.76 c 0,2.25 -2.1,3.39 -4.06,3.5 a 6,6 0 0 1 -1.15,-0.06 l -0.38,-0.06 0.21,0.36 c 1.94,2.83 4.84,7.72 6,10 v 0.08 h 5.83 l -0.15,-0.26 c -0.24,-0.33 -4,-5.92 -5.65,-8.31 l -0.14,-0.14 c 3,-0.9 4.44,-2.57 4.44,-5.14 0,-4.49 -4.87,-5.56 -9,-5.65 h -8.5 z"
     id="path11625" />
  <path
     d="m 208.42,8.36 h -5.2 v 0.18 c 0.13,2 0.24,7.2 0.24,9.09 0,1.73 0,7.52 -0.27,10 v 0.2 h 5.39 v -0.2 c -0.21,-2.52 -0.27,-8.31 -0.27,-10 0,-1.88 0.13,-7 0.27,-9.09 V 8.36 Z"
     id="path11627" />
  <path
     d="m 213.51,8.54 c 0.16,2 0.25,7.2 0.25,9.09 0,1.89 0,7.54 -0.27,10 v 0.2 h 9.08 c 4.44,0 9.17,-1.39 9.17,-5.35 0,-2.48 -1.8,-4.31 -5.18,-5.31 2.49,-0.67 4.17,-2.37 4.17,-4.31 0,-3.23 -3.72,-4.45 -7.18,-4.53 h -10 z m 7,2 v 0 c 3.81,0 5.2,0.8 5.2,2.86 a 2.14,2.14 0 0 1 -0.52,1.46 c -0.69,0.87 -2.15,1.32 -3.94,1.21 h -0.09 l -1,2.75 h 1 a 6,6 0 0 1 4.84,1.71 2.67,2.67 0 0 1 0.67,1.78 c 0,2.15 -1.9,3.26 -5.66,3.26 -0.6,0 -1.62,0 -2.26,0 -0.16,-2.87 -0.16,-6.76 -0.16,-7.93 0,-1.36 0,-4.38 0.16,-7 a 9.78,9.78 0 0 1 1.76,-0.12 z"
     id="path11629" />
  <path
     d="m 245.05,8.36 h -3.65 v 0.09 c -1.09,3 -8,17.92 -8.55,19.15 l -0.1,0.26 h 4.65 v -0.12 c 0.39,-1.34 0.93,-2.84 1.53,-4.48 l 3.84,-0.06 3.2,0.05 h 0.68 c 0.84,2.09 1.46,3.69 1.74,4.48 v 0.12 h 5.38 l -8.65,-19.5 z m -2.24,5.73 c 0.44,0.91 1.55,3.5 2.81,6.6 h -0.43 -2.38 L 240,20.7 c 1,-2.49 2,-4.7 2.81,-6.61 z"
     id="path11631" />
  <path
     d="m 255.34,13.4 c 0,3.43 3.43,4.8 6.47,6.07 2.36,0.95 4.84,1.94 4.84,3.57 a 1.68,1.68 0 0 1 -0.38,1.2 c -0.57,0.67 -1.72,1 -3.55,0.85 a 16.62,16.62 0 0 1 -6.15,-1.7 l -0.9,-0.43 v 4.24 l 0.61,0.15 0.36,0.06 a 23.77,23.77 0 0 0 5.5,0.8 c 5.73,0 9.15,-2.29 9.15,-6.06 0,-3.55 -3.53,-4.93 -6.65,-6.17 -2.3,-0.93 -4.68,-1.85 -4.68,-3.37 0,-0.44 0,-1.72 3,-1.72 a 15.71,15.71 0 0 1 5.52,1.35 l 1.1,0.46 V 8.44 l -1.09,-0.2 a 24.94,24.94 0 0 0 -4.88,-0.59 c -4.97,0 -8.27,2.35 -8.27,5.75 z"
     id="path11633" />
  <path
     d="m 77.64,35 v 1.84 h -5.21 v 3.63 h 5 v 1.71 h -5 V 46 h 5.49 v 1.84 H 70.34 V 35 Z"
     id="path11635" />
  <path
     d="M 82.86,34 V 45.57 A 0.65,0.65 0 0 0 83.58,46.31 2.57,2.57 0 0 0 84.83,46 L 85,47.51 a 4.47,4.47 0 0 1 -2.15,0.59 c -1.72,0 -2.15,-1.2 -2.15,-2.49 v -11.2 z"
     id="path11637" />
  <path
     d="m 97.08,35 c 3.52,0 5.41,1.86 5.41,6.26 0,4.75 -2.11,6.63 -5.47,6.63 H 92.73 V 35 Z m -2.26,11 h 2.13 c 2.09,0 3.38,-1 3.38,-4.77 0,-3.43 -1.24,-4.44 -3.38,-4.44 h -2.13 z"
     id="path11639" />
  <path
     d="m 107.36,49.35 a 2.38,2.38 0 0 1 -2.63,2.41 4.37,4.37 0 0 1 -2,-0.5 l 0.33,-1.6 a 3.35,3.35 0 0 0 1.22,0.31 0.9,0.9 0 0 0 1,-1 V 38.08 h 2.11 z m 0,-14.75 v 2.17 h -2.11 V 34.6 Z"
     id="path11641" />
  <path
     d="m 115.26,40.8 c 0,-0.92 -0.64,-1.29 -1.51,-1.29 A 1.49,1.49 0 0 0 112.09,41 l -1.85,-0.19 c 0.06,-2 1.72,-3 3.65,-3 2.13,0 3.48,1 3.48,2.78 v 5.1 c 0,0.46 0.23,0.66 0.56,0.66 a 1.77,1.77 0 0 0 1,-0.39 l 0.13,1.46 a 2.63,2.63 0 0 1 -1.78,0.66 1.55,1.55 0 0 1 -1.72,-1.38 4.36,4.36 0 0 1 -3.11,1.38 2.43,2.43 0 0 1 -2.59,-2.62 c 0,-2.48 2.42,-3.59 5.39,-3.57 z m 0,2.63 c -1.91,-0.06 -3.33,0.59 -3.33,1.78 a 1.07,1.07 0 0 0 1.2,1.18 3.07,3.07 0 0 0 2.13,-1.07 z"
     id="path11643" />
  <path
     d="m 128.18,38.08 v 1.27 l -5,6.87 h 5.07 v 1.64 h -7.71 v -1.22 l 5,-6.92 h -4.91 v -1.64 z"
     id="path11645" />
  <path
     d="m 135.32,40.8 c 0,-0.92 -0.64,-1.29 -1.51,-1.29 A 1.49,1.49 0 0 0 132.15,41 l -1.86,-0.19 c 0.06,-2 1.72,-3 3.65,-3 2.13,0 3.48,1 3.48,2.78 v 5.1 c 0,0.46 0.23,0.66 0.56,0.66 a 1.77,1.77 0 0 0 1,-0.39 l 0.13,1.46 a 2.63,2.63 0 0 1 -1.78,0.66 1.55,1.55 0 0 1 -1.72,-1.38 4.36,4.36 0 0 1 -3.11,1.38 2.43,2.43 0 0 1 -2.59,-2.62 c 0,-2.48 2.42,-3.59 5.39,-3.57 z m 0,2.63 c -1.91,-0.06 -3.33,0.59 -3.33,1.78 a 1.07,1.07 0 0 0 1.2,1.18 3.07,3.07 0 0 0 2.13,-1.07 z"
     id="path11647" />
  <path
     d="m 141.41,34.54 v 1.9 h -1.72 v -1.9 z m 1.72,3.54 v 9.78 H 141 v -9.78 z m 1.35,-3.54 v 1.9 h -1.72 v -1.9 z"
     id="path11649" />
  <path
     d="M 148.31,38.08 V 39.2 A 3.52,3.52 0 0 1 151,37.84 c 1.53,0 1.87,1.36 1.87,2.8 L 151,40.8 c 0,-0.59 -0.08,-1 -0.66,-1 a 3.08,3.08 0 0 0 -1.72,1 v 7 h -2.11 v -9.72 z"
     id="path11651" />
</svg>
