<?xml version="1.0" encoding="utf-8"?>
<!-- Generator: Adobe Illustrator 25.2.0, SVG Export Plug-In . SVG Version: 6.00 Build 0)  -->
<svg version="1.1" id="Layer_1" xmlns="http://www.w3.org/2000/svg" xmlns:xlink="http://www.w3.org/1999/xlink" x="0px" y="0px"
	 viewBox="0 0 250 250" style="enable-background:new 0 0 250 250;" xml:space="preserve">
<style type="text/css">
	.st0{fill:#E81E25;}
	.st1{fill:#939393;}
</style>
<g>
	<g>
		<path class="st0" d="M124.12,35L54.26,150.79l141.47,0c0,0-51.81-83.35-52.77-84.95C141.65,64.01,140.56,63.58,124.12,35z"/>
		<polygon class="st1" points="139.44,60.8 96.41,128.61 181.91,128.54 		"/>
		<polygon points="147.38,58.74 105.4,123.03 188.2,123.03 		"/>
	</g>
	<g>
		<g>
			<path d="M89.4,162.82c0.64-1.23,1.03-2.41,1.63-3.74c-2.96-0.69-5.61-0.87-8.38-0.94c-5.55,0.12-20.38,0.96-20.97,11.1
				c0.12,10.26,16.02,10.65,20.3,10.52c4.28-0.13,7.97-0.65,8.61-0.76c-0.29-1.15-0.97-3.2-1.05-3.6c-2.6,0.37-5.83,0.81-7.16,0.76
				c-1.33-0.05-11.77-0.15-11.87-7.2c-0.1-7.06,11.26-6.94,12.38-6.96C83.99,161.98,88.15,162.36,89.4,162.82z"/>
			<path d="M127.09,158.6v20.94c0,0-5.8,0-8.66,0c-6.63-6.66-12.46-12.9-14.73-15.83c0.28,4.55,0.28,12.59,0.19,15.83
				c-1.64,0-7.5,0-7.5,0l0-20.94c0,0,7.53,0.03,9.98,0.03c4.38,4.44,11.16,11.11,13.85,15.17c-0.69-5.48-0.78-8.81-0.69-15.21"/>
			<polygon points="134.62,158.6 134.62,179.54 158.24,179.54 158.24,175.89 142.9,175.89 142.89,170.53 156.54,170.53 
				156.54,166.88 142.9,166.88 142.9,162.25 157.51,162.25 157.51,158.6 			"/>
			<path d="M173.48,158.38c-2.67-0.05-9.4,0.46-9.4,0.46c0,0.43,0,20.7,0,20.7h8.28c0,0,0-5.21,0-7.53
				c4.46-0.04,18.35,0.41,18.27-7.31C190.19,157.67,176.14,158.43,173.48,158.38z M172.36,168.67v-6.64c0,0,2.08-0.2,2.92-0.25
				c0.83-0.05,7.23-0.05,7.33,3.16C182.67,168.65,175.57,168.58,172.36,168.67z"/>
		</g>
		<g>
			<path d="M66.46,182.86c1.59-0.3,4.45-0.52,7.27-0.52c3.3,0,5.64,0.34,7.55,1.49c1.75,1.01,2.86,2.69,2.86,4.85
				c0,2.24-1.35,4.37-4.29,5.41v0.11c3.1,0.78,5.16,3.02,5.16,6.12c0,2.28-0.99,4.03-2.54,5.26c-1.87,1.53-4.93,2.35-9.97,2.35
				c-2.7,0-4.73-0.15-6.04-0.37V182.86z M72.22,192.6h1.71c2.82,0,4.41-1.34,4.41-3.25c0-1.9-1.35-3.06-3.89-3.06
				c-1.11,0-1.79,0.07-2.22,0.19V192.6z M72.22,203.76c0.52,0.11,1.11,0.11,1.95,0.11c2.58,0,4.77-1.08,4.77-3.7
				c0-2.54-2.22-3.66-4.93-3.66h-1.79V203.76z"/>
			<path d="M103.96,203.35c0,1.64,0.08,3.25,0.32,4.33h-5.2l-0.36-1.83h-0.08c-1.23,1.46-3.06,2.2-5.2,2.2
				c-3.65,0-5.92-2.58-5.92-5.56c0-4.78,4.53-6.94,10.65-6.94v-0.3c0-1.12-0.64-2.39-3.3-2.39c-1.87,0-3.69,0.56-4.97,1.27
				l-1.03-3.51c1.27-0.67,3.77-1.57,7.07-1.57c6.32,0,8.03,3.66,8.03,7.8V203.35z M98.32,198.99c-2.74,0-5.16,0.67-5.16,2.95
				c0,1.53,1.03,2.24,2.22,2.24c1.31,0,2.46-0.78,2.86-1.94c0.08-0.26,0.08-0.6,0.08-0.9V198.99z"/>
			<path d="M108.41,195.18c0-2.2-0.08-4.07-0.16-5.75h5.01l0.28,2.39h0.12c0.83-1.23,2.74-2.76,5.64-2.76
				c3.89,0,6.44,2.58,6.44,7.54v11.09h-5.8v-10.53c0-2.09-0.75-3.66-2.74-3.66c-1.43,0-2.34,0.93-2.74,1.98
				c-0.16,0.37-0.24,0.93-0.24,1.49v10.71h-5.8V195.18z"/>
			<path d="M141.78,205.59h-0.08c-1.07,1.57-2.82,2.46-5.16,2.46c-4.05,0-7.35-3.7-7.35-9.22c0-6.42,3.93-9.78,7.99-9.78
				c2.11,0,3.81,0.78,4.85,2.43l0.08,0.04l0.2-2.09h5.4c-0.04,1.75-0.12,3.62-0.12,5.56V215h-5.8V205.59z M141.78,196.78
				c0-0.3-0.04-0.67-0.12-0.97c-0.32-1.34-1.47-2.43-2.98-2.43c-2.42,0-3.66,2.13-3.66,5.19c0,3.14,1.35,5.15,3.62,5.15
				c1.39,0,2.58-0.9,2.98-2.28c0.12-0.37,0.16-0.86,0.16-1.23V196.78z"/>
			<path d="M169.11,201.9c0,2.28,0.08,4.22,0.16,5.79h-5.01l-0.28-2.39h-0.12c-0.79,1.16-2.54,2.76-5.6,2.76
				c-3.85,0-6.32-2.39-6.32-7.8v-10.83h5.8v10c0,2.61,0.79,4.18,2.7,4.18c1.43,0,2.26-0.93,2.62-1.75c0.16-0.34,0.24-0.82,0.24-1.31
				v-11.12h5.8V201.9z"/>
			<path d="M178.25,200.37c0.12,2.5,2.38,3.58,5.05,3.58c1.87,0,3.42-0.26,4.85-0.71l0.79,3.73c-1.83,0.67-4.13,1.05-6.56,1.05
				c-6.16,0-9.69-3.51-9.69-9.18c0-5.08,3.18-9.78,9.18-9.78c5.68,0,8.06,4.14,8.06,8.96c0,1.08-0.12,1.9-0.2,2.35H178.25z
				 M184.56,196.6c0-1.64-0.64-3.81-3.02-3.81c-2.26,0-3.22,2.2-3.34,3.81H184.56z"/>
		</g>
	</g>
</g>
</svg>
