<?xml version="1.0" encoding="UTF-8" standalone="no"?>
<!-- Generator: Adobe Illustrator 25.2.0, SVG Export Plug-In . SVG Version: 6.00 Build 0)  -->

<svg
   version="1.1"
   id="Layer_1"
   x="0px"
   y="0px"
   viewBox="0 0 141.47 180"
   xml:space="preserve"
   sodipodi:docname="Caisse_nationale_d'épargne_et_de_prévoyance(CNEP_Banque)-01-01.svg"
   width="141.47"
   height="180"
   inkscape:version="1.2.2 (732a01da63, 2022-12-09)"
   xmlns:inkscape="http://www.inkscape.org/namespaces/inkscape"
   xmlns:sodipodi="http://sodipodi.sourceforge.net/DTD/sodipodi-0.dtd"
   xmlns="http://www.w3.org/2000/svg"
   xmlns:svg="http://www.w3.org/2000/svg"><defs
   id="defs8088" /><sodipodi:namedview
   id="namedview8086"
   pagecolor="#505050"
   bordercolor="#eeeeee"
   borderopacity="1"
   inkscape:showpageshadow="0"
   inkscape:pageopacity="0"
   inkscape:pagecheckerboard="0"
   inkscape:deskcolor="#505050"
   showgrid="false"
   inkscape:zoom="2.1"
   inkscape:cx="70.47619"
   inkscape:cy="90"
   inkscape:window-width="1366"
   inkscape:window-height="705"
   inkscape:window-x="-8"
   inkscape:window-y="-8"
   inkscape:window-maximized="1"
   inkscape:current-layer="Layer_1" />
<style
   type="text/css"
   id="style8047">
	.st0{fill:#E81E25;}
	.st1{fill:#939393;}
</style>
<g
   id="g8083"
   transform="translate(-54.26,-35)">
	<g
   id="g8055">
		<path
   class="st0"
   d="M 124.12,35 54.26,150.79 h 141.47 c 0,0 -51.81,-83.35 -52.77,-84.95 -1.31,-1.83 -2.4,-2.26 -18.84,-30.84 z"
   id="path8049" />
		<polygon
   class="st1"
   points="181.91,128.54 139.44,60.8 96.41,128.61 "
   id="polygon8051" />
		<polygon
   points="188.2,123.03 147.38,58.74 105.4,123.03 "
   id="polygon8053" />
	</g>
	<g
   id="g8081">
		<g
   id="g8065">
			<path
   d="m 89.4,162.82 c 0.64,-1.23 1.03,-2.41 1.63,-3.74 -2.96,-0.69 -5.61,-0.87 -8.38,-0.94 -5.55,0.12 -20.38,0.96 -20.97,11.1 0.12,10.26 16.02,10.65 20.3,10.52 4.28,-0.13 7.97,-0.65 8.61,-0.76 -0.29,-1.15 -0.97,-3.2 -1.05,-3.6 -2.6,0.37 -5.83,0.81 -7.16,0.76 -1.33,-0.05 -11.77,-0.15 -11.87,-7.2 -0.1,-7.06 11.26,-6.94 12.38,-6.96 1.1,-0.02 5.26,0.36 6.51,0.82 z"
   id="path8057" />
			<path
   d="m 127.09,158.6 v 20.94 c 0,0 -5.8,0 -8.66,0 -6.63,-6.66 -12.46,-12.9 -14.73,-15.83 0.28,4.55 0.28,12.59 0.19,15.83 -1.64,0 -7.5,0 -7.5,0 V 158.6 c 0,0 7.53,0.03 9.98,0.03 4.38,4.44 11.16,11.11 13.85,15.17 -0.69,-5.48 -0.78,-8.81 -0.69,-15.21"
   id="path8059" />
			<polygon
   points="158.24,179.54 158.24,175.89 142.9,175.89 142.89,170.53 156.54,170.53 156.54,166.88 142.9,166.88 142.9,162.25 157.51,162.25 157.51,158.6 134.62,158.6 134.62,179.54 "
   id="polygon8061" />
			<path
   d="m 173.48,158.38 c -2.67,-0.05 -9.4,0.46 -9.4,0.46 0,0.43 0,20.7 0,20.7 h 8.28 c 0,0 0,-5.21 0,-7.53 4.46,-0.04 18.35,0.41 18.27,-7.31 -0.44,-7.03 -14.49,-6.27 -17.15,-6.32 z m -1.12,10.29 v -6.64 c 0,0 2.08,-0.2 2.92,-0.25 0.83,-0.05 7.23,-0.05 7.33,3.16 0.06,3.71 -7.04,3.64 -10.25,3.73 z"
   id="path8063" />
		</g>
		<g
   id="g8079">
			<path
   d="m 66.46,182.86 c 1.59,-0.3 4.45,-0.52 7.27,-0.52 3.3,0 5.64,0.34 7.55,1.49 1.75,1.01 2.86,2.69 2.86,4.85 0,2.24 -1.35,4.37 -4.29,5.41 v 0.11 c 3.1,0.78 5.16,3.02 5.16,6.12 0,2.28 -0.99,4.03 -2.54,5.26 -1.87,1.53 -4.93,2.35 -9.97,2.35 -2.7,0 -4.73,-0.15 -6.04,-0.37 z m 5.76,9.74 h 1.71 c 2.82,0 4.41,-1.34 4.41,-3.25 0,-1.9 -1.35,-3.06 -3.89,-3.06 -1.11,0 -1.79,0.07 -2.22,0.19 v 6.12 z m 0,11.16 c 0.52,0.11 1.11,0.11 1.95,0.11 2.58,0 4.77,-1.08 4.77,-3.7 0,-2.54 -2.22,-3.66 -4.93,-3.66 h -1.79 z"
   id="path8067" />
			<path
   d="m 103.96,203.35 c 0,1.64 0.08,3.25 0.32,4.33 h -5.2 l -0.36,-1.83 h -0.08 c -1.23,1.46 -3.06,2.2 -5.2,2.2 -3.65,0 -5.92,-2.58 -5.92,-5.56 0,-4.78 4.53,-6.94 10.65,-6.94 v -0.3 c 0,-1.12 -0.64,-2.39 -3.3,-2.39 -1.87,0 -3.69,0.56 -4.97,1.27 l -1.03,-3.51 c 1.27,-0.67 3.77,-1.57 7.07,-1.57 6.32,0 8.03,3.66 8.03,7.8 v 6.5 z m -5.64,-4.36 c -2.74,0 -5.16,0.67 -5.16,2.95 0,1.53 1.03,2.24 2.22,2.24 1.31,0 2.46,-0.78 2.86,-1.94 0.08,-0.26 0.08,-0.6 0.08,-0.9 z"
   id="path8069" />
			<path
   d="m 108.41,195.18 c 0,-2.2 -0.08,-4.07 -0.16,-5.75 h 5.01 l 0.28,2.39 h 0.12 c 0.83,-1.23 2.74,-2.76 5.64,-2.76 3.89,0 6.44,2.58 6.44,7.54 v 11.09 h -5.8 v -10.53 c 0,-2.09 -0.75,-3.66 -2.74,-3.66 -1.43,0 -2.34,0.93 -2.74,1.98 -0.16,0.37 -0.24,0.93 -0.24,1.49 v 10.71 h -5.8 v -12.5 z"
   id="path8071" />
			<path
   d="m 141.78,205.59 h -0.08 c -1.07,1.57 -2.82,2.46 -5.16,2.46 -4.05,0 -7.35,-3.7 -7.35,-9.22 0,-6.42 3.93,-9.78 7.99,-9.78 2.11,0 3.81,0.78 4.85,2.43 l 0.08,0.04 0.2,-2.09 h 5.4 c -0.04,1.75 -0.12,3.62 -0.12,5.56 V 215 h -5.8 v -9.41 z m 0,-8.81 c 0,-0.3 -0.04,-0.67 -0.12,-0.97 -0.32,-1.34 -1.47,-2.43 -2.98,-2.43 -2.42,0 -3.66,2.13 -3.66,5.19 0,3.14 1.35,5.15 3.62,5.15 1.39,0 2.58,-0.9 2.98,-2.28 0.12,-0.37 0.16,-0.86 0.16,-1.23 z"
   id="path8073" />
			<path
   d="m 169.11,201.9 c 0,2.28 0.08,4.22 0.16,5.79 h -5.01 l -0.28,-2.39 h -0.12 c -0.79,1.16 -2.54,2.76 -5.6,2.76 -3.85,0 -6.32,-2.39 -6.32,-7.8 v -10.83 h 5.8 v 10 c 0,2.61 0.79,4.18 2.7,4.18 1.43,0 2.26,-0.93 2.62,-1.75 0.16,-0.34 0.24,-0.82 0.24,-1.31 v -11.12 h 5.8 v 12.47 z"
   id="path8075" />
			<path
   d="m 178.25,200.37 c 0.12,2.5 2.38,3.58 5.05,3.58 1.87,0 3.42,-0.26 4.85,-0.71 l 0.79,3.73 c -1.83,0.67 -4.13,1.05 -6.56,1.05 -6.16,0 -9.69,-3.51 -9.69,-9.18 0,-5.08 3.18,-9.78 9.18,-9.78 5.68,0 8.06,4.14 8.06,8.96 0,1.08 -0.12,1.9 -0.2,2.35 z m 6.31,-3.77 c 0,-1.64 -0.64,-3.81 -3.02,-3.81 -2.26,0 -3.22,2.2 -3.34,3.81 z"
   id="path8077" />
		</g>
	</g>
</g>
</svg>
