<?xml version="1.0" encoding="utf-8"?>
<!-- Generator: Adobe Illustrator 25.2.0, SVG Export Plug-In . SVG Version: 6.00 Build 0)  -->
<svg version="1.1" id="Layer_1" xmlns="http://www.w3.org/2000/svg" xmlns:xlink="http://www.w3.org/1999/xlink" x="0px" y="0px"
	 viewBox="0 0 250 250" style="enable-background:new 0 0 250 250;" xml:space="preserve">
<style type="text/css">
	.st0{fill:#00368C;}
</style>
<g>
	<path class="st0" d="M168.69,39l0.43-1.81c0,0-85.13,0-99.61,0L70.08,35c0,0,92.24,0,99.4,0c1.21,1.38,2.39,2.72,3.57,4H168.69z"/>
	<path class="st0" d="M166.8,46.59c0,0-84.6,0-99.74,0l0.8-3.05h109.42c1.76,1.85,3.48,3.59,5.14,5.25H166.8V46.59z"/>
	<path class="st0" d="M164.46,55.58c0,0-82.69,0-99.76,0l0.65-2.49h121.47c1.61,1.55,3.17,3.02,4.66,4.42h-27.71L164.46,55.58z"/>
	<path class="st0" d="M162.12,65.03c0,0-83.43,0-99.83,0l0.72-2.49h133.31c1.88,1.61,3.64,3.14,5.25,4.61h-39.45V65.03z"/>
	<path class="st0" d="M97.12,74.31c0,0-27.34,0-37.3,0l0.72-2.75h145.15c1.33,1.55,2.53,3.08,3.57,4.63H96.5L97.12,74.31z"/>
	<path class="st0" d="M94.53,83.54c0,0-26.79,0-37.12,0l0.71-2.72h153.73c0.69,1.53,1.24,3.11,1.64,4.78H94.53V83.54z"/>
	<path class="st0" d="M139.44,120.39c0,0-78.17,0-91.65,0l0.53-2.02h158.31c-0.95,1.45-1.96,2.8-3.02,4.07h-64.17V120.39z"/>
	<path class="st0" d="M83.46,129.88c0,0-28.58,0-38.14,0l0.64-2.47h152.75c-1.81,1.56-3.69,2.93-5.59,4.13H83.46V129.88z"/>
	<path class="st0" d="M81.24,139.01c0,0-26.95,0-38.3,0l0.69-2.63h150.73c0.81,0.55,1.65,1.17,2.52,1.85
		c0.01,0.01,0.02,0.02,0.04,0.03c0.03,0.02,0.06,0.05,0.09,0.07c0.09,0.08,0.19,0.15,0.29,0.23c0.96,0.76,1.93,1.6,2.87,2.53H81.24
		V139.01z"/>
	<path class="st0" d="M79.11,148.13c0,0-27.99,0-38.55,0l0.65-2.49h162.76c0.92,1.37,1.78,2.89,2.52,4.58H78.63L79.11,148.13z"/>
	<path class="st0" d="M76.26,157.57c0,0-29.5,0-38.17,0l0.71-2.72h169.31c0.4,1.5,0.73,3.11,0.97,4.83H76.26V157.57z"/>
	<path class="st0" d="M72.98,210.64h110.05c-5.72,2.87-11.76,4.36-17.45,4.36c-19.61,0-88.84,0-88.84,0L72.98,210.64z"/>
	<path class="st0" d="M194.96,202.03c-1.49,1.48-3.07,2.85-4.69,4.09H69.08l-3.52-4.09H194.96z"/>
	<path class="st0" d="M202.37,192.52c-0.83,1.39-1.71,2.73-2.65,3.99H60.79l-3.44-3.99H202.37z"/>
	<path class="st0" d="M206.67,183.21c-0.46,1.32-0.95,2.61-1.5,3.86H52.65l-3.33-3.86H206.67z"/>
	<path class="st0" d="M208.92,173.91c-0.23,1.55-0.53,3.07-0.88,4.54H45.21l-3.92-4.54H208.92z"/>
	<path class="st0" d="M209.54,166.54c-0.01,0.71-0.04,1.4-0.09,2.1H73.8v-1.96c0,0-25,0-38.08,0l0.59-2.26H209.5c0,0,0,0,0,0.01
		c0.01,0.21,0.02,0.42,0.02,0.64C209.53,165.54,209.54,166.04,209.54,166.54z"/>
	<path class="st0" d="M141.72,111.18c0,0-78.76,0-91.52,0l0.64-2.44h160.54c-0.55,1.57-1.18,3.07-1.85,4.5h-68.44L141.72,111.18z"/>
	<path class="st0" d="M213.65,99.48c-0.24,1.56-0.53,3.05-0.88,4.5h-69.64v-1.8c0,0-76.34,0-90.59,0l0.71-2.7H213.65z"/>
	<path class="st0" d="M214.28,92.66c-0.03,0.74-0.07,1.47-0.12,2.19h-68.98l0.64-1.93c0,0-70.22,0-90.87,0l0.67-2.57H214.2
		C214.25,91.1,214.28,91.87,214.28,92.66z"/>
</g>
</svg>
