<?xml version="1.0" encoding="UTF-8" standalone="no"?>
<!-- Generator: Adobe Illustrator 25.2.0, SVG Export Plug-In . SVG Version: 6.00 Build 0)  -->

<svg
   version="1.1"
   id="Layer_1"
   x="0px"
   y="0px"
   viewBox="0 0 178.56 180"
   xml:space="preserve"
   sodipodi:docname="Fransabank_el_Djazair-01-01.svg"
   width="178.56"
   height="180"
   inkscape:version="1.2.2 (732a01da63, 2022-12-09)"
   xmlns:inkscape="http://www.inkscape.org/namespaces/inkscape"
   xmlns:sodipodi="http://sodipodi.sourceforge.net/DTD/sodipodi-0.dtd"
   xmlns="http://www.w3.org/2000/svg"
   xmlns:svg="http://www.w3.org/2000/svg"><defs
   id="defs8558" /><sodipodi:namedview
   id="namedview8556"
   pagecolor="#505050"
   bordercolor="#eeeeee"
   borderopacity="1"
   inkscape:showpageshadow="0"
   inkscape:pageopacity="0"
   inkscape:pagecheckerboard="0"
   inkscape:deskcolor="#505050"
   showgrid="false"
   inkscape:zoom="2.1"
   inkscape:cx="89.047619"
   inkscape:cy="90"
   inkscape:window-width="1366"
   inkscape:window-height="705"
   inkscape:window-x="-8"
   inkscape:window-y="-8"
   inkscape:window-maximized="1"
   inkscape:current-layer="Layer_1" />
<style
   type="text/css"
   id="style8511">
	.st0{fill:#00368C;}
</style>
<g
   id="g8553"
   transform="translate(-35.72,-35)">
	<path
   class="st0"
   d="m 168.69,39 0.43,-1.81 c 0,0 -85.13,0 -99.61,0 L 70.08,35 c 0,0 92.24,0 99.4,0 1.21,1.38 2.39,2.72 3.57,4 z"
   id="path8513" />
	<path
   class="st0"
   d="m 166.8,46.59 c 0,0 -84.6,0 -99.74,0 l 0.8,-3.05 h 109.42 c 1.76,1.85 3.48,3.59 5.14,5.25 H 166.8 Z"
   id="path8515" />
	<path
   class="st0"
   d="m 164.46,55.58 c 0,0 -82.69,0 -99.76,0 l 0.65,-2.49 h 121.47 c 1.61,1.55 3.17,3.02 4.66,4.42 h -27.71 z"
   id="path8517" />
	<path
   class="st0"
   d="m 162.12,65.03 c 0,0 -83.43,0 -99.83,0 l 0.72,-2.49 h 133.31 c 1.88,1.61 3.64,3.14 5.25,4.61 h -39.45 z"
   id="path8519" />
	<path
   class="st0"
   d="m 97.12,74.31 c 0,0 -27.34,0 -37.3,0 l 0.72,-2.75 h 145.15 c 1.33,1.55 2.53,3.08 3.57,4.63 H 96.5 Z"
   id="path8521" />
	<path
   class="st0"
   d="m 94.53,83.54 c 0,0 -26.79,0 -37.12,0 l 0.71,-2.72 h 153.73 c 0.69,1.53 1.24,3.11 1.64,4.78 H 94.53 Z"
   id="path8523" />
	<path
   class="st0"
   d="m 139.44,120.39 c 0,0 -78.17,0 -91.65,0 l 0.53,-2.02 h 158.31 c -0.95,1.45 -1.96,2.8 -3.02,4.07 h -64.17 z"
   id="path8525" />
	<path
   class="st0"
   d="m 83.46,129.88 c 0,0 -28.58,0 -38.14,0 l 0.64,-2.47 h 152.75 c -1.81,1.56 -3.69,2.93 -5.59,4.13 H 83.46 Z"
   id="path8527" />
	<path
   class="st0"
   d="m 81.24,139.01 c 0,0 -26.95,0 -38.3,0 l 0.69,-2.63 h 150.73 c 0.81,0.55 1.65,1.17 2.52,1.85 0.01,0.01 0.02,0.02 0.04,0.03 0.03,0.02 0.06,0.05 0.09,0.07 0.09,0.08 0.19,0.15 0.29,0.23 0.96,0.76 1.93,1.6 2.87,2.53 H 81.24 Z"
   id="path8529" />
	<path
   class="st0"
   d="m 79.11,148.13 c 0,0 -27.99,0 -38.55,0 l 0.65,-2.49 h 162.76 c 0.92,1.37 1.78,2.89 2.52,4.58 H 78.63 Z"
   id="path8531" />
	<path
   class="st0"
   d="m 76.26,157.57 c 0,0 -29.5,0 -38.17,0 l 0.71,-2.72 h 169.31 c 0.4,1.5 0.73,3.11 0.97,4.83 H 76.26 Z"
   id="path8533" />
	<path
   class="st0"
   d="m 72.98,210.64 h 110.05 c -5.72,2.87 -11.76,4.36 -17.45,4.36 -19.61,0 -88.84,0 -88.84,0 z"
   id="path8535" />
	<path
   class="st0"
   d="m 194.96,202.03 c -1.49,1.48 -3.07,2.85 -4.69,4.09 H 69.08 l -3.52,-4.09 z"
   id="path8537" />
	<path
   class="st0"
   d="m 202.37,192.52 c -0.83,1.39 -1.71,2.73 -2.65,3.99 H 60.79 l -3.44,-3.99 z"
   id="path8539" />
	<path
   class="st0"
   d="m 206.67,183.21 c -0.46,1.32 -0.95,2.61 -1.5,3.86 H 52.65 l -3.33,-3.86 z"
   id="path8541" />
	<path
   class="st0"
   d="m 208.92,173.91 c -0.23,1.55 -0.53,3.07 -0.88,4.54 H 45.21 l -3.92,-4.54 z"
   id="path8543" />
	<path
   class="st0"
   d="m 209.54,166.54 c -0.01,0.71 -0.04,1.4 -0.09,2.1 H 73.8 v -1.96 c 0,0 -25,0 -38.08,0 l 0.59,-2.26 H 209.5 c 0,0 0,0 0,0.01 0.01,0.21 0.02,0.42 0.02,0.64 0.01,0.47 0.02,0.97 0.02,1.47 z"
   id="path8545" />
	<path
   class="st0"
   d="m 141.72,111.18 c 0,0 -78.76,0 -91.52,0 l 0.64,-2.44 h 160.54 c -0.55,1.57 -1.18,3.07 -1.85,4.5 h -68.44 z"
   id="path8547" />
	<path
   class="st0"
   d="m 213.65,99.48 c -0.24,1.56 -0.53,3.05 -0.88,4.5 h -69.64 v -1.8 c 0,0 -76.34,0 -90.59,0 l 0.71,-2.7 z"
   id="path8549" />
	<path
   class="st0"
   d="m 214.28,92.66 c -0.03,0.74 -0.07,1.47 -0.12,2.19 h -68.98 l 0.64,-1.93 c 0,0 -70.22,0 -90.87,0 l 0.67,-2.57 H 214.2 c 0.05,0.75 0.08,1.52 0.08,2.31 z"
   id="path8551" />
</g>
</svg>
