<?xml version="1.0" encoding="UTF-8" standalone="no"?>
<!-- Generator: Adobe Illustrator 25.2.0, SVG Export Plug-In . SVG Version: 6.00 Build 0)  -->

<svg
   version="1.1"
   id="Layer_1"
   x="0px"
   y="0px"
   viewBox="0 0 90.809998 91.169998"
   xml:space="preserve"
   sodipodi:docname="Gulf_Bank_Algeria-01.svg"
   width="90.809998"
   height="91.169998"
   inkscape:version="1.2.2 (732a01da63, 2022-12-09)"
   xmlns:inkscape="http://www.inkscape.org/namespaces/inkscape"
   xmlns:sodipodi="http://sodipodi.sourceforge.net/DTD/sodipodi-0.dtd"
   xmlns="http://www.w3.org/2000/svg"
   xmlns:svg="http://www.w3.org/2000/svg"><defs
   id="defs8749" /><sodipodi:namedview
   id="namedview8747"
   pagecolor="#505050"
   bordercolor="#eeeeee"
   borderopacity="1"
   inkscape:showpageshadow="0"
   inkscape:pageopacity="0"
   inkscape:pagecheckerboard="0"
   inkscape:deskcolor="#505050"
   showgrid="false"
   inkscape:zoom="2.1"
   inkscape:cx="64.761905"
   inkscape:cy="93.809524"
   inkscape:window-width="1366"
   inkscape:window-height="705"
   inkscape:window-x="-8"
   inkscape:window-y="-8"
   inkscape:window-maximized="1"
   inkscape:current-layer="Layer_1" />
<style
   type="text/css"
   id="style8683">
	.st0{fill:#015289;}
	.st1{fill:url(#SVGID_1_);}
	.st2{fill:#FFFFFF;}
</style>
<g
   id="g8744"
   transform="translate(-77.54,-65.35)">
	<g
   id="g8710">
		<g
   id="g8700">
			<g
   id="g8687">
				<path
   class="st0"
   d="M 168.34,156.52 H 77.54 V 65.35 h 90.81 v 91.17 z m -89.68,-1.11 h 88.57 V 66.47 H 78.66 Z"
   id="path8685" />
			</g>
			<g
   id="g8698">
				<path
   class="st0"
   d="m 161.52,73.28 v 76.2 H 85.03 c 0,-11.95 2.59,-24.24 7.92,-35.37 0,-0.01 0.01,-0.02 0.01,-0.03 7.09,-14.83 19.03,-27.59 36.15,-34.72 0.04,-0.02 0.07,-0.03 0.11,-0.04 9.25,-3.84 20,-6.04 32.3,-6.04 z"
   id="path8689" />
				<radialGradient
   id="SVGID_1_"
   cx="115.1185"
   cy="101.1341"
   r="21.990299"
   gradientUnits="userSpaceOnUse">
					<stop
   offset="0"
   style="stop-color:#FFFFFF"
   id="stop8691" />
					<stop
   offset="1"
   style="stop-color:#FFFFFF;stop-opacity:0"
   id="stop8693" />
				</radialGradient>
				<path
   class="st1"
   d="m 137.28,97.77 c 0,13.9 -11.27,25.18 -25.18,25.18 -7.67,0 -14.53,-3.43 -19.15,-8.84 0,-0.01 0.01,-0.02 0.01,-0.03 7.09,-14.83 19.03,-27.59 36.15,-34.72 0.04,-0.02 0.07,-0.03 0.11,-0.04 4.96,4.59 8.06,11.16 8.06,18.45 z"
   id="path8696"
   style="fill:url(#SVGID_1_)" />
			</g>
		</g>
		<g
   id="g8708">
			<path
   class="st2"
   d="m 109.19,125.64 h -2.01 l -8.96,20.08 h 2.69 l 2.31,-6.2 h 7.32 l 2.68,6.2 h 4.4 z m -5.09,12.23 2.89,-6.78 3.21,6.78 z"
   id="path8702" />
			<path
   class="st2"
   d="m 135.02,136.86 h 3.63 c 0,0 0,4.04 0,6.71 -0.25,0.96 -3.97,2.45 -7.8,2.45 -3.6,0 -12.91,-2.75 -12.57,-11.55 -0.01,-7.9 9.31,-9.9 13.52,-9.89 3.2,0 5.3,0.77 6.46,1.93 0.01,1.22 0.04,2.6 0.04,2.6 l -1.51,-0.03 c 0,0 -1.03,-2.57 -5.11,-2.57 -5.5,0.21 -9.16,3.51 -9.06,8.85 0.32,6.3 4.36,8.82 7.99,8.82 4.66,-0.08 4.4,-1.03 4.36,-2.45 -0.03,-1.41 0.05,-4.87 0.05,-4.87 z"
   id="path8704" />
			<path
   class="st2"
   d="m 153.24,135.18 c -0.29,-0.07 -0.31,-0.47 -0.03,-0.57 2.81,-1.07 4.15,-3 4.02,-4.46 -0.15,-3.16 -2.63,-4.5 -6.75,-4.5 -4.36,0 -7.95,0 -7.95,0 v 20.08 c 9.05,0 15.05,0.31 15.19,-5.84 0.01,-3.55 -2.51,-4.26 -4.48,-4.71 z m -6.17,-7.88 c 4.07,0 5.56,1.15 5.56,3.35 0,2.2 -2.15,3.35 -5.56,3.35 0,-1.43 0,-6.7 0,-6.7 z m 0,16.91 c 0,-1.78 0,-8.29 0,-8.29 4.32,0 5.89,1.42 5.89,4.14 0,2.73 -2.29,4.15 -5.89,4.15 z"
   id="path8706" />
		</g>
	</g>
	
</g>
</svg>
