<?xml version="1.0" encoding="utf-8"?>
<!-- Generator: Adobe Illustrator 25.2.0, SVG Export Plug-In . SVG Version: 6.00 Build 0)  -->
<svg version="1.1" id="Layer_1" xmlns="http://www.w3.org/2000/svg" xmlns:xlink="http://www.w3.org/1999/xlink" x="0px" y="0px"
	 viewBox="0 0 250 250" style="enable-background:new 0 0 250 250;" xml:space="preserve">
<style type="text/css">
	.st0{fill:#015289;}
	.st1{fill:url(#SVGID_1_);}
	.st2{fill:#FFFFFF;}
</style>
<g>
	<g>
		<g>
			<g>
				<path class="st0" d="M168.34,156.52H77.54V65.35h90.81V156.52z M78.66,155.41h88.57V66.47H78.66V155.41z"/>
			</g>
			<g>
				<path class="st0" d="M161.52,73.28v76.2H85.03c0-11.95,2.59-24.24,7.92-35.37c0-0.01,0.01-0.02,0.01-0.03
					c7.09-14.83,19.03-27.59,36.15-34.72c0.04-0.02,0.07-0.03,0.11-0.04C138.47,75.48,149.22,73.28,161.52,73.28z"/>
				<radialGradient id="SVGID_1_" cx="115.1185" cy="101.1341" r="21.9903" gradientUnits="userSpaceOnUse">
					<stop  offset="0" style="stop-color:#FFFFFF"/>
					<stop  offset="1" style="stop-color:#FFFFFF;stop-opacity:0"/>
				</radialGradient>
				<path class="st1" d="M137.28,97.77c0,13.9-11.27,25.18-25.18,25.18c-7.67,0-14.53-3.43-19.15-8.84c0-0.01,0.01-0.02,0.01-0.03
					c7.09-14.83,19.03-27.59,36.15-34.72c0.04-0.02,0.07-0.03,0.11-0.04C134.18,83.91,137.28,90.48,137.28,97.77z"/>
			</g>
		</g>
		<g>
			<path class="st2" d="M109.19,125.64h-2.01l-8.96,20.08h2.69l2.31-6.2h7.32l2.68,6.2h4.4L109.19,125.64z M104.1,137.87l2.89-6.78
				l3.21,6.78H104.1z"/>
			<path class="st2" d="M135.02,136.86h3.63c0,0,0,4.04,0,6.71c-0.25,0.96-3.97,2.45-7.8,2.45c-3.6,0-12.91-2.75-12.57-11.55
				c-0.01-7.9,9.31-9.9,13.52-9.89c3.2,0,5.3,0.77,6.46,1.93c0.01,1.22,0.04,2.6,0.04,2.6l-1.51-0.03c0,0-1.03-2.57-5.11-2.57
				c-5.5,0.21-9.16,3.51-9.06,8.85c0.32,6.3,4.36,8.82,7.99,8.82c4.66-0.08,4.4-1.03,4.36-2.45
				C134.94,140.32,135.02,136.86,135.02,136.86z"/>
			<path class="st2" d="M153.24,135.18c-0.29-0.07-0.31-0.47-0.03-0.57c2.81-1.07,4.15-3,4.02-4.46c-0.15-3.16-2.63-4.5-6.75-4.5
				c-4.36,0-7.95,0-7.95,0v20.08c9.05,0,15.05,0.31,15.19-5.84C157.73,136.34,155.21,135.63,153.24,135.18z M147.07,127.3
				c4.07,0,5.56,1.15,5.56,3.35c0,2.2-2.15,3.35-5.56,3.35C147.07,132.57,147.07,127.3,147.07,127.3z M147.07,144.21
				c0-1.78,0-8.29,0-8.29c4.32,0,5.89,1.42,5.89,4.14C152.96,142.79,150.67,144.21,147.07,144.21z"/>
		</g>
	</g>
	<g>
		<circle class="st0" cx="213.79" cy="183.58" r="1"/>
		<path class="st0" d="M214.44,169.13c-0.31,0-0.56,0.25-0.56,0.56v5c0,1.33,0,2.06-1.96,2.06c-1.98,0.07-5.07,0.02-5.9,0
			c-0.08,0-0.15-0.02-0.23-0.05c-0.44-0.21-1.48-0.82-1.46-1.87c0.04-1.74,0-5.25,0-5.28c0-0.31-0.25-0.55-0.56-0.55c0,0,0,0-0.01,0
			c-0.31,0-0.56,0.26-0.55,0.56c0,0.03,0.03,3.01,0.01,4.83c0,0.37-0.04,0.54-0.06,0.81c-0.08,0.97-0.35,1.48-1.92,1.5
			c-0.83,0.01-4.42,0.02-8.93,0.02c2.29-2.14,2.19-3.89,1.88-4.79c-0.52-1.52-2.19-2.5-4.26-2.5l-14.35,0
			c0.29-0.86,2.55-3.45,4.37-5.33l-1.65-0.02c-2.23,2.31-4.29,4.78-3.8,5.92c0.07,0.16,0.3,0.54,0.92,0.54h14.5
			c1.56,0,2.84,0.7,3.2,1.75c0.42,1.23-0.39,2.91-2.35,4.43l0,0c-8.5,0-19.4-0.01-21.91-0.02c-0.29,0-0.53,0.24-0.53,0.53l0,0.05
			c0,0.29,0.23,0.53,0.53,0.53c2.58,0,14.07,0.02,22.67,0.02c4.88,0,8.84,0,9.72-0.02c1.15-0.02,1.8-0.35,2.18-0.8
			c0.2-0.24,0.54-0.25,0.77-0.04c0.03,0.03,0.06,0.06,0.09,0.08c0.65,0.55,1.48,0.82,2.33,0.83c0.7,0.01,1.69,0.02,2.69,0.02
			c0.91,0,1.85-0.01,2.62-0.04c3.06,0,3.06-1.84,3.06-3.18v-5C215,169.38,214.75,169.13,214.44,169.13z"/>
		<rect x="161.5" y="164.65" class="st0" width="1.75" height="13.29"/>
		<path class="st0" d="M156.49,164.72v8.65c0,2.61-0.76,3.45-3.11,3.45h-4.8c-0.16-3.18-1.04-5.42-2.64-6.65
			c-2.22-1.7-5.1-1.02-6.48-0.69l-0.07,0.02c-0.3,0.07-0.49,0.37-0.41,0.67c0.07,0.3,0.38,0.49,0.67,0.41l0.07-0.02
			c1.22-0.29,3.75-0.89,5.54,0.49c1.32,1.01,2.06,2.96,2.2,5.76H132.7v-12h-1.51v12h-6.35v-7.76h-1.69v7.76h-10.29v-10.19
			c-0.01-1.1-0.65-2.44-3.63-2.58c-1.19-0.05-2.49,0.36-2.99,1.36c-0.17,0.34,0.08,0.76,0.46,0.79l0.07,0.01
			c0.2,0.02,0.37-0.11,0.46-0.29c0.34-0.67,1.47-0.77,1.94-0.75c2.55,0.12,2.56,1.14,2.56,1.47v3.8c-0.18,0-0.35,0-0.54,0
			c-3.52,0-9.4-0.03-9.61,6.46c0.07,1.95,0.76,3.52,2.07,4.66c1.78,1.54,4.35,1.94,5.99,1.94c0.09,0,0.18,0,0.27,0
			c0.32-0.01,0.57-0.29,0.53-0.61l0,0c-0.03-0.3-0.28-0.52-0.58-0.51c-1.31,0.03-3.82-0.23-5.47-1.66
			c-1.06-0.92-1.63-2.22-1.69-3.81c0.16-4.89,3.83-5.34,8.29-5.34c0.07,0,0.13,0,0.2,0c0.19,0,0.37,0,0.54,0v6.39h41.64
			c3,0,4.23-1.32,4.23-4.57v-8.65H156.49z"/>
		<circle class="st0" cx="107.46" cy="177.22" r="0.93"/>
		<circle class="st0" cx="73.77" cy="183.67" r="0.93"/>
		<circle class="st0" cx="61.28" cy="165.43" r="0.93"/>
		<circle class="st0" cx="121.82" cy="183.72" r="0.93"/>
		<circle class="st0" cx="126.7" cy="183.72" r="0.93"/>
		<rect x="93.1" y="164.5" class="st0" width="1.81" height="13.42"/>
		<path class="st0" d="M89.28,164.05l-1.12-0.01c-0.04,3.92-0.02,7.59-0.01,9.36c0,0.47,0.01,0.81,0.01,1
			c0,0.71-0.79,2.26-3.13,2.27c-0.7,0-2.54,0.01-4.9,0.01c-0.09-3.17-0.98-5.43-2.66-6.69c-1.17-0.88-3.33-1.7-6.95-0.63l0.32,1.07
			c2.51-0.74,4.57-0.59,5.96,0.45c1.39,1.04,2.13,3,2.21,5.79c-6.06,0-14.61-0.01-16.86-0.01v-6.89h-1.12v11.41
			c0,0.28-0.06,0.67-0.36,0.96c-0.24,0.23-0.61,0.38-1.1,0.44c-0.36,0.04-0.64,0.32-0.65,0.69l0,0c-0.01,0.24,0.21,0.43,0.45,0.39
			c0.62-0.11,1.7-0.35,2.08-0.72c0.58-0.56,0.7-1.27,0.7-1.76v-3.41c2.09,0,9.64,0.01,15.57,0.01c3.47,0,6.39,0,7.31-0.01
			c3.2-0.02,4.24-2.29,4.24-3.39c0-0.19,0-0.53-0.01-1.01C89.26,171.63,89.23,167.96,89.28,164.05z"/>
		<rect x="54.17" y="164.5" class="st0" width="1.5" height="13.42"/>
		<path class="st0" d="M48.53,169.58c-0.22,0-0.4,0.18-0.4,0.4v5.27c0,0.72-0.18,0.97-0.31,1.1c-0.33,0.32-1.08,0.45-2.36,0.4
			c-1.94-0.07-5.56-0.03-6.94-0.01v-6.89c0-0.16-0.13-0.28-0.28-0.28h-0.55c-0.16,0-0.28,0.13-0.28,0.28v8.92
			c0,0.33,0.02,0.66,0.05,1c0.06,0.84,0.11,1.62-0.27,2.01c-0.21,0.21-0.56,0.34-1.06,0.39c-0.6,0.06-1.08,0.52-1.12,1.12l0,0
			c0.21,0.01,0.41,0.02,0.6,0.02c1.11,0,1.87-0.24,2.37-0.74c0.74-0.75,0.67-1.83,0.59-2.88c-0.02-0.31-0.04-0.62-0.04-0.92v-0.92
			c1.36-0.02,4.97-0.06,6.89,0.01c0.18,0.01,0.36,0.01,0.52,0.01c1.33,0,2.14-0.22,2.65-0.72c0.45-0.43,0.66-1.04,0.66-1.9v-5.27
			c0-0.22-0.18-0.4-0.4-0.4H48.53z"/>
		<g>
			<path class="st0" d="M42.74,166.55L42.74,166.55c0.04-0.42,0.79-0.81,1.24-0.86c-0.57-0.3-0.87-0.74-0.86-1.43
				c0.01-0.36,0.07-0.67,0.31-0.96c0.94-1.17,2.91,0.13,2.91,0.13l0,0.03c0,0-2-0.3-2.46,0.33c-0.11,0.15-0.17,0.19-0.2,0.48
				c-0.08,0.65,0.48,1.44,2.66,1.53l0.24,0.33c-0.4,0.02-0.73,0.03-1.17,0.06C44.58,166.24,43.74,166.17,42.74,166.55z"/>
		</g>
	</g>
</g>
</svg>
