<?xml version="1.0" encoding="utf-8"?>
<!-- Generator: Adobe Illustrator 25.2.0, SVG Export Plug-In . SVG Version: 6.00 Build 0)  -->
<svg version="1.1" id="Layer_1" xmlns="http://www.w3.org/2000/svg" xmlns:xlink="http://www.w3.org/1999/xlink" x="0px" y="0px"
	 viewBox="0 0 250 250" style="enable-background:new 0 0 250 250;" xml:space="preserve">
<style type="text/css">
	.st0{fill-rule:evenodd;clip-rule:evenodd;fill:#005DA5;}
	.st1{fill-rule:evenodd;clip-rule:evenodd;fill:#C0A075;}
</style>
<g>
	<g>
		<g>
			<polygon class="st0" points="75.04,150.13 73.84,150.13 73.84,145.53 72.19,145.53 72.19,144.44 76.79,144.44 76.79,145.53 
				75.04,145.53 			"/>
			<path class="st0" d="M81.07,150.13h-0.99v-2.52c0-0.33,0-0.77-0.77-0.77c-0.44,0-0.88,0.33-0.88,0.88v2.3h-0.99v-5.59h0.99v2.08
				l0,0c0.11-0.44,0.55-0.77,1.2-0.77c0.88,0,1.42,0.55,1.42,1.53V150.13L81.07,150.13L81.07,150.13z"/>
			<path class="st0" d="M82.82,147.61c0.11-0.44,0.44-0.88,0.88-0.88c0.44,0,0.77,0.33,0.88,0.88H82.82L82.82,147.61L82.82,147.61
				L82.82,147.61z M84.57,148.93c-0.11,0.33-0.44,0.44-0.77,0.44c-0.88,0-0.99-0.77-0.99-0.99h2.85v-0.11c0-1.97-0.99-2.3-1.97-2.3
				c-1.75,0-1.97,1.64-1.97,2.19c0,1.64,0.88,2.19,2.08,2.19c0.77,0,1.42-0.33,1.75-1.31L84.57,148.93L84.57,148.93L84.57,148.93z"
				/>
			<polygon class="st0" points="89.72,147.61 89.72,150.13 88.51,150.13 88.51,144.44 89.72,144.44 89.72,146.74 91.91,146.74 
				91.91,144.44 93.11,144.44 93.11,150.13 91.91,150.13 91.91,147.61 			"/>
			<path class="st0" d="M97.05,148.05c0,0.55-0.11,1.31-0.99,1.31c-0.88,0-0.99-0.77-0.99-1.31c0-0.44,0.11-1.2,0.99-1.2
				C96.94,146.85,97.05,147.61,97.05,148.05L97.05,148.05L97.05,148.05L97.05,148.05z M98.15,148.05c0-1.42-0.99-2.19-2.08-2.19
				c-1.2,0-2.08,0.77-2.08,2.19s0.88,2.19,2.08,2.19C97.05,150.24,98.15,149.48,98.15,148.05L98.15,148.05L98.15,148.05z"/>
			<path class="st0" d="M102.75,150.13h-0.99v-0.55l0,0c-0.33,0.44-0.77,0.77-1.31,0.77c-0.88,0-1.42-0.44-1.42-1.53v-2.85h1.2v2.63
				c0,0.55,0.33,0.77,0.77,0.77c0.33,0,0.77-0.33,0.77-0.99v-2.3h1.2v4.05H102.75L102.75,150.13z"/>
			<path class="st0" d="M106.14,147.29c-0.11-0.33-0.11-0.55-0.77-0.55s-0.77,0.11-0.77,0.44c0,0.55,2.63,0.11,2.63,1.64
				c0,1.2-1.2,1.53-1.97,1.53c-0.88,0-1.97-0.33-1.97-1.53h0.99c0,0.44,0.33,0.55,0.99,0.55c0.44,0,0.55-0.33,0.55-0.44
				c0-0.55-2.52-0.11-2.52-1.64c0-0.55,0.33-1.53,1.64-1.53c0.88,0,1.75,0.33,1.97,1.53H106.14L106.14,147.29L106.14,147.29z"/>
			<path class="st0" d="M108.01,145.97h1.2v4.16h-1.2V145.97L108.01,145.97L108.01,145.97L108.01,145.97z M108.01,144.44h1.2v0.99
				h-1.2V144.44L108.01,144.44L108.01,144.44z"/>
			<path class="st0" d="M113.92,150.13h-0.99v-2.52c0-0.33,0-0.77-0.77-0.77c-0.44,0-0.88,0.33-0.88,0.88v2.3h-0.99v-4.16h0.99v0.55
				l0,0c0.11-0.33,0.44-0.77,1.2-0.77c0.88,0,1.42,0.55,1.42,1.53V150.13L113.92,150.13L113.92,150.13z"/>
			<path class="st0" d="M115.78,148.05c0-0.88,0.44-1.2,0.88-1.2c0.55,0,0.88,0.44,0.88,1.2c0,0.55-0.11,1.2-0.88,1.2
				C116.11,149.15,115.78,148.6,115.78,148.05L115.78,148.05L115.78,148.05L115.78,148.05z M117.75,145.97v0.55l0,0
				c-0.11-0.33-0.44-0.77-1.31-0.77s-1.64,0.77-1.64,2.19s0.77,2.08,1.75,2.08c0.55,0,0.88-0.33,0.99-0.55l0,0v0.55
				c0,0.55-0.33,0.88-0.77,0.88c-0.77,0-0.77-0.11-0.88-0.44h-1.2c0.11,0.88,0.99,1.31,1.97,1.31c1.97,0,2.08-1.2,2.08-1.97v-3.94
				L117.75,145.97L117.75,145.97L117.75,145.97z"/>
			<path class="st0" d="M123.01,147.61h1.42c0.44,0,0.88,0.33,0.88,0.77c0,0.55-0.33,0.88-0.88,0.88h-1.42V147.61L123.01,147.61
				L123.01,147.61L123.01,147.61z M122.02,150.13h2.41c0.99,0,1.31-0.11,1.75-0.44c0.33-0.33,0.44-0.77,0.44-1.2
				c0-0.55-0.11-1.2-0.88-1.31c0.33-0.11,0.77-0.44,0.77-1.2c0-0.55-0.44-1.53-1.75-1.53h-2.63L122.02,150.13L122.02,150.13
				L122.02,150.13L122.02,150.13z M123.01,145.53h1.31c0.55,0,0.88,0.11,0.88,0.55c0,0.44-0.33,0.55-0.88,0.55h-1.31V145.53
				L123.01,145.53L123.01,145.53z"/>
			<path class="st0" d="M129.8,148.6c0,0.55-0.55,0.88-0.99,0.88c-0.11,0-0.44-0.11-0.44-0.55c0-0.44,0.33-0.55,0.77-0.55
				s0.55-0.11,0.77-0.33v0.55H129.8L129.8,148.6L129.8,148.6z M130.78,146.96c0-0.88-0.99-1.2-1.64-1.2c-0.88,0-1.75,0.33-1.97,1.53
				h0.99c0-0.11,0.11-0.55,0.77-0.55c0.33,0,0.77,0,0.77,0.55c0,0.11-0.33,0.33-0.44,0.33l-0.99,0.11c-0.55,0-1.2,0.44-1.2,1.31
				c0,0.88,0.77,1.2,1.31,1.2c0.77,0,0.99-0.33,1.31-0.55c0,0.11,0,0.33,0.11,0.44h0.99v-0.11c0,0-0.11-0.11-0.11-0.55
				L130.78,146.96L130.78,146.96L130.78,146.96z"/>
			<path class="st0" d="M135.49,150.13h-1.2v-2.52c0-0.33,0-0.77-0.55-0.77c-0.55,0-0.88,0.33-0.88,0.88v2.3h-1.2v-4.16h1.2v0.55
				l0,0c0.11-0.33,0.44-0.77,1.2-0.77c0.88,0,1.53,0.55,1.53,1.53L135.49,150.13L135.49,150.13L135.49,150.13z"/>
			<polygon class="st0" points="137.57,150.13 136.59,150.13 136.59,144.44 137.57,144.44 137.57,147.61 139.11,145.97 
				140.42,145.97 138.89,147.61 140.42,150.13 139.11,150.13 138.01,148.27 137.57,148.71 			"/>
			<path class="st0" d="M144.25,150.13h-0.99v-3.39h-0.55v-0.77h0.55v-0.33c0-0.88,0.44-1.2,1.2-1.2c0.33,0,0.44,0,0.55,0v0.88
				h-0.33c-0.44,0-0.44,0.11-0.44,0.44v0.11h0.77v0.77h-0.77V150.13L144.25,150.13L144.25,150.13z"/>
			<path class="st0" d="M148.53,148.05c0,0.55-0.11,1.31-0.99,1.31c-0.88,0-0.99-0.77-0.99-1.31c0-0.44,0.11-1.2,0.99-1.2
				C148.42,146.85,148.53,147.61,148.53,148.05L148.53,148.05L148.53,148.05L148.53,148.05z M149.51,148.05
				c0-1.42-0.88-2.19-2.08-2.19c-1.2,0-2.08,0.77-2.08,2.19s0.88,2.19,2.08,2.19C148.64,150.24,149.51,149.48,149.51,148.05
				L149.51,148.05L149.51,148.05z"/>
			<path class="st0" d="M150.39,145.97h0.99v0.77l0,0c0.11-0.44,0.44-0.88,0.99-0.88c0.11,0,0.11,0,0.33,0v1.2
				c-0.11,0-0.33,0-0.33,0c-0.88,0-0.99,0.44-0.99,0.99v2.08h-0.99V145.97L150.39,145.97L150.39,145.97z"/>
			<polygon class="st0" points="158.05,150.13 156.85,150.13 156.85,145.53 155.1,145.53 155.1,144.44 159.7,144.44 159.7,145.53 
				158.05,145.53 			"/>
			<path class="st0" d="M159.81,145.97h0.99v0.77l0,0c0.33-0.44,0.55-0.88,1.2-0.88h0.11v1.2c0,0-0.11,0-0.33,0
				c-0.77,0-0.88,0.44-0.88,0.99v2.08h-1.2L159.81,145.97L159.81,145.97L159.81,145.97z"/>
			<path class="st0" d="M165.17,148.6c0,0.55-0.44,0.88-0.88,0.88c-0.33,0-0.55-0.11-0.55-0.55c0-0.44,0.33-0.55,0.77-0.55
				s0.77-0.11,0.77-0.33L165.17,148.6L165.17,148.6L165.17,148.6L165.17,148.6z M166.38,146.96c0-0.88-1.2-1.2-1.75-1.2
				c-0.77,0-1.64,0.33-1.75,1.53h0.99c0-0.11,0.11-0.55,0.55-0.55c0.33,0,0.77,0,0.77,0.55c0,0.11-0.11,0.33-0.33,0.33l-0.99,0.11
				c-0.77,0-1.2,0.44-1.2,1.31c0,0.88,0.55,1.2,1.2,1.2c0.77,0,1.2-0.33,1.31-0.55c0.11,0.11,0.11,0.33,0.11,0.44h1.2v-0.11
				c-0.11,0-0.11-0.11-0.11-0.55L166.38,146.96L166.38,146.96L166.38,146.96z"/>
			<path class="st0" d="M168.13,148.05c0-0.55,0.33-1.2,0.88-1.2c0.77,0,0.99,0.55,0.99,1.31c0,0.55-0.33,1.2-0.99,1.2
				C168.35,149.37,168.13,148.6,168.13,148.05L168.13,148.05L168.13,148.05L168.13,148.05z M171.09,144.44h-1.2v2.08l0,0
				c-0.11-0.33-0.44-0.77-1.2-0.77c-0.88,0-1.75,0.77-1.75,2.19c0,1.2,0.55,2.19,1.75,2.19c0.44,0,0.99-0.11,1.2-0.55l0,0v0.44h1.2
				V144.44L171.09,144.44L171.09,144.44z"/>
			<path class="st0" d="M172.84,147.61c0-0.44,0.33-0.88,0.88-0.88c0.33,0,0.77,0.33,0.77,0.88H172.84L172.84,147.61L172.84,147.61
				L172.84,147.61z M174.37,148.93c-0.11,0.33-0.44,0.44-0.77,0.44c-0.88,0-0.88-0.77-0.88-0.99h2.85v-0.11c0-1.97-1.2-2.3-1.97-2.3
				c-1.97,0-2.08,1.64-2.08,2.19c0,1.64,0.88,2.19,2.08,2.19c0.77,0,1.64-0.33,1.97-1.31L174.37,148.93L174.37,148.93L174.37,148.93
				z"/>
			<path class="st0" d="M180.94,145.75c0,0.33-0.11,0.44-0.44,0.77c-0.33-0.33-0.44-0.55-0.44-0.77c0-0.33,0.33-0.44,0.44-0.44
				C180.72,145.42,180.94,145.53,180.94,145.75L180.94,145.75L180.94,145.75L180.94,145.75z M182.37,148.93
				c0.44-0.44,0.55-0.88,0.55-1.75h-0.88c0,0.44-0.11,0.77-0.33,0.99l-0.77-0.99c0.11-0.11,0.88-0.55,0.88-1.31
				c0-0.88-0.77-1.31-1.31-1.31c-0.88,0-1.64,0.55-1.64,1.31c0,0.44,0.33,0.88,0.55,1.2h-0.11c-0.88,0.55-0.99,1.2-0.99,1.64
				c0,0.88,0.55,1.64,1.75,1.64c0.77,0,1.2-0.33,1.42-0.55l0.44,0.44h1.31L182.37,148.93L182.37,148.93L182.37,148.93L182.37,148.93
				z M181.16,148.93c-0.33,0.11-0.55,0.44-0.88,0.44c-0.77,0-0.88-0.55-0.88-0.77c0-0.44,0.33-0.55,0.77-0.88L181.16,148.93
				L181.16,148.93L181.16,148.93z"/>
			<polygon class="st0" points="187.51,150.13 186.31,150.13 186.31,144.44 190.36,144.44 190.36,145.53 187.51,145.53 
				187.51,146.74 189.92,146.74 189.92,147.72 187.51,147.72 			"/>
			<path class="st0" d="M191.02,145.97H192v4.16h-0.99V145.97L191.02,145.97L191.02,145.97L191.02,145.97z M191.02,144.44H192v0.99
				h-0.99V144.44L191.02,144.44L191.02,144.44z"/>
			<path class="st0" d="M196.93,150.13h-1.2v-2.52c0-0.33,0-0.77-0.77-0.77c-0.44,0-0.77,0.33-0.77,0.88v2.3h-1.2v-4.16h0.99v0.55
				l0,0c0.11-0.33,0.44-0.77,1.31-0.77c0.77,0,1.53,0.55,1.53,1.53L196.93,150.13L196.93,150.13L196.93,150.13z"/>
			<path class="st0" d="M200.22,148.6c0,0.55-0.44,0.88-0.99,0.88c-0.11,0-0.44-0.11-0.44-0.55c0-0.44,0.33-0.55,0.77-0.55
				s0.55-0.11,0.77-0.33v0.55H200.22L200.22,148.6L200.22,148.6z M201.2,146.96c0-0.88-0.99-1.2-1.64-1.2
				c-0.88,0-1.75,0.33-1.97,1.53h1.2c0-0.11,0-0.55,0.55-0.55c0.33,0,0.77,0,0.77,0.55c0,0.11-0.11,0.33-0.44,0.33l-0.88,0.11
				c-0.77,0-1.2,0.44-1.2,1.31c0,0.88,0.55,1.2,1.2,1.2c0.77,0,0.99-0.33,1.31-0.55c0,0.11,0,0.33,0.11,0.44h1.2v-0.11
				c-0.11,0-0.33-0.11-0.33-0.55L201.2,146.96L201.2,146.96L201.2,146.96z"/>
			<path class="st0" d="M205.91,150.13h-0.99v-2.52c0-0.33,0-0.77-0.77-0.77c-0.44,0-0.88,0.33-0.88,0.88v2.3h-0.99v-4.16h0.99v0.55
				l0,0c0.11-0.33,0.44-0.77,1.2-0.77c0.88,0,1.42,0.55,1.42,1.53L205.91,150.13L205.91,150.13L205.91,150.13z"/>
			<path class="st0" d="M210.51,148.6c0,0.44-0.33,1.64-1.97,1.64c-1.42,0-1.97-1.2-1.97-2.08c0-1.31,0.55-2.3,2.08-2.3
				c0.55,0,1.75,0.33,1.75,1.64h-0.99c-0.11-0.33-0.33-0.77-0.77-0.55c-0.77,0-0.88,0.55-0.88,1.2c0,0.44,0,1.31,0.88,1.31
				c0.44,0,0.77-0.55,0.77-0.77L210.51,148.6L210.51,148.6L210.51,148.6z"/>
			<path class="st0" d="M212.15,147.61c0-0.44,0.33-0.88,0.88-0.88c0.33,0,0.77,0.33,0.77,0.88H212.15L212.15,147.61L212.15,147.61
				L212.15,147.61z M213.8,148.93c-0.11,0.33-0.44,0.44-0.77,0.44c-0.88,0-0.88-0.77-0.88-0.99H215v-0.11c0-1.97-1.2-2.3-1.97-2.3
				c-1.97,0-2.08,1.64-2.08,2.19c0,1.64,0.88,2.19,2.08,2.19c0.77,0,1.64-0.33,1.97-1.31L213.8,148.93L213.8,148.93L213.8,148.93z"
				/>
		</g>
		<g>
			<path class="st0" d="M81.61,129.33h0.88v6.35h-0.88V129.33L81.61,129.33L81.61,129.33L81.61,129.33z M79.97,135.68h4.16v0.99
				h-4.16V135.68L79.97,135.68L79.97,135.68L79.97,135.68z M76.36,133.71c0.33,1.97,2.19,1.97,3.72,1.97v0.99
				C78.11,136.66,76.79,135.9,76.36,133.71L76.36,133.71L76.36,133.71z"/>
			<path class="st0" d="M86.65,137.54c0.33-0.33,0.77-0.33,0.99,0c0.33,0.33,0.33,0.77,0,0.99c-0.33,0.22-0.88,0.33-0.99,0
				C86.32,138.31,86.32,137.87,86.65,137.54L86.65,137.54L86.65,137.54L86.65,137.54z M84.9,137.54c0.33-0.11,0.77-0.11,0.99,0.11
				c0.33,0.33,0.33,0.77,0,0.88c-0.33,0.33-0.77,0.33-0.99,0C84.57,138.31,84.57,137.87,84.9,137.54L84.9,137.54L84.9,137.54
				L84.9,137.54z M86.65,132.72h0.88v3.94h-0.88V132.72L86.65,132.72L86.65,132.72L86.65,132.72z M83.37,135.68h3.29v0.99h-3.29
				V135.68L83.37,135.68L83.37,135.68z"/>
			<path class="st0" d="M88.73,135.68c0-2.08,1.2-3.07,3.29-3.07v0.88c-1.97,0-2.19,0.77-2.19,2.19H88.73L88.73,135.68L88.73,135.68
				L88.73,135.68z M88.73,135.68h3.29v0.99h-3.29V135.68L88.73,135.68L88.73,135.68L88.73,135.68z M91.91,132.61h0.88v3.5h-0.88
				V132.61L91.91,132.61L91.91,132.61L91.91,132.61z M90.15,139.07c1.97-0.55,1.75-1.64,1.75-2.96h0.88
				C92.78,137.87,92.56,139.07,90.15,139.07L90.15,139.07L90.15,139.07L90.15,139.07z M92.78,135.68h1.53v0.99h-1.42v-0.99H92.78
				L92.78,135.68z"/>
			<path class="st0" d="M96.07,132.61c2.08,0,3.07,1.2,3.07,3.07h-0.88c0-1.75-0.77-2.19-2.19-2.19V132.61L96.07,132.61
				L96.07,132.61L96.07,132.61z M95.08,132.61h0.99v3.07h-0.99V132.61L95.08,132.61L95.08,132.61L95.08,132.61z M93.66,135.68h6.46
				v0.99h-6.46V135.68L93.66,135.68L93.66,135.68z"/>
			<path class="st0" d="M102.53,130.31c0.33-0.33,0.77-0.33,0.99,0c0.33,0.33,0.33,0.77,0,0.99c-0.33,0.11-0.77,0.11-0.99-0.11
				C102.2,131.08,102.2,130.53,102.53,130.31L102.53,130.31L102.53,130.31L102.53,130.31z M100.89,130.31
				c0.33-0.33,0.77-0.33,0.99,0c0.11,0.33,0.11,0.77-0.11,0.99c-0.33,0.11-0.77,0.11-0.99-0.11
				C100.67,131.08,100.67,130.53,100.89,130.31L100.89,130.31L100.89,130.31L100.89,130.31z M101.76,132.72h0.88v2.96h-0.88V132.72
				L101.76,132.72L101.76,132.72L101.76,132.72z M99.57,135.68h4.82v0.99h-4.82V135.68L99.57,135.68L99.57,135.68z"/>
			<path class="st0" d="M106.14,129.33h0.88v6.35h-0.88V129.33L106.14,129.33L106.14,129.33L106.14,129.33z M103.84,135.68h3.07
				v0.99h-3.07V135.68L103.84,135.68L103.84,135.68z"/>
			<polygon class="st0" points="108.12,129.33 108.99,129.33 108.99,136.66 108.12,136.66 			"/>
			<path class="st0" d="M110.09,135.68c0-2.08,1.31-3.07,3.29-3.07v0.88c-1.97,0-2.19,0.77-2.19,2.19H110.09L110.09,135.68
				L110.09,135.68L110.09,135.68z M110.09,135.68h3.29v0.99h-3.29V135.68L110.09,135.68L110.09,135.68L110.09,135.68z
				 M113.26,132.61h0.88v3.5h-0.88V132.61L113.26,132.61L113.26,132.61L113.26,132.61z M111.73,139.07
				c1.75-0.55,1.64-1.64,1.64-2.96h0.88C114.14,137.87,114.03,139.07,111.73,139.07L111.73,139.07L111.73,139.07z"/>
			<path class="st0" d="M118.63,135.68h5.26v0.99h-5.26V135.68L118.63,135.68L118.63,135.68L118.63,135.68z M121.8,132.61h1.2v0.88
				h-1.2V132.61L121.8,132.61L121.8,132.61L121.8,132.61z M121.8,133.38c-1.64,0-2.19,0.44-2.19,2.19h-0.99
				c0-1.97,0.99-3.07,3.29-3.07v0.88H121.8L121.8,133.38L121.8,133.38z M123.01,132.61h0.88v3.07h-0.88V132.61L123.01,132.61
				L123.01,132.61L123.01,132.61z M122.02,130.31c0.33-0.33,0.88-0.33,0.99,0c0.33,0.33,0.33,0.77,0,0.99
				c-0.33,0.11-0.77,0.11-0.99-0.11C121.69,131.08,121.8,130.53,122.02,130.31L122.02,130.31L122.02,130.31L122.02,130.31z
				 M120.38,130.31c0.33-0.33,0.77-0.33,0.99,0c0.33,0.33,0.11,0.77,0,0.99c-0.33,0.11-0.88,0.11-0.99-0.11
				C120.05,131.08,120.05,130.53,120.38,130.31L120.38,130.31L120.38,130.31z"/>
			<path class="st0" d="M126.08,132.61h0.88v3.5h-0.88V132.61L126.08,132.61L126.08,132.61L126.08,132.61z M124.32,139.07
				c1.75-0.55,1.64-1.64,1.75-2.96h0.88C126.95,137.87,126.73,139.07,124.32,139.07L124.32,139.07L124.32,139.07z"/>
			<path class="st0" d="M128.05,129.11h0.99v7.56h-0.99L128.05,129.11L128.05,129.11L128.05,129.11L128.05,129.11z M129.03,135.68
				h1.75v0.99h-1.75V135.68L129.03,135.68L129.03,135.68z"/>
			<path class="st0" d="M133.52,137.54c0.33-0.33,0.77-0.33,0.99,0c0.22,0.33,0.33,0.77,0,0.99c-0.33,0.22-0.77,0.33-0.99,0
				C133.19,138.31,133.19,137.87,133.52,137.54L133.52,137.54L133.52,137.54L133.52,137.54z M133.52,132.61
				c2.19,0,3.29,1.2,3.29,3.07h-0.99c0-1.75-0.55-2.19-2.19-2.19v-0.88H133.52L133.52,132.61L133.52,132.61z M131.55,132.61h1.97
				v0.88h-1.97V132.61L131.55,132.61L131.55,132.61L131.55,132.61z M130.24,135.68h7.34v0.99h-7.34V135.68L130.24,135.68
				L130.24,135.68z"/>
			<path class="st0" d="M139.98,130.31c0.33-0.33,0.88-0.33,0.99,0c0.33,0.33,0.33,0.77,0,0.99c-0.33,0.11-0.77,0.11-0.99-0.11
				C139.65,131.08,139.76,130.53,139.98,130.31L139.98,130.31L139.98,130.31L139.98,130.31z M138.34,130.31
				c0.33-0.33,0.77-0.33,0.99,0c0.22,0.33,0.11,0.77,0,0.99c-0.33,0.11-0.88,0.11-0.99-0.11
				C138.01,131.08,138.01,130.53,138.34,130.31L138.34,130.31L138.34,130.31L138.34,130.31z M139.22,132.72h0.88v2.96h-0.88V132.72
				L139.22,132.72L139.22,132.72L139.22,132.72z M137.03,135.68h5.04v0.99h-5.04V135.68L137.03,135.68L137.03,135.68z"/>
			<path class="st0" d="M143.49,129.33h0.88v6.35h-0.88V129.33L143.49,129.33L143.49,129.33L143.49,129.33z M141.3,135.68h4.27v0.99
				h-4.27V135.68L141.3,135.68L141.3,135.68z"/>
			<path class="st0" d="M146.99,129.33h0.99v6.35h-0.99V129.33L146.99,129.33L146.99,129.33L146.99,129.33z M144.8,135.68h3.29v0.99
				h-3.29V135.68L144.8,135.68L144.8,135.68z"/>
			<path class="st0" d="M152.47,133.71c0.33,1.97,2.19,1.97,3.72,1.97v0.99C154.22,136.66,152.8,135.9,152.47,133.71L152.47,133.71
				L152.47,133.71L152.47,133.71z M156.19,135.68h3.83v0.99h-3.83V135.68L156.19,135.68L156.19,135.68L156.19,135.68z
				 M159.15,132.72h0.88v2.96h-0.88V132.72L159.15,132.72L159.15,132.72L159.15,132.72z M155.86,130.31c0.33-0.33,0.77-0.33,0.99,0
				c0.11,0.33,0.11,0.77-0.11,0.99c-0.33,0.11-0.77,0.11-0.99-0.11C155.53,131.08,155.53,130.53,155.86,130.31L155.86,130.31
				L155.86,130.31z"/>
			<path class="st0" d="M161.12,129.11H162v7.56h-0.88V129.11L161.12,129.11L161.12,129.11L161.12,129.11z M162.11,135.68h1.75v0.99
				h-1.75V135.68L162.11,135.68L162.11,135.68z"/>
			<path class="st0" d="M169.66,132.61c2.19,0,3.29,1.2,3.29,3.07h-0.88c0-1.75-0.77-2.19-2.3-2.19L169.66,132.61L169.66,132.61
				L169.66,132.61L169.66,132.61z M167.69,132.61h2.08v0.88h-2.96L167.69,132.61L167.69,132.61L167.69,132.61L167.69,132.61z
				 M163.2,135.68h10.73v0.99H163.2V135.68L163.2,135.68L163.2,135.68L163.2,135.68z M168.24,130.64h1.31l-2.85,2.74h-1.2
				L168.24,130.64L168.24,130.64L168.24,130.64z"/>
			<path class="st0" d="M180.07,132.72h0.88v3.94h-0.88V132.72L180.07,132.72L180.07,132.72L180.07,132.72z M173.38,135.68h6.68
				v0.99h-6.68V135.68L173.38,135.68L173.38,135.68L173.38,135.68z M177.77,132.72h0.88v2.96h-0.88V132.72L177.77,132.72
				L177.77,132.72L177.77,132.72z M175.58,132.72h0.88v2.96h-0.88V132.72L175.58,132.72L175.58,132.72z"/>
			<path class="st0" d="M181.93,135.68h4.16v0.99h-4.16V135.68L181.93,135.68L181.93,135.68L181.93,135.68z M182.91,131.19h0.88
				v4.38h-0.88V131.19L182.91,131.19L182.91,131.19L182.91,131.19z M185.21,129.33h0.88v6.35h-0.88V129.33L185.21,129.33
				L185.21,129.33L185.21,129.33z M183.9,137.43c-0.77,0-0.99,0.11-0.99,0.88h-0.33c0-0.77,0.44-1.2,1.31-1.2V137.43L183.9,137.43
				L183.9,137.43L183.9,137.43z M182.26,138.2h1.75v0.55h-1.75V138.2L182.26,138.2L182.26,138.2z"/>
			<polygon class="st0" points="187.29,129.33 188.28,129.33 188.28,136.66 187.29,136.66 			"/>
			<path class="st0" d="M200.11,129.33h0.99v6.35h-0.99V129.33L200.11,129.33L200.11,129.33L200.11,129.33z M196.38,135.68h6.13
				v0.99h-6.13V135.68L196.38,135.68L196.38,135.68L196.38,135.68z M192.66,133.71c0.33,1.97,2.19,1.97,3.72,1.97v0.99
				C194.41,136.66,192.99,135.9,192.66,133.71L192.66,133.71L192.66,133.71L192.66,133.71z M197.37,131.52
				c-0.77,0-0.99,0.11-0.99,1.2h-0.55c0-0.99,0.55-1.64,1.64-1.64v0.44H197.37L197.37,131.52L197.37,131.52z M195.51,132.72h2.3
				v0.44h-2.3V132.72L195.51,132.72L195.51,132.72z"/>
			<path class="st0" d="M204.05,130.31c0.33-0.33,0.77-0.33,0.99,0c0.22,0.33,0.33,0.77,0,0.99c-0.33,0.11-0.77,0.11-0.99-0.11
				C203.72,131.08,203.72,130.53,204.05,130.31L204.05,130.31L204.05,130.31L204.05,130.31z M204.16,132.72h0.88v2.96h-0.88V132.72
				L204.16,132.72L204.16,132.72L204.16,132.72z M201.97,135.68h4.82v0.99h-4.82V135.68L201.97,135.68L201.97,135.68z"/>
			<path class="st0" d="M209.41,132.72h0.99v3.94h-0.99V132.72L209.41,132.72L209.41,132.72L209.41,132.72z M206.24,135.68h3.29
				v0.99h-3.29V135.68L206.24,135.68L206.24,135.68L206.24,135.68z M209.41,137.54c0.33-0.33,0.77-0.33,0.99,0s0.33,0.77,0,0.99
				c-0.33,0.22-0.77,0.33-0.99,0C209.2,138.31,209.2,137.87,209.41,137.54L209.41,137.54L209.41,137.54z"/>
		</g>
		<polygon class="st1" points="209.96,142.03 72.19,142.03 72.19,141.04 209.96,141.04 		"/>
	</g>
	<g>
		<path class="st1" d="M56.86,130.97c1.75-2.63,1.2-6.35-1.42-8.1c-2.63-1.97-6.35-1.31-8.1,1.31c-1.97,2.63-1.31,6.35,1.31,8.21
			C51.28,134.14,55,133.6,56.86,130.97L56.86,130.97L56.86,130.97z"/>
		<path class="st0" d="M68.25,141.37c-12.37-2.63-23.44-4.71-24.75-12.7c-2.19-12.7,39.42-30.44,39.42-30.44
			s-50.05,20.15-47.86,32.85c1.42,8.43,14.89,12.92,33.18,15.77V141.37L68.25,141.37L68.25,141.37z"/>
		<path class="st1" d="M36.71,148.27v-11.94c-0.77-0.88-1.2-1.64-1.64-2.3v14.24H36.71L36.71,148.27L36.71,148.27z"/>
		<path class="st1" d="M40.66,148.93v-9.31c-0.55-0.33-1.2-0.55-1.64-0.99v10.29H40.66L40.66,148.93L40.66,148.93z"/>
		<path class="st1" d="M46.68,148.16v-5.48c-0.55-0.33-0.99-0.44-1.42-0.77v6.13h1.42V148.16L46.68,148.16z"/>
		<path class="st1" d="M52.81,148.27v-3.72c-0.44-0.11-0.99-0.33-1.42-0.44v4.16L52.81,148.27L52.81,148.27L52.81,148.27z"/>
		<path class="st1" d="M60.15,148.16v-1.75c-0.44-0.11-0.99-0.11-1.42-0.33v2.08L60.15,148.16L60.15,148.16L60.15,148.16z"/>
		<path class="st1" d="M68.25,149.15v-1.31c-0.55-0.11-0.99-0.11-1.64-0.33v1.64H68.25L68.25,149.15L68.25,149.15z"/>
	</g>
</g>
</svg>
