<?xml version="1.0" encoding="UTF-8" standalone="no"?>
<!-- Generator: Adobe Illustrator 25.2.0, SVG Export Plug-In . SVG Version: 6.00 Build 0)  -->

<svg
   version="1.1"
   id="Layer_1"
   x="0px"
   y="0px"
   viewBox="0 0 180.00983 53.540001"
   xml:space="preserve"
   sodipodi:docname="housing_bank.svg"
   width="180.00983"
   height="53.540001"
   inkscape:version="1.2.2 (732a01da63, 2022-12-09)"
   xmlns:inkscape="http://www.inkscape.org/namespaces/inkscape"
   xmlns:sodipodi="http://sodipodi.sourceforge.net/DTD/sodipodi-0.dtd"
   xmlns="http://www.w3.org/2000/svg"
   xmlns:svg="http://www.w3.org/2000/svg"><defs
   id="defs9015" /><sodipodi:namedview
   id="namedview9013"
   pagecolor="#505050"
   bordercolor="#eeeeee"
   borderopacity="1"
   inkscape:showpageshadow="0"
   inkscape:pageopacity="0"
   inkscape:pagecheckerboard="0"
   inkscape:deskcolor="#505050"
   showgrid="false"
   inkscape:zoom="2.1"
   inkscape:cx="90"
   inkscape:cy="27.142857"
   inkscape:window-width="1366"
   inkscape:window-height="705"
   inkscape:window-x="-8"
   inkscape:window-y="-8"
   inkscape:window-maximized="1"
   inkscape:current-layer="Layer_1" />
<style
   type="text/css"
   id="style8874">
	.st0{fill-rule:evenodd;clip-rule:evenodd;fill:#005DA5;}
	.st1{fill-rule:evenodd;clip-rule:evenodd;fill:#C0A075;}
</style>
<g
   id="g9010"
   transform="translate(-34.990171,-98.23)">
	<g
   id="g8990">
		<g
   id="g8936">
			<polygon
   class="st0"
   points="73.84,145.53 72.19,145.53 72.19,144.44 76.79,144.44 76.79,145.53 75.04,145.53 75.04,150.13 73.84,150.13 "
   id="polygon8876" />
			<path
   class="st0"
   d="m 81.07,150.13 h -0.99 v -2.52 c 0,-0.33 0,-0.77 -0.77,-0.77 -0.44,0 -0.88,0.33 -0.88,0.88 v 2.3 h -0.99 v -5.59 h 0.99 v 2.08 0 c 0.11,-0.44 0.55,-0.77 1.2,-0.77 0.88,0 1.42,0.55 1.42,1.53 v 2.86 z"
   id="path8878" />
			<path
   class="st0"
   d="m 82.82,147.61 c 0.11,-0.44 0.44,-0.88 0.88,-0.88 0.44,0 0.77,0.33 0.88,0.88 h -1.76 v 0 z m 1.75,1.32 c -0.11,0.33 -0.44,0.44 -0.77,0.44 -0.88,0 -0.99,-0.77 -0.99,-0.99 h 2.85 v -0.11 c 0,-1.97 -0.99,-2.3 -1.97,-2.3 -1.75,0 -1.97,1.64 -1.97,2.19 0,1.64 0.88,2.19 2.08,2.19 0.77,0 1.42,-0.33 1.75,-1.31 l -0.98,-0.11 z"
   id="path8880" />
			<polygon
   class="st0"
   points="88.51,150.13 88.51,144.44 89.72,144.44 89.72,146.74 91.91,146.74 91.91,144.44 93.11,144.44 93.11,150.13 91.91,150.13 91.91,147.61 89.72,147.61 89.72,150.13 "
   id="polygon8882" />
			<path
   class="st0"
   d="m 97.05,148.05 c 0,0.55 -0.11,1.31 -0.99,1.31 -0.88,0 -0.99,-0.77 -0.99,-1.31 0,-0.44 0.11,-1.2 0.99,-1.2 0.88,0 0.99,0.76 0.99,1.2 v 0 z m 1.1,0 c 0,-1.42 -0.99,-2.19 -2.08,-2.19 -1.2,0 -2.08,0.77 -2.08,2.19 0,1.42 0.88,2.19 2.08,2.19 0.98,0 2.08,-0.76 2.08,-2.19 z"
   id="path8884" />
			<path
   class="st0"
   d="m 102.75,150.13 h -0.99 v -0.55 0 c -0.33,0.44 -0.77,0.77 -1.31,0.77 -0.88,0 -1.42,-0.44 -1.42,-1.53 v -2.85 h 1.2 v 2.63 c 0,0.55 0.33,0.77 0.77,0.77 0.33,0 0.77,-0.33 0.77,-0.99 v -2.3 h 1.2 v 4.05 z"
   id="path8886" />
			<path
   class="st0"
   d="m 106.14,147.29 c -0.11,-0.33 -0.11,-0.55 -0.77,-0.55 -0.66,0 -0.77,0.11 -0.77,0.44 0,0.55 2.63,0.11 2.63,1.64 0,1.2 -1.2,1.53 -1.97,1.53 -0.88,0 -1.97,-0.33 -1.97,-1.53 h 0.99 c 0,0.44 0.33,0.55 0.99,0.55 0.44,0 0.55,-0.33 0.55,-0.44 0,-0.55 -2.52,-0.11 -2.52,-1.64 0,-0.55 0.33,-1.53 1.64,-1.53 0.88,0 1.75,0.33 1.97,1.53 h -0.77 z"
   id="path8888" />
			<path
   class="st0"
   d="m 108.01,145.97 h 1.2 v 4.16 h -1.2 v -4.16 0 z m 0,-1.53 h 1.2 v 0.99 h -1.2 v -0.99 z"
   id="path8890" />
			<path
   class="st0"
   d="m 113.92,150.13 h -0.99 v -2.52 c 0,-0.33 0,-0.77 -0.77,-0.77 -0.44,0 -0.88,0.33 -0.88,0.88 v 2.3 h -0.99 v -4.16 h 0.99 v 0.55 0 c 0.11,-0.33 0.44,-0.77 1.2,-0.77 0.88,0 1.42,0.55 1.42,1.53 v 2.96 z"
   id="path8892" />
			<path
   class="st0"
   d="m 115.78,148.05 c 0,-0.88 0.44,-1.2 0.88,-1.2 0.55,0 0.88,0.44 0.88,1.2 0,0.55 -0.11,1.2 -0.88,1.2 -0.55,-0.1 -0.88,-0.65 -0.88,-1.2 v 0 z m 1.97,-2.08 v 0.55 0 c -0.11,-0.33 -0.44,-0.77 -1.31,-0.77 -0.87,0 -1.64,0.77 -1.64,2.19 0,1.42 0.77,2.08 1.75,2.08 0.55,0 0.88,-0.33 0.99,-0.55 v 0 0.55 c 0,0.55 -0.33,0.88 -0.77,0.88 -0.77,0 -0.77,-0.11 -0.88,-0.44 h -1.2 c 0.11,0.88 0.99,1.31 1.97,1.31 1.97,0 2.08,-1.2 2.08,-1.97 v -3.94 l -0.99,0.11 z"
   id="path8894" />
			<path
   class="st0"
   d="m 123.01,147.61 h 1.42 c 0.44,0 0.88,0.33 0.88,0.77 0,0.55 -0.33,0.88 -0.88,0.88 h -1.42 v -1.65 0 z m -0.99,2.52 h 2.41 c 0.99,0 1.31,-0.11 1.75,-0.44 0.33,-0.33 0.44,-0.77 0.44,-1.2 0,-0.55 -0.11,-1.2 -0.88,-1.31 0.33,-0.11 0.77,-0.44 0.77,-1.2 0,-0.55 -0.44,-1.53 -1.75,-1.53 h -2.63 l -0.11,5.68 v 0 z m 0.99,-4.6 h 1.31 c 0.55,0 0.88,0.11 0.88,0.55 0,0.44 -0.33,0.55 -0.88,0.55 h -1.31 v -1.1 z"
   id="path8896" />
			<path
   class="st0"
   d="m 129.8,148.6 c 0,0.55 -0.55,0.88 -0.99,0.88 -0.11,0 -0.44,-0.11 -0.44,-0.55 0,-0.44 0.33,-0.55 0.77,-0.55 0.44,0 0.55,-0.11 0.77,-0.33 v 0.55 h -0.11 z m 0.98,-1.64 c 0,-0.88 -0.99,-1.2 -1.64,-1.2 -0.88,0 -1.75,0.33 -1.97,1.53 h 0.99 c 0,-0.11 0.11,-0.55 0.77,-0.55 0.33,0 0.77,0 0.77,0.55 0,0.11 -0.33,0.33 -0.44,0.33 l -0.99,0.11 c -0.55,0 -1.2,0.44 -1.2,1.31 0,0.88 0.77,1.2 1.31,1.2 0.77,0 0.99,-0.33 1.31,-0.55 0,0.11 0,0.33 0.11,0.44 h 0.99 v -0.11 c 0,0 -0.11,-0.11 -0.11,-0.55 l 0.1,-2.51 z"
   id="path8898" />
			<path
   class="st0"
   d="m 135.49,150.13 h -1.2 v -2.52 c 0,-0.33 0,-0.77 -0.55,-0.77 -0.55,0 -0.88,0.33 -0.88,0.88 v 2.3 h -1.2 v -4.16 h 1.2 v 0.55 0 c 0.11,-0.33 0.44,-0.77 1.2,-0.77 0.88,0 1.53,0.55 1.53,1.53 l -0.1,2.96 z"
   id="path8900" />
			<polygon
   class="st0"
   points="136.59,144.44 137.57,144.44 137.57,147.61 139.11,145.97 140.42,145.97 138.89,147.61 140.42,150.13 139.11,150.13 138.01,148.27 137.57,148.71 137.57,150.13 136.59,150.13 "
   id="polygon8902" />
			<path
   class="st0"
   d="m 144.25,150.13 h -0.99 v -3.39 h -0.55 v -0.77 h 0.55 v -0.33 c 0,-0.88 0.44,-1.2 1.2,-1.2 0.33,0 0.44,0 0.55,0 v 0.88 h -0.33 c -0.44,0 -0.44,0.11 -0.44,0.44 v 0.11 h 0.77 v 0.77 h -0.77 v 3.49 z"
   id="path8904" />
			<path
   class="st0"
   d="m 148.53,148.05 c 0,0.55 -0.11,1.31 -0.99,1.31 -0.88,0 -0.99,-0.77 -0.99,-1.31 0,-0.44 0.11,-1.2 0.99,-1.2 0.88,0 0.99,0.76 0.99,1.2 v 0 z m 0.98,0 c 0,-1.42 -0.88,-2.19 -2.08,-2.19 -1.2,0 -2.08,0.77 -2.08,2.19 0,1.42 0.88,2.19 2.08,2.19 1.21,0 2.08,-0.76 2.08,-2.19 z"
   id="path8906" />
			<path
   class="st0"
   d="m 150.39,145.97 h 0.99 v 0.77 0 c 0.11,-0.44 0.44,-0.88 0.99,-0.88 0.11,0 0.11,0 0.33,0 v 1.2 c -0.11,0 -0.33,0 -0.33,0 -0.88,0 -0.99,0.44 -0.99,0.99 v 2.08 h -0.99 v -4.16 z"
   id="path8908" />
			<polygon
   class="st0"
   points="156.85,145.53 155.1,145.53 155.1,144.44 159.7,144.44 159.7,145.53 158.05,145.53 158.05,150.13 156.85,150.13 "
   id="polygon8910" />
			<path
   class="st0"
   d="m 159.81,145.97 h 0.99 v 0.77 0 c 0.33,-0.44 0.55,-0.88 1.2,-0.88 h 0.11 v 1.2 c 0,0 -0.11,0 -0.33,0 -0.77,0 -0.88,0.44 -0.88,0.99 v 2.08 h -1.2 l 0.11,-4.16 z"
   id="path8912" />
			<path
   class="st0"
   d="m 165.17,148.6 c 0,0.55 -0.44,0.88 -0.88,0.88 -0.33,0 -0.55,-0.11 -0.55,-0.55 0,-0.44 0.33,-0.55 0.77,-0.55 0.44,0 0.77,-0.11 0.77,-0.33 l -0.11,0.55 v 0 z m 1.21,-1.64 c 0,-0.88 -1.2,-1.2 -1.75,-1.2 -0.77,0 -1.64,0.33 -1.75,1.53 h 0.99 c 0,-0.11 0.11,-0.55 0.55,-0.55 0.33,0 0.77,0 0.77,0.55 0,0.11 -0.11,0.33 -0.33,0.33 l -0.99,0.11 c -0.77,0 -1.2,0.44 -1.2,1.31 0,0.88 0.55,1.2 1.2,1.2 0.77,0 1.2,-0.33 1.31,-0.55 0.11,0.11 0.11,0.33 0.11,0.44 h 1.2 v -0.11 c -0.11,0 -0.11,-0.11 -0.11,-0.55 v -2.51 z"
   id="path8914" />
			<path
   class="st0"
   d="m 168.13,148.05 c 0,-0.55 0.33,-1.2 0.88,-1.2 0.77,0 0.99,0.55 0.99,1.31 0,0.55 -0.33,1.2 -0.99,1.2 -0.66,0.01 -0.88,-0.76 -0.88,-1.31 v 0 z m 2.96,-3.61 h -1.2 v 2.08 0 c -0.11,-0.33 -0.44,-0.77 -1.2,-0.77 -0.88,0 -1.75,0.77 -1.75,2.19 0,1.2 0.55,2.19 1.75,2.19 0.44,0 0.99,-0.11 1.2,-0.55 v 0 0.44 h 1.2 v -5.58 z"
   id="path8916" />
			<path
   class="st0"
   d="m 172.84,147.61 c 0,-0.44 0.33,-0.88 0.88,-0.88 0.33,0 0.77,0.33 0.77,0.88 h -1.65 v 0 z m 1.53,1.32 c -0.11,0.33 -0.44,0.44 -0.77,0.44 -0.88,0 -0.88,-0.77 -0.88,-0.99 h 2.85 v -0.11 c 0,-1.97 -1.2,-2.3 -1.97,-2.3 -1.97,0 -2.08,1.64 -2.08,2.19 0,1.64 0.88,2.19 2.08,2.19 0.77,0 1.64,-0.33 1.97,-1.31 l -1.2,-0.11 z"
   id="path8918" />
			<path
   class="st0"
   d="m 180.94,145.75 c 0,0.33 -0.11,0.44 -0.44,0.77 -0.33,-0.33 -0.44,-0.55 -0.44,-0.77 0,-0.33 0.33,-0.44 0.44,-0.44 0.22,0.11 0.44,0.22 0.44,0.44 v 0 z m 1.43,3.18 c 0.44,-0.44 0.55,-0.88 0.55,-1.75 h -0.88 c 0,0.44 -0.11,0.77 -0.33,0.99 l -0.77,-0.99 c 0.11,-0.11 0.88,-0.55 0.88,-1.31 0,-0.88 -0.77,-1.31 -1.31,-1.31 -0.88,0 -1.64,0.55 -1.64,1.31 0,0.44 0.33,0.88 0.55,1.2 h -0.11 c -0.88,0.55 -0.99,1.2 -0.99,1.64 0,0.88 0.55,1.64 1.75,1.64 0.77,0 1.2,-0.33 1.42,-0.55 l 0.44,0.44 h 1.31 l -0.87,-1.31 v 0 z m -1.21,0 c -0.33,0.11 -0.55,0.44 -0.88,0.44 -0.77,0 -0.88,-0.55 -0.88,-0.77 0,-0.44 0.33,-0.55 0.77,-0.88 l 0.99,1.21 z"
   id="path8920" />
			<polygon
   class="st0"
   points="186.31,144.44 190.36,144.44 190.36,145.53 187.51,145.53 187.51,146.74 189.92,146.74 189.92,147.72 187.51,147.72 187.51,150.13 186.31,150.13 "
   id="polygon8922" />
			<path
   class="st0"
   d="M 191.02,145.97 H 192 v 4.16 h -0.99 v -4.16 h 0.01 z m 0,-1.53 H 192 v 0.99 h -0.99 v -0.99 z"
   id="path8924" />
			<path
   class="st0"
   d="m 196.93,150.13 h -1.2 v -2.52 c 0,-0.33 0,-0.77 -0.77,-0.77 -0.44,0 -0.77,0.33 -0.77,0.88 v 2.3 h -1.2 v -4.16 h 0.99 v 0.55 0 c 0.11,-0.33 0.44,-0.77 1.31,-0.77 0.77,0 1.53,0.55 1.53,1.53 l 0.11,2.96 z"
   id="path8926" />
			<path
   class="st0"
   d="m 200.22,148.6 c 0,0.55 -0.44,0.88 -0.99,0.88 -0.11,0 -0.44,-0.11 -0.44,-0.55 0,-0.44 0.33,-0.55 0.77,-0.55 0.44,0 0.55,-0.11 0.77,-0.33 v 0.55 h -0.11 z m 0.98,-1.64 c 0,-0.88 -0.99,-1.2 -1.64,-1.2 -0.88,0 -1.75,0.33 -1.97,1.53 h 1.2 c 0,-0.11 0,-0.55 0.55,-0.55 0.33,0 0.77,0 0.77,0.55 0,0.11 -0.11,0.33 -0.44,0.33 l -0.88,0.11 c -0.77,0 -1.2,0.44 -1.2,1.31 0,0.88 0.55,1.2 1.2,1.2 0.77,0 0.99,-0.33 1.31,-0.55 0,0.11 0,0.33 0.11,0.44 h 1.2 v -0.11 c -0.11,0 -0.33,-0.11 -0.33,-0.55 l 0.12,-2.51 z"
   id="path8928" />
			<path
   class="st0"
   d="m 205.91,150.13 h -0.99 v -2.52 c 0,-0.33 0,-0.77 -0.77,-0.77 -0.44,0 -0.88,0.33 -0.88,0.88 v 2.3 h -0.99 v -4.16 h 0.99 v 0.55 0 c 0.11,-0.33 0.44,-0.77 1.2,-0.77 0.88,0 1.42,0.55 1.42,1.53 l 0.02,2.96 z"
   id="path8930" />
			<path
   class="st0"
   d="m 210.51,148.6 c 0,0.44 -0.33,1.64 -1.97,1.64 -1.42,0 -1.97,-1.2 -1.97,-2.08 0,-1.31 0.55,-2.3 2.08,-2.3 0.55,0 1.75,0.33 1.75,1.64 h -0.99 c -0.11,-0.33 -0.33,-0.77 -0.77,-0.55 -0.77,0 -0.88,0.55 -0.88,1.2 0,0.44 0,1.31 0.88,1.31 0.44,0 0.77,-0.55 0.77,-0.77 l 1.1,-0.09 z"
   id="path8932" />
			<path
   class="st0"
   d="m 212.15,147.61 c 0,-0.44 0.33,-0.88 0.88,-0.88 0.33,0 0.77,0.33 0.77,0.88 h -1.65 v 0 z m 1.65,1.32 c -0.11,0.33 -0.44,0.44 -0.77,0.44 -0.88,0 -0.88,-0.77 -0.88,-0.99 H 215 v -0.11 c 0,-1.97 -1.2,-2.3 -1.97,-2.3 -1.97,0 -2.08,1.64 -2.08,2.19 0,1.64 0.88,2.19 2.08,2.19 0.77,0 1.64,-0.33 1.97,-1.31 l -1.2,-0.11 z"
   id="path8934" />
		</g>
		<g
   id="g8986">
			<path
   class="st0"
   d="m 81.61,129.33 h 0.88 v 6.35 h -0.88 v -6.35 0 z m -1.64,6.35 h 4.16 v 0.99 h -4.16 v -0.99 0 z m -3.61,-1.97 c 0.33,1.97 2.19,1.97 3.72,1.97 v 0.99 c -1.97,-0.01 -3.29,-0.77 -3.72,-2.96 z"
   id="path8938" />
			<path
   class="st0"
   d="m 86.65,137.54 c 0.33,-0.33 0.77,-0.33 0.99,0 0.33,0.33 0.33,0.77 0,0.99 -0.33,0.22 -0.88,0.33 -0.99,0 -0.33,-0.22 -0.33,-0.66 0,-0.99 v 0 z m -1.75,0 c 0.33,-0.11 0.77,-0.11 0.99,0.11 0.33,0.33 0.33,0.77 0,0.88 -0.33,0.33 -0.77,0.33 -0.99,0 -0.33,-0.22 -0.33,-0.66 0,-0.99 v 0 z m 1.75,-4.82 h 0.88 v 3.94 h -0.88 v -3.94 0 z m -3.28,2.96 h 3.29 v 0.99 h -3.29 v -0.99 z"
   id="path8940" />
			<path
   class="st0"
   d="m 88.73,135.68 c 0,-2.08 1.2,-3.07 3.29,-3.07 v 0.88 c -1.97,0 -2.19,0.77 -2.19,2.19 h -1.1 v 0 z m 0,0 h 3.29 v 0.99 h -3.29 v -0.99 0 z m 3.18,-3.07 h 0.88 v 3.5 h -0.88 v -3.5 0 z m -1.76,6.46 c 1.97,-0.55 1.75,-1.64 1.75,-2.96 h 0.88 c 0,1.76 -0.22,2.96 -2.63,2.96 v 0 z m 2.63,-3.39 h 1.53 v 0.99 h -1.42 v -0.99 z"
   id="path8942" />
			<path
   class="st0"
   d="m 96.07,132.61 c 2.08,0 3.07,1.2 3.07,3.07 h -0.88 c 0,-1.75 -0.77,-2.19 -2.19,-2.19 v -0.88 0 z m -0.99,0 h 0.99 v 3.07 h -0.99 v -3.07 0 z m -1.42,3.07 h 6.46 v 0.99 h -6.46 v -0.99 z"
   id="path8944" />
			<path
   class="st0"
   d="m 102.53,130.31 c 0.33,-0.33 0.77,-0.33 0.99,0 0.33,0.33 0.33,0.77 0,0.99 -0.33,0.11 -0.77,0.11 -0.99,-0.11 -0.33,-0.11 -0.33,-0.66 0,-0.88 v 0 z m -1.64,0 c 0.33,-0.33 0.77,-0.33 0.99,0 0.11,0.33 0.11,0.77 -0.11,0.99 -0.33,0.11 -0.77,0.11 -0.99,-0.11 -0.11,-0.11 -0.11,-0.66 0.11,-0.88 v 0 z m 0.87,2.41 h 0.88 v 2.96 h -0.88 v -2.96 0 z m -2.19,2.96 h 4.82 v 0.99 h -4.82 v -0.99 z"
   id="path8946" />
			<path
   class="st0"
   d="m 106.14,129.33 h 0.88 v 6.35 h -0.88 v -6.35 0 z m -2.3,6.35 h 3.07 v 0.99 h -3.07 v -0.99 z"
   id="path8948" />
			<polygon
   class="st0"
   points="108.99,136.66 108.12,136.66 108.12,129.33 108.99,129.33 "
   id="polygon8950" />
			<path
   class="st0"
   d="m 110.09,135.68 c 0,-2.08 1.31,-3.07 3.29,-3.07 v 0.88 c -1.97,0 -2.19,0.77 -2.19,2.19 h -1.1 v 0 z m 0,0 h 3.29 v 0.99 h -3.29 v -0.99 0 z m 3.17,-3.07 h 0.88 v 3.5 h -0.88 v -3.5 0 z m -1.53,6.46 c 1.75,-0.55 1.64,-1.64 1.64,-2.96 h 0.88 c -0.11,1.76 -0.22,2.96 -2.52,2.96 z"
   id="path8952" />
			<path
   class="st0"
   d="m 118.63,135.68 h 5.26 v 0.99 h -5.26 v -0.99 0 z m 3.17,-3.07 h 1.2 v 0.88 h -1.2 v -0.88 0 z m 0,0.77 c -1.64,0 -2.19,0.44 -2.19,2.19 h -0.99 c 0,-1.97 0.99,-3.07 3.29,-3.07 v 0.88 h -0.11 z m 1.21,-0.77 h 0.88 v 3.07 h -0.88 v -3.07 0 z m -0.99,-2.3 c 0.33,-0.33 0.88,-0.33 0.99,0 0.33,0.33 0.33,0.77 0,0.99 -0.33,0.11 -0.77,0.11 -0.99,-0.11 -0.33,-0.11 -0.22,-0.66 0,-0.88 v 0 z m -1.64,0 c 0.33,-0.33 0.77,-0.33 0.99,0 0.33,0.33 0.11,0.77 0,0.99 -0.33,0.11 -0.88,0.11 -0.99,-0.11 -0.33,-0.11 -0.33,-0.66 0,-0.88 z"
   id="path8954" />
			<path
   class="st0"
   d="m 126.08,132.61 h 0.88 v 3.5 h -0.88 v -3.5 0 z m -1.76,6.46 c 1.75,-0.55 1.64,-1.64 1.75,-2.96 h 0.88 c 0,1.76 -0.22,2.96 -2.63,2.96 z"
   id="path8956" />
			<path
   class="st0"
   d="m 128.05,129.11 h 0.99 v 7.56 h -0.99 v -7.56 0 z m 0.98,6.57 h 1.75 v 0.99 h -1.75 v -0.99 z"
   id="path8958" />
			<path
   class="st0"
   d="m 133.52,137.54 c 0.33,-0.33 0.77,-0.33 0.99,0 0.22,0.33 0.33,0.77 0,0.99 -0.33,0.22 -0.77,0.33 -0.99,0 -0.33,-0.22 -0.33,-0.66 0,-0.99 v 0 z m 0,-4.93 c 2.19,0 3.29,1.2 3.29,3.07 h -0.99 c 0,-1.75 -0.55,-2.19 -2.19,-2.19 v -0.88 h -0.11 z m -1.97,0 h 1.97 v 0.88 h -1.97 v -0.88 0 z m -1.31,3.07 h 7.34 v 0.99 h -7.34 v -0.99 z"
   id="path8960" />
			<path
   class="st0"
   d="m 139.98,130.31 c 0.33,-0.33 0.88,-0.33 0.99,0 0.33,0.33 0.33,0.77 0,0.99 -0.33,0.11 -0.77,0.11 -0.99,-0.11 -0.33,-0.11 -0.22,-0.66 0,-0.88 v 0 z m -1.64,0 c 0.33,-0.33 0.77,-0.33 0.99,0 0.22,0.33 0.11,0.77 0,0.99 -0.33,0.11 -0.88,0.11 -0.99,-0.11 -0.33,-0.11 -0.33,-0.66 0,-0.88 v 0 z m 0.88,2.41 h 0.88 v 2.96 h -0.88 v -2.96 0 z m -2.19,2.96 h 5.04 v 0.99 h -5.04 v -0.99 z"
   id="path8962" />
			<path
   class="st0"
   d="m 143.49,129.33 h 0.88 v 6.35 h -0.88 v -6.35 0 z m -2.19,6.35 h 4.27 v 0.99 h -4.27 v -0.99 z"
   id="path8964" />
			<path
   class="st0"
   d="m 146.99,129.33 h 0.99 v 6.35 h -0.99 v -6.35 0 z m -2.19,6.35 h 3.29 v 0.99 h -3.29 v -0.99 z"
   id="path8966" />
			<path
   class="st0"
   d="m 152.47,133.71 c 0.33,1.97 2.19,1.97 3.72,1.97 v 0.99 c -1.97,-0.01 -3.39,-0.77 -3.72,-2.96 v 0 z m 3.72,1.97 h 3.83 v 0.99 h -3.83 v -0.99 0 z m 2.96,-2.96 h 0.88 v 2.96 h -0.88 v -2.96 0 z m -3.29,-2.41 c 0.33,-0.33 0.77,-0.33 0.99,0 0.11,0.33 0.11,0.77 -0.11,0.99 -0.33,0.11 -0.77,0.11 -0.99,-0.11 -0.22,-0.11 -0.22,-0.66 0.11,-0.88 z"
   id="path8968" />
			<path
   class="st0"
   d="M 161.12,129.11 H 162 v 7.56 h -0.88 v -7.56 0 z m 0.99,6.57 h 1.75 v 0.99 h -1.75 v -0.99 z"
   id="path8970" />
			<path
   class="st0"
   d="m 169.66,132.61 c 2.19,0 3.29,1.2 3.29,3.07 h -0.88 c 0,-1.75 -0.77,-2.19 -2.3,-2.19 l -0.11,-0.88 v 0 z m -1.97,0 h 2.08 v 0.88 h -2.96 l 0.88,-0.88 v 0 z m -4.49,3.07 h 10.73 v 0.99 H 163.2 v -0.99 0 z m 5.04,-5.04 h 1.31 l -2.85,2.74 h -1.2 l 2.74,-2.74 z"
   id="path8972" />
			<path
   class="st0"
   d="m 180.07,132.72 h 0.88 v 3.94 h -0.88 v -3.94 0 z m -6.69,2.96 h 6.68 v 0.99 h -6.68 v -0.99 0 z m 4.39,-2.96 h 0.88 v 2.96 h -0.88 v -2.96 0 z m -2.19,0 h 0.88 v 2.96 h -0.88 v -2.96 z"
   id="path8974" />
			<path
   class="st0"
   d="m 181.93,135.68 h 4.16 v 0.99 h -4.16 v -0.99 0 z m 0.98,-4.49 h 0.88 v 4.38 h -0.88 v -4.38 0 z m 2.3,-1.86 h 0.88 v 6.35 h -0.88 v -6.35 0 z m -1.31,8.1 c -0.77,0 -0.99,0.11 -0.99,0.88 h -0.33 c 0,-0.77 0.44,-1.2 1.31,-1.2 v 0.32 h 0.01 z m -1.64,0.77 h 1.75 v 0.55 h -1.75 v -0.55 z"
   id="path8976" />
			<polygon
   class="st0"
   points="188.28,136.66 187.29,136.66 187.29,129.33 188.28,129.33 "
   id="polygon8978" />
			<path
   class="st0"
   d="m 200.11,129.33 h 0.99 v 6.35 h -0.99 v -6.35 0 z m -3.73,6.35 h 6.13 v 0.99 h -6.13 v -0.99 0 z m -3.72,-1.97 c 0.33,1.97 2.19,1.97 3.72,1.97 v 0.99 c -1.97,-0.01 -3.39,-0.77 -3.72,-2.96 v 0 z m 4.71,-2.19 c -0.77,0 -0.99,0.11 -0.99,1.2 h -0.55 c 0,-0.99 0.55,-1.64 1.64,-1.64 v 0.44 h -0.1 z m -1.86,1.2 h 2.3 v 0.44 h -2.3 v -0.44 z"
   id="path8980" />
			<path
   class="st0"
   d="m 204.05,130.31 c 0.33,-0.33 0.77,-0.33 0.99,0 0.22,0.33 0.33,0.77 0,0.99 -0.33,0.11 -0.77,0.11 -0.99,-0.11 -0.33,-0.11 -0.33,-0.66 0,-0.88 v 0 z m 0.11,2.41 h 0.88 v 2.96 h -0.88 v -2.96 0 z m -2.19,2.96 h 4.82 v 0.99 h -4.82 v -0.99 z"
   id="path8982" />
			<path
   class="st0"
   d="m 209.41,132.72 h 0.99 v 3.94 h -0.99 v -3.94 0 z m -3.17,2.96 h 3.29 v 0.99 h -3.29 v -0.99 0 z m 3.17,1.86 c 0.33,-0.33 0.77,-0.33 0.99,0 0.22,0.33 0.33,0.77 0,0.99 -0.33,0.22 -0.77,0.33 -0.99,0 -0.21,-0.22 -0.21,-0.66 0,-0.99 z"
   id="path8984" />
		</g>
		<polygon
   class="st1"
   points="72.19,141.04 209.96,141.04 209.96,142.03 72.19,142.03 "
   id="polygon8988" />
	</g>
	<g
   id="g9008">
		<path
   class="st1"
   d="m 56.86,130.97 c 1.75,-2.63 1.2,-6.35 -1.42,-8.1 -2.63,-1.97 -6.35,-1.31 -8.1,1.31 -1.97,2.63 -1.31,6.35 1.31,8.21 2.63,1.75 6.35,1.21 8.21,-1.42 z"
   id="path8992" />
		<path
   class="st0"
   d="m 68.25,141.37 c -12.37,-2.63 -23.44,-4.71 -24.75,-12.7 -2.19,-12.7 39.42,-30.44 39.42,-30.44 0,0 -50.05,20.15 -47.86,32.85 1.42,8.43 14.89,12.92 33.18,15.77 v -5.48 z"
   id="path8994" />
		<path
   class="st1"
   d="m 36.71,148.27 v -11.94 c -0.77,-0.88 -1.2,-1.64 -1.64,-2.3 v 14.24 h 1.64 z"
   id="path8996" />
		<path
   class="st1"
   d="m 40.66,148.93 v -9.31 c -0.55,-0.33 -1.2,-0.55 -1.64,-0.99 v 10.29 h 1.64 z"
   id="path8998" />
		<path
   class="st1"
   d="m 46.68,148.16 v -5.48 c -0.55,-0.33 -0.99,-0.44 -1.42,-0.77 v 6.13 h 1.42 z"
   id="path9000" />
		<path
   class="st1"
   d="m 52.81,148.27 v -3.72 c -0.44,-0.11 -0.99,-0.33 -1.42,-0.44 v 4.16 h 1.42 z"
   id="path9002" />
		<path
   class="st1"
   d="m 60.15,148.16 v -1.75 c -0.44,-0.11 -0.99,-0.11 -1.42,-0.33 v 2.08 h 1.42 z"
   id="path9004" />
		<path
   class="st1"
   d="m 68.25,149.15 v -1.31 c -0.55,-0.11 -0.99,-0.11 -1.64,-0.33 v 1.64 h 1.64 z"
   id="path9006" />
	</g>
</g>
</svg>
