<?xml version="1.0" encoding="UTF-8" standalone="no"?>
<!-- Generator: Adobe Illustrator 25.2.0, SVG Export Plug-In . SVG Version: 6.00 Build 0)  -->

<svg
   version="1.1"
   id="Layer_1"
   x="0px"
   y="0px"
   viewBox="0 0 180 31.870001"
   xml:space="preserve"
   sodipodi:docname="HSBC-01-01.svg"
   width="180"
   height="31.870001"
   inkscape:version="1.2.2 (732a01da63, 2022-12-09)"
   xmlns:inkscape="http://www.inkscape.org/namespaces/inkscape"
   xmlns:sodipodi="http://sodipodi.sourceforge.net/DTD/sodipodi-0.dtd"
   xmlns="http://www.w3.org/2000/svg"
   xmlns:svg="http://www.w3.org/2000/svg"><defs
   id="defs159" /><sodipodi:namedview
   id="namedview157"
   pagecolor="#505050"
   bordercolor="#eeeeee"
   borderopacity="1"
   inkscape:showpageshadow="0"
   inkscape:pageopacity="0"
   inkscape:pagecheckerboard="0"
   inkscape:deskcolor="#505050"
   showgrid="false"
   inkscape:zoom="2.008"
   inkscape:cx="90.139442"
   inkscape:cy="15.936255"
   inkscape:window-width="1366"
   inkscape:window-height="705"
   inkscape:window-x="-8"
   inkscape:window-y="-8"
   inkscape:window-maximized="1"
   inkscape:current-layer="Layer_1" />
<style
   type="text/css"
   id="style132">
	.st0{fill:#231F20;}
	.st1{fill:#FFFFFF;}
	.st2{fill:#EE3524;}
</style>
<g
   id="g154"
   transform="translate(-35,-109.07)">
	<g
   id="g152">
		<path
   class="st0"
   d="m 57.58,123.86 v -10.21 c 0,-1.33 -0.69,-2.8 -4.03,-2.8 v -0.87 h 12.73 v 0.87 c -3.34,0 -4.03,1.47 -4.03,2.8 v 22.99 c 0,1.33 0.69,2.79 4.03,2.79 v 0.87 H 53.54 v -0.87 c 3.34,0 4.03,-1.47 4.03,-2.79 v -10.9 H 43.7 v 10.9 c 0,1.33 0.69,2.79 4.03,2.79 v 0.87 H 35 v -0.87 c 3.34,0 4.03,-1.47 4.03,-2.79 v -22.99 c 0,-1.33 -0.69,-2.8 -4.03,-2.8 v -0.87 h 12.73 v 0.87 c -3.34,0 -4.03,1.47 -4.03,2.8 v 10.21 h 13.88"
   id="path134" />
		<path
   class="st0"
   d="m 67.35,131.09 h 1.05 c 1.42,4.26 4.63,8.11 9.48,8.11 3.71,0 6.22,-3.21 5.17,-6.78 -1.88,-6.41 -14.38,-6.69 -14.38,-15.43 0,-4.53 3.62,-7.65 8.1,-7.65 4.85,0 7.05,3.39 8.15,0 h 0.96 l 1.01,9.76 h -1.14 c -1.05,-4.26 -4.08,-7.88 -8.34,-7.88 -2.75,0 -4.81,1.51 -4.81,4.4 0,2.65 2.88,4.53 4.85,5.72 6.23,3.76 10.44,5.73 10.44,11.22 0,4.12 -3.43,8.38 -9.66,8.38 -4.76,0 -8.06,-3.34 -8.52,0 H 68.7 l -1.35,-9.85"
   id="path136" />
		<path
   class="st0"
   d="m 103.04,123.54 c 4.62,0 7.33,-1.97 7.33,-5.68 0,-3.48 -2.2,-5.36 -5.4,-5.95 -4.21,-0.28 -5.68,-0.37 -5.68,1.24 v 10.39 h 3.75 m -3.76,12.64 c 0,1.6 0.41,2.43 3.76,2.43 4.76,0 8.29,-1.42 8.29,-6.78 0,-5.45 -5.45,-6.46 -9.75,-6.46 h -2.29 v 10.81 z m -4.67,-22.53 c 0,-1.33 -0.69,-2.8 -4.39,-2.8 v -0.87 h 12.27 c 7.05,0 12.55,1.88 12.55,7.74 0,3.84 -2.57,5.81 -6.09,6.59 v 0.09 c 3.93,0.73 7.64,3.16 7.64,7.56 0,5.5 -4.76,8.33 -11.95,8.33 H 90.22 v -0.87 c 3.71,0 4.39,-1.47 4.39,-2.79 z"
   id="path138" />
		<path
   class="st0"
   d="m 144.07,119.41 h -1.1 c -1.33,-5.04 -4.67,-8.47 -9.89,-8.47 -7.55,0 -10.8,6.09 -10.8,14.33 0,6.41 3.34,13.32 10.85,13.32 4.49,0 7.55,-1.46 10.71,-4.58 l 0.78,0.92 c -2.79,3.43 -7.51,5.73 -11.91,5.73 -8.93,0 -15.75,-5.73 -15.75,-15.75 0,-9.11 6.45,-15.84 15.66,-15.84 6.27,0 8.56,3.76 10.08,0.05 h 0.96 l 0.41,10.29"
   id="path140" />
		<rect
   x="168.8"
   y="109.16"
   class="st1"
   width="30.799999"
   height="30.799999"
   id="rect142" />
		<polyline
   class="st2"
   points="168.8,109.14 199.6,109.14 184.2,124.53 168.8,109.14   "
   id="polyline144" />
		<polyline
   class="st2"
   points="168.8,139.93 199.6,139.93 184.2,124.53 168.8,139.93   "
   id="polyline146" />
		<polyline
   class="st2"
   points="168.8,109.14 168.8,139.93 153.41,124.53 168.8,109.14   "
   id="polyline148" />
		<polyline
   class="st2"
   points="199.6,109.14 199.6,139.93 215,124.53 199.6,109.14   "
   id="polyline150" />
	</g>
</g>
</svg>
