<?xml version="1.0" encoding="utf-8"?>
<!-- Generator: Adobe Illustrator 25.2.0, SVG Export Plug-In . SVG Version: 6.00 Build 0)  -->
<svg version="1.1" id="Layer_1" xmlns="http://www.w3.org/2000/svg" xmlns:xlink="http://www.w3.org/1999/xlink" x="0px" y="0px"
	 viewBox="0 0 250 250" style="enable-background:new 0 0 250 250;" xml:space="preserve">
<style type="text/css">
	.st0{fill:#231F20;}
	.st1{fill:#FFFFFF;}
	.st2{fill:#EE3524;}
</style>
<g>
	<g>
		<path class="st0" d="M57.58,123.86v-10.21c0-1.33-0.69-2.8-4.03-2.8v-0.87h12.73v0.87c-3.34,0-4.03,1.47-4.03,2.8v22.99
			c0,1.33,0.69,2.79,4.03,2.79v0.87H53.54v-0.87c3.34,0,4.03-1.47,4.03-2.79v-10.9H43.7v10.9c0,1.33,0.69,2.79,4.03,2.79v0.87H35
			v-0.87c3.34,0,4.03-1.47,4.03-2.79v-22.99c0-1.33-0.69-2.8-4.03-2.8v-0.87h12.73v0.87c-3.34,0-4.03,1.47-4.03,2.8v10.21H57.58"/>
		<path class="st0" d="M67.35,131.09h1.05c1.42,4.26,4.63,8.11,9.48,8.11c3.71,0,6.22-3.21,5.17-6.78
			c-1.88-6.41-14.38-6.69-14.38-15.43c0-4.53,3.62-7.65,8.1-7.65c4.85,0,7.05,3.39,8.15,0h0.96l1.01,9.76h-1.14
			c-1.05-4.26-4.08-7.88-8.34-7.88c-2.75,0-4.81,1.51-4.81,4.4c0,2.65,2.88,4.53,4.85,5.72c6.23,3.76,10.44,5.73,10.44,11.22
			c0,4.12-3.43,8.38-9.66,8.38c-4.76,0-8.06-3.34-8.52,0h-1.01L67.35,131.09"/>
		<path class="st0" d="M103.04,123.54c4.62,0,7.33-1.97,7.33-5.68c0-3.48-2.2-5.36-5.4-5.95c-4.21-0.28-5.68-0.37-5.68,1.24v10.39
			H103.04 M99.28,136.18c0,1.6,0.41,2.43,3.76,2.43c4.76,0,8.29-1.42,8.29-6.78c0-5.45-5.45-6.46-9.75-6.46h-2.29V136.18z
			 M94.61,113.65c0-1.33-0.69-2.8-4.39-2.8v-0.87h12.27c7.05,0,12.55,1.88,12.55,7.74c0,3.84-2.57,5.81-6.09,6.59v0.09
			c3.93,0.73,7.64,3.16,7.64,7.56c0,5.5-4.76,8.33-11.95,8.33H90.22v-0.87c3.71,0,4.39-1.47,4.39-2.79V113.65z"/>
		<path class="st0" d="M144.07,119.41h-1.1c-1.33-5.04-4.67-8.47-9.89-8.47c-7.55,0-10.8,6.09-10.8,14.33
			c0,6.41,3.34,13.32,10.85,13.32c4.49,0,7.55-1.46,10.71-4.58l0.78,0.92c-2.79,3.43-7.51,5.73-11.91,5.73
			c-8.93,0-15.75-5.73-15.75-15.75c0-9.11,6.45-15.84,15.66-15.84c6.27,0,8.56,3.76,10.08,0.05h0.96L144.07,119.41"/>
		<rect x="168.8" y="109.16" class="st1" width="30.8" height="30.8"/>
		<polyline class="st2" points="168.8,109.14 199.6,109.14 184.2,124.53 168.8,109.14 		"/>
		<polyline class="st2" points="168.8,139.93 199.6,139.93 184.2,124.53 168.8,139.93 		"/>
		<polyline class="st2" points="168.8,109.14 168.8,139.93 153.41,124.53 168.8,109.14 		"/>
		<polyline class="st2" points="199.6,109.14 199.6,139.93 215,124.53 199.6,109.14 		"/>
	</g>
</g>
</svg>
