<?xml version="1.0" encoding="UTF-8" standalone="no"?>
<svg
   aria-label="Sociéte générale"
   focusable="false"
   version="1.1"
   id="Calque_2"
   x="0"
   y="0"
   viewBox="0 0 144.89999 28.4"
   xml:space="preserve"
   sodipodi:docname="Societe_Generale_Algerie-01-01.svg"
   width="144.89999"
   height="28.4"
   inkscape:version="1.2.2 (732a01da63, 2022-12-09)"
   xmlns:inkscape="http://www.inkscape.org/namespaces/inkscape"
   xmlns:sodipodi="http://sodipodi.sourceforge.net/DTD/sodipodi-0.dtd"
   xmlns="http://www.w3.org/2000/svg"
   xmlns:svg="http://www.w3.org/2000/svg"><defs
     id="defs11831" /><sodipodi:namedview
     id="namedview11829"
     pagecolor="#505050"
     bordercolor="#eeeeee"
     borderopacity="1"
     inkscape:showpageshadow="0"
     inkscape:pageopacity="0"
     inkscape:pagecheckerboard="0"
     inkscape:deskcolor="#505050"
     showgrid="false"
     inkscape:zoom="1.8847352"
     inkscape:cx="65.791736"
     inkscape:cy="20.692562"
     inkscape:window-width="1366"
     inkscape:window-height="705"
     inkscape:window-x="-8"
     inkscape:window-y="-8"
     inkscape:window-maximized="1"
     inkscape:current-layer="Calque_2" /><path
     id="rect4"
     fill="#e60028"
     d="M 0,0.1 H 28.3 V 14.6 H 0 Z" /><path
     id="rect6"
     d="M 0,14.2 H 28.3 V 28.4 H 0 Z" /><g
     id="g22"
     transform="translate(-411.7,-283.4)"><g
       id="g20"><g
         id="g18"><g
           id="g16"><g
             id="g14"><g
               id="g12"><g
                 id="g10"><path
                   id="rect8"
                   fill="#ffffff"
                   d="M 416.6,296.8 H 435 v 1.7 h -18.4 z" /></g></g></g></g></g></g></g><g
     id="g92"
     transform="translate(-411.7,-283.4)"><path
       d="m 458.9,286.6 c -1.5,-0.6 -3.2,-1.1 -4.6,-1.1 -2.1,0 -3.2,0.5 -3.2,1.3 0,2.3 9.5,0.5 9.5,5.5 0,2.1 -1.9,3.7 -5.8,3.7 -2.3,0 -4.1,-0.5 -6.2,-1.6 l 0.9,-1.9 c 1.8,1 3.5,1.5 5.3,1.5 2.3,0 3.5,-0.7 3.5,-1.7 0,-2.6 -9.5,-0.6 -9.5,-5.3 0,-2 1.9,-3.4 5.4,-3.4 2.1,0 3.8,0.5 5.5,1.3 z"
       id="path62" /><path
       d="m 469.4,296 c -3.8,0 -6.9,-2.5 -6.9,-6.3 0,-3.7 3.1,-6.3 6.9,-6.3 3.8,0 6.9,2.6 6.9,6.3 0,3.8 -3.1,6.3 -6.9,6.3 m 0,-10.5 c -2.8,0 -4.6,1.9 -4.6,4.3 0,2.4 1.8,4.3 4.6,4.3 2.8,0 4.6,-1.8 4.6,-4.3 0,-2.4 -1.8,-4.3 -4.6,-4.3"
       id="path64" /><path
       d="m 485.3,296 c -4,0 -7,-2.5 -7,-6.3 0,-3.7 3,-6.3 7,-6.3 2.3,0 4,0.7 5.5,1.8 l -1.2,1.7 c -1.1,-0.8 -2.5,-1.5 -4.3,-1.5 -2.9,0 -4.7,1.8 -4.7,4.2 0,2.4 1.8,4.2 4.7,4.2 1.8,0 3.3,-0.6 4.3,-1.4 l 1.2,1.7 c -1.4,1.3 -3.2,1.9 -5.5,1.9"
       id="path66" /><path
       id="rect68"
       d="m 493.3,283.8 h 2.2 v 11.9 h -2.2 z" /><path
       id="polygon70"
       d="M 509.6,285.8 H 501 v 2.9 h 6.7 v 1.9 H 501 v 3.1 h 9 v 2 h -11.2 v -11.9 h 10.8 z" /><path
       id="polygon72"
       d="m 523,285.8 h -4.8 v 9.9 H 516 v -9.9 h -4.9 v -2 H 523 Z" /><path
       id="polygon74"
       d="M 535.6,285.8 H 527 v 2.9 h 6.7 v 1.9 H 527 v 3.1 h 9 v 2 h -11.2 v -11.9 h 10.8 z" /><path
       d="m 455.3,309.7 c 1.2,0 2.4,-0.3 3.4,-0.7 v -3.4 h 2.1 v 4.6 c -1.5,1 -3.6,1.6 -5.6,1.6 -4,0 -7,-2.5 -7,-6.3 0,-3.7 3,-6.3 7,-6.3 2.3,0 4,0.6 5.5,1.8 l -1.2,1.7 c -1.1,-0.8 -2.5,-1.4 -4.3,-1.4 -2.9,-0.1 -4.7,1.8 -4.7,4.2 0.1,2.5 1.9,4.2 4.8,4.2"
       id="path76" /><path
       id="polygon78"
       d="m 474.5,301.6 h -8.6 v 2.9 h 6.7 v 1.9 h -6.7 v 3.1 h 9 v 2 h -11.2 v -11.9 h 10.8 z" /><path
       d="M 479.2,311.5 H 477 v -11.9 h 2.2 l 7.7,8.9 h 0.1 c -0.1,-2.2 -0.1,-4.1 -0.1,-5.8 v -3.1 h 2.1 v 11.9 h -2.2 l -7.7,-8.9 c 0.1,1.8 0.1,4.8 0.1,5.8 z"
       id="path80" /><path
       id="polygon82"
       d="m 503,301.6 h -8.6 v 2.9 h 6.7 v 1.9 h -6.7 v 3.1 h 9 v 2 H 492.2 V 299.6 H 503 Z" /><path
       d="m 511.4,307.1 h -3.5 v 4.4 h -2.2 v -11.9 h 7.6 c 2.5,0 4.1,1.6 4.1,3.8 0,2.1 -1.5,3.4 -3.4,3.7 l 3.5,4.4 h -2.8 z m 1.7,-1.9 c 1.4,0 2.2,-0.7 2.2,-1.7 0,-1.1 -0.7,-1.8 -1.9,-1.8 H 508 v 3.6 h 5.1 z"
       id="path84" /><path
       d="m 522,308.6 -1.4,2.9 h -2.4 l 5.8,-11.9 h 2.3 l 5.8,11.9 h -2.4 l -1.4,-2.9 z m 1,-1.9 h 4.6 l -2.3,-4.8 z"
       id="path86" /><path
       id="polygon88"
       d="m 536,309.5 h 7.9 v 2 h -10.1 v -11.9 h 2.2 z" /><path
       id="polygon90"
       d="m 556.2,301.6 h -8.6 v 2.9 h 6.7 v 1.9 h -6.7 v 3.1 h 9 v 2 h -11.2 v -11.9 h 10.8 z" /></g></svg>
