<?xml version="1.0" encoding="utf-8"?>
<!-- Generator: Adobe Illustrator 25.2.0, SVG Export Plug-In . SVG Version: 6.00 Build 0)  -->
<svg version="1.1" id="Layer_1" xmlns="http://www.w3.org/2000/svg" xmlns:xlink="http://www.w3.org/1999/xlink" x="0px" y="0px"
	 viewBox="0 0 250 250" style="enable-background:new 0 0 250 250;" xml:space="preserve">
<style type="text/css">
	.st0{fill:#ED1A3A;}
	.st1{fill:#FFFFFF;}
</style>
<g>
	<g>
		<path id="path6" d="M93.63,110.99c-1.89-0.82-3.92-1.36-5.72-1.36c-2.63,0-3.95,0.58-3.95,1.62c0,2.98,11.75,0.59,11.75,6.95
			c0,2.63-2.41,4.67-7.25,4.67c-2.87,0-5.11-0.61-7.68-2.03l1.06-2.37c2.26,1.28,4.36,1.86,6.64,1.86c2.87,0,4.4-0.85,4.4-2.12
			c0-3.26-11.75-0.83-11.75-6.79c0-2.57,2.39-4.34,6.72-4.34c2.59,0,4.77,0.58,6.85,1.65L93.63,110.99"/>
		<path id="path8" d="M106.73,122.96c-4.69,0-8.58-3.2-8.58-7.99c0-4.73,3.89-8,8.58-8c4.72,0,8.55,3.27,8.55,8
			C115.27,119.75,111.44,122.96,106.73,122.96 M106.73,109.55c-3.42,0-5.75,2.37-5.75,5.42c0,3.12,2.23,5.44,5.75,5.44
			c3.5,0,5.72-2.34,5.72-5.44C112.44,111.92,110.22,109.55,106.73,109.55"/>
		<path id="path10" d="M126.48,122.94c-4.93,0-8.64-3.2-8.64-7.99c0-4.71,3.77-7.98,8.64-7.98c2.9,0,4.99,0.85,6.85,2.26l-1.45,2.21
			c-1.36-1.07-3.06-1.85-5.32-1.85c-3.6,0-5.83,2.33-5.83,5.36c0,3.12,2.26,5.38,5.87,5.38c2.26,0,4.05-0.75,5.4-1.82l1.46,2.22
			C131.59,122.13,129.39,122.94,126.48,122.94"/>
		<path id="rect12" d="M136.43,107.43h2.74v15.1h-2.74V107.43z"/>
		<path id="polyline14" d="M143.21,122.53v-15.1h13.41v2.5h-10.68v3.67h8.3v2.49h-8.3v3.95h11.15v2.5H143.21"/>
		<path id="polyline16" d="M167.29,109.91v12.62h-2.73v-12.62h-6.01v-2.48h14.73v2.48H167.29"/>
		<path id="polyline18" d="M175.49,122.53v-15.1h13.41v2.5h-10.68v3.67h8.31v2.49h-8.31v3.95h11.15v2.5H175.49"/>
		<path id="path20" d="M89.2,140.4c1.5,0,3.04-0.35,4.2-0.91v-4.39h2.66v5.86c-1.87,1.29-4.44,2.07-6.98,2.07
			c-4.92,0-8.64-3.2-8.64-7.99c0-4.71,3.77-7.97,8.64-7.97c2.85,0,4.99,0.82,6.86,2.23l-1.45,2.21c-1.36-1.07-3.07-1.8-5.33-1.8
			c-3.6-0.07-5.83,2.3-5.83,5.32C83.34,138.17,85.6,140.4,89.2,140.4"/>
		<path id="polyline22" d="M99.66,142.63v-15.09h13.42v2.49h-10.69v3.67h8.31v2.49h-8.31v3.95h11.16v2.49H99.66"/>
		<path id="path24" d="M118.9,142.63h-2.67v-15.09h2.79l9.61,11.38l0.07-0.02c-0.16-2.86-0.18-5.17-0.18-7.42v-3.94h2.67v15.09
			h-2.77l-9.57-11.37l-0.04,0.02c0.11,2.24,0.11,6.14,0.11,7.41V142.63"/>
		<path id="polyline26" d="M135.02,142.63v-15.09h13.41v2.49h-10.69v3.67h8.31v2.49h-8.31v3.95h11.16v2.49H135.02"/>
		<path id="path28" d="M158.93,137.08h-4.4v5.55h-2.73v-15.09h9.47c3.14,0,5.09,1.97,5.09,4.81c0,2.7-1.91,4.3-4.22,4.65l4.38,5.63
			h-3.42L158.93,137.08 M160.97,134.57c1.71,0,2.67-0.91,2.67-2.21c0-1.43-0.85-2.32-2.38-2.32h-6.73v4.53H160.97L160.97,134.57z"/>
		<path id="path30" d="M172.11,138.97l-1.69,3.67h-2.96l7.18-15.09h2.87l7.19,15.09h-2.95l-1.69-3.67H172.11 M173.24,136.52h5.67
			l-2.83-6.12L173.24,136.52L173.24,136.52z"/>
		<path id="polyline32" d="M186.7,142.63v-15.09h2.73v12.6h9.83v2.49H186.7"/>
		<path id="polyline34" d="M201.11,142.63v-15.09h13.42v2.49h-10.69v3.67h8.31v2.49h-8.31v3.95H215v2.49H201.11"/>
	</g>
	<g>
		<path id="rect36" class="st0" d="M35,106.96h35.2v18.4H35V106.96z"/>
		<path id="rect38" d="M35,125h35.2v18.04H35V125z"/>
		<g id="line40">
			<rect x="41.15" y="124.14" class="st1" width="22.9" height="1.72"/>
		</g>
	</g>
</g>
</svg>
