<?xml version="1.0" encoding="UTF-8" standalone="no"?>
<!-- Generator: Adobe Illustrator 25.2.0, SVG Export Plug-In . SVG Version: 6.00 Build 0)  -->

<svg
   version="1.1"
   id="Layer_1"
   x="0px"
   y="0px"
   viewBox="0 0 147.75999 180"
   xml:space="preserve"
   sodipodi:docname="Trust_Bank_Algeria-01-01.svg"
   width="147.75999"
   height="180"
   inkscape:version="1.2.2 (732a01da63, 2022-12-09)"
   xmlns:inkscape="http://www.inkscape.org/namespaces/inkscape"
   xmlns:sodipodi="http://sodipodi.sourceforge.net/DTD/sodipodi-0.dtd"
   xmlns="http://www.w3.org/2000/svg"
   xmlns:svg="http://www.w3.org/2000/svg"><defs
   id="defs5791" /><sodipodi:namedview
   id="namedview5789"
   pagecolor="#505050"
   bordercolor="#eeeeee"
   borderopacity="1"
   inkscape:showpageshadow="0"
   inkscape:pageopacity="0"
   inkscape:pagecheckerboard="0"
   inkscape:deskcolor="#505050"
   showgrid="false"
   inkscape:zoom="2.1"
   inkscape:cx="73.809524"
   inkscape:cy="90"
   inkscape:window-width="1366"
   inkscape:window-height="705"
   inkscape:window-x="-8"
   inkscape:window-y="-8"
   inkscape:window-maximized="1"
   inkscape:current-layer="Layer_1" />
<style
   type="text/css"
   id="style5561">
	.st0{fill:url(#SVGID_1_);}
	.st1{fill:url(#SVGID_2_);}
	.st2{fill:url(#SVGID_3_);}
	.st3{fill:url(#SVGID_4_);}
	.st4{fill:url(#SVGID_5_);}
	.st5{fill:url(#SVGID_6_);}
	.st6{fill:url(#SVGID_7_);}
	.st7{fill:url(#SVGID_8_);}
	.st8{fill:url(#SVGID_9_);}
	.st9{fill:#575656;}
</style>
<g
   id="g5786"
   transform="translate(-51.12,-35)">
	<g
   id="g5702">
		<linearGradient
   id="SVGID_1_"
   gradientUnits="userSpaceOnUse"
   x1="123.9629"
   y1="126.873"
   x2="125.1569"
   y2="38.5191">
			<stop
   offset="0"
   style="stop-color:#009897"
   id="stop5563" />
			<stop
   offset="0.2005"
   style="stop-color:#009392"
   id="stop5565" />
			<stop
   offset="0.4335"
   style="stop-color:#008585"
   id="stop5567" />
			<stop
   offset="0.6827"
   style="stop-color:#006E6E"
   id="stop5569" />
			<stop
   offset="0.9418"
   style="stop-color:#004D4F"
   id="stop5571" />
			<stop
   offset="1"
   style="stop-color:#004547"
   id="stop5573" />
		</linearGradient>
		<polygon
   class="st0"
   points="120.7,44.23 120.7,129.74 129.89,129.74 129.89,44.23 172.35,44.23 172.35,35 77.93,35 77.93,44.23 "
   id="polygon5576"
   style="fill:url(#SVGID_1_)" />
		<g
   id="g5638">
			<linearGradient
   id="SVGID_2_"
   gradientUnits="userSpaceOnUse"
   x1="96.227203"
   y1="127.5452"
   x2="97.263"
   y2="47.5284">
				<stop
   offset="0"
   style="stop-color:#009897"
   id="stop5578" />
				<stop
   offset="0.2005"
   style="stop-color:#009392"
   id="stop5580" />
				<stop
   offset="0.4335"
   style="stop-color:#008585"
   id="stop5582" />
				<stop
   offset="0.6827"
   style="stop-color:#006E6E"
   id="stop5584" />
				<stop
   offset="0.9418"
   style="stop-color:#004D4F"
   id="stop5586" />
				<stop
   offset="1"
   style="stop-color:#004547"
   id="stop5588" />
			</linearGradient>
			<polygon
   class="st1"
   points="115.5,129.74 110.75,129.74 110.75,54.12 77.93,54.12 77.93,49.36 115.5,49.36 "
   id="polygon5591"
   style="fill:url(#SVGID_2_)" />
			<linearGradient
   id="SVGID_3_"
   gradientUnits="userSpaceOnUse"
   x1="93.568604"
   y1="130.3018"
   x2="91.755898"
   y2="50.285">
				<stop
   offset="0"
   style="stop-color:#009897"
   id="stop5593" />
				<stop
   offset="0.2005"
   style="stop-color:#009392"
   id="stop5595" />
				<stop
   offset="0.4335"
   style="stop-color:#008585"
   id="stop5597" />
				<stop
   offset="0.6827"
   style="stop-color:#006E6E"
   id="stop5599" />
				<stop
   offset="0.9418"
   style="stop-color:#004D4F"
   id="stop5601" />
				<stop
   offset="1"
   style="stop-color:#004547"
   id="stop5603" />
			</linearGradient>
			<polygon
   class="st2"
   points="106.07,129.74 101.31,129.74 101.31,63.36 77.93,63.36 77.93,58.88 106.07,58.88 "
   id="polygon5606"
   style="fill:url(#SVGID_3_)" />
			<linearGradient
   id="SVGID_4_"
   gradientUnits="userSpaceOnUse"
   x1="87.326599"
   y1="129.8288"
   x2="87.326599"
   y2="59.652199">
				<stop
   offset="0"
   style="stop-color:#009897"
   id="stop5608" />
				<stop
   offset="0.2005"
   style="stop-color:#009392"
   id="stop5610" />
				<stop
   offset="0.4335"
   style="stop-color:#008585"
   id="stop5612" />
				<stop
   offset="0.6827"
   style="stop-color:#006E6E"
   id="stop5614" />
				<stop
   offset="0.9418"
   style="stop-color:#004D4F"
   id="stop5616" />
				<stop
   offset="1"
   style="stop-color:#004547"
   id="stop5618" />
			</linearGradient>
			<polygon
   class="st3"
   points="96.72,129.74 92,129.74 92,73.24 77.93,73.24 77.93,68.3 96.72,68.3 "
   id="polygon5621"
   style="fill:url(#SVGID_4_)" />
			<linearGradient
   id="SVGID_5_"
   gradientUnits="userSpaceOnUse"
   x1="82.840302"
   y1="128.28169"
   x2="82.581299"
   y2="68.9813">
				<stop
   offset="0"
   style="stop-color:#009897"
   id="stop5623" />
				<stop
   offset="0.2005"
   style="stop-color:#009392"
   id="stop5625" />
				<stop
   offset="0.4335"
   style="stop-color:#008585"
   id="stop5627" />
				<stop
   offset="0.6827"
   style="stop-color:#006E6E"
   id="stop5629" />
				<stop
   offset="0.9418"
   style="stop-color:#004D4F"
   id="stop5631" />
				<stop
   offset="1"
   style="stop-color:#004547"
   id="stop5633" />
			</linearGradient>
			<polygon
   class="st4"
   points="87.33,129.74 82.63,129.74 82.63,82.37 77.93,82.37 77.93,78.05 87.33,78.05 "
   id="polygon5636"
   style="fill:url(#SVGID_5_)" />
		</g>
		<g
   id="g5700">
			
				<linearGradient
   id="SVGID_6_"
   gradientUnits="userSpaceOnUse"
   x1="793.28912"
   y1="127.5452"
   x2="794.32489"
   y2="47.5284"
   gradientTransform="matrix(-1,0,0,1,947.1197,0)">
				<stop
   offset="0"
   style="stop-color:#009897"
   id="stop5640" />
				<stop
   offset="0.2005"
   style="stop-color:#009392"
   id="stop5642" />
				<stop
   offset="0.4335"
   style="stop-color:#008585"
   id="stop5644" />
				<stop
   offset="0.6827"
   style="stop-color:#006E6E"
   id="stop5646" />
				<stop
   offset="0.9418"
   style="stop-color:#004D4F"
   id="stop5648" />
				<stop
   offset="1"
   style="stop-color:#004547"
   id="stop5650" />
			</linearGradient>
			<polygon
   class="st5"
   points="134.55,129.74 139.31,129.74 139.31,54.12 172.12,54.12 172.12,49.36 134.55,49.36 "
   id="polygon5653"
   style="fill:url(#SVGID_6_)" />
			
				<linearGradient
   id="SVGID_7_"
   gradientUnits="userSpaceOnUse"
   x1="790.63062"
   y1="130.3018"
   x2="788.81787"
   y2="50.285"
   gradientTransform="matrix(-1,0,0,1,947.1197,0)">
				<stop
   offset="0"
   style="stop-color:#009897"
   id="stop5655" />
				<stop
   offset="0.2005"
   style="stop-color:#009392"
   id="stop5657" />
				<stop
   offset="0.4335"
   style="stop-color:#008585"
   id="stop5659" />
				<stop
   offset="0.6827"
   style="stop-color:#006E6E"
   id="stop5661" />
				<stop
   offset="0.9418"
   style="stop-color:#004D4F"
   id="stop5663" />
				<stop
   offset="1"
   style="stop-color:#004547"
   id="stop5665" />
			</linearGradient>
			<polygon
   class="st6"
   points="143.99,129.74 148.75,129.74 148.75,63.36 172.12,63.36 172.12,58.88 143.99,58.88 "
   id="polygon5668"
   style="fill:url(#SVGID_7_)" />
			
				<linearGradient
   id="SVGID_8_"
   gradientUnits="userSpaceOnUse"
   x1="784.38849"
   y1="129.8288"
   x2="784.38849"
   y2="59.652199"
   gradientTransform="matrix(-1,0,0,1,947.1197,0)">
				<stop
   offset="0"
   style="stop-color:#009897"
   id="stop5670" />
				<stop
   offset="0.2005"
   style="stop-color:#009392"
   id="stop5672" />
				<stop
   offset="0.4335"
   style="stop-color:#008585"
   id="stop5674" />
				<stop
   offset="0.6827"
   style="stop-color:#006E6E"
   id="stop5676" />
				<stop
   offset="0.9418"
   style="stop-color:#004D4F"
   id="stop5678" />
				<stop
   offset="1"
   style="stop-color:#004547"
   id="stop5680" />
			</linearGradient>
			<polygon
   class="st7"
   points="153.34,129.74 158.06,129.74 158.06,73.24 172.12,73.24 172.12,68.3 153.34,68.3 "
   id="polygon5683"
   style="fill:url(#SVGID_8_)" />
			
				<linearGradient
   id="SVGID_9_"
   gradientUnits="userSpaceOnUse"
   x1="779.90222"
   y1="128.28169"
   x2="779.64319"
   y2="68.9813"
   gradientTransform="matrix(-1,0,0,1,947.1197,0)">
				<stop
   offset="0"
   style="stop-color:#009897"
   id="stop5685" />
				<stop
   offset="0.2005"
   style="stop-color:#009392"
   id="stop5687" />
				<stop
   offset="0.4335"
   style="stop-color:#008585"
   id="stop5689" />
				<stop
   offset="0.6827"
   style="stop-color:#006E6E"
   id="stop5691" />
				<stop
   offset="0.9418"
   style="stop-color:#004D4F"
   id="stop5693" />
				<stop
   offset="1"
   style="stop-color:#004547"
   id="stop5695" />
			</linearGradient>
			<polygon
   class="st8"
   points="162.73,129.74 167.43,129.74 167.43,82.37 172.12,82.37 172.12,78.05 162.73,78.05 "
   id="polygon5698"
   style="fill:url(#SVGID_9_)" />
		</g>
	</g>
	<g
   id="g5784">
		<g
   id="g5782">
			<g
   id="g5724">
				<g
   id="g5706">
					<path
   class="st9"
   d="m 51.12,149.17 c 5.66,0 24.84,0 28.35,0 0,2.72 0,3.87 0,5.51 -1.22,-1.15 -0.88,-3.28 -11.11,-3.21 0,4.16 0,24.44 0,26.36 0,1.92 -0.4,2.99 1.05,4.29 -2.4,0 -6.61,0 -8.12,0 0.5,-0.54 1.47,-1.28 1.44,-3.36 -0.03,-2.08 0,-24.07 0,-26.96 -4.28,0 -5.37,0 -6.87,0 -1.5,0 -3.17,0.67 -4.73,2.66 -0.01,-1.18 -0.01,-5.29 -0.01,-5.29 z"
   id="path5704" />
				</g>
				<g
   id="g5710">
					<path
   class="st9"
   d="m 91.43,182.12 c -0.71,0 -7.13,0 -8.3,0 0.83,-0.82 1.63,-1.27 1.58,-2.23 -0.04,-0.96 0,-27.06 0,-28.1 0,-1.04 -0.75,-2.04 -1.38,-2.21 0.03,-0.18 0,-0.24 0,-0.24 0,0 9.56,0 14.52,0 4.96,0 11.03,2.26 11.14,8.58 0,5.72 -5.09,7.19 -6.27,7.81 2.2,3.23 9.35,13.72 11.35,16.39 -6.64,0.36 -5.45,2.11 -18.67,-16.48 3.33,0.04 7.5,-1.2 7.17,-7.37 -0.33,-6.18 -4.67,-7.05 -6.73,-7.05 -2.06,0 -5.82,0 -5.82,0 0,0 0,26.75 0,28.23 0,1.48 0.87,2.34 1.41,2.67 z"
   id="path5708" />
				</g>
				<g
   id="g5714">
					<path
   class="st9"
   d="m 114.09,149.34 c 1.57,0.95 1.53,1.28 1.57,4.85 0.04,3.57 0,12.31 0,17.27 0,4.96 4.1,11.83 14.12,11.74 10.02,-0.1 12.9,-7.62 13.1,-12.24 0.2,-4.62 0,-18.03 0,-19 0,-0.97 0.34,-1.84 1.25,-2.63 -0.49,0 -4.04,0 -5.33,0 0.4,0.82 1.46,0.92 1.48,4.52 0.02,3.6 0,12.86 0,16.41 0,3.55 -2.16,10.07 -9.38,10.07 -7.22,0 -9.64,-5.85 -9.64,-9.91 0,-4.06 0,-17.1 0,-18.5 0,-1.41 1.05,-2.34 1.55,-2.59 -1.17,0.01 -8.72,0.01 -8.72,0.01 z"
   id="path5712" />
				</g>
				<g
   id="g5718">
					<path
   class="st9"
   d="m 165.99,149.73 c 0,1 0,4.08 0,5.2 -1.62,-2.12 -3.19,-4.62 -6.97,-4.5 -3.78,0.12 -6.89,2.31 -6.89,5.54 0,7.28 15.55,6.62 15.55,17.01 -0.27,9.32 -9.82,10.2 -11.99,10.23 -2.17,0.03 -6.1,-0.48 -7.46,-1.39 0,-1.42 0,-3.47 0,-5.35 0.66,1.75 2.75,4.77 7.04,4.71 4.29,-0.06 7.22,-2.33 7.1,-6.43 -0.29,-10.43 -14.68,-4.78 -15.3,-17.65 -0.26,-6.65 8.66,-8.97 12.03,-8.97 3.37,0.01 6.89,1.6 6.89,1.6 z"
   id="path5716" />
				</g>
				<g
   id="g5722">
					<path
   class="st9"
   d="m 170.82,149.35 c 0,0 0,3.97 0,4.77 0.93,-0.64 1.73,-2.46 3.97,-2.53 2.24,-0.07 7.28,0 7.28,0 0,0 0,27.12 0,28.06 0,0.94 -1.54,1.98 -1.54,2.52 0.61,-0.01 7.65,0 8.56,0 -0.05,-0.73 -1.45,-1.01 -1.45,-1.92 0,-0.91 0,-26.85 0,-28.64 6.44,0.29 9.4,-0.34 11.24,2.85 0,-1.81 0,-3.83 0,-5.12 -2.14,0.01 -28.06,0.01 -28.06,0.01 z"
   id="path5720" />
				</g>
			</g>
			<g
   id="g5780">
				<g
   id="g5746">
					<g
   id="g5730">
						<g
   id="g5728">
							<path
   class="st9"
   d="m 109.26,194.69 c -0.07,-0.02 -0.08,-0.13 -0.01,-0.16 0.89,-0.41 1.33,-0.97 1.3,-1.64 -0.05,-1.11 -0.49,-2.18 -2.26,-2.18 -0.94,0 -3.06,0 -3.06,0 0,0 -0.02,7.77 -0.02,8.77 2.84,-0.12 6.06,0.01 6.06,-2.42 0,-1.29 -1.13,-2.09 -2.01,-2.37 z m -2.87,-3.19 c 2.03,-0.13 2.91,0.18 2.97,1.31 0.05,1.19 -0.78,1.59 -1.24,1.61 -0.45,0.02 -1.72,0 -1.72,0 v -2.92 z m -0.06,7.22 c 0,-0.33 0,-3.48 0,-3.48 1.82,-0.15 3.68,-0.21 3.8,1.74 0.04,1.85 -2.57,1.75 -3.8,1.74 z"
   id="path5726" />
						</g>
					</g>
					<g
   id="g5736">
						<g
   id="g5734">
							<path
   class="st9"
   d="m 118.41,190.71 h -0.44 l -3.76,8.47 -0.07,0.16 h 0.77 l 1.26,-2.64 3.43,0.05 1.11,2.44 h 1.21 z m -2.02,5.61 1.46,-3.07 1.58,3.07 z"
   id="path5732" />
						</g>
					</g>
					<g
   id="g5740">
						<polygon
   class="st9"
   points="126.72,192.2 126.72,199.33 125.72,199.33 125.72,190.71 126.97,190.71 133.25,197.22 133.25,190.71 133.95,190.71 133.95,199.59 "
   id="polygon5738" />
					</g>
					<g
   id="g5744">
						<polygon
   class="st9"
   points="139.54,199.29 139.54,195.52 140.17,195.52 144.34,199.51 145.52,199.47 140.98,194.85 144.48,191.1 143.67,190.71 140.36,194.4 139.56,194.52 139.56,190.71 138.4,190.71 138.4,199.29 "
   id="polygon5742" />
					</g>
				</g>
				<g
   id="g5778">
					<g
   id="g5752">
						<g
   id="g5750">
							<path
   class="st9"
   d="m 96.46,205.79 -4.12,8.85 h 0.51 l 1.22,-2.65 h 3.74 c 0,0 0.9,1.92 1.04,2.14 0.14,0.22 0.7,0.35 1.17,0.35 -0.29,-0.45 -3.56,-8.69 -3.56,-8.69 z m -2.14,5.74 1.58,-3.5 1.72,3.5 z"
   id="path5748" />
						</g>
					</g>
					<g
   id="g5758">
						<g
   id="g5756">
							<path
   class="st9"
   d="m 154.29,205.92 -4.12,8.85 h 0.51 l 1.22,-2.65 h 3.73 c 0,0 0.92,1.92 1.06,2.14 0.14,0.22 0.7,0.35 1.17,0.35 -0.3,-0.45 -3.57,-8.69 -3.57,-8.69 z m -2.14,5.74 1.69,-3.64 1.63,3.64 z"
   id="path5754" />
						</g>
					</g>
					<g
   id="g5762">
						<path
   class="st9"
   d="m 104.48,206.05 h 0.84 l 0.03,7.81 h 4.06 c 0,0 0.13,-0.04 0.29,-0.32 0.2,0 0.01,1.08 -0.57,1.07 -0.91,0.04 -4.63,0 -4.63,0 z"
   id="path5760" />
					</g>
					<g
   id="g5766">
						<path
   class="st9"
   d="m 120.13,207.36 c 0,0 0,-0.66 0,-1.13 -0.38,-0.44 -2.04,-0.66 -2.88,-0.63 -1.38,0 -4.76,1.27 -4.84,4.7 -0.11,2.93 3.31,4.7 4.96,4.7 1.08,0 2.93,-0.51 2.93,-1.31 0,-0.8 0,-2.42 0,-2.42 0,0 -1.07,-0.02 -1.26,-0.04 -0.04,1.12 -0.06,1.89 -0.04,2.65 -1.43,1.14 -5.39,0.01 -5.56,-3.54 -0.05,-3.4 3.45,-4.03 4.17,-3.99 0.91,0.04 1.95,0.3 2.52,1.01 z"
   id="path5764" />
					</g>
					<g
   id="g5770">
						<path
   class="st9"
   d="m 124.61,206.04 v 8.61 c 0,0 4.56,-0.06 5.09,-0.06 0.53,0.01 0.63,-0.94 0.31,-1.11 -0.23,0.04 0.21,0.43 -0.79,0.44 -0.7,0 -3.54,0 -3.54,0 v -3.45 h 3.31 v -0.67 h -3.31 c 0,0 0,-2.53 0,-3.05 0.88,-0.02 2.49,0 2.93,0 1.17,-0.06 1.25,0.31 1.24,-0.02 -0.05,-0.69 -0.53,-0.66 -1.09,-0.68 -0.56,-0.02 -4.15,-0.01 -4.15,-0.01 z"
   id="path5768" />
					</g>
					<g
   id="g5774">
						<path
   class="st9"
   d="m 135.04,214.64 h -1.14 c 0,0 0,-7.25 0,-8.61 2.63,0 6.23,-0.22 6.37,2.16 0.01,0.91 -1.61,1.96 -2.24,2.29 0.53,0.58 3.1,4.17 3.1,4.17 0,0 -0.98,0.18 -1.55,-0.5 -0.57,-0.68 -2.8,-3.73 -2.8,-3.73 0,0 2.09,-0.58 1.98,-2.15 -0.22,-1.92 -2.14,-1.51 -3.65,-1.55 -0.07,1.22 -0.07,7.92 -0.07,7.92 z"
   id="path5772" />
					</g>
					<rect
   x="144.88"
   y="206.02"
   class="st9"
   width="1.46"
   height="8.6400003"
   id="rect5776" />
				</g>
			</g>
		</g>
	</g>
</g>
</svg>
