<?xml version="1.0" encoding="utf-8"?>
<!-- Generator: Adobe Illustrator 25.2.0, SVG Export Plug-In . SVG Version: 6.00 Build 0)  -->
<svg version="1.1" id="Layer_1" xmlns="http://www.w3.org/2000/svg" xmlns:xlink="http://www.w3.org/1999/xlink" x="0px" y="0px"
	 viewBox="0 0 250 250" style="enable-background:new 0 0 250 250;" xml:space="preserve">
<style type="text/css">
	.st0{fill:url(#SVGID_1_);}
	.st1{fill:url(#SVGID_2_);}
	.st2{fill:url(#SVGID_3_);}
	.st3{fill:url(#SVGID_4_);}
	.st4{fill:url(#SVGID_5_);}
	.st5{fill:url(#SVGID_6_);}
	.st6{fill:url(#SVGID_7_);}
	.st7{fill:url(#SVGID_8_);}
	.st8{fill:url(#SVGID_9_);}
	.st9{fill:#575656;}
</style>
<g>
	<g>
		<linearGradient id="SVGID_1_" gradientUnits="userSpaceOnUse" x1="123.9629" y1="126.873" x2="125.1569" y2="38.5191">
			<stop  offset="0" style="stop-color:#009897"/>
			<stop  offset="0.2005" style="stop-color:#009392"/>
			<stop  offset="0.4335" style="stop-color:#008585"/>
			<stop  offset="0.6827" style="stop-color:#006E6E"/>
			<stop  offset="0.9418" style="stop-color:#004D4F"/>
			<stop  offset="1" style="stop-color:#004547"/>
		</linearGradient>
		<polygon class="st0" points="77.93,35 77.93,44.23 120.7,44.23 120.7,129.74 129.89,129.74 129.89,44.23 172.35,44.23 172.35,35 
					"/>
		<g>
			<linearGradient id="SVGID_2_" gradientUnits="userSpaceOnUse" x1="96.2272" y1="127.5452" x2="97.263" y2="47.5284">
				<stop  offset="0" style="stop-color:#009897"/>
				<stop  offset="0.2005" style="stop-color:#009392"/>
				<stop  offset="0.4335" style="stop-color:#008585"/>
				<stop  offset="0.6827" style="stop-color:#006E6E"/>
				<stop  offset="0.9418" style="stop-color:#004D4F"/>
				<stop  offset="1" style="stop-color:#004547"/>
			</linearGradient>
			<polygon class="st1" points="77.93,49.36 115.5,49.36 115.5,129.74 110.75,129.74 110.75,54.12 77.93,54.12 			"/>
			<linearGradient id="SVGID_3_" gradientUnits="userSpaceOnUse" x1="93.5686" y1="130.3018" x2="91.7559" y2="50.285">
				<stop  offset="0" style="stop-color:#009897"/>
				<stop  offset="0.2005" style="stop-color:#009392"/>
				<stop  offset="0.4335" style="stop-color:#008585"/>
				<stop  offset="0.6827" style="stop-color:#006E6E"/>
				<stop  offset="0.9418" style="stop-color:#004D4F"/>
				<stop  offset="1" style="stop-color:#004547"/>
			</linearGradient>
			<polygon class="st2" points="77.93,58.88 106.07,58.88 106.07,129.74 101.31,129.74 101.31,63.36 77.93,63.36 			"/>
			<linearGradient id="SVGID_4_" gradientUnits="userSpaceOnUse" x1="87.3266" y1="129.8288" x2="87.3266" y2="59.6522">
				<stop  offset="0" style="stop-color:#009897"/>
				<stop  offset="0.2005" style="stop-color:#009392"/>
				<stop  offset="0.4335" style="stop-color:#008585"/>
				<stop  offset="0.6827" style="stop-color:#006E6E"/>
				<stop  offset="0.9418" style="stop-color:#004D4F"/>
				<stop  offset="1" style="stop-color:#004547"/>
			</linearGradient>
			<polygon class="st3" points="77.93,68.3 96.72,68.3 96.72,129.74 92,129.74 92,73.24 77.93,73.24 			"/>
			<linearGradient id="SVGID_5_" gradientUnits="userSpaceOnUse" x1="82.8403" y1="128.2817" x2="82.5813" y2="68.9813">
				<stop  offset="0" style="stop-color:#009897"/>
				<stop  offset="0.2005" style="stop-color:#009392"/>
				<stop  offset="0.4335" style="stop-color:#008585"/>
				<stop  offset="0.6827" style="stop-color:#006E6E"/>
				<stop  offset="0.9418" style="stop-color:#004D4F"/>
				<stop  offset="1" style="stop-color:#004547"/>
			</linearGradient>
			<polygon class="st4" points="77.93,78.05 87.33,78.05 87.33,129.74 82.63,129.74 82.63,82.37 77.93,82.37 			"/>
		</g>
		<g>
			
				<linearGradient id="SVGID_6_" gradientUnits="userSpaceOnUse" x1="793.2891" y1="127.5452" x2="794.3249" y2="47.5284" gradientTransform="matrix(-1 0 0 1 947.1197 0)">
				<stop  offset="0" style="stop-color:#009897"/>
				<stop  offset="0.2005" style="stop-color:#009392"/>
				<stop  offset="0.4335" style="stop-color:#008585"/>
				<stop  offset="0.6827" style="stop-color:#006E6E"/>
				<stop  offset="0.9418" style="stop-color:#004D4F"/>
				<stop  offset="1" style="stop-color:#004547"/>
			</linearGradient>
			<polygon class="st5" points="172.12,49.36 134.55,49.36 134.55,129.74 139.31,129.74 139.31,54.12 172.12,54.12 			"/>
			
				<linearGradient id="SVGID_7_" gradientUnits="userSpaceOnUse" x1="790.6306" y1="130.3018" x2="788.8179" y2="50.285" gradientTransform="matrix(-1 0 0 1 947.1197 0)">
				<stop  offset="0" style="stop-color:#009897"/>
				<stop  offset="0.2005" style="stop-color:#009392"/>
				<stop  offset="0.4335" style="stop-color:#008585"/>
				<stop  offset="0.6827" style="stop-color:#006E6E"/>
				<stop  offset="0.9418" style="stop-color:#004D4F"/>
				<stop  offset="1" style="stop-color:#004547"/>
			</linearGradient>
			<polygon class="st6" points="172.12,58.88 143.99,58.88 143.99,129.74 148.75,129.74 148.75,63.36 172.12,63.36 			"/>
			
				<linearGradient id="SVGID_8_" gradientUnits="userSpaceOnUse" x1="784.3885" y1="129.8288" x2="784.3885" y2="59.6522" gradientTransform="matrix(-1 0 0 1 947.1197 0)">
				<stop  offset="0" style="stop-color:#009897"/>
				<stop  offset="0.2005" style="stop-color:#009392"/>
				<stop  offset="0.4335" style="stop-color:#008585"/>
				<stop  offset="0.6827" style="stop-color:#006E6E"/>
				<stop  offset="0.9418" style="stop-color:#004D4F"/>
				<stop  offset="1" style="stop-color:#004547"/>
			</linearGradient>
			<polygon class="st7" points="172.12,68.3 153.34,68.3 153.34,129.74 158.06,129.74 158.06,73.24 172.12,73.24 			"/>
			
				<linearGradient id="SVGID_9_" gradientUnits="userSpaceOnUse" x1="779.9022" y1="128.2817" x2="779.6432" y2="68.9813" gradientTransform="matrix(-1 0 0 1 947.1197 0)">
				<stop  offset="0" style="stop-color:#009897"/>
				<stop  offset="0.2005" style="stop-color:#009392"/>
				<stop  offset="0.4335" style="stop-color:#008585"/>
				<stop  offset="0.6827" style="stop-color:#006E6E"/>
				<stop  offset="0.9418" style="stop-color:#004D4F"/>
				<stop  offset="1" style="stop-color:#004547"/>
			</linearGradient>
			<polygon class="st8" points="172.12,78.05 162.73,78.05 162.73,129.74 167.43,129.74 167.43,82.37 172.12,82.37 			"/>
		</g>
	</g>
	<g>
		<g>
			<g>
				<g>
					<path class="st9" d="M51.12,149.17c5.66,0,24.84,0,28.35,0c0,2.72,0,3.87,0,5.51c-1.22-1.15-0.88-3.28-11.11-3.21
						c0,4.16,0,24.44,0,26.36s-0.4,2.99,1.05,4.29c-2.4,0-6.61,0-8.12,0c0.5-0.54,1.47-1.28,1.44-3.36s0-24.07,0-26.96
						c-4.28,0-5.37,0-6.87,0s-3.17,0.67-4.73,2.66C51.12,153.28,51.12,149.17,51.12,149.17z"/>
				</g>
				<g>
					<path class="st9" d="M91.43,182.12c-0.71,0-7.13,0-8.3,0c0.83-0.82,1.63-1.27,1.58-2.23c-0.04-0.96,0-27.06,0-28.1
						c0-1.04-0.75-2.04-1.38-2.21c0.03-0.18,0-0.24,0-0.24s9.56,0,14.52,0s11.03,2.26,11.14,8.58c0,5.72-5.09,7.19-6.27,7.81
						c2.2,3.23,9.35,13.72,11.35,16.39c-6.64,0.36-5.45,2.11-18.67-16.48c3.33,0.04,7.5-1.2,7.17-7.37
						c-0.33-6.18-4.67-7.05-6.73-7.05s-5.82,0-5.82,0s0,26.75,0,28.23S90.89,181.79,91.43,182.12z"/>
				</g>
				<g>
					<path class="st9" d="M114.09,149.34c1.57,0.95,1.53,1.28,1.57,4.85c0.04,3.57,0,12.31,0,17.27c0,4.96,4.1,11.83,14.12,11.74
						c10.02-0.1,12.9-7.62,13.1-12.24s0-18.03,0-19s0.34-1.84,1.25-2.63c-0.49,0-4.04,0-5.33,0c0.4,0.82,1.46,0.92,1.48,4.52
						c0.02,3.6,0,12.86,0,16.41c0,3.55-2.16,10.07-9.38,10.07c-7.22,0-9.64-5.85-9.64-9.91s0-17.1,0-18.5
						c0-1.41,1.05-2.34,1.55-2.59C121.64,149.34,114.09,149.34,114.09,149.34z"/>
				</g>
				<g>
					<path class="st9" d="M165.99,149.73c0,1,0,4.08,0,5.2c-1.62-2.12-3.19-4.62-6.97-4.5s-6.89,2.31-6.89,5.54
						c0,7.28,15.55,6.62,15.55,17.01c-0.27,9.32-9.82,10.2-11.99,10.23s-6.1-0.48-7.46-1.39c0-1.42,0-3.47,0-5.35
						c0.66,1.75,2.75,4.77,7.04,4.71c4.29-0.06,7.22-2.33,7.1-6.43c-0.29-10.43-14.68-4.78-15.3-17.65
						c-0.26-6.65,8.66-8.97,12.03-8.97C162.47,148.14,165.99,149.73,165.99,149.73z"/>
				</g>
				<g>
					<path class="st9" d="M170.82,149.35c0,0,0,3.97,0,4.77c0.93-0.64,1.73-2.46,3.97-2.53c2.24-0.07,7.28,0,7.28,0s0,27.12,0,28.06
						s-1.54,1.98-1.54,2.52c0.61-0.01,7.65,0,8.56,0c-0.05-0.73-1.45-1.01-1.45-1.92s0-26.85,0-28.64c6.44,0.29,9.4-0.34,11.24,2.85
						c0-1.81,0-3.83,0-5.12C196.74,149.35,170.82,149.35,170.82,149.35z"/>
				</g>
			</g>
			<g>
				<g>
					<g>
						<g>
							<path class="st9" d="M109.26,194.69c-0.07-0.02-0.08-0.13-0.01-0.16c0.89-0.41,1.33-0.97,1.3-1.64
								c-0.05-1.11-0.49-2.18-2.26-2.18c-0.94,0-3.06,0-3.06,0s-0.02,7.77-0.02,8.77c2.84-0.12,6.06,0.01,6.06-2.42
								C111.27,195.77,110.14,194.97,109.26,194.69z M106.39,191.5c2.03-0.13,2.91,0.18,2.97,1.31c0.05,1.19-0.78,1.59-1.24,1.61
								c-0.45,0.02-1.72,0-1.72,0V191.5z M106.33,198.72c0-0.33,0-3.48,0-3.48c1.82-0.15,3.68-0.21,3.8,1.74
								C110.17,198.83,107.56,198.73,106.33,198.72z"/>
						</g>
					</g>
					<g>
						<g>
							<path class="st9" d="M118.41,190.71h-0.44l-3.76,8.47l-0.07,0.16h0.77l1.26-2.64l3.43,0.05l1.11,2.44h1.21L118.41,190.71z
								 M116.39,196.32l1.46-3.07l1.58,3.07H116.39z"/>
						</g>
					</g>
					<g>
						<polygon class="st9" points="133.95,190.71 133.95,199.59 126.72,192.2 126.72,199.33 125.72,199.33 125.72,190.71 
							126.97,190.71 133.25,197.22 133.25,190.71 						"/>
					</g>
					<g>
						<polygon class="st9" points="138.4,190.71 138.4,199.29 139.54,199.29 139.54,195.52 140.17,195.52 144.34,199.51 
							145.52,199.47 140.98,194.85 144.48,191.1 143.67,190.71 140.36,194.4 139.56,194.52 139.56,190.71 						"/>
					</g>
				</g>
				<g>
					<g>
						<g>
							<path class="st9" d="M96.46,205.79l-4.12,8.85h0.51l1.22-2.65h3.74c0,0,0.9,1.92,1.04,2.14c0.14,0.22,0.7,0.35,1.17,0.35
								C99.73,214.03,96.46,205.79,96.46,205.79z M94.32,211.53l1.58-3.5l1.72,3.5H94.32z"/>
						</g>
					</g>
					<g>
						<g>
							<path class="st9" d="M154.29,205.92l-4.12,8.85h0.51l1.22-2.65h3.73c0,0,0.92,1.92,1.06,2.14c0.14,0.22,0.7,0.35,1.17,0.35
								C157.56,214.16,154.29,205.92,154.29,205.92z M152.15,211.66l1.69-3.64l1.63,3.64H152.15z"/>
						</g>
					</g>
					<g>
						<path class="st9" d="M104.48,206.05h0.84l0.03,7.81h4.06c0,0,0.13-0.04,0.29-0.32c0.2,0,0.01,1.08-0.57,1.07
							c-0.91,0.04-4.63,0-4.63,0L104.48,206.05z"/>
					</g>
					<g>
						<path class="st9" d="M120.13,207.36c0,0,0-0.66,0-1.13c-0.38-0.44-2.04-0.66-2.88-0.63c-1.38,0-4.76,1.27-4.84,4.7
							c-0.11,2.93,3.31,4.7,4.96,4.7c1.08,0,2.93-0.51,2.93-1.31s0-2.42,0-2.42s-1.07-0.02-1.26-0.04
							c-0.04,1.12-0.06,1.89-0.04,2.65c-1.43,1.14-5.39,0.01-5.56-3.54c-0.05-3.4,3.45-4.03,4.17-3.99
							C118.52,206.39,119.56,206.65,120.13,207.36z"/>
					</g>
					<g>
						<path class="st9" d="M124.61,206.04v8.61c0,0,4.56-0.06,5.09-0.06c0.53,0.01,0.63-0.94,0.31-1.11
							c-0.23,0.04,0.21,0.43-0.79,0.44c-0.7,0-3.54,0-3.54,0v-3.45h3.31v-0.67h-3.31c0,0,0-2.53,0-3.05c0.88-0.02,2.49,0,2.93,0
							c1.17-0.06,1.25,0.31,1.24-0.02c-0.05-0.69-0.53-0.66-1.09-0.68S124.61,206.04,124.61,206.04z"/>
					</g>
					<g>
						<path class="st9" d="M135.04,214.64h-1.14c0,0,0-7.25,0-8.61c2.63,0,6.23-0.22,6.37,2.16c0.01,0.91-1.61,1.96-2.24,2.29
							c0.53,0.58,3.1,4.17,3.1,4.17s-0.98,0.18-1.55-0.5c-0.57-0.68-2.8-3.73-2.8-3.73s2.09-0.58,1.98-2.15
							c-0.22-1.92-2.14-1.51-3.65-1.55C135.04,207.94,135.04,214.64,135.04,214.64z"/>
					</g>
					<rect x="144.88" y="206.02" class="st9" width="1.46" height="8.64"/>
				</g>
			</g>
		</g>
	</g>
</g>
</svg>
